<svg width="320" height="271" viewBox="0 0 320 271" fill="none" xmlns="http://www.w3.org/2000/svg">
<path fill-rule="evenodd" clip-rule="evenodd" d="M320 -9H0V271H320V-9ZM319.5 -8.5H280.5V30.5H319.5V-8.5ZM279.5 -8.5H240.5V30.5H279.5V-8.5ZM200.5 -8.5H239.5V30.5H200.5V-8.5ZM199.5 -8.5H160.5V30.5H199.5V-8.5ZM120.5 -8.5H159.5V30.5H120.5V-8.5ZM119.5 -8.5H80.5V30.5H119.5V-8.5ZM40.5 -8.5H79.5V30.5H40.5V-8.5ZM39.5 -8.5H0.5V30.5H39.5V-8.5ZM280.5 31.5H319.5V70.5H280.5V31.5ZM279.5 31.5H240.5V70.5H279.5V31.5ZM200.5 31.5H239.5V70.5H200.5V31.5ZM199.5 31.5H160.5V70.5H199.5V31.5ZM120.5 31.5H159.5V70.5H120.5V31.5ZM119.5 31.5H80.5V70.5H119.5V31.5ZM40.5 31.5H79.5V70.5H40.5V31.5ZM39.5 31.5H0.5V70.5H39.5V31.5ZM280.5 71.5H319.5V110.5H280.5V71.5ZM279.5 71.5H240.5V110.5H279.5V71.5ZM200.5 71.5H239.5V110.5H200.5V71.5ZM199.5 71.5H160.5V110.5H199.5V71.5ZM120.5 71.5H159.5V110.5H120.5V71.5ZM119.5 71.5H80.5V110.5H119.5V71.5ZM40.5 71.5H79.5V110.5H40.5V71.5ZM39.5 71.5H0.5V110.5H39.5V71.5ZM280.5 111.5H319.5V150.5H280.5V111.5ZM279.5 111.5H240.5V150.5H279.5V111.5ZM200.5 111.5H239.5V150.5H200.5V111.5ZM199.5 111.5H160.5V150.5H199.5V111.5ZM120.5 111.5H159.5V150.5H120.5V111.5ZM119.5 111.5H80.5V150.5H119.5V111.5ZM40.5 111.5H79.5V150.5H40.5V111.5ZM39.5 111.5H0.5V150.5H39.5V111.5ZM280.5 151.5H319.5V190.5H280.5V151.5ZM279.5 151.5H240.5V190.5H279.5V151.5ZM200.5 151.5H239.5V190.5H200.5V151.5ZM199.5 151.5H160.5V190.5H199.5V151.5ZM120.5 151.5H159.5V190.5H120.5V151.5ZM119.5 151.5H80.5V190.5H119.5V151.5ZM40.5 151.5H79.5V190.5H40.5V151.5ZM39.5 151.5H0.5V190.5H39.5V151.5ZM280.5 191.5H319.5V230.5H280.5V191.5ZM279.5 191.5H240.5V230.5H279.5V191.5ZM200.5 191.5H239.5V230.5H200.5V191.5ZM199.5 191.5H160.5V230.5H199.5V191.5ZM120.5 191.5H159.5V230.5H120.5V191.5ZM119.5 191.5H80.5V230.5H119.5V191.5ZM40.5 191.5H79.5V230.5H40.5V191.5ZM39.5 191.5H0.5V230.5H39.5V191.5ZM280.5 231.5H319.5V270.5H280.5V231.5ZM279.5 231.5H240.5V270.5H279.5V231.5ZM200.5 231.5H239.5V270.5H200.5V231.5ZM199.5 231.5H160.5V270.5H199.5V231.5ZM120.5 231.5H159.5V270.5H120.5V231.5ZM119.5 231.5H80.5V270.5H119.5V231.5ZM40.5 231.5H79.5V270.5H40.5V231.5ZM39.5 231.5H0.5V270.5H39.5V231.5Z" fill="url(#paint0_linear_2317_63707)"/>
<defs>
<linearGradient id="paint0_linear_2317_63707" x1="0" y1="-9" x2="320" y2="-9" gradientUnits="userSpaceOnUse">
<stop stop-color="#30324F"/>
<stop offset="1" stop-color="#232439"/>
</linearGradient>
</defs>
</svg>
