<svg width="236" height="134" viewBox="0 0 236 134" fill="none" xmlns="http://www.w3.org/2000/svg">
<g filter="url(#filter0_f_2504_504)">
<path d="M28.3966 19.8071C28.3966 16.9608 29.23 14.3966 30.8967 12.1144C32.5891 9.83227 34.8841 8.05014 37.7816 6.76804C40.7048 5.46029 43.9358 4.80641 47.4744 4.80641C50.654 4.80641 53.5259 5.31925 56.0901 6.34494C58.6544 7.34499 60.757 8.76813 62.3981 10.6144C64.0392 12.435 65.129 14.5761 65.6675 17.0377H55.8209C55.4363 16.012 54.7824 15.1274 53.8593 14.3838C52.9618 13.6145 51.9489 13.0375 50.8207 12.6529C49.6924 12.2683 48.5898 12.076 47.5128 12.076C46 12.076 44.5255 12.3837 43.0896 12.9991C41.6793 13.6145 40.5254 14.512 39.6279 15.6915C38.756 16.8454 38.3201 18.2173 38.3201 19.8071C38.3201 21.3969 38.756 22.7816 39.6279 23.9611C40.4997 25.115 41.628 25.9996 43.0126 26.6151C44.423 27.2048 45.923 27.4997 47.5128 27.4997C49.2821 27.4997 50.9104 27.0766 52.3977 26.2304C53.9106 25.3842 55.026 24.1791 55.744 22.6149H65.629C65.0649 25.0509 63.9623 27.192 62.3212 29.0382C60.6801 30.8588 58.5902 32.2692 56.0517 33.2692C53.5131 34.2692 50.654 34.7693 47.4744 34.7693C43.9614 34.7693 40.7433 34.1154 37.8201 32.8076C34.9225 31.4999 32.6276 29.7049 30.9352 27.4228C29.2428 25.1406 28.3966 22.6021 28.3966 19.8071ZM78.1581 16.6915C80.2095 14.435 83.4532 13.076 87.8893 12.6144V19.307H82.7737C81.1839 19.307 80.03 19.9096 79.312 21.1148C78.594 22.2944 78.235 23.8457 78.235 25.7689V34H69.3885V13.0375H77.4273L78.1581 16.6915ZM124.019 13.0375L111.095 38.731C110.249 40.4234 108.608 41.5131 106.172 42.0004C103.761 42.4876 101.043 42.7312 98.0175 42.7312V35.6924C99.4791 35.6924 100.492 35.6026 101.056 35.4231C101.62 35.2436 101.902 34.9872 101.902 34.6539C101.902 34.5513 101.851 34.3718 101.748 34.1154L90.9402 13.0375H100.402L107.556 28.5382L114.557 13.0375H124.019ZM156.211 23.9996C156.16 25.8202 155.699 27.551 154.827 29.1921C153.981 30.8332 152.788 32.1666 151.25 33.1923C149.711 34.1923 147.967 34.6923 146.019 34.6923C141.583 34.6923 138.275 33.6923 136.095 31.6922V41.308H127.249V13.0375H135.364L135.864 15.73C138.018 13.5247 141.403 12.4734 146.019 12.576C147.993 12.576 149.737 13.0632 151.25 14.0376C152.788 15.012 153.993 16.3454 154.865 18.0378C155.737 19.7301 156.186 21.6277 156.211 23.7303V23.8457V23.9996ZM141.595 29.4613C143.39 29.4613 144.775 28.91 145.749 27.8074C146.749 26.6792 147.275 25.3458 147.326 23.8072C147.275 22.0379 146.762 20.5892 145.788 19.4609C144.839 18.307 143.442 17.7301 141.595 17.7301C140.544 17.7301 139.595 17.9993 138.749 18.5378C137.929 19.0506 137.275 19.7558 136.787 20.6533C136.326 21.5251 136.095 22.461 136.095 23.4611V23.538C136.095 25.333 136.595 26.7689 137.595 27.8459C138.621 28.9229 139.954 29.4613 141.595 29.4613ZM172.256 13.0375H176.256V19.0763H172.256V34H163.409V19.0763H159.217V13.0375H163.409V8.49888L172.256 4.9218V13.0375ZM193.377 12.1529C196.146 12.1529 198.646 12.6401 200.877 13.6145C203.108 14.5889 204.852 15.9479 206.108 17.6916C207.365 19.4096 207.993 21.3456 207.993 23.4995C207.993 25.6278 207.352 27.5638 206.07 29.3075C204.813 31.0255 203.07 32.3717 200.839 33.3461C198.633 34.3205 196.146 34.8077 193.377 34.8077C190.71 34.8077 188.21 34.3205 185.876 33.3461C183.543 32.3461 181.671 30.987 180.261 29.269C178.876 27.5254 178.184 25.6022 178.184 23.4995C178.184 21.3712 178.876 19.4481 180.261 17.7301C181.671 15.9864 183.53 14.6274 185.838 13.653C188.171 12.6529 190.684 12.1529 193.377 12.1529ZM193.377 29.3075C194.402 29.3075 195.351 29.0895 196.223 28.6536C197.121 28.2177 197.839 27.5638 198.377 26.692C198.916 25.7945 199.185 24.7304 199.185 23.4995C199.185 22.2687 198.916 21.2174 198.377 20.3456C197.839 19.4481 197.121 18.7814 196.223 18.3455C195.351 17.9096 194.402 17.6916 193.377 17.6916C192.377 17.6916 191.39 17.9224 190.415 18.3839C189.466 18.8198 188.684 19.4737 188.069 20.3456C187.453 21.2174 187.146 22.2687 187.146 23.4995C187.146 24.7304 187.453 25.7817 188.069 26.6535C188.684 27.5254 189.466 28.1921 190.415 28.6536C191.39 29.0895 192.377 29.3075 193.377 29.3075Z" fill="url(#paint0_linear_2504_504)"/>
</g>
<path d="M30.8967 11.7027L30.3818 11.3208L30.379 11.3246L30.8967 11.7027ZM37.7816 6.35627L38.041 6.9425L38.0434 6.94143L37.7816 6.35627ZM56.0901 5.93317L55.8521 6.52839L55.8572 6.53041L56.0901 5.93317ZM62.3981 10.2026L61.919 10.6285L61.922 10.6318L62.3981 10.2026ZM65.6675 16.6259V17.267H66.4639L66.2937 16.489L65.6675 16.6259ZM55.8209 16.6259L55.2207 16.851L55.3766 17.267H55.8209V16.6259ZM53.8593 13.972L53.4421 14.4587L53.4495 14.4651L53.4571 14.4712L53.8593 13.972ZM50.8207 12.2411L50.6138 12.8479L50.8207 12.2411ZM43.0896 12.5873L42.837 11.9981L42.8332 11.9998L43.0896 12.5873ZM39.6279 15.2797L39.1177 14.8916L39.1164 14.8933L39.6279 15.2797ZM39.6279 23.5493L39.1123 23.9304L39.1164 23.9358L39.6279 23.5493ZM43.0126 26.2033L42.7523 26.7891L42.7588 26.792L42.7653 26.7947L43.0126 26.2033ZM52.3977 25.8187L52.0847 25.2592L52.0807 25.2615L52.3977 25.8187ZM55.744 22.2031V21.5621H55.3329L55.1614 21.9357L55.744 22.2031ZM65.629 22.2031L66.2535 22.3477L66.4355 21.5621H65.629V22.2031ZM62.3212 28.6265L62.7974 29.0557L62.8003 29.0524L62.3212 28.6265ZM56.0517 32.8574L55.8167 32.261L56.0517 32.8574ZM37.8201 32.3959L37.5564 32.9802L37.5583 32.981L37.8201 32.3959ZM30.9352 27.011L30.4203 27.3929L30.9352 27.011ZM29.0377 19.3953C29.0377 16.6839 29.8285 14.2523 31.4144 12.0807L30.379 11.3246C28.6315 13.7173 27.7556 16.4141 27.7556 19.3953H29.0377ZM31.4116 12.0845C33.0306 9.90136 35.233 8.18501 38.041 6.94249L37.5223 5.77003C34.5352 7.09173 32.1476 8.93964 30.3818 11.3208L31.4116 12.0845ZM38.0434 6.94143C40.876 5.67423 44.0164 5.03569 47.4744 5.03569V3.75358C43.8551 3.75358 40.5337 4.4228 37.5199 5.7711L38.0434 6.94143ZM47.4744 5.03569C50.5847 5.03569 53.3741 5.5372 55.8521 6.52837L56.3282 5.33796C53.6777 4.27777 50.7234 3.75358 47.4744 3.75358V5.03569ZM55.8572 6.53041C58.3379 7.49788 60.3526 8.86634 61.919 10.6285L62.8772 9.77669C61.1614 7.84636 58.9708 6.36855 56.3231 5.33593L55.8572 6.53041ZM61.922 10.6318C63.4863 12.3673 64.5258 14.4069 65.0412 16.7629L66.2937 16.489C65.7321 13.9217 64.5921 11.6791 62.8743 9.77337L61.922 10.6318ZM65.6675 15.9849H55.8209V17.267H65.6675V15.9849ZM56.4211 16.4009C55.9929 15.2589 55.2663 14.2823 54.2614 13.4728L53.4571 14.4712C54.2985 15.1489 54.8796 15.9416 55.2207 16.851L56.4211 16.4009ZM54.2765 13.4853C53.3166 12.6625 52.2322 12.0451 51.0275 11.6344L50.6138 12.8479C51.6656 13.2065 52.607 13.7429 53.4421 14.4587L54.2765 13.4853ZM51.0275 11.6344C49.8397 11.2294 48.6673 11.0231 47.5128 11.0231V12.3052C48.5123 12.3052 49.5451 12.4836 50.6138 12.8479L51.0275 11.6344ZM47.5128 11.0231C45.9103 11.0231 44.3501 11.3496 42.837 11.9981L43.3421 13.1765C44.7009 12.5942 46.0896 12.3052 47.5128 12.3052V11.0231ZM42.8332 11.9998C41.3266 12.6572 40.084 13.6216 39.1177 14.8916L40.1381 15.6679C40.9667 14.5788 42.0319 13.7483 43.346 13.1749L42.8332 11.9998ZM39.1164 14.8933C38.1521 16.1696 37.6791 17.6806 37.6791 19.3953H38.9612C38.9612 17.9303 39.36 16.6977 40.1394 15.6662L39.1164 14.8933ZM37.6791 19.3953C37.6791 21.1101 38.152 22.6311 39.1124 23.9304L40.1434 23.1683C39.3601 22.1085 38.9612 20.8601 38.9612 19.3953H37.6791ZM39.1164 23.9358C40.0569 25.1805 41.2733 26.1318 42.7523 26.7891L43.273 25.6175C41.9827 25.044 40.9426 24.2259 40.1394 23.1629L39.1164 23.9358ZM42.7653 26.7947C44.2571 27.4186 45.8416 27.729 47.5128 27.729V26.4469C46.0045 26.4469 44.5888 26.1676 43.26 25.6119L42.7653 26.7947ZM47.5128 27.729C49.3894 27.729 51.1275 27.2789 52.7147 26.3758L52.0807 25.2615C50.6934 26.0508 49.1749 26.4469 47.5128 26.4469V27.729ZM52.7106 26.3781C54.3411 25.4661 55.5515 24.1591 56.3266 22.4705L55.1614 21.9357C54.5005 23.3754 53.48 24.4788 52.0847 25.2592L52.7106 26.3781ZM55.744 22.8442H65.629V21.5621H55.744V22.8442ZM65.0045 22.0585C64.4642 24.3914 63.411 26.4355 61.8421 28.2006L62.8003 29.0524C64.5135 27.125 65.6655 24.8868 66.2535 22.3477L65.0045 22.0585ZM61.845 28.1973C60.2775 29.9362 58.2736 31.2931 55.8167 32.261L56.2866 33.4539C58.9069 32.4216 61.0827 30.9579 62.7973 29.0557L61.845 28.1973ZM55.8167 32.261C53.3643 33.2271 50.5867 33.7164 47.4744 33.7164V34.9985C50.7213 34.9985 53.6619 34.4878 56.2866 33.4539L55.8167 32.261ZM47.4744 33.7164C44.0428 33.7164 40.915 33.0782 38.0819 31.8107L37.5583 32.981C40.5716 34.3291 43.88 34.9985 47.4744 34.9985V33.7164ZM38.0838 31.8116C35.2738 30.5433 33.0699 28.8135 31.4501 26.6292L30.4203 27.3929C32.1852 29.7729 34.5713 31.6329 37.5564 32.9802L38.0838 31.8116ZM31.4501 26.6292C29.8382 24.4555 29.0377 22.0503 29.0377 19.3953H27.7556C27.7556 22.3302 28.6474 25.0022 30.4203 27.3929L31.4501 26.6292ZM78.1581 16.2798L77.5295 16.4055L77.7785 17.6504L78.6325 16.711L78.1581 16.2798ZM87.8893 12.2027H88.5304V11.4915L87.823 11.5651L87.8893 12.2027ZM87.8893 18.8953V19.5363H88.5304V18.8953H87.8893ZM79.312 20.703L79.8596 21.0364L79.8627 21.0311L79.312 20.703ZM78.235 33.5882V34.2293H78.8761V33.5882H78.235ZM69.3885 33.5882H68.7474V34.2293H69.3885V33.5882ZM69.3885 12.6258V11.9847H68.7474V12.6258H69.3885ZM77.4273 12.6258L78.0559 12.5L77.9529 11.9847H77.4273V12.6258ZM78.6325 16.711C80.5379 14.615 83.6051 13.2929 87.9557 12.8403L87.823 11.5651C83.3013 12.0355 79.881 13.4316 77.6838 15.8486L78.6325 16.711ZM87.2483 12.2027V18.8953H88.5304V12.2027H87.2483ZM87.8893 18.2542H82.7737V19.5363H87.8893V18.2542ZM82.7737 18.2542C80.994 18.2542 79.6122 18.9467 78.7613 20.375L79.8627 21.0311C80.4478 20.0491 81.3738 19.5363 82.7737 19.5363V18.2542ZM78.7644 20.3697C77.9658 21.6817 77.594 23.3605 77.594 25.3571H78.8761C78.8761 23.5073 79.2222 22.0835 79.8596 21.0364L78.7644 20.3697ZM77.594 25.3571V33.5882H78.8761V25.3571H77.594ZM78.235 32.9472H69.3885V34.2293H78.235V32.9472ZM70.0295 33.5882V12.6258H68.7474V33.5882H70.0295ZM69.3885 13.2668H77.4273V11.9847H69.3885V13.2668ZM76.7987 12.7515L77.5295 16.4055L78.7867 16.1541L78.0559 12.5L76.7987 12.7515ZM124.019 12.6258L124.591 12.9138L125.059 11.9847H124.019V12.6258ZM111.095 38.3192L110.522 38.0311L110.522 38.0325L111.095 38.3192ZM106.172 41.5886L106.046 40.96L106.045 40.9602L106.172 41.5886ZM98.0175 42.3194H97.3764V42.9604H98.0175V42.3194ZM98.0175 35.2806V34.6396H97.3764V35.2806H98.0175ZM101.056 35.0114L101.25 35.6222L101.056 35.0114ZM101.748 33.7036L102.344 33.4655L102.332 33.4377L102.319 33.4111L101.748 33.7036ZM90.9402 12.6258V11.9847H89.8911L90.3698 12.9183L90.9402 12.6258ZM100.402 12.6258L100.984 12.3571L100.812 11.9847H100.402V12.6258ZM107.556 28.1264L106.974 28.3951L107.563 29.6699L108.141 28.3903L107.556 28.1264ZM114.557 12.6258V11.9847H114.143L113.972 12.3619L114.557 12.6258ZM123.446 12.3377L110.522 38.0311L111.668 38.6073L124.591 12.9138L123.446 12.3377ZM110.522 38.0325C109.79 39.4956 108.354 40.4984 106.046 40.96L106.297 42.2172C108.862 41.7043 110.707 40.5276 111.668 38.6059L110.522 38.0325ZM106.045 40.9602C103.684 41.4373 101.01 41.6783 98.0175 41.6783V42.9604C101.077 42.9604 103.838 42.7142 106.299 42.2169L106.045 40.9602ZM98.6585 42.3194V35.2806H97.3764V42.3194H98.6585ZM98.0175 35.9217C99.4763 35.9217 100.581 35.8353 101.25 35.6222L100.862 34.4005C100.403 34.5464 99.4818 34.6396 98.0175 34.6396V35.9217ZM101.25 35.6222C101.851 35.4313 102.543 35.0373 102.543 34.2421H101.261C101.261 34.2317 101.264 34.2155 101.271 34.2011C101.277 34.1887 101.279 34.1926 101.259 34.2101C101.214 34.2515 101.1 34.3248 100.862 34.4005L101.25 35.6222ZM102.543 34.2421C102.543 34.1012 102.511 33.9628 102.48 33.8544C102.446 33.7363 102.4 33.6054 102.344 33.4655L101.153 33.9417C101.2 34.0582 101.23 34.1453 101.247 34.2067C101.256 34.237 101.26 34.256 101.262 34.2654C101.264 34.2765 101.261 34.2667 101.261 34.2421H102.543ZM102.319 33.4111L91.5107 12.3333L90.3698 12.9183L101.178 33.9961L102.319 33.4111ZM90.9402 13.2668H100.402V11.9847H90.9402V13.2668ZM99.8201 12.8944L106.974 28.3951L108.138 27.8578L100.984 12.3571L99.8201 12.8944ZM108.141 28.3903L115.141 12.8896L113.972 12.3619L106.972 27.8626L108.141 28.3903ZM114.557 13.2668H124.019V11.9847H114.557V13.2668ZM156.211 23.5878L156.852 23.6058L156.852 23.5968V23.5878H156.211ZM154.827 28.7803L154.261 28.4795L154.257 28.4865L154.827 28.7803ZM151.25 32.7805L151.599 33.318L151.605 33.3139L151.25 32.7805ZM136.095 31.2804L136.529 30.8081L135.454 29.8221V31.2804H136.095ZM136.095 40.8962V41.5373H136.736V40.8962H136.095ZM127.249 40.8962H126.608V41.5373H127.249V40.8962ZM127.249 12.6258V11.9847H126.608V12.6258H127.249ZM135.364 12.6258L135.995 12.5087L135.897 11.9847H135.364V12.6258ZM135.864 15.3182L135.234 15.4352L135.46 16.65L136.323 15.7661L135.864 15.3182ZM146.019 12.1642L146.004 12.8051L146.012 12.8053H146.019V12.1642ZM151.25 13.6258L150.903 14.1648L150.907 14.1674L151.25 13.6258ZM154.865 17.626L154.295 17.9196V17.9196L154.865 17.626ZM156.211 23.3185H156.853L156.852 23.3107L156.211 23.3185ZM145.749 27.3956L145.27 26.9704L145.269 26.9711L145.749 27.3956ZM147.326 23.3955L147.967 23.4168L147.968 23.3969L147.967 23.3769L147.326 23.3955ZM145.788 19.0491L145.293 19.4563L145.298 19.4623L145.303 19.4681L145.788 19.0491ZM138.749 18.126L139.089 18.6696L139.093 18.6668L138.749 18.126ZM136.787 20.2415L136.224 19.9356L136.221 19.9415L136.787 20.2415ZM137.595 27.4341L137.125 27.8704L137.131 27.8762L137.595 27.4341ZM155.571 23.5697C155.522 25.2895 155.087 26.9239 154.261 28.4796L155.393 29.0811C156.31 27.3546 156.798 25.5272 156.852 23.6058L155.571 23.5697ZM154.257 28.4865C153.461 30.0307 152.342 31.2817 150.894 32.2471L151.605 33.3139C153.234 32.2279 154.5 30.8121 155.396 29.0741L154.257 28.4865ZM150.9 32.243C149.472 33.1712 147.852 33.6395 146.019 33.6395V34.9216C148.083 34.9216 149.95 34.3899 151.599 33.318L150.9 32.243ZM146.019 33.6395C141.665 33.6395 138.543 32.6564 136.529 30.8081L135.662 31.7528C138.007 33.9047 141.5 34.9216 146.019 34.9216V33.6395ZM135.454 31.2804V40.8962H136.736V31.2804H135.454ZM136.095 40.2552H127.249V41.5373H136.095V40.2552ZM127.89 40.8962V12.6258H126.608V40.8962H127.89ZM127.249 13.2668H135.364V11.9847H127.249V13.2668ZM134.734 12.7428L135.234 15.4352L136.495 15.2011L135.995 12.5087L134.734 12.7428ZM136.323 15.7661C138.302 13.7397 141.478 12.7045 146.004 12.8051L146.033 11.5233C141.328 11.4188 137.734 12.4863 135.406 14.8703L136.323 15.7661ZM146.019 12.8053C147.882 12.8053 149.503 13.2634 150.903 14.1648L151.597 13.0869C149.97 12.0394 148.104 11.5232 146.019 11.5232V12.8053ZM150.907 14.1674C152.344 15.0779 153.473 16.3238 154.295 17.9196L155.435 17.3324C154.513 15.5435 153.232 14.1225 151.593 13.0842L150.907 14.1674ZM154.295 17.9196C155.117 19.5146 155.546 21.3126 155.57 23.3264L156.852 23.3107C156.826 21.1191 156.357 19.1222 155.435 17.3324L154.295 17.9196ZM155.57 23.3185V23.4339H156.852V23.3185H155.57ZM155.57 23.4339V23.5878H156.852V23.4339H155.57ZM141.595 29.6906C143.53 29.6906 145.107 29.0902 146.23 27.8202L145.269 26.9711C144.443 27.9063 143.25 28.4085 141.595 28.4085V29.6906ZM146.229 27.8209C147.33 26.5783 147.911 25.1012 147.967 23.4168L146.686 23.3741C146.639 24.7668 146.168 25.9565 145.27 26.9704L146.229 27.8209ZM147.967 23.3769C147.912 21.489 147.361 19.89 146.273 18.6301L145.303 19.4681C146.163 20.4648 146.638 21.7634 146.686 23.414L147.967 23.3769ZM146.283 18.642C145.184 17.3056 143.584 16.6772 141.595 16.6772V17.9593C143.299 17.9593 144.494 18.4849 145.293 19.4563L146.283 18.642ZM141.595 16.6772C140.428 16.6772 139.359 16.978 138.405 17.5852L139.093 18.6668C139.832 18.197 140.66 17.9593 141.595 17.9593V16.6772ZM138.409 17.5824C137.49 18.1571 136.761 18.9465 136.224 19.9356L137.351 20.5473C137.788 19.7415 138.367 19.1206 139.089 18.6696L138.409 17.5824ZM136.221 19.9415C135.71 20.9071 135.454 21.9462 135.454 23.0493H136.736C136.736 22.1523 136.942 21.3195 137.354 20.5414L136.221 19.9415ZM135.454 23.0493V23.1262H136.736V23.0493H135.454ZM135.454 23.1262C135.454 25.0453 135.992 26.6498 137.125 27.8703L138.065 26.9979C137.198 26.0645 136.736 24.7971 136.736 23.1262H135.454ZM137.131 27.8762C138.291 29.0941 139.799 29.6906 141.595 29.6906V28.4085C140.11 28.4085 138.951 27.9281 138.059 26.992L137.131 27.8762ZM172.256 12.6258H171.615V13.2668H172.256V12.6258ZM176.256 12.6258H176.897V11.9847H176.256V12.6258ZM176.256 18.6645V19.3055H176.897V18.6645H176.256ZM172.256 18.6645V18.0234H171.615V18.6645H172.256ZM172.256 33.5882V34.2293H172.897V33.5882H172.256ZM163.409 33.5882H162.768V34.2293H163.409V33.5882ZM163.409 18.6645H164.05V18.0234H163.409V18.6645ZM159.217 18.6645H158.576V19.3055H159.217V18.6645ZM159.217 12.6258V11.9847H158.576V12.6258H159.217ZM163.409 12.6258V13.2668H164.05V12.6258H163.409ZM163.409 8.08711L163.169 7.4928L162.768 7.65484V8.08711H163.409ZM172.256 4.51003H172.897V3.55934L172.015 3.91572L172.256 4.51003ZM172.256 13.2668H176.256V11.9847H172.256V13.2668ZM175.615 12.6258V18.6645H176.897V12.6258H175.615ZM176.256 18.0234H172.256V19.3055H176.256V18.0234ZM171.615 18.6645V33.5882H172.897V18.6645H171.615ZM172.256 32.9472H163.409V34.2293H172.256V32.9472ZM164.05 33.5882V18.6645H162.768V33.5882H164.05ZM163.409 18.0234H159.217V19.3055H163.409V18.0234ZM159.858 18.6645V12.6258H158.576V18.6645H159.858ZM159.217 13.2668H163.409V11.9847H159.217V13.2668ZM164.05 12.6258V8.08711H162.768V12.6258H164.05ZM163.649 8.68142L172.496 5.10434L172.015 3.91572L163.169 7.4928L163.649 8.68142ZM171.615 4.51003V12.6258H172.897V4.51003H171.615ZM200.877 13.2027L201.134 12.6153L200.877 13.2027ZM206.108 17.2798L205.588 17.6546L205.591 17.6582L206.108 17.2798ZM206.07 28.8957L205.553 28.516L205.552 28.5173L206.07 28.8957ZM200.839 32.9344L200.582 32.3469L200.58 32.348L200.839 32.9344ZM185.876 32.9344L185.624 33.5236L185.629 33.5259L185.876 32.9344ZM180.261 28.8573L179.759 29.256L179.765 29.264L180.261 28.8573ZM180.261 17.3183L179.762 16.9151L179.762 16.916L180.261 17.3183ZM185.838 13.2412L186.087 13.8318L186.091 13.8304L185.838 13.2412ZM196.223 28.2418L195.943 27.6652L195.936 27.6685L196.223 28.2418ZM198.377 26.2802L198.922 26.6171L198.927 26.61L198.377 26.2802ZM198.377 19.9338L197.827 20.2636L197.832 20.2707L198.377 19.9338ZM196.223 17.9337L195.936 18.5071L195.943 18.5103L196.223 17.9337ZM190.415 17.9722L190.683 18.5547L190.69 18.5515L190.415 17.9722ZM188.069 19.9338L187.545 19.5641V19.5641L188.069 19.9338ZM188.069 26.2418L187.545 26.6114L188.069 26.2418ZM190.415 28.2418L190.135 28.8183L190.144 28.8228L190.153 28.827L190.415 28.2418ZM193.377 12.3822C196.07 12.3822 198.481 12.8557 200.621 13.7902L201.134 12.6153C198.812 11.601 196.222 11.1001 193.377 11.1001V12.3822ZM200.621 13.7902C202.76 14.7248 204.407 16.016 205.588 17.6546L206.628 16.905C205.296 15.0563 203.456 13.6294 201.134 12.6153L200.621 13.7902ZM205.591 17.6582C206.766 19.265 207.352 21.0681 207.352 23.0878H208.634C208.634 20.7995 207.963 18.7307 206.626 16.9014L205.591 17.6582ZM207.352 23.0878C207.352 25.077 206.756 26.8804 205.553 28.516L206.586 29.2755C207.948 27.4237 208.634 25.3552 208.634 23.0878H207.352ZM205.552 28.5173C204.372 30.1313 202.724 31.4112 200.582 32.3469L201.095 33.5218C203.415 32.5087 205.255 31.0962 206.587 29.2741L205.552 28.5173ZM200.58 32.348C198.467 33.2813 196.07 33.7549 193.377 33.7549V35.037C196.222 35.037 198.8 34.5362 201.098 33.5207L200.58 32.348ZM193.377 33.7549C190.79 33.7549 188.374 33.2828 186.124 32.3428L185.629 33.5259C188.045 34.5347 190.63 35.037 193.377 35.037V33.7549ZM186.129 32.3451C183.876 31.3798 182.093 30.0785 180.756 28.4505L179.765 29.264C181.25 31.0721 183.21 32.4888 185.624 33.5236L186.129 32.3451ZM180.763 28.4586C179.463 26.8211 178.825 25.0367 178.825 23.0878H177.543C177.543 25.3441 178.29 27.406 179.759 29.2559L180.763 28.4586ZM178.825 23.0878C178.825 21.1116 179.463 19.3292 180.76 17.7206L179.762 16.916C178.289 18.7435 177.543 20.8074 177.543 23.0878H178.825ZM180.759 17.7214C182.096 16.069 183.865 14.77 186.087 13.8318L185.589 12.6506C183.195 13.6612 181.247 15.0802 179.762 16.9151L180.759 17.7214ZM186.091 13.8304C188.339 12.8666 190.766 12.3822 193.377 12.3822V11.1001C190.603 11.1001 188.003 11.6157 185.585 12.652L186.091 13.8304ZM193.377 29.5368C194.497 29.5368 195.544 29.298 196.51 28.8152L195.936 27.6685C195.158 28.0575 194.308 28.2547 193.377 28.2547V29.5368ZM196.503 28.8185C197.513 28.3279 198.322 27.5894 198.922 26.6171L197.832 25.9433C197.355 26.7147 196.728 27.2839 195.943 27.6652L196.503 28.8185ZM198.927 26.61C199.535 25.5966 199.826 24.4141 199.826 23.0878H198.544C198.544 24.2231 198.296 25.1689 197.827 25.9504L198.927 26.61ZM199.826 23.0878C199.826 21.762 199.535 20.5887 198.922 19.5969L197.832 20.2707C198.296 21.0225 198.544 21.9518 198.544 23.0878H199.826ZM198.927 19.604C198.328 18.6053 197.518 17.8501 196.503 17.3571L195.943 18.5103C196.723 18.8891 197.35 19.4673 197.827 20.2636L198.927 19.604ZM196.51 17.3603C195.544 16.8776 194.497 16.6388 193.377 16.6388V17.9209C194.308 17.9209 195.158 18.118 195.936 18.5071L196.51 17.3603ZM193.377 16.6388C192.275 16.6388 191.194 16.8939 190.141 17.3928L190.69 18.5515C191.585 18.1273 192.479 17.9209 193.377 17.9209V16.6388ZM190.148 17.3896C189.094 17.8738 188.224 18.6021 187.545 19.5641L188.593 20.3035C189.144 19.5218 189.839 18.9424 190.683 18.5547L190.148 17.3896ZM187.545 19.5641C186.842 20.5601 186.505 21.7455 186.505 23.0878H187.787C187.787 21.9683 188.065 21.0512 188.593 20.3035L187.545 19.5641ZM186.505 23.0878C186.505 24.43 186.842 25.6155 187.545 26.6114L188.593 25.8721C188.065 25.1244 187.787 24.2072 187.787 23.0878H186.505ZM187.545 26.6114C188.222 27.5705 189.088 28.3089 190.135 28.8183L190.696 27.6654C189.845 27.2517 189.146 26.6566 188.593 25.8721L187.545 26.6114ZM190.153 28.827C191.204 29.2972 192.281 29.5368 193.377 29.5368V28.2547C192.473 28.2547 191.575 28.0583 190.677 27.6567L190.153 28.827Z" fill="url(#paint1_linear_2504_504)"/>
<g filter="url(#filter1_i_2504_504)">
<path d="M28.3966 19.8071C28.3966 16.9608 29.23 14.3966 30.8967 12.1144C32.5891 9.83227 34.8841 8.05014 37.7816 6.76804C40.7048 5.46029 43.9358 4.80641 47.4744 4.80641C50.654 4.80641 53.5259 5.31925 56.0901 6.34494C58.6544 7.34499 60.757 8.76813 62.3981 10.6144C64.0392 12.435 65.129 14.5761 65.6675 17.0377H55.8209C55.4363 16.012 54.7824 15.1274 53.8593 14.3838C52.9618 13.6145 51.9489 13.0375 50.8207 12.6529C49.6924 12.2683 48.5898 12.076 47.5128 12.076C46 12.076 44.5255 12.3837 43.0896 12.9991C41.6793 13.6145 40.5254 14.512 39.6279 15.6915C38.756 16.8454 38.3201 18.2173 38.3201 19.8071C38.3201 21.3969 38.756 22.7816 39.6279 23.9611C40.4997 25.115 41.628 25.9996 43.0126 26.6151C44.423 27.2048 45.923 27.4997 47.5128 27.4997C49.2821 27.4997 50.9104 27.0766 52.3977 26.2304C53.9106 25.3842 55.026 24.1791 55.744 22.6149H65.629C65.0649 25.0509 63.9623 27.192 62.3212 29.0382C60.6801 30.8588 58.5902 32.2692 56.0517 33.2692C53.5131 34.2692 50.654 34.7693 47.4744 34.7693C43.9614 34.7693 40.7433 34.1154 37.8201 32.8076C34.9225 31.4999 32.6276 29.7049 30.9352 27.4228C29.2428 25.1406 28.3966 22.6021 28.3966 19.8071ZM78.1581 16.6915C80.2095 14.435 83.4532 13.076 87.8893 12.6144V19.307H82.7737C81.1839 19.307 80.03 19.9096 79.312 21.1148C78.594 22.2944 78.235 23.8457 78.235 25.7689V34H69.3885V13.0375H77.4273L78.1581 16.6915ZM124.019 13.0375L111.095 38.731C110.249 40.4234 108.608 41.5131 106.172 42.0004C103.761 42.4876 101.043 42.7312 98.0175 42.7312V35.6924C99.4791 35.6924 100.492 35.6026 101.056 35.4231C101.62 35.2436 101.902 34.9872 101.902 34.6539C101.902 34.5513 101.851 34.3718 101.748 34.1154L90.9402 13.0375H100.402L107.556 28.5382L114.557 13.0375H124.019ZM156.211 23.9996C156.16 25.8202 155.699 27.551 154.827 29.1921C153.981 30.8332 152.788 32.1666 151.25 33.1923C149.711 34.1923 147.967 34.6923 146.019 34.6923C141.583 34.6923 138.275 33.6923 136.095 31.6922V41.308H127.249V13.0375H135.364L135.864 15.73C138.018 13.5247 141.403 12.4734 146.019 12.576C147.993 12.576 149.737 13.0632 151.25 14.0376C152.788 15.012 153.993 16.3454 154.865 18.0378C155.737 19.7301 156.186 21.6277 156.211 23.7303V23.8457V23.9996ZM141.595 29.4613C143.39 29.4613 144.775 28.91 145.749 27.8074C146.749 26.6792 147.275 25.3458 147.326 23.8072C147.275 22.0379 146.762 20.5892 145.788 19.4609C144.839 18.307 143.442 17.7301 141.595 17.7301C140.544 17.7301 139.595 17.9993 138.749 18.5378C137.929 19.0506 137.275 19.7558 136.787 20.6533C136.326 21.5251 136.095 22.461 136.095 23.4611V23.538C136.095 25.333 136.595 26.7689 137.595 27.8459C138.621 28.9229 139.954 29.4613 141.595 29.4613ZM172.256 13.0375H176.256V19.0763H172.256V34H163.409V19.0763H159.217V13.0375H163.409V8.49888L172.256 4.9218V13.0375ZM193.377 12.1529C196.146 12.1529 198.646 12.6401 200.877 13.6145C203.108 14.5889 204.852 15.9479 206.108 17.6916C207.365 19.4096 207.993 21.3456 207.993 23.4995C207.993 25.6278 207.352 27.5638 206.07 29.3075C204.813 31.0255 203.07 32.3717 200.839 33.3461C198.633 34.3205 196.146 34.8077 193.377 34.8077C190.71 34.8077 188.21 34.3205 185.876 33.3461C183.543 32.3461 181.671 30.987 180.261 29.269C178.876 27.5254 178.184 25.6022 178.184 23.4995C178.184 21.3712 178.876 19.4481 180.261 17.7301C181.671 15.9864 183.53 14.6274 185.838 13.653C188.171 12.6529 190.684 12.1529 193.377 12.1529ZM193.377 29.3075C194.402 29.3075 195.351 29.0895 196.223 28.6536C197.121 28.2177 197.839 27.5638 198.377 26.692C198.916 25.7945 199.185 24.7304 199.185 23.4995C199.185 22.2687 198.916 21.2174 198.377 20.3456C197.839 19.4481 197.121 18.7814 196.223 18.3455C195.351 17.9096 194.402 17.6916 193.377 17.6916C192.377 17.6916 191.39 17.9224 190.415 18.3839C189.466 18.8198 188.684 19.4737 188.069 20.3456C187.453 21.2174 187.146 22.2687 187.146 23.4995C187.146 24.7304 187.453 25.7817 188.069 26.6535C188.684 27.5254 189.466 28.1921 190.415 28.6536C191.39 29.0895 192.377 29.3075 193.377 29.3075Z" fill="url(#paint2_linear_2504_504)"/>
</g>
<g filter="url(#filter2_f_2504_504)">
<path d="M137.706 82.9412H128.013L126.244 81.6334C124.68 82.1975 123.051 82.6206 121.359 82.9027C119.667 83.1848 118.025 83.3258 116.436 83.3258C111.487 83.3258 107.243 82.6719 103.704 81.3642C100.191 80.0564 98.4348 77.8384 98.4348 74.71C98.4348 72.8894 99.2297 71.4919 100.82 70.5175C102.409 69.5175 104.666 68.6585 107.589 67.9405C107.384 67.7867 106.756 67.3123 105.704 66.5174C104.653 65.7225 103.845 64.9019 103.281 64.0557C102.743 63.2095 102.473 62.3633 102.473 61.5171C102.473 59.6709 103.166 58.1708 104.55 57.0169C105.935 55.8374 107.666 54.9912 109.743 54.4784C111.846 53.9655 114.012 53.7091 116.243 53.7091C118.936 53.7091 121.231 54.0681 123.128 54.7861C125.026 55.5041 126.449 56.4272 127.398 57.5554C128.346 58.6837 128.821 59.8632 128.821 61.0941C128.821 62.4274 128.346 63.5813 127.398 64.5557C126.449 65.5045 125.257 66.2994 123.821 66.9405C122.385 67.5815 120.602 68.2226 118.474 68.8636L127.59 75.5562C129.385 73.7613 130.282 71.4663 130.282 68.6713H136.206C136.206 72.7228 134.706 76.0178 131.706 78.5564L137.706 82.9412ZM111.358 61.2094C111.358 62.7223 112.5 64.3762 114.782 66.1712C116.551 65.6071 117.923 64.9404 118.897 64.1711C119.872 63.4018 120.359 62.4018 120.359 61.171C120.359 60.1709 119.987 59.3376 119.243 58.6709C118.525 58.0042 117.41 57.6708 115.897 57.6708C114.512 57.6708 113.41 57.9914 112.589 58.6324C111.769 59.2478 111.358 60.1068 111.358 61.2094ZM116.436 79.2102C118.359 79.2102 120.205 78.9795 121.974 78.5179L111.859 71.0945C110.73 71.6073 109.858 72.1458 109.243 72.7099C108.653 73.2741 108.358 73.9408 108.358 74.71C108.358 75.4537 108.705 76.1716 109.397 76.864C110.115 77.5563 111.089 78.1204 112.32 78.5564C113.551 78.9923 114.923 79.2102 116.436 79.2102ZM76.0479 94.4784V101.363H55.047V105.479H72.817V112.171H55.047V122.941H45.5466V94.4784H76.0479ZM91.5958 101.094C94.3651 101.094 96.8652 101.581 99.0961 102.556C101.327 103.53 103.071 104.889 104.327 106.633C105.584 108.351 106.212 110.287 106.212 112.441C106.212 114.569 105.571 116.505 104.289 118.249C103.032 119.967 101.288 121.313 99.0576 122.287C96.8524 123.262 94.3651 123.749 91.5958 123.749C88.929 123.749 86.4289 123.262 84.0954 122.287C81.762 121.287 79.8901 119.928 78.4798 118.21C77.0951 116.467 76.4028 114.543 76.4028 112.441C76.4028 110.312 77.0951 108.389 78.4798 106.671C79.8901 104.928 81.7492 103.569 84.057 102.594C86.3904 101.594 88.9033 101.094 91.5958 101.094ZM91.5958 118.249C92.6214 118.249 93.5702 118.031 94.442 117.595C95.3395 117.159 96.0575 116.505 96.596 115.633C97.1345 114.736 97.4037 113.672 97.4037 112.441C97.4037 111.21 97.1345 110.159 96.596 109.287C96.0575 108.389 95.3395 107.723 94.442 107.287C93.5702 106.851 92.6214 106.633 91.5958 106.633C90.5957 106.633 89.6085 106.864 88.6341 107.325C87.6853 107.761 86.9032 108.415 86.2878 109.287C85.6724 110.159 85.3647 111.21 85.3647 112.441C85.3647 113.672 85.6724 114.723 86.2878 115.595C86.9032 116.467 87.6853 117.133 88.6341 117.595C89.6085 118.031 90.5957 118.249 91.5958 118.249ZM118.323 105.633C120.374 103.376 123.618 102.017 128.054 101.556V108.248H122.938C121.349 108.248 120.195 108.851 119.477 110.056C118.759 111.236 118.4 112.787 118.4 114.71V122.941H109.553V101.979H117.592L118.323 105.633ZM160.722 113.325H140.221C140.4 114.941 141.003 116.274 142.029 117.326C143.08 118.351 144.503 118.864 146.298 118.864C147.76 118.864 149.054 118.518 150.183 117.826C151.337 117.108 151.914 116.018 151.914 114.556H160.722C160.722 117.531 159.44 119.8 156.875 121.364C154.337 122.928 150.798 123.71 146.26 123.71C143.465 123.71 140.926 123.236 138.644 122.287C136.362 121.339 134.554 120.005 133.22 118.287C131.887 116.543 131.22 114.556 131.22 112.325C131.22 110.069 131.874 108.082 133.182 106.364C134.515 104.62 136.323 103.286 138.605 102.363C140.913 101.415 143.465 100.94 146.26 100.94C149.131 100.94 151.644 101.402 153.798 102.325C155.978 103.248 157.67 104.556 158.875 106.248C160.081 107.915 160.696 109.876 160.722 112.133V112.325H160.799H160.722V113.325ZM146.26 105.633C144.567 105.633 143.272 105.992 142.375 106.71C141.477 107.428 140.862 108.428 140.528 109.71H151.683C151.401 108.428 150.837 107.428 149.99 106.71C149.144 105.992 147.901 105.633 146.26 105.633ZM182.284 101.979H192.323L182.861 112.556L192.323 122.941H182.284L176.322 116.441L170.322 122.941H160.283L169.783 112.556L160.283 101.979H170.322L176.322 108.517L182.284 101.979Z" fill="url(#paint3_linear_2504_504)"/>
</g>
<path d="M137.706 82.5294V83.1705H139.67L138.084 82.0118L137.706 82.5294ZM128.013 82.5294L127.632 83.0449L127.802 83.1705H128.013V82.5294ZM126.244 81.2217L126.625 80.7062L126.349 80.5023L126.026 80.6186L126.244 81.2217ZM121.359 82.491L121.254 81.8586L121.359 82.491ZM103.704 80.9524L103.481 81.5532L103.482 81.5537L103.704 80.9524ZM100.82 70.1058L101.155 70.6524L101.161 70.6484L100.82 70.1058ZM107.589 67.5288L107.742 68.1513L109.057 67.8283L107.974 67.0159L107.589 67.5288ZM105.704 66.1056L105.318 66.617L105.704 66.1056ZM103.281 63.644L102.74 63.9882L102.748 63.9996L103.281 63.644ZM104.55 56.6052L104.961 57.0977L104.966 57.0932L104.55 56.6052ZM109.743 54.0666L109.591 53.4438L109.589 53.4443L109.743 54.0666ZM127.398 57.1437L126.907 57.5563V57.5563L127.398 57.1437ZM127.398 64.144L127.851 64.5973L127.857 64.5912L127.398 64.144ZM123.821 66.5287L124.082 67.1141L123.821 66.5287ZM118.474 68.4519L118.289 67.8381L117.059 68.2085L118.095 68.9686L118.474 68.4519ZM127.59 75.1445L127.211 75.6612L127.654 75.9869L128.043 75.5978L127.59 75.1445ZM130.282 68.2596V67.6185H129.641V68.2596H130.282ZM136.206 68.2596H136.847V67.6185H136.206V68.2596ZM131.706 78.1446L131.291 77.6552L130.67 78.1815L131.327 78.6622L131.706 78.1446ZM114.782 65.7595L114.385 66.2633L114.653 66.4735L114.976 66.3702L114.782 65.7595ZM118.897 63.7594L118.5 63.2562V63.2562L118.897 63.7594ZM119.243 58.2591L118.807 58.729L118.816 58.7364L119.243 58.2591ZM112.589 58.2207L112.974 58.7336L112.984 58.7258L112.589 58.2207ZM121.974 78.1061L122.136 78.7264L123.44 78.3864L122.354 77.5893L121.974 78.1061ZM111.859 70.6827L112.238 70.1659L111.935 69.9438L111.593 70.0992L111.859 70.6827ZM109.243 72.2982L108.81 71.8255L108.8 71.8349L109.243 72.2982ZM109.397 76.4522L108.943 76.9056L108.952 76.9137L109.397 76.4522ZM112.32 78.1446L112.106 78.7489L112.32 78.1446ZM137.706 81.8884H128.013V83.1705H137.706V81.8884ZM128.394 82.0139L126.625 80.7062L125.863 81.7372L127.632 83.0449L128.394 82.0139ZM126.026 80.6186C124.5 81.1692 122.909 81.5827 121.254 81.8586L121.464 83.1233C123.194 82.8351 124.86 82.4024 126.461 81.8247L126.026 80.6186ZM121.254 81.8586C119.593 82.1353 117.987 82.273 116.436 82.273V83.5551C118.063 83.5551 119.74 83.4107 121.464 83.1233L121.254 81.8586ZM116.436 82.273C111.54 82.273 107.376 81.6258 103.927 80.3511L103.482 81.5537C107.11 82.8945 111.433 83.5551 116.436 83.5551V82.273ZM103.928 80.3517C102.247 79.7257 101.04 78.9021 100.255 77.9101C99.4758 76.9264 99.0759 75.7342 99.0759 74.2983H97.7938C97.7938 75.9907 98.2721 77.4717 99.2496 78.7061C100.221 79.9321 101.649 80.8714 103.481 81.5532L103.928 80.3517ZM99.0759 74.2983C99.0759 72.7072 99.7493 71.5137 101.155 70.6524L100.485 69.5592C98.7102 70.6467 97.7938 72.2482 97.7938 74.2983H99.0759ZM101.161 70.6484C102.668 69.7002 104.85 68.8615 107.742 68.1513L107.436 66.9062C104.481 67.6319 102.15 68.5113 100.478 69.5632L101.161 70.6484ZM107.974 67.0159C107.77 66.863 107.143 66.3896 106.091 65.5943L105.318 66.617C106.369 67.4115 106.998 67.8868 107.204 68.0416L107.974 67.0159ZM106.091 65.5943C105.081 64.8306 104.329 64.0601 103.815 63.2884L102.748 63.9996C103.362 64.9203 104.225 65.7909 105.318 66.617L106.091 65.5943ZM103.822 63.2998C103.337 62.5371 103.115 61.8086 103.115 61.1054H101.832C101.832 62.0946 102.149 63.0584 102.74 63.9881L103.822 63.2998ZM103.115 61.1054C103.115 59.4441 103.726 58.1264 104.961 57.0977L104.14 56.1127C102.605 57.3918 101.832 59.0743 101.832 61.1054H103.115ZM104.966 57.0932C106.263 55.9886 107.899 55.1822 109.897 54.689L109.589 53.4443C107.433 53.9768 105.607 54.8627 104.135 56.1172L104.966 57.0932ZM109.895 54.6894C111.946 54.1891 114.062 53.9384 116.243 53.9384V52.6563C113.963 52.6563 111.745 52.9185 109.591 53.4438L109.895 54.6894ZM116.243 53.9384C118.882 53.9384 121.096 54.2907 122.901 54.9739L123.355 53.7748C121.366 53.022 118.989 52.6563 116.243 52.6563V53.9384ZM122.901 54.9739C124.733 55.667 126.05 56.5375 126.907 57.5563L127.888 56.7311C126.847 55.4933 125.318 54.5176 123.355 53.7748L122.901 54.9739ZM126.907 57.5563C127.779 58.5928 128.18 59.6309 128.18 60.6823H129.462C129.462 59.2721 128.914 57.951 127.888 56.7311L126.907 57.5563ZM128.18 60.6823C128.18 61.845 127.773 62.8394 126.938 63.6968L127.857 64.5912C128.92 63.4998 129.462 62.1864 129.462 60.6823H128.18ZM126.944 63.6907C126.06 64.5754 124.936 65.3288 123.559 65.9433L124.082 67.1141C125.577 66.4465 126.838 65.6101 127.851 64.5973L126.944 63.6907ZM123.559 65.9433C122.156 66.5698 120.401 67.2019 118.289 67.8381L118.659 69.0657C120.804 68.4197 122.613 67.7697 124.082 67.1141L123.559 65.9433ZM118.095 68.9686L127.211 75.6612L127.969 74.6277L118.854 67.9351L118.095 68.9686ZM128.043 75.5978C129.971 73.6699 130.923 71.2057 130.923 68.2596H129.641C129.641 70.9034 128.799 73.0292 127.137 74.6912L128.043 75.5978ZM130.282 68.9006H136.206V67.6185H130.282V68.9006ZM135.565 68.2596C135.565 72.1292 134.143 75.2427 131.291 77.6552L132.12 78.634C135.269 75.9693 136.847 72.4929 136.847 68.2596H135.565ZM131.327 78.6622L137.328 83.047L138.084 82.0118L132.084 77.627L131.327 78.6622ZM110.717 60.7977C110.717 62.6284 112.079 64.4495 114.385 66.2633L115.178 65.2556C112.92 63.4795 112 61.9928 112 60.7977H110.717ZM114.976 66.3702C116.786 65.7931 118.237 65.097 119.295 64.2625L118.5 63.2562C117.608 63.9602 116.316 64.5975 114.587 65.1487L114.976 66.3702ZM119.294 64.2625C120.421 63.3729 121 62.1882 121 60.7592H119.718C119.718 61.7919 119.322 62.6073 118.5 63.2562L119.294 64.2625ZM121 60.7592C121 59.5773 120.551 58.5703 119.671 57.7818L118.816 58.7364C119.423 59.2813 119.718 59.9411 119.718 60.7592H121ZM119.68 57.7894C118.793 56.9659 117.487 56.618 115.897 56.618V57.9001C117.333 57.9001 118.258 58.219 118.807 58.7289L119.68 57.7894ZM115.897 56.618C114.417 56.618 113.16 56.9612 112.195 57.7155L112.984 58.7258C113.66 58.198 114.608 57.9001 115.897 57.9001V56.618ZM112.205 57.7078C111.209 58.4545 110.717 59.5109 110.717 60.7977H112C112 59.8793 112.328 59.2177 112.974 58.7335L112.205 57.7078ZM116.436 79.4395C118.411 79.4395 120.311 79.2025 122.136 78.7264L121.813 77.4859C120.099 77.9329 118.307 78.1574 116.436 78.1574V79.4395ZM122.354 77.5893L112.238 70.1659L111.479 71.1996L121.595 78.623L122.354 77.5893ZM111.593 70.0992C110.43 70.6278 109.493 71.1995 108.81 71.8256L109.676 72.7708C110.224 72.2686 111.03 71.7634 112.124 71.2663L111.593 70.0992ZM108.8 71.8349C108.092 72.5118 107.717 73.3425 107.717 74.2983H108.999C108.999 73.7155 109.214 73.2129 109.686 72.7615L108.8 71.8349ZM107.717 74.2983C107.717 75.2607 108.171 76.1325 108.944 76.9055L109.85 75.9989C109.239 75.3873 108.999 74.8232 108.999 74.2983H107.717ZM108.952 76.9137C109.753 77.686 110.814 78.2914 112.106 78.7489L112.534 77.5403C111.364 77.126 110.477 76.6031 109.842 75.9908L108.952 76.9137ZM112.106 78.7489C113.416 79.2127 114.861 79.4395 116.436 79.4395V78.1574C114.984 78.1574 113.686 77.9484 112.534 77.5403L112.106 78.7489ZM76.0479 94.0666H76.6889V93.4256H76.0479V94.0666ZM76.0479 100.952V101.593H76.6889V100.952H76.0479ZM55.047 100.952V100.31H54.4059V100.952H55.047ZM55.047 105.067H54.4059V105.708H55.047V105.067ZM72.817 105.067H73.458V104.426H72.817V105.067ZM72.817 111.76V112.401H73.458V111.76H72.817ZM55.047 111.76V111.119H54.4059V111.76H55.047ZM55.047 122.529V123.17H55.688V122.529H55.047ZM45.5466 122.529H44.9055V123.17H45.5466V122.529ZM45.5466 94.0666V93.4256H44.9055V94.0666H45.5466ZM75.4068 94.0666V100.952H76.6889V94.0666H75.4068ZM76.0479 100.31H55.047V101.593H76.0479V100.31ZM54.4059 100.952V105.067H55.688V100.952H54.4059ZM55.047 105.708H72.817V104.426H55.047V105.708ZM72.1759 105.067V111.76H73.458V105.067H72.1759ZM72.817 111.119H55.047V112.401H72.817V111.119ZM54.4059 111.76V122.529H55.688V111.76H54.4059ZM55.047 121.888H45.5466V123.17H55.047V121.888ZM46.1876 122.529V94.0666H44.9055V122.529H46.1876ZM45.5466 94.7077H76.0479V93.4256H45.5466V94.7077ZM99.0961 102.144L99.3527 101.556L99.0961 102.144ZM104.327 106.221L103.807 106.596L103.81 106.599L104.327 106.221ZM104.289 117.837L103.772 117.457L103.771 117.458L104.289 117.837ZM99.0576 121.876L98.801 121.288L98.7985 121.289L99.0576 121.876ZM84.0954 121.876L83.8429 122.465L83.8484 122.467L84.0954 121.876ZM78.4798 117.798L77.9777 118.197L77.9843 118.205L78.4798 117.798ZM78.4798 106.259L77.9814 105.856L77.9807 105.857L78.4798 106.259ZM84.057 102.182L84.3063 102.773L84.3095 102.772L84.057 102.182ZM94.442 117.183L94.1619 116.606L94.1553 116.61L94.442 117.183ZM96.596 115.221L97.1414 115.558L97.1457 115.551L96.596 115.221ZM96.596 108.875L96.0462 109.205L96.0506 109.212L96.596 108.875ZM94.442 106.875L94.1553 107.448L94.1619 107.452L94.442 106.875ZM88.6341 106.913L88.9017 107.496L88.9085 107.493L88.6341 106.913ZM86.2878 108.875L85.7641 108.505L86.2878 108.875ZM86.2878 115.183L85.7641 115.553L86.2878 115.183ZM88.6341 117.183L88.3536 117.759L88.3629 117.764L88.3723 117.768L88.6341 117.183ZM91.5957 101.323C94.2889 101.323 96.7 101.797 98.8395 102.731L99.3527 101.556C97.0305 100.542 94.4413 100.041 91.5957 100.041V101.323ZM98.8395 102.731C100.979 103.666 102.626 104.957 103.807 106.596L104.847 105.846C103.515 103.997 101.675 102.571 99.3527 101.556L98.8395 102.731ZM103.81 106.599C104.985 108.206 105.571 110.009 105.571 112.029H106.853C106.853 109.741 106.182 107.672 104.845 105.843L103.81 106.599ZM105.571 112.029C105.571 114.018 104.975 115.822 103.772 117.457L104.805 118.217C106.167 116.365 106.853 114.296 106.853 112.029H105.571ZM103.771 117.458C102.591 119.072 100.943 120.352 98.801 121.288L99.3142 122.463C101.634 121.45 103.474 120.037 104.806 118.215L103.771 117.458ZM98.7985 121.289C96.6862 122.223 94.2891 122.696 91.5957 122.696V123.978C94.4411 123.978 97.0186 123.477 99.3167 122.462L98.7985 121.289ZM91.5957 122.696C89.0091 122.696 86.5934 122.224 84.3424 121.284L83.8484 122.467C86.2643 123.476 88.8489 123.978 91.5957 123.978V122.696ZM84.3479 121.286C82.0954 120.321 80.3117 119.02 78.9753 117.392L77.9843 118.205C79.4686 120.013 81.4285 121.43 83.8429 122.465L84.3479 121.286ZM78.9818 117.4C77.6815 115.762 77.0438 113.978 77.0438 112.029H75.7617C75.7617 114.285 76.5088 116.347 77.9778 118.197L78.9818 117.4ZM77.0438 112.029C77.0438 110.053 77.6824 108.27 78.9789 106.662L77.9807 105.857C76.5078 107.685 75.7617 109.749 75.7617 112.029H77.0438ZM78.9782 106.663C80.3147 105.01 82.0841 103.711 84.3063 102.773L83.8076 101.592C81.4142 102.602 79.4655 104.021 77.9814 105.856L78.9782 106.663ZM84.3095 102.772C86.5584 101.808 88.9848 101.323 91.5957 101.323V100.041C88.8219 100.041 86.2224 100.557 83.8044 101.593L84.3095 102.772ZM91.5957 118.478C92.7156 118.478 93.7632 118.239 94.7287 117.756L94.1553 116.61C93.3772 116.999 92.5273 117.196 91.5957 117.196V118.478ZM94.7221 117.76C95.7321 117.269 96.5408 116.531 97.1414 115.558L96.0506 114.885C95.5742 115.656 94.947 116.225 94.1619 116.606L94.7221 117.76ZM97.1457 115.551C97.7537 114.538 98.0448 113.355 98.0448 112.029H96.7626C96.7626 113.164 96.5152 114.11 96.0463 114.892L97.1457 115.551ZM98.0448 112.029C98.0448 110.703 97.754 109.53 97.1414 108.538L96.0506 109.212C96.515 109.964 96.7626 110.893 96.7626 112.029H98.0448ZM97.1457 108.545C96.5465 107.546 95.7371 106.791 94.7221 106.298L94.1619 107.452C94.9419 107.83 95.5685 108.409 96.0463 109.205L97.1457 108.545ZM94.7287 106.302C93.7632 105.819 92.7156 105.58 91.5957 105.58V106.862C92.5273 106.862 93.3772 107.059 94.1553 107.448L94.7287 106.302ZM91.5957 105.58C90.4935 105.58 89.413 105.835 88.3597 106.334L88.9085 107.493C89.804 107.069 90.6979 106.862 91.5957 106.862V105.58ZM88.3664 106.331C87.3127 106.815 86.4431 107.543 85.7641 108.505L86.8115 109.245C87.3633 108.463 88.0579 107.884 88.9017 107.496L88.3664 106.331ZM85.7641 108.505C85.0611 109.501 84.7237 110.687 84.7237 112.029H86.0058C86.0058 110.91 86.2838 109.992 86.8115 109.245L85.7641 108.505ZM84.7237 112.029C84.7237 113.371 85.0611 114.557 85.7641 115.553L86.8115 114.813C86.2838 114.066 86.0058 113.148 86.0058 112.029H84.7237ZM85.7641 115.553C86.4411 116.512 87.3065 117.25 88.3536 117.759L88.9145 116.607C88.0642 116.193 87.3653 115.598 86.8115 114.813L85.7641 115.553ZM88.3723 117.768C89.4234 118.238 90.4995 118.478 91.5957 118.478V117.196C90.6919 117.196 89.7936 116.999 88.8959 116.598L88.3723 117.768ZM118.323 105.221L117.694 105.347L117.943 106.592L118.797 105.652L118.323 105.221ZM128.054 101.144H128.695V100.433L127.988 100.506L128.054 101.144ZM128.054 107.836V108.478H128.695V107.836H128.054ZM119.477 109.644L120.024 109.978L120.028 109.972L119.477 109.644ZM118.4 122.529V123.17H119.041V122.529H118.4ZM109.553 122.529H108.912V123.17H109.553V122.529ZM109.553 101.567V100.926H108.912V101.567H109.553ZM117.592 101.567L118.221 101.441L118.118 100.926H117.592V101.567ZM118.797 105.652C120.703 103.556 123.77 102.234 128.12 101.781L127.988 100.506C123.466 100.977 120.046 102.373 117.849 104.79L118.797 105.652ZM127.413 101.144V107.836H128.695V101.144H127.413ZM128.054 107.195H122.938V108.478H128.054V107.195ZM122.938 107.195C121.159 107.195 119.777 107.888 118.926 109.316L120.028 109.972C120.613 108.99 121.539 108.478 122.938 108.478V107.195ZM118.929 109.311C118.131 110.623 117.759 112.302 117.759 114.298H119.041C119.041 112.449 119.387 111.025 120.024 109.978L118.929 109.311ZM117.759 114.298V122.529H119.041V114.298H117.759ZM118.4 121.888H109.553V123.17H118.4V121.888ZM110.194 122.529V101.567H108.912V122.529H110.194ZM109.553 102.208H117.592V100.926H109.553V102.208ZM116.963 101.693L117.694 105.347L118.951 105.095L118.221 101.441L116.963 101.693ZM160.722 112.914V113.555H161.363V112.914H160.722ZM140.221 112.914V112.273H139.505L139.584 112.984L140.221 112.914ZM142.029 116.914L141.57 117.361L141.575 117.367L141.581 117.373L142.029 116.914ZM150.183 117.414L150.518 117.96L150.521 117.958L150.183 117.414ZM151.914 114.144V113.503H151.273V114.144H151.914ZM160.722 114.144H161.363V113.503H160.722V114.144ZM156.875 120.952L156.542 120.405L156.539 120.407L156.875 120.952ZM138.644 121.876L138.89 121.284L138.644 121.876ZM133.22 117.875L132.711 118.265L132.714 118.268L133.22 117.875ZM133.182 105.952L132.673 105.562L132.672 105.563L133.182 105.952ZM138.605 101.952L138.846 102.546L138.849 102.544L138.605 101.952ZM153.798 101.913L153.546 102.502L153.548 102.503L153.798 101.913ZM158.875 105.836L158.353 106.208L158.356 106.212L158.875 105.836ZM160.722 111.721H161.363L161.363 111.714L160.722 111.721ZM160.722 111.914H160.081V112.555H160.722V111.914ZM160.722 111.914V111.273H160.081V111.914H160.722ZM142.375 106.298L142.775 106.799V106.799L142.375 106.298ZM140.528 109.298L139.908 109.137L139.699 109.939H140.528V109.298ZM151.683 109.298V109.939H152.48L152.309 109.16L151.683 109.298ZM160.722 112.273H140.221V113.555H160.722V112.273ZM139.584 112.984C139.777 114.726 140.434 116.197 141.57 117.361L142.487 116.466C141.572 115.528 141.023 114.332 140.858 112.843L139.584 112.984ZM141.581 117.373C142.777 118.54 144.375 119.093 146.298 119.093V117.811C144.631 117.811 143.382 117.339 142.476 116.455L141.581 117.373ZM146.298 119.093C147.865 119.093 149.279 118.721 150.518 117.96L149.847 116.867C148.83 117.492 147.654 117.811 146.298 117.811V119.093ZM150.521 117.958C151.88 117.113 152.555 115.807 152.555 114.144H151.273C151.273 115.405 150.793 116.279 149.844 116.87L150.521 117.958ZM151.914 114.785H160.722V113.503H151.914V114.785ZM160.081 114.144C160.081 116.893 158.917 118.956 156.542 120.405L157.209 121.5C159.962 119.821 161.363 117.345 161.363 114.144H160.081ZM156.539 120.407C154.141 121.884 150.737 122.658 146.26 122.658V123.94C150.86 123.94 154.532 123.149 157.212 121.498L156.539 120.407ZM146.26 122.658C143.538 122.658 141.084 122.196 138.89 121.284L138.398 122.467C140.767 123.453 143.391 123.94 146.26 123.94V122.658ZM138.89 121.284C136.696 120.372 134.983 119.101 133.727 117.482L132.714 118.268C134.124 120.086 136.027 121.482 138.398 122.467L138.89 121.284ZM133.73 117.486C132.483 115.856 131.861 114.006 131.861 111.914H130.579C130.579 114.283 131.291 116.407 132.711 118.265L133.73 117.486ZM131.861 111.914C131.861 109.791 132.473 107.941 133.692 106.34L132.672 105.563C131.275 107.398 130.579 109.524 130.579 111.914H131.861ZM133.691 106.341C134.947 104.699 136.657 103.431 138.846 102.546L138.365 101.357C135.99 102.318 134.084 103.717 132.673 105.562L133.691 106.341ZM138.849 102.544C141.071 101.631 143.538 101.17 146.26 101.17V99.8874C143.391 99.8874 140.755 100.375 138.362 101.359L138.849 102.544ZM146.26 101.17C149.064 101.17 151.487 101.62 153.546 102.502L154.051 101.324C151.801 100.36 149.199 99.8874 146.26 99.8874V101.17ZM153.548 102.503C155.634 103.387 157.226 104.625 158.353 106.208L159.398 105.465C158.114 103.663 156.322 102.286 154.048 101.323L153.548 102.503ZM158.356 106.212C159.476 107.761 160.056 109.591 160.081 111.729L161.363 111.714C161.336 109.339 160.685 107.245 159.395 105.461L158.356 106.212ZM160.081 111.721V111.914H161.363V111.721H160.081ZM160.722 112.555H160.799V111.273H160.722V112.555ZM160.799 111.273H160.722V112.555H160.799V111.273ZM160.081 111.914V112.914H161.363V111.914H160.081ZM146.26 104.58C144.488 104.58 143.028 104.954 141.974 105.797L142.775 106.799C143.516 106.206 144.646 105.862 146.26 105.862V104.58ZM141.974 105.797C140.953 106.615 140.271 107.742 139.908 109.137L141.149 109.459C141.453 108.29 142.002 107.417 142.775 106.799L141.974 105.797ZM140.528 109.939H151.683V108.657H140.528V109.939ZM152.309 109.16C152.002 107.767 151.377 106.634 150.405 105.809L149.576 106.787C150.296 107.398 150.799 108.265 151.057 109.436L152.309 109.16ZM150.405 105.809C149.399 104.955 147.982 104.58 146.26 104.58V105.862C147.819 105.862 148.89 106.205 149.576 106.787L150.405 105.809ZM182.284 101.567V100.926H182.001L181.81 101.135L182.284 101.567ZM192.323 101.567L192.8 101.994L193.756 100.926H192.323V101.567ZM182.861 112.144L182.383 111.717L181.997 112.148L182.387 112.576L182.861 112.144ZM192.323 122.529V123.17H193.774L192.796 122.098L192.323 122.529ZM182.284 122.529L181.811 122.963L182.002 123.17H182.284V122.529ZM176.322 116.029L176.794 115.596L176.323 115.082L175.851 115.594L176.322 116.029ZM170.322 122.529V123.17H170.602L170.793 122.964L170.322 122.529ZM160.283 122.529L159.81 122.097L158.827 123.17H160.283V122.529ZM169.783 112.144L170.256 112.577L170.648 112.148L170.26 111.716L169.783 112.144ZM160.283 101.567V100.926H158.845L159.806 101.995L160.283 101.567ZM170.322 101.567L170.794 101.134L170.603 100.926H170.322V101.567ZM176.322 108.106L175.849 108.539L176.323 109.056L176.796 108.538L176.322 108.106ZM182.284 102.208H192.323V100.926H182.284V102.208ZM191.845 101.14L182.383 111.717L183.338 112.572L192.8 101.994L191.845 101.14ZM182.387 112.576L191.849 122.961L192.796 122.098L183.334 111.713L182.387 112.576ZM192.323 121.888H182.284V123.17H192.323V121.888ZM182.756 122.096L176.794 115.596L175.849 116.462L181.811 122.963L182.756 122.096ZM175.851 115.594L169.85 122.095L170.793 122.964L176.793 116.464L175.851 115.594ZM170.322 121.888H160.283V123.17H170.322V121.888ZM160.756 122.962L170.256 112.577L169.31 111.712L159.81 122.097L160.756 122.962ZM170.26 111.716L160.76 101.139L159.806 101.995L169.306 112.573L170.26 111.716ZM160.283 102.208H170.322V100.926H160.283V102.208ZM169.849 102L175.849 108.539L176.794 107.672L170.794 101.134L169.849 102ZM176.796 108.538L182.757 101.999L181.81 101.135L175.848 107.674L176.796 108.538Z" fill="url(#paint4_linear_2504_504)"/>
<g filter="url(#filter3_i_2504_504)">
<path d="M137.706 83.5H128.013L126.244 82.1923C124.68 82.7564 123.051 83.1795 121.359 83.4615C119.667 83.7436 118.025 83.8846 116.436 83.8846C111.487 83.8846 107.243 83.2308 103.704 81.923C100.191 80.6153 98.4348 78.3972 98.4348 75.2689C98.4348 73.4483 99.2297 72.0508 100.82 71.0764C102.409 70.0763 104.666 69.2173 107.589 68.4993C107.384 68.3455 106.756 67.8711 105.704 67.0762C104.653 66.2813 103.845 65.4607 103.281 64.6146C102.743 63.7684 102.473 62.9222 102.473 62.076C102.473 60.2297 103.166 58.7297 104.55 57.5758C105.935 56.3962 107.666 55.5501 109.743 55.0372C111.846 54.5244 114.012 54.2679 116.243 54.2679C118.936 54.2679 121.231 54.6269 123.128 55.3449C125.026 56.0629 126.449 56.986 127.398 58.1143C128.346 59.2425 128.821 60.4221 128.821 61.6529C128.821 62.9863 128.346 64.1402 127.398 65.1146C126.449 66.0633 125.257 66.8582 123.821 67.4993C122.385 68.1404 120.602 68.7814 118.474 69.4225L127.59 76.1151C129.385 74.3201 130.282 72.0251 130.282 69.2301H136.206C136.206 73.2816 134.706 76.5766 131.706 79.1152L137.706 83.5ZM111.358 61.7683C111.358 63.2812 112.5 64.9351 114.782 66.73C116.551 66.1659 117.923 65.4992 118.897 64.7299C119.872 63.9607 120.359 62.9606 120.359 61.7298C120.359 60.7298 119.987 59.8964 119.243 59.2297C118.525 58.563 117.41 58.2297 115.897 58.2297C114.512 58.2297 113.41 58.5502 112.589 59.1912C111.769 59.8067 111.358 60.6657 111.358 61.7683ZM116.436 79.7691C118.359 79.7691 120.205 79.5383 121.974 79.0767L111.859 71.6533C110.73 72.1662 109.858 72.7047 109.243 73.2688C108.653 73.8329 108.358 74.4996 108.358 75.2689C108.358 76.0125 108.705 76.7305 109.397 77.4228C110.115 78.1151 111.089 78.6793 112.32 79.1152C113.551 79.5511 114.923 79.7691 116.436 79.7691ZM76.0479 95.0372V101.922H55.047V106.038H72.817V112.73H55.047V123.5H45.5466V95.0372H76.0479ZM91.5958 101.653C94.3651 101.653 96.8652 102.14 99.0961 103.114C101.327 104.089 103.071 105.448 104.327 107.192C105.584 108.91 106.212 110.846 106.212 113C106.212 115.128 105.571 117.064 104.289 118.807C103.032 120.526 101.288 121.872 99.0576 122.846C96.8524 123.821 94.3651 124.308 91.5958 124.308C88.929 124.308 86.4289 123.821 84.0954 122.846C81.762 121.846 79.8901 120.487 78.4798 118.769C77.0951 117.025 76.4028 115.102 76.4028 113C76.4028 110.871 77.0951 108.948 78.4798 107.23C79.8901 105.486 81.7492 104.127 84.057 103.153C86.3904 102.153 88.9033 101.653 91.5958 101.653ZM91.5958 118.807C92.6214 118.807 93.5702 118.59 94.442 118.154C95.3395 117.718 96.0575 117.064 96.596 116.192C97.1345 115.295 97.4037 114.23 97.4037 113C97.4037 111.769 97.1345 110.717 96.596 109.846C96.0575 108.948 95.3395 108.281 94.442 107.845C93.5702 107.41 92.6214 107.192 91.5958 107.192C90.5957 107.192 89.6085 107.422 88.6341 107.884C87.6853 108.32 86.9032 108.974 86.2878 109.846C85.6724 110.717 85.3647 111.769 85.3647 113C85.3647 114.23 85.6724 115.282 86.2878 116.154C86.9032 117.025 87.6853 117.692 88.6341 118.154C89.6085 118.59 90.5957 118.807 91.5958 118.807ZM118.323 106.192C120.374 103.935 123.618 102.576 128.054 102.114V108.807H122.938C121.349 108.807 120.195 109.41 119.477 110.615C118.759 111.794 118.4 113.346 118.4 115.269V123.5H109.553V102.538H117.592L118.323 106.192ZM160.722 113.884H140.221C140.4 115.5 141.003 116.833 142.029 117.884C143.08 118.91 144.503 119.423 146.298 119.423C147.76 119.423 149.054 119.077 150.183 118.384C151.337 117.666 151.914 116.577 151.914 115.115H160.722C160.722 118.09 159.44 120.359 156.875 121.923C154.337 123.487 150.798 124.269 146.26 124.269C143.465 124.269 140.926 123.795 138.644 122.846C136.362 121.897 134.554 120.564 133.22 118.846C131.887 117.102 131.22 115.115 131.22 112.884C131.22 110.628 131.874 108.64 133.182 106.922C134.515 105.179 136.323 103.845 138.605 102.922C140.913 101.973 143.465 101.499 146.26 101.499C149.131 101.499 151.644 101.961 153.798 102.884C155.978 103.807 157.67 105.115 158.875 106.807C160.081 108.474 160.696 110.435 160.722 112.692V112.884H160.799H160.722V113.884ZM146.26 106.192C144.567 106.192 143.272 106.551 142.375 107.269C141.477 107.986 140.862 108.987 140.528 110.269H151.683C151.401 108.987 150.837 107.986 149.99 107.269C149.144 106.551 147.901 106.192 146.26 106.192ZM182.284 102.538H192.323L182.861 113.115L192.323 123.5H182.284L176.322 117L170.322 123.5H160.283L169.783 113.115L160.283 102.538H170.322L176.322 109.076L182.284 102.538Z" fill="url(#paint5_linear_2504_504)"/>
</g>
<defs>
<filter id="filter0_f_2504_504" x="24.5504" y="0.960105" width="187.289" height="45.6174" filterUnits="userSpaceOnUse" color-interpolation-filters="sRGB">
<feFlood flood-opacity="0" result="BackgroundImageFix"/>
<feBlend mode="normal" in="SourceGraphic" in2="BackgroundImageFix" result="shape"/>
<feGaussianBlur stdDeviation="1.92316" result="effect1_foregroundBlur_2504_504"/>
</filter>
<filter id="filter1_i_2504_504" x="28.3967" y="4.80643" width="179.596" height="39.2068" filterUnits="userSpaceOnUse" color-interpolation-filters="sRGB">
<feFlood flood-opacity="0" result="BackgroundImageFix"/>
<feBlend mode="normal" in="SourceGraphic" in2="BackgroundImageFix" result="shape"/>
<feColorMatrix in="SourceAlpha" type="matrix" values="0 0 0 0 0 0 0 0 0 0 0 0 0 0 0 0 0 0 127 0" result="hardAlpha"/>
<feOffset dy="1.28211"/>
<feGaussianBlur stdDeviation="0.641054"/>
<feComposite in2="hardAlpha" operator="arithmetic" k2="-1" k3="1"/>
<feColorMatrix type="matrix" values="0 0 0 0 1 0 0 0 0 1 0 0 0 0 1 0 0 0 0.25 0"/>
<feBlend mode="normal" in2="shape" result="effect1_innerShadow_2504_504"/>
</filter>
<filter id="filter2_f_2504_504" x="41.7003" y="49.8628" width="154.469" height="77.7324" filterUnits="userSpaceOnUse" color-interpolation-filters="sRGB">
<feFlood flood-opacity="0" result="BackgroundImageFix"/>
<feBlend mode="normal" in="SourceGraphic" in2="BackgroundImageFix" result="shape"/>
<feGaussianBlur stdDeviation="1.92316" result="effect1_foregroundBlur_2504_504"/>
</filter>
<filter id="filter3_i_2504_504" x="45.5466" y="54.2679" width="146.776" height="71.3219" filterUnits="userSpaceOnUse" color-interpolation-filters="sRGB">
<feFlood flood-opacity="0" result="BackgroundImageFix"/>
<feBlend mode="normal" in="SourceGraphic" in2="BackgroundImageFix" result="shape"/>
<feColorMatrix in="SourceAlpha" type="matrix" values="0 0 0 0 0 0 0 0 0 0 0 0 0 0 0 0 0 0 127 0" result="hardAlpha"/>
<feOffset dy="1.28211"/>
<feGaussianBlur stdDeviation="0.641054"/>
<feComposite in2="hardAlpha" operator="arithmetic" k2="-1" k3="1"/>
<feColorMatrix type="matrix" values="0 0 0 0 1 0 0 0 0 1 0 0 0 0 1 0 0 0 0.25 0"/>
<feBlend mode="normal" in2="shape" result="effect1_innerShadow_2504_504"/>
</filter>
<linearGradient id="paint0_linear_2504_504" x1="2" y1="2" x2="234" y2="2" gradientUnits="userSpaceOnUse">
<stop stop-color="#FF3842"/>
<stop offset="0.489317" stop-color="#FF37E7"/>
<stop offset="1" stop-color="#3535FF"/>
</linearGradient>
<linearGradient id="paint1_linear_2504_504" x1="118" y1="17.7059" x2="118" y2="28.8992" gradientUnits="userSpaceOnUse">
<stop stop-color="white" stop-opacity="0.3"/>
<stop offset="0.477654" stop-color="white" stop-opacity="0"/>
<stop offset="1" stop-color="white" stop-opacity="0.2"/>
</linearGradient>
<linearGradient id="paint2_linear_2504_504" x1="2" y1="2" x2="234" y2="2" gradientUnits="userSpaceOnUse">
<stop stop-color="#FF3842"/>
<stop offset="0.489317" stop-color="#FF37E7"/>
<stop offset="1" stop-color="#3535FF"/>
</linearGradient>
<linearGradient id="paint3_linear_2504_504" x1="2" y1="69.9412" x2="234" y2="69.9412" gradientUnits="userSpaceOnUse">
<stop stop-color="#FF3842"/>
<stop offset="0.489317" stop-color="#FF37E7"/>
<stop offset="1" stop-color="#3535FF"/>
</linearGradient>
<linearGradient id="paint4_linear_2504_504" x1="118" y1="61.9118" x2="118" y2="122.076" gradientUnits="userSpaceOnUse">
<stop stop-color="white" stop-opacity="0.3"/>
<stop offset="0.477654" stop-color="white" stop-opacity="0"/>
<stop offset="1" stop-color="white" stop-opacity="0.2"/>
</linearGradient>
<linearGradient id="paint5_linear_2504_504" x1="2" y1="51.5" x2="234" y2="51.5" gradientUnits="userSpaceOnUse">
<stop stop-color="#FF3842"/>
<stop offset="0.489317" stop-color="#FF37E7"/>
<stop offset="1" stop-color="#3535FF"/>
</linearGradient>
</defs>
</svg>
