<svg width="236" height="154" viewBox="0 0 236 154" fill="none" xmlns="http://www.w3.org/2000/svg">
<g filter="url(#filter0_f_2504_508)">
<path d="M39.2261 31.5762L54.7268 47H43.0724L31.5334 35.0764V47H22.033V18.5372H31.5334V28.4223L42.3801 18.5372H54.1498L39.2261 31.5762ZM86.3354 36.9996C86.2841 38.8202 85.8226 40.551 84.9507 42.1921C84.1045 43.8332 82.9122 45.1666 81.3737 46.1923C79.8351 47.1923 78.0915 47.6923 76.1427 47.6923C71.7066 47.6923 68.3987 46.6923 66.2191 44.6922V54.308H57.3726V26.0375H65.4883L65.9884 28.73C68.1423 26.5247 71.5271 25.4734 76.1427 25.576C78.1171 25.576 79.8608 26.0632 81.3737 27.0376C82.9122 28.012 84.1174 29.3454 84.9892 31.0378C85.861 32.7301 86.3098 34.6277 86.3354 36.7303V36.8457V36.9996ZM71.7194 42.4613C73.5143 42.4613 74.899 41.91 75.8734 40.8074C76.8735 39.6792 77.3991 38.3458 77.4504 36.8072C77.3991 35.0379 76.8863 33.5892 75.9119 32.4609C74.9631 31.307 73.5656 30.7301 71.7194 30.7301C70.6681 30.7301 69.7193 30.9993 68.8731 31.5378C68.0526 32.0506 67.3987 32.7558 66.9115 33.6533C66.4499 34.5251 66.2191 35.461 66.2191 36.4611V36.538C66.2191 38.333 66.7192 39.7689 67.7192 40.8459C68.7449 41.9229 70.0783 42.4613 71.7194 42.4613ZM98.4859 38.115L109.679 26.0375H118.525V47H109.679V34.8841L98.4859 47H89.9086V26.0375H98.4859V38.115ZM122.482 26.0375H150.099V47H141.252V32.1532H131.329V47H122.482V26.0375ZM182.005 26.0375V32.5763H172.428V47H163.581V32.5763H153.889V26.0375H182.005ZM200.029 25.1529C202.798 25.1529 205.299 25.6401 207.529 26.6145C209.76 27.5889 211.504 28.9479 212.76 30.6916C214.017 32.4096 214.645 34.3456 214.645 36.4995C214.645 38.6278 214.004 40.5638 212.722 42.3075C211.465 44.0255 209.722 45.3717 207.491 46.3461C205.286 47.3205 202.798 47.8077 200.029 47.8077C197.362 47.8077 194.862 47.3205 192.529 46.3461C190.195 45.3461 188.323 43.987 186.913 42.269C185.528 40.5254 184.836 38.6022 184.836 36.4995C184.836 34.3712 185.528 32.4481 186.913 30.7301C188.323 28.9864 190.183 27.6274 192.49 26.653C194.824 25.6529 197.337 25.1529 200.029 25.1529ZM200.029 42.3075C201.055 42.3075 202.004 42.0895 202.875 41.6536C203.773 41.2177 204.491 40.5638 205.029 39.692C205.568 38.7945 205.837 37.7304 205.837 36.4995C205.837 35.2687 205.568 34.2174 205.029 33.3456C204.491 32.4481 203.773 31.7814 202.875 31.3455C202.004 30.9096 201.055 30.6916 200.029 30.6916C199.029 30.6916 198.042 30.9224 197.067 31.3839C196.119 31.8198 195.337 32.4737 194.721 33.3456C194.106 34.2174 193.798 35.2687 193.798 36.4995C193.798 37.7304 194.106 38.7817 194.721 39.6535C195.337 40.5254 196.119 41.1921 197.067 41.6536C198.042 42.0895 199.029 42.3075 200.029 42.3075ZM137.466 87H127.773L126.003 85.6923C124.439 86.2564 122.811 86.6795 121.119 86.9615C119.426 87.2436 117.785 87.3846 116.195 87.3846C111.246 87.3846 107.003 86.7308 103.464 85.423C99.951 84.1153 98.1946 81.8972 98.1946 78.7689C98.1946 76.9483 98.9895 75.5508 100.579 74.5764C102.169 73.5763 104.426 72.7173 107.349 71.9993C107.144 71.8455 106.515 71.3711 105.464 70.5762C104.413 69.7813 103.605 68.9607 103.041 68.1146C102.502 67.2684 102.233 66.4222 102.233 65.576C102.233 63.7297 102.926 62.2297 104.31 61.0758C105.695 59.8962 107.426 59.0501 109.503 58.5372C111.605 58.0244 113.772 57.7679 116.003 57.7679C118.695 57.7679 120.99 58.1269 122.888 58.8449C124.785 59.5629 126.209 60.486 127.157 61.6143C128.106 62.7425 128.58 63.9221 128.58 65.1529C128.58 66.4863 128.106 67.6402 127.157 68.6146C126.209 69.5633 125.016 70.3582 123.58 70.9993C122.144 71.6404 120.362 72.2814 118.234 72.9225L127.35 79.6151C129.145 77.8201 130.042 75.5251 130.042 72.7301H135.965C135.965 76.7816 134.465 80.0766 131.465 82.6152L137.466 87ZM111.118 65.2683C111.118 66.7812 112.259 68.4351 114.541 70.23C116.311 69.6659 117.683 68.9992 118.657 68.2299C119.631 67.4607 120.119 66.4606 120.119 65.2298C120.119 64.2298 119.747 63.3964 119.003 62.7297C118.285 62.063 117.17 61.7297 115.657 61.7297C114.272 61.7297 113.17 62.0502 112.349 62.6912C111.528 63.3067 111.118 64.1657 111.118 65.2683ZM116.195 83.2691C118.119 83.2691 119.965 83.0383 121.734 82.5767L111.618 75.1533C110.49 75.6662 109.618 76.2047 109.003 76.7688C108.413 77.3329 108.118 77.9996 108.118 78.7689C108.118 79.5125 108.464 80.2305 109.157 80.9228C109.875 81.6151 110.849 82.1793 112.08 82.6152C113.311 83.0511 114.682 83.2691 116.195 83.2691ZM65.1159 112.807C65.1159 114.961 64.2953 116.923 62.6542 118.692C61.0131 120.436 58.7438 121.82 55.8462 122.846C52.9487 123.846 49.705 124.346 46.1151 124.346H44.3457V127H34.8838V124.346H33.3837H33.1529H33.1145C29.6528 124.346 26.4219 123.833 23.4217 122.808C20.4216 121.782 18.0113 120.397 16.1907 118.653C14.3957 116.884 13.4982 114.935 13.4982 112.807C13.4982 110.653 14.3829 108.704 16.1522 106.961C17.9472 105.217 20.3319 103.832 23.3064 102.807C26.3065 101.781 29.5374 101.255 32.9991 101.23H34.8838V98.5372H44.3457V101.23H46.1151C49.7306 101.255 52.9743 101.768 55.8462 102.768C58.7438 103.768 61.0131 105.153 62.6542 106.922C64.2953 108.666 65.1159 110.627 65.1159 112.807ZM34.8838 117.769V107.807H33.4607C30.9477 107.807 28.704 108.204 26.7296 108.999C24.7551 109.768 23.7679 111.038 23.7679 112.807C23.7679 114.551 24.7551 115.82 26.7296 116.615C28.7297 117.384 30.9734 117.769 33.4607 117.769H34.8838ZM45.9997 117.769C48.5126 117.769 50.6537 117.384 52.423 116.615C54.1923 115.846 55.077 114.576 55.077 112.807C55.077 111.012 54.1795 109.73 52.3846 108.961C50.6152 108.191 48.487 107.807 45.9997 107.807H44.3457V117.769H45.9997ZM83.0881 105.153C85.8575 105.153 88.3576 105.64 90.5885 106.614C92.8193 107.589 94.563 108.948 95.8195 110.692C97.0759 112.41 97.7041 114.346 97.7041 116.5C97.7041 118.628 97.0631 120.564 95.781 122.307C94.5245 124.026 92.7809 125.372 90.55 126.346C88.3448 127.321 85.8575 127.808 83.0881 127.808C80.4213 127.808 77.9212 127.321 75.5878 126.346C73.2544 125.346 71.3825 123.987 69.9722 122.269C68.5875 120.525 67.8951 118.602 67.8951 116.5C67.8951 114.371 68.5875 112.448 69.9722 110.73C71.3825 108.986 73.2415 107.627 75.5493 106.653C77.8828 105.653 80.3957 105.153 83.0881 105.153ZM83.0881 122.307C84.1138 122.307 85.0626 122.09 85.9344 121.654C86.8319 121.218 87.5499 120.564 88.0883 119.692C88.6268 118.795 88.8961 117.73 88.8961 116.5C88.8961 115.269 88.6268 114.217 88.0883 113.346C87.5499 112.448 86.8319 111.781 85.9344 111.345C85.0626 110.91 84.1138 110.692 83.0881 110.692C82.0881 110.692 81.1009 110.922 80.1265 111.384C79.1777 111.82 78.3956 112.474 77.7802 113.346C77.1648 114.217 76.8571 115.269 76.8571 116.5C76.8571 117.73 77.1648 118.782 77.7802 119.654C78.3956 120.525 79.1777 121.192 80.1265 121.654C81.1009 122.09 82.0881 122.307 83.0881 122.307ZM130.008 117C129.957 118.82 129.496 120.551 128.624 122.192C127.778 123.833 126.585 125.167 125.047 126.192C123.508 127.192 121.764 127.692 119.816 127.692C115.38 127.692 112.072 126.692 109.892 124.692V134.308H101.046V106.038H109.161L109.661 108.73C111.815 106.525 115.2 105.473 119.816 105.576C121.79 105.576 123.534 106.063 125.047 107.038C126.585 108.012 127.79 109.345 128.662 111.038C129.534 112.73 129.983 114.628 130.008 116.73V116.846V117ZM115.392 122.461C117.187 122.461 118.572 121.91 119.546 120.807C120.546 119.679 121.072 118.346 121.123 116.807C121.072 115.038 120.559 113.589 119.585 112.461C118.636 111.307 117.239 110.73 115.392 110.73C114.341 110.73 113.392 110.999 112.546 111.538C111.726 112.051 111.072 112.756 110.585 113.653C110.123 114.525 109.892 115.461 109.892 116.461V116.538C109.892 118.333 110.392 119.769 111.392 120.846C112.418 121.923 113.751 122.461 115.392 122.461ZM162.506 117.384H142.005C142.185 119 142.787 120.333 143.813 121.384C144.864 122.41 146.287 122.923 148.082 122.923C149.544 122.923 150.839 122.577 151.967 121.884C153.121 121.166 153.698 120.077 153.698 118.615H162.506C162.506 121.59 161.224 123.859 158.66 125.423C156.121 126.987 152.582 127.769 148.044 127.769C145.249 127.769 142.71 127.295 140.428 126.346C138.146 125.397 136.338 124.064 135.005 122.346C133.671 120.602 133.005 118.615 133.005 116.384C133.005 114.128 133.659 112.14 134.966 110.422C136.3 108.679 138.107 107.345 140.39 106.422C142.697 105.473 145.249 104.999 148.044 104.999C150.916 104.999 153.429 105.461 155.583 106.384C157.762 107.307 159.455 108.615 160.66 110.307C161.865 111.974 162.48 113.935 162.506 116.192V116.384H162.583H162.506V117.384ZM148.044 109.692C146.351 109.692 145.056 110.051 144.159 110.769C143.262 111.486 142.646 112.487 142.313 113.769H153.467C153.185 112.487 152.621 111.486 151.775 110.769C150.929 110.051 149.685 109.692 148.044 109.692ZM183.931 115.423L194.893 127H184.584L174.776 117.269V127H165.93V106.038H174.776V113.692L183.392 106.038H193.816L183.931 115.423ZM193.494 116.653C193.494 114.499 194.135 112.563 195.417 110.845C196.699 109.102 198.456 107.743 200.687 106.768C202.918 105.794 205.379 105.307 208.072 105.307C210.636 105.307 212.892 105.704 214.841 106.499C216.816 107.268 218.405 108.358 219.611 109.768C220.816 111.179 221.611 112.807 221.995 114.653H213.149C212.867 113.499 212.277 112.576 211.38 111.884C210.482 111.192 209.392 110.845 208.11 110.845C206.443 110.845 205.084 111.384 204.033 112.461C202.982 113.512 202.456 114.91 202.456 116.653C202.456 118.346 202.969 119.743 203.995 120.846C205.02 121.923 206.366 122.461 208.033 122.461C209.341 122.461 210.444 122.115 211.341 121.423C212.239 120.73 212.828 119.82 213.11 118.692H221.957C221.675 120.436 220.906 122.013 219.649 123.423C218.393 124.833 216.752 125.949 214.726 126.769C212.726 127.59 210.508 128 208.072 128C205.405 128 202.956 127.513 200.725 126.538C198.494 125.538 196.725 124.179 195.417 122.461C194.135 120.718 193.494 118.782 193.494 116.653Z" fill="url(#paint0_linear_2504_508)"/>
</g>
<path d="M40.1127 32.3192L39.6909 31.8364L39.1732 32.2887L39.6605 32.7736L40.1127 32.3192ZM55.8717 48V48.6411H57.4248L56.3239 47.5456L55.8717 48ZM44.0231 48L43.5625 48.4458L43.7514 48.6411H44.0231V48ZM32.2918 35.8777L32.7525 35.4319L31.6508 34.2934V35.8777H32.2918ZM32.2918 48V48.6411H32.9329V48H32.2918ZM22.6331 48H21.992V48.6411H22.6331V48ZM22.6331 19.0628V18.4218H21.992V19.0628H22.6331ZM32.2918 19.0628H32.9329V18.4218H32.2918V19.0628ZM32.2918 29.1126H31.6508V30.5642L32.7236 29.5864L32.2918 29.1126ZM43.3192 19.0628V18.4218H43.0709L42.8874 18.589L43.3192 19.0628ZM55.2851 19.0628L55.7069 19.5456L56.9932 18.4218H55.2851V19.0628ZM39.6605 32.7736L55.4195 48.4544L56.3239 47.5456L40.5649 31.8648L39.6605 32.7736ZM55.8717 47.3589H44.0231V48.6411H55.8717V47.3589ZM44.4838 47.5542L32.7525 35.4319L31.8312 36.3235L43.5625 48.4458L44.4838 47.5542ZM31.6508 35.8777V48H32.9329V35.8777H31.6508ZM32.2918 47.3589H22.6331V48.6411H32.2918V47.3589ZM23.2741 48V19.0628H21.992V48H23.2741ZM22.6331 19.7039H32.2918V18.4218H22.6331V19.7039ZM31.6508 19.0628V29.1126H32.9329V19.0628H31.6508ZM32.7236 29.5864L43.751 19.5366L42.8874 18.589L31.86 28.6388L32.7236 29.5864ZM43.3192 19.7039H55.2851V18.4218H43.3192V19.7039ZM54.8634 18.5801L39.6909 31.8364L40.5345 32.8019L55.7069 19.5456L54.8634 18.5801ZM87.2251 37.8329L87.8659 37.8509L87.8661 37.8419V37.8329H87.2251ZM85.8173 43.112L85.2512 42.8112L85.2476 42.8182L85.8173 43.112ZM82.1806 47.1788L82.53 47.7163L82.5362 47.7122L82.1806 47.1788ZM66.7736 45.6537L67.207 45.1814L66.1325 44.1954V45.6537H66.7736ZM66.7736 55.4298V56.0709H67.4146V55.4298H66.7736ZM57.7796 55.4298H57.1385V56.0709H57.7796V55.4298ZM57.7796 26.6882V26.0471H57.1385V26.6882H57.7796ZM66.0306 26.6882L66.6609 26.5711L66.5635 26.0471H66.0306V26.6882ZM66.5389 29.4255L65.9087 29.5425L66.1342 30.7572L66.9975 29.8734L66.5389 29.4255ZM76.8625 26.2189L76.8482 26.8598L76.8553 26.86H76.8625V26.2189ZM82.1806 27.7049L81.8335 28.2438L81.8376 28.2465L82.1806 27.7049ZM85.8564 31.7717L85.2866 32.0653L85.8564 31.7717ZM87.2251 37.5592H87.8662L87.8661 37.5513L87.2251 37.5592ZM76.5887 41.7042L76.109 41.279L76.1084 41.2797L76.5887 41.7042ZM78.192 37.6374L78.8327 37.6587L78.8334 37.6388L78.8328 37.6188L78.192 37.6374ZM76.6278 33.2186L76.1327 33.6257L76.1376 33.6317L76.1427 33.6376L76.6278 33.2186ZM69.4717 32.2801L69.8115 32.8237L69.8159 32.8209L69.4717 32.2801ZM67.4774 34.4308L66.914 34.125L66.9109 34.1309L67.4774 34.4308ZM68.2986 41.7433L67.8288 42.1796L67.8344 42.1854L68.2986 41.7433ZM86.5843 37.8148C86.535 39.565 86.0922 41.2282 85.2512 42.8112L86.3835 43.4127C87.3152 41.6589 87.8109 39.8027 87.8659 37.8509L86.5843 37.8148ZM85.2476 42.8182C84.4372 44.3897 83.2988 45.6629 81.8251 46.6454L82.5362 47.7122C84.1908 46.6091 85.4768 45.1711 86.3871 43.4058L85.2476 42.8182ZM81.8313 46.6413C80.3777 47.5862 78.7278 48.0628 76.8625 48.0628V49.3449C78.9597 49.3449 80.8553 48.8049 82.53 47.7163L81.8313 46.6413ZM76.8625 48.0628C72.4347 48.0628 69.2574 47.063 67.207 45.1814L66.3401 46.1261C68.7215 48.3113 72.2702 49.3449 76.8625 49.3449V48.0628ZM66.1325 45.6537V55.4298H67.4146V45.6537H66.1325ZM66.7736 54.7888H57.7796V56.0709H66.7736V54.7888ZM58.4206 55.4298V26.6882H57.1385V55.4298H58.4206ZM57.7796 27.3292H66.0306V26.0471H57.7796V27.3292ZM65.4003 26.8052L65.9087 29.5425L67.1692 29.3084L66.6609 26.5711L65.4003 26.8052ZM66.9975 29.8734C69.0127 27.8102 72.2449 26.7575 76.8482 26.8598L76.8767 25.578C72.0949 25.4718 68.4448 26.5568 66.0803 28.9775L66.9975 29.8734ZM76.8625 26.86C78.7591 26.86 80.4089 27.3263 81.8335 28.2438L82.5278 27.1659C80.8762 26.1022 78.9805 25.5779 76.8625 25.5779V26.86ZM81.8376 28.2465C83.301 29.1733 84.45 30.4413 85.2866 32.0653L86.4263 31.4782C85.4902 29.661 84.1886 28.2178 82.5236 27.1633L81.8376 28.2465ZM85.2866 32.0653C86.1228 33.6885 86.5591 35.5182 86.5841 37.567L87.8661 37.5513C87.8389 35.3247 87.3628 33.2961 86.4263 31.4781L85.2866 32.0653ZM86.584 37.5592V37.6765H87.8661V37.5592H86.584ZM86.584 37.6765V37.8329H87.8661V37.6765H86.584ZM72.3655 44.0267C74.3302 44.0267 75.9304 43.4172 77.0691 42.1287L76.1084 41.2797C75.2657 42.2332 74.0505 42.7446 72.3655 42.7446V44.0267ZM77.0685 42.1294C78.1865 40.8681 78.7757 39.3687 78.8327 37.6587L77.5513 37.616C77.504 39.0343 77.0244 40.2462 76.109 41.279L77.0685 42.1294ZM78.8328 37.6188C78.7772 35.7014 78.2173 34.0783 77.113 32.7996L76.1427 33.6376C77.0196 34.653 77.5025 35.9758 77.5512 37.6559L78.8328 37.6188ZM77.123 32.8114C76.0083 31.4558 74.3847 30.8178 72.3655 30.8178V32.0999C74.1003 32.0999 75.3182 32.6351 76.1327 33.6257L77.123 32.8114ZM72.3655 30.8178C71.1809 30.8178 70.0958 31.1231 69.1276 31.7392L69.8159 32.8209C70.5683 32.3421 71.4124 32.0999 72.3655 32.0999V30.8178ZM69.132 31.7365C68.1987 32.3198 67.4591 33.1209 66.914 34.125L68.0408 34.7367C68.4864 33.9159 69.0763 33.2832 69.8115 32.8237L69.132 31.7365ZM66.9109 34.1309C66.392 35.111 66.1325 36.1657 66.1325 37.2854H67.4146C67.4146 36.3718 67.6244 35.5234 68.044 34.7308L66.9109 34.1309ZM66.1325 37.2854V37.3636H67.4146V37.2854H66.1325ZM66.1325 37.3636C66.1325 39.3126 66.6788 40.941 67.8289 42.1795L68.7684 41.3071C67.885 40.3558 67.4146 39.0644 67.4146 37.3636H66.1325ZM67.8344 42.1854C69.0114 43.4212 70.5416 44.0267 72.3655 44.0267V42.7446C70.8524 42.7446 69.6714 42.2552 68.7628 41.3012L67.8344 42.1854ZM98.796 38.9669H98.1549V40.6017L99.2662 39.4027L98.796 38.9669ZM110.175 26.6882V26.0471H109.895L109.705 26.2524L110.175 26.6882ZM119.169 26.6882H119.81V26.0471H119.169V26.6882ZM119.169 48V48.6411H119.81V48H119.169ZM110.175 48H109.534V48.6411H110.175V48ZM110.175 35.6822H110.816V34.0435L109.704 35.2472L110.175 35.6822ZM98.796 48V48.6411H99.0765L99.2669 48.435L98.796 48ZM90.0757 48H89.4347V48.6411H90.0757V48ZM90.0757 26.6882V26.0471H89.4347V26.6882H90.0757ZM98.796 26.6882H99.437V26.0471H98.796V26.6882ZM99.2662 39.4027L110.646 27.1239L109.705 26.2524L98.3258 38.5312L99.2662 39.4027ZM110.175 27.3292H119.169V26.0471H110.175V27.3292ZM118.528 26.6882V48H119.81V26.6882H118.528ZM119.169 47.3589H110.175V48.6411H119.169V47.3589ZM110.816 48V35.6822H109.534V48H110.816ZM109.704 35.2472L98.3251 47.565L99.2669 48.435L110.646 36.1172L109.704 35.2472ZM98.796 47.3589H90.0757V48.6411H98.796V47.3589ZM90.7168 48V26.6882H89.4347V48H90.7168ZM90.0757 27.3292H98.796V26.0471H90.0757V27.3292ZM98.1549 26.6882V38.9669H99.437V26.6882H98.1549ZM122.41 26.6882V26.0471H121.769V26.6882H122.41ZM150.487 26.6882H151.128V26.0471H150.487V26.6882ZM150.487 48V48.6411H151.128V48H150.487ZM141.493 48H140.852V48.6411H141.493V48ZM141.493 32.9058H142.134V32.2647H141.493V32.9058ZM131.404 32.9058V32.2647H130.763V32.9058H131.404ZM131.404 48V48.6411H132.045V48H131.404ZM122.41 48H121.769V48.6411H122.41V48ZM122.41 27.3292H150.487V26.0471H122.41V27.3292ZM149.846 26.6882V48H151.128V26.6882H149.846ZM150.487 47.3589H141.493V48.6411H150.487V47.3589ZM142.134 48V32.9058H140.852V48H142.134ZM141.493 32.2647H131.404V33.5468H141.493V32.2647ZM130.763 32.9058V48H132.045V32.9058H130.763ZM131.404 47.3589H122.41V48.6411H131.404V47.3589ZM123.051 48V26.6882H121.769V48H123.051ZM182.143 26.6882H182.784V26.0471H182.143V26.6882ZM182.143 33.3359V33.9769H182.784V33.3359H182.143ZM172.406 33.3359V32.6948H171.765V33.3359H172.406ZM172.406 48V48.6411H173.047V48H172.406ZM163.412 48H162.771V48.6411H163.412V48ZM163.412 33.3359H164.053V32.6948H163.412V33.3359ZM153.558 33.3359H152.917V33.9769H153.558V33.3359ZM153.558 26.6882V26.0471H152.917V26.6882H153.558ZM181.502 26.6882V33.3359H182.784V26.6882H181.502ZM182.143 32.6948H172.406V33.9769H182.143V32.6948ZM171.765 33.3359V48H173.047V33.3359H171.765ZM172.406 47.3589H163.412V48.6411H172.406V47.3589ZM164.053 48V33.3359H162.771V48H164.053ZM163.412 32.6948H153.558V33.9769H163.412V32.6948ZM154.199 33.3359V26.6882H152.917V33.3359H154.199ZM153.558 27.3292H182.143V26.0471H153.558V27.3292ZM207.311 27.2747L207.567 26.6873L207.311 27.2747ZM212.629 31.4198L212.109 31.7946L212.111 31.7982L212.629 31.4198ZM212.59 43.2293L212.073 42.8495L212.072 42.8509L212.59 43.2293ZM207.272 47.3352L207.015 46.7478L207.012 46.7489L207.272 47.3352ZM192.06 47.3352L191.807 47.9245L191.813 47.9268L192.06 47.3352ZM186.351 43.1902L185.849 43.5889L185.855 43.5969L186.351 43.1902ZM186.351 31.4589L185.852 31.0558L185.852 31.0566L186.351 31.4589ZM192.021 27.3138L192.27 27.9044L192.273 27.9031L192.021 27.3138ZM202.579 42.5645L202.299 41.9878L202.292 41.9911L202.579 42.5645ZM204.769 40.5702L205.314 40.9071L205.319 40.9L204.769 40.5702ZM204.769 34.118L204.219 34.4478L204.223 34.4548L204.769 34.118ZM202.579 32.0846L202.292 32.658L202.299 32.6612L202.579 32.0846ZM196.674 32.1237L196.942 32.7062L196.949 32.703L196.674 32.1237ZM194.289 34.118L193.765 33.7483V33.7483L194.289 34.118ZM194.289 40.5311L193.765 40.9008L194.289 40.5311ZM196.674 42.5645L196.394 43.141L196.403 43.1455L196.412 43.1497L196.674 42.5645ZM199.685 26.4298C202.425 26.4298 204.877 26.9114 207.054 27.8622L207.567 26.6873C205.208 25.6567 202.577 25.1477 199.685 25.1477V26.4298ZM207.054 27.8622C209.231 28.8131 210.907 30.1269 212.109 31.7946L213.149 31.045C211.796 29.1672 209.926 27.7177 207.567 26.6873L207.054 27.8622ZM212.111 31.7982C213.307 33.4336 213.904 35.269 213.904 37.3245H215.186C215.186 35.0004 214.505 32.8993 213.146 31.0414L212.111 31.7982ZM213.904 37.3245C213.904 39.3492 213.297 41.1849 212.073 42.8495L213.106 43.609C214.489 41.7282 215.186 39.6274 215.186 37.3245H213.904ZM212.072 42.8509C210.871 44.4935 209.194 45.7959 207.015 46.7478L207.528 47.9227C209.885 46.8933 211.754 45.4584 213.107 43.6077L212.072 42.8509ZM207.012 46.7489C204.863 47.6985 202.425 48.1801 199.685 48.1801V49.4622C202.577 49.4622 205.196 48.9533 207.531 47.9216L207.012 46.7489ZM199.685 48.1801C197.054 48.1801 194.597 47.6999 192.307 46.7437L191.813 47.9268C194.268 48.9519 196.894 49.4622 199.685 49.4622V48.1801ZM192.312 46.746C190.021 45.764 188.206 44.44 186.846 42.7834L185.855 43.5969C187.363 45.4336 189.354 46.8731 191.807 47.9244L192.312 46.746ZM186.853 42.7915C185.529 41.125 184.88 39.3086 184.88 37.3245H183.598C183.598 39.6159 184.357 41.7099 185.849 43.5888L186.853 42.7915ZM184.88 37.3245C184.88 35.3128 185.53 33.4984 186.85 31.8612L185.852 31.0566C184.356 32.9127 183.598 35.0087 183.598 37.3245H184.88ZM186.849 31.862C188.209 30.1806 190.01 28.8589 192.27 27.9044L191.772 26.7233C189.34 27.7501 187.36 29.1918 185.852 31.0558L186.849 31.862ZM192.273 27.9031C194.561 26.9226 197.029 26.4298 199.685 26.4298V25.1477C196.867 25.1477 194.225 25.6717 191.768 26.7246L192.273 27.9031ZM199.685 43.8703C200.822 43.8703 201.886 43.6279 202.866 43.1379L202.292 41.9911C201.5 42.3875 200.634 42.5882 199.685 42.5882V43.8703ZM202.859 43.1411C203.884 42.6433 204.705 41.8939 205.314 40.9071L204.223 40.2333C203.738 41.0192 203.099 41.5993 202.299 41.9879L202.859 43.1411ZM205.319 40.9C205.936 39.8716 206.231 38.6714 206.231 37.3245H204.949C204.949 38.4804 204.697 39.4439 204.219 40.2404L205.319 40.9ZM206.231 37.3245C206.231 35.9783 205.936 34.7874 205.314 33.7811L204.223 34.4548C204.697 35.2213 204.949 36.1681 204.949 37.3245H206.231ZM205.319 33.7882C204.71 32.7745 203.889 32.0082 202.859 31.5079L202.299 32.6612C203.094 33.0473 203.732 33.6366 204.219 34.4478L205.319 33.7882ZM202.866 31.5112C201.886 31.0212 200.822 30.7787 199.685 30.7787V32.0608C200.634 32.0608 201.5 32.2616 202.292 32.6579L202.866 31.5112ZM199.685 30.7787C198.566 30.7787 197.469 31.0377 196.4 31.5443L196.949 32.703C197.86 32.2712 198.771 32.0608 199.685 32.0608V30.7787ZM196.407 31.5412C195.337 32.0326 194.454 32.7718 193.765 33.7483L194.813 34.4877C195.375 33.6914 196.082 33.1011 196.942 32.7062L196.407 31.5412ZM193.765 33.7483C193.052 34.7588 192.709 35.9618 192.709 37.3245H193.991C193.991 36.1846 194.275 35.2499 194.813 34.4877L193.765 33.7483ZM192.709 37.3245C192.709 38.6873 193.052 39.8903 193.765 40.9008L194.813 40.1614C194.275 39.3992 193.991 38.4645 193.991 37.3245H192.709ZM193.765 40.9008C194.452 41.8744 195.331 42.6238 196.394 43.141L196.955 41.988C196.089 41.5667 195.377 40.9605 194.813 40.1614L193.765 40.9008ZM196.412 43.1497C197.48 43.6272 198.572 43.8703 199.685 43.8703V42.5882C198.765 42.5882 197.85 42.3882 196.936 41.9793L196.412 43.1497ZM138.034 88V88.6411H139.998L138.412 87.4824L138.034 88ZM128.18 88L127.799 88.5155L127.969 88.6411H128.18V88ZM126.381 86.6705L126.762 86.1549L126.486 85.951L126.164 86.0674L126.381 86.6705ZM121.415 87.9609L121.31 87.3286L121.415 87.9609ZM103.466 86.3967L103.242 86.9975L103.244 86.998L103.466 86.3967ZM100.533 75.3693L100.868 75.9159L100.875 75.9119L100.533 75.3693ZM107.416 72.7493L107.568 73.3719L108.883 73.0489L107.8 72.2365L107.416 72.7493ZM105.499 71.3025L105.113 71.8138L105.499 71.3025ZM103.036 68.7998L102.495 69.144L102.503 69.1554L103.036 68.7998ZM104.326 61.6437L104.737 62.1362L104.742 62.1317L104.326 61.6437ZM109.605 59.0628L109.454 58.44L109.452 58.4405L109.605 59.0628ZM127.554 62.1912L127.064 62.6038L127.554 62.1912ZM127.554 69.3082L128.008 69.7615L128.014 69.7554L127.554 69.3082ZM123.918 71.7326L124.179 72.318L123.918 71.7326ZM118.482 73.6878L118.297 73.074L117.067 73.4445L118.103 74.2046L118.482 73.6878ZM127.75 80.492L127.37 81.0087L127.814 81.3344L128.203 80.9453L127.75 80.492ZM130.487 73.4923V72.8513H129.846V73.4923H130.487ZM136.509 73.4923H137.15V72.8513H136.509V73.4923ZM131.934 83.5421L131.52 83.0527L130.898 83.579L131.556 84.0597L131.934 83.5421ZM114.728 70.9505L114.332 71.4544L114.599 71.6646L114.923 71.5613L114.728 70.9505ZM118.912 68.9171L118.515 68.414L118.912 68.9171ZM119.264 63.3252L118.828 63.795L118.836 63.8025L119.264 63.3252ZM112.499 63.2861L112.884 63.799L112.894 63.7913L112.499 63.2861ZM122.041 83.503L122.202 84.1233L123.506 83.7832L122.42 82.9862L122.041 83.503ZM111.756 75.9559L112.135 75.4391L111.833 75.2169L111.491 75.3723L111.756 75.9559ZM109.097 77.5983L108.664 77.1256L108.654 77.135L109.097 77.5983ZM109.253 81.8215L108.8 82.2749L108.809 82.283L109.253 81.8215ZM112.225 83.5421L112.011 84.1464L112.225 83.5421ZM138.034 87.3589H128.18V88.6411H138.034V87.3589ZM128.561 87.4845L126.762 86.1549L126 87.186L127.799 88.5155L128.561 87.4845ZM126.164 86.0674C124.611 86.6274 122.993 87.048 121.31 87.3286L121.52 88.5932C123.278 88.3003 124.971 87.8606 126.599 87.2735L126.164 86.0674ZM121.31 87.3286C119.621 87.61 117.988 87.75 116.41 87.75V89.0321C118.064 89.0321 119.768 88.8853 121.52 88.5932L121.31 87.3286ZM116.41 87.75C111.432 87.75 107.196 87.0919 103.688 85.7954L103.244 86.998C106.931 88.3606 111.325 89.0321 116.41 89.0321V87.75ZM103.69 85.796C101.979 85.1591 100.751 84.3208 99.9506 83.3103C99.157 82.3082 98.7498 81.0937 98.7498 79.6317H97.4677C97.4677 81.3502 97.9534 82.8534 98.9455 84.1063C99.9311 85.3508 101.382 86.3048 103.242 86.9975L103.69 85.796ZM98.7498 79.6317C98.7498 78.0103 99.4364 76.7934 100.868 75.9159L100.198 74.8228C98.3974 75.9265 97.4677 77.5512 97.4677 79.6317H98.7498ZM100.875 75.9119C102.408 74.9471 104.628 74.0941 107.568 73.3719L107.263 72.1268C104.259 72.8645 101.891 73.7582 100.192 74.8267L100.875 75.9119ZM107.8 72.2365C107.593 72.081 106.955 71.5997 105.886 70.7911L105.113 71.8138C106.181 72.6216 106.821 73.1048 107.031 73.2622L107.8 72.2365ZM105.886 70.7911C104.858 70.0142 104.093 69.23 103.569 68.4442L102.503 69.1554C103.126 70.0902 104.003 70.9745 105.113 71.8138L105.886 70.7911ZM103.577 68.4556C103.082 67.6789 102.856 66.9362 102.856 66.2189H101.574C101.574 67.2222 101.894 68.2001 102.495 69.144L103.577 68.4556ZM102.856 66.2189C102.856 64.5268 103.479 63.1841 104.737 62.1362L103.916 61.1512C102.358 62.4495 101.574 64.157 101.574 66.2189H102.856ZM104.742 62.1317C106.062 61.0075 107.727 60.1869 109.759 59.6852L109.452 58.4405C107.26 58.9815 105.406 59.8816 103.911 61.1557L104.742 62.1317ZM109.757 59.6856C111.844 59.1767 113.996 58.9218 116.214 58.9218V57.6397C113.896 57.6397 111.642 57.9062 109.454 58.44L109.757 59.6856ZM116.214 58.9218C118.898 58.9218 121.15 59.2801 122.987 59.9752L123.441 58.7761C121.42 58.0114 119.005 57.6397 116.214 57.6397V58.9218ZM122.987 59.9752C124.85 60.6803 126.191 61.5662 127.064 62.6038L128.045 61.7786C126.988 60.522 125.435 59.5309 123.441 58.7761L122.987 59.9752ZM127.064 62.6038C127.951 63.6591 128.36 64.7169 128.36 65.7888H129.642C129.642 64.358 129.087 63.0173 128.045 61.7786L127.064 62.6038ZM128.36 65.7888C128.36 66.9736 127.946 67.9873 127.095 68.8609L128.014 69.7554C129.092 68.6477 129.642 67.3151 129.642 65.7888H128.36ZM127.101 68.8549C126.2 69.7554 125.057 70.522 123.656 71.1472L124.179 72.318C125.698 71.6397 126.979 70.79 128.008 69.7615L127.101 68.8549ZM123.656 71.1472C122.229 71.7844 120.445 72.4272 118.297 73.074L118.667 74.3017C120.847 73.645 122.686 72.9843 124.179 72.318L123.656 71.1472ZM118.103 74.2046L127.37 81.0087L128.129 79.9752L118.861 73.1711L118.103 74.2046ZM128.203 80.9453C130.161 78.9875 131.128 76.485 131.128 73.4923H129.846C129.846 76.1827 128.988 78.3468 127.297 80.0387L128.203 80.9453ZM130.487 74.1334H136.509V72.8513H130.487V74.1334ZM135.868 73.4923C135.868 77.4294 134.421 80.5979 131.52 83.0527L132.348 84.0315C135.547 81.3245 137.15 77.7932 137.15 73.4923H135.868ZM131.556 84.0597L137.656 88.5176L138.412 87.4824L132.312 83.0245L131.556 84.0597ZM110.607 65.9061C110.607 67.762 111.988 69.6107 114.332 71.4544L115.124 70.4467C112.828 68.6406 111.889 67.1264 111.889 65.9061H110.607ZM114.923 71.5613C116.762 70.9748 118.236 70.2676 119.309 69.4203L118.515 68.414C117.607 69.1308 116.292 69.7792 114.533 70.3398L114.923 71.5613ZM119.309 69.4203C120.453 68.5178 121.039 67.3165 121.039 65.867H119.757C119.757 66.9202 119.353 67.7522 118.515 68.414L119.309 69.4203ZM121.039 65.867C121.039 64.6684 120.584 63.6475 119.692 62.8479L118.836 63.8025C119.456 64.3585 119.757 65.0322 119.757 65.867H121.039ZM119.7 62.8554C118.802 62.0208 117.477 61.6674 115.862 61.6674V62.9495C117.323 62.9495 118.267 63.274 118.828 63.795L119.7 62.8554ZM115.862 61.6674C114.358 61.6674 113.084 62.016 112.104 62.7809L112.894 63.7913C113.583 63.2528 114.55 62.9495 115.862 62.9495V61.6674ZM112.115 62.7733C111.105 63.5302 110.607 64.6009 110.607 65.9061H111.889C111.889 64.9693 112.225 64.2934 112.884 63.7989L112.115 62.7733ZM116.41 84.8479C118.417 84.8479 120.348 84.607 122.202 84.1233L121.879 82.8827C120.135 83.3375 118.313 83.5658 116.41 83.5658V84.8479ZM122.42 82.9862L112.135 75.4391L111.377 76.4727L121.661 84.0198L122.42 82.9862ZM111.491 75.3723C110.309 75.9094 109.357 76.4902 108.664 77.1257L109.53 78.0708C110.088 77.5593 110.909 77.0451 112.021 76.5395L111.491 75.3723ZM108.654 77.135C107.937 77.8212 107.557 78.6631 107.557 79.6317H108.839C108.839 79.0361 109.058 78.5223 109.54 78.0615L108.654 77.135ZM107.557 79.6317C107.557 80.6064 108.016 81.4902 108.8 82.2748L109.707 81.3682C109.084 80.7451 108.839 80.169 108.839 79.6317H107.557ZM108.809 82.283C109.621 83.0668 110.699 83.6817 112.011 84.1464L112.439 82.9378C111.249 82.5162 110.345 81.984 109.698 81.3601L108.809 82.283ZM112.011 84.1464C113.341 84.6174 114.81 84.8479 116.41 84.8479V83.5658C114.933 83.5658 113.612 83.3532 112.439 82.9378L112.011 84.1464ZM63.9313 119.553L64.3981 119.993L64.4013 119.989L63.9313 119.553ZM57.0099 123.777L57.219 124.383L57.2238 124.381L57.0099 123.777ZM45.3177 125.302V124.661H44.6766V125.302H45.3177ZM45.3177 128V128.641H45.9587V128H45.3177ZM35.698 128H35.057V128.641H35.698V128ZM35.698 125.302H36.3391V124.661H35.698V125.302ZM24.045 123.738L24.2523 123.131L24.045 123.738ZM16.6933 119.514L16.2433 119.971L16.2499 119.977L16.6933 119.514ZM16.6542 107.627L16.2076 107.167L16.2043 107.17L16.6542 107.627ZM23.9276 103.403L23.7203 102.797L23.7187 102.797L23.9276 103.403ZM33.7819 101.8V101.159L33.7772 101.159L33.7819 101.8ZM35.698 101.8V102.441H36.3391V101.8H35.698ZM35.698 99.0628V98.4218H35.057V99.0628H35.698ZM45.3177 99.0628H45.9587V98.4218H45.3177V99.0628ZM45.3177 101.8H44.6766V102.441H45.3177V101.8ZM47.1165 101.8L47.121 101.159H47.1165V101.8ZM57.0099 103.364L56.799 103.97L56.8007 103.97L57.0099 103.364ZM63.9313 107.588L63.4613 108.024L63.4645 108.027L63.9313 107.588ZM35.698 118.615V119.256H36.3391V118.615H35.698ZM35.698 108.487H36.3391V107.846H35.698V108.487ZM27.4079 109.699L27.6407 110.297L27.6473 110.294L27.4079 109.699ZM27.4079 117.442L27.1685 118.037L27.1778 118.04L27.4079 117.442ZM53.5296 117.442L53.274 116.854V116.854L53.5296 117.442ZM53.4905 109.66L53.2349 110.248L53.2379 110.249L53.4905 109.66ZM45.3177 108.487V107.846H44.6766V108.487H45.3177ZM45.3177 118.615H44.6766V119.256H45.3177V118.615ZM65.7929 113.571C65.7929 115.579 65.0341 117.422 63.4613 119.118L64.4013 119.989C66.1654 118.087 67.075 115.942 67.075 113.571H65.7929ZM63.4645 119.114C61.883 120.794 59.6721 122.154 56.7959 123.172L57.2238 124.381C60.2394 123.314 62.6427 121.858 64.3981 119.993L63.4645 119.114ZM56.8007 123.171C53.9325 124.161 50.7069 124.661 47.1165 124.661V125.943C50.8255 125.943 54.1955 125.426 57.219 124.383L56.8007 123.171ZM47.1165 124.661H45.3177V125.943H47.1165V124.661ZM44.6766 125.302V128H45.9587V125.302H44.6766ZM45.3177 127.359H35.698V128.641H45.3177V127.359ZM36.3391 128V125.302H35.057V128H36.3391ZM35.698 124.661H34.173V125.943H35.698V124.661ZM34.173 124.661H33.9383V125.943H34.173V124.661ZM33.9383 124.661H33.8992V125.943H33.9383V124.661ZM33.8992 124.661C30.4439 124.661 27.2299 124.149 24.2523 123.131L23.8376 124.344C26.9603 125.412 30.3158 125.943 33.8992 125.943V124.661ZM24.2523 123.131C21.2683 122.111 18.9054 120.745 17.1368 119.051L16.2499 119.977C18.1832 121.829 20.7213 123.279 23.8376 124.344L24.2523 123.131ZM17.1434 119.058C15.4165 117.356 14.5971 115.531 14.5971 113.571H13.315C13.315 115.937 14.3205 118.076 16.2433 119.971L17.1434 119.058ZM14.5971 113.571C14.5971 111.579 15.4073 109.756 17.1042 108.083L16.2043 107.17C14.3036 109.043 13.315 111.182 13.315 113.571H14.5971ZM17.1009 108.086C18.8432 106.394 21.1793 105.029 24.1366 104.009L23.7187 102.797C20.6278 103.863 18.115 105.314 16.2076 107.167L17.1009 108.086ZM24.135 104.01C27.1142 102.991 30.3299 102.467 33.7867 102.441L33.7772 101.159C30.1951 101.186 26.8414 101.73 23.7203 102.797L24.135 104.01ZM33.7819 102.441H35.698V101.159H33.7819V102.441ZM36.3391 101.8V99.0628H35.057V101.8H36.3391ZM35.698 99.7039H45.3177V98.4218H35.698V99.7039ZM44.6766 99.0628V101.8H45.9587V99.0628H44.6766ZM45.3177 102.441H47.1165V101.159H45.3177V102.441ZM47.1119 102.441C50.7304 102.467 53.9568 102.98 56.799 103.97L57.2207 102.759C54.2234 101.715 50.8542 101.186 47.121 101.159L47.1119 102.441ZM56.8007 103.97C59.6732 104.962 61.8813 106.32 63.4613 108.024L64.4013 107.152C62.6444 105.257 60.2382 103.8 57.219 102.758L56.8007 103.97ZM63.4645 108.027C65.033 109.694 65.7929 111.535 65.7929 113.571H67.075C67.075 111.175 66.1665 109.027 64.3981 107.148L63.4645 108.027ZM36.3391 118.615V108.487H35.057V118.615H36.3391ZM35.698 107.846H34.2512V109.128H35.698V107.846ZM34.2512 107.846C31.6289 107.846 29.2644 108.261 27.1685 109.105L27.6473 110.294C29.5662 109.521 31.7638 109.128 34.2512 109.128V107.846ZM27.1752 109.102C26.0971 109.522 25.2357 110.099 24.6436 110.86C24.0454 111.629 23.7558 112.544 23.7558 113.571H25.0379C25.0379 112.799 25.2502 112.168 25.6557 111.647C26.0673 111.118 26.7114 110.659 27.6406 110.297L27.1752 109.102ZM23.7558 113.571C23.7558 114.587 24.0467 115.494 24.6436 116.261C25.234 117.021 26.0927 117.603 27.1685 118.037L27.6473 116.847C26.7157 116.472 26.069 116.006 25.6557 115.474C25.2489 114.951 25.0379 114.327 25.0379 113.571H23.7558ZM27.1778 118.04C29.2954 118.855 31.6562 119.256 34.2512 119.256V117.974C31.7887 117.974 29.5872 117.593 27.638 116.844L27.1778 118.04ZM34.2512 119.256H35.698V117.974H34.2512V119.256ZM46.9992 119.256C49.6165 119.256 51.8853 118.856 53.7852 118.03L53.274 116.854C51.5763 117.592 49.4914 117.974 46.9992 117.974V119.256ZM53.7852 118.03C54.7667 117.603 55.5466 117.018 56.0791 116.254C56.6142 115.486 56.8688 114.582 56.8688 113.571H55.5867C55.5867 114.358 55.3916 114.998 55.0273 115.521C54.6604 116.047 54.0913 116.499 53.274 116.854L53.7852 118.03ZM56.8688 113.571C56.8688 112.547 56.611 111.631 56.0686 110.857C55.5288 110.085 54.7381 109.497 53.743 109.071L53.2379 110.249C54.0677 110.605 54.6457 111.06 55.0183 111.592C55.3884 112.121 55.5867 112.77 55.5867 113.571H56.8688ZM53.7461 109.072C51.8469 108.246 49.5915 107.846 46.9992 107.846V109.128C49.4643 109.128 51.5364 109.51 53.2349 110.248L53.7461 109.072ZM46.9992 107.846H45.3177V109.128H46.9992V107.846ZM44.6766 108.487V118.615H45.9587V108.487H44.6766ZM45.3177 119.256H46.9992V117.974H45.3177V119.256ZM91.549 107.275L91.8056 106.687L91.549 107.275ZM96.8672 111.42L96.3471 111.795L96.3498 111.798L96.8672 111.42ZM96.8281 123.229L96.3116 122.85L96.3107 122.851L96.8281 123.229ZM91.5099 127.335L91.2533 126.748L91.2508 126.749L91.5099 127.335ZM76.2983 127.335L76.0458 127.924L76.0513 127.927L76.2983 127.335ZM70.5891 123.19L70.087 123.589L70.0936 123.597L70.5891 123.19ZM70.5891 111.459L70.0907 111.056L70.09 111.057L70.5891 111.459ZM76.2592 107.314L76.5086 107.904L76.5118 107.903L76.2592 107.314ZM86.8174 122.565L86.5373 121.988L86.5307 121.991L86.8174 122.565ZM89.0072 120.57L89.5527 120.907L89.5569 120.9L89.0072 120.57ZM89.0072 114.118L88.4575 114.448L88.4618 114.455L89.0072 114.118ZM86.8174 112.085L86.5307 112.658L86.5373 112.661L86.8174 112.085ZM80.9127 112.124L81.1803 112.706L81.1871 112.703L80.9127 112.124ZM78.5273 114.118L78.0036 113.748L78.5273 114.118ZM78.5273 120.531L78.0036 120.901L78.5273 120.531ZM80.9127 122.565L80.6322 123.141L80.6415 123.145L80.6509 123.15L80.9127 122.565ZM83.9237 106.43C86.663 106.43 89.1157 106.911 91.2924 107.862L91.8056 106.687C89.4462 105.657 86.8154 105.148 83.9237 105.148V106.43ZM91.2924 107.862C93.4694 108.813 95.1454 110.127 96.3471 111.795L97.3873 111.045C96.0341 109.167 94.1647 107.718 91.8056 106.687L91.2924 107.862ZM96.3498 111.798C97.5458 113.434 98.1423 115.269 98.1423 117.325H99.4244C99.4244 115 98.7434 112.899 97.3846 111.041L96.3498 111.798ZM98.1423 117.325C98.1423 119.349 97.5356 121.185 96.3116 122.85L97.3446 123.609C98.7275 121.728 99.4244 119.627 99.4244 117.325H98.1423ZM96.3107 122.851C95.1093 124.493 93.4326 125.796 91.2533 126.748L91.7665 127.923C94.1233 126.893 95.9921 125.458 97.3455 123.608L96.3107 122.851ZM91.2508 126.749C89.1017 127.698 86.6632 128.18 83.9237 128.18V129.462C86.8152 129.462 89.4341 128.953 91.769 127.922L91.2508 126.749ZM83.9237 128.18C81.2926 128.18 78.8352 127.7 76.5454 126.744L76.0513 127.927C78.5061 128.952 81.1324 129.462 83.9237 129.462V128.18ZM76.5509 126.746C74.2595 125.764 72.4445 124.44 71.0846 122.783L70.0936 123.597C71.6014 125.434 73.5926 126.873 76.0458 127.924L76.5509 126.746ZM71.0911 122.792C69.7677 121.125 69.1185 119.309 69.1185 117.325H67.8364C67.8364 119.616 68.595 121.71 70.0871 123.589L71.0911 122.792ZM69.1185 117.325C69.1185 115.313 69.7687 113.498 71.0882 111.861L70.09 111.057C68.5941 112.913 67.8364 115.009 67.8364 117.325H69.1185ZM71.0876 111.862C72.4476 110.181 74.248 108.859 76.5086 107.904L76.0099 106.723C73.578 107.75 71.5983 109.192 70.0907 111.056L71.0876 111.862ZM76.5118 107.903C78.7995 106.923 81.2679 106.43 83.9237 106.43V105.148C81.1049 105.148 78.4636 105.672 76.0067 106.725L76.5118 107.903ZM83.9237 123.87C85.0606 123.87 86.124 123.628 87.1041 123.138L86.5307 121.991C85.738 122.387 84.8723 122.588 83.9237 122.588V123.87ZM87.0975 123.141C88.1224 122.643 88.9431 121.894 89.5527 120.907L88.4618 120.233C87.9765 121.019 87.3373 121.599 86.5373 121.988L87.0975 123.141ZM89.5569 120.9C90.174 119.872 90.4695 118.671 90.4695 117.325H89.1874C89.1874 118.48 88.9354 119.444 88.4575 120.24L89.5569 120.9ZM90.4695 117.325C90.4695 115.978 90.1742 114.787 89.5527 113.781L88.4618 114.455C88.9352 115.221 89.1874 116.168 89.1874 117.325H90.4695ZM89.5569 113.788C88.9488 112.775 88.1275 112.008 87.0975 111.508L86.5373 112.661C87.3322 113.047 87.9708 113.637 88.4575 114.448L89.5569 113.788ZM87.1041 111.511C86.124 111.021 85.0606 110.779 83.9237 110.779V112.061C84.8723 112.061 85.738 112.262 86.5307 112.658L87.1041 111.511ZM83.9237 110.779C82.8048 110.779 81.7078 111.038 80.6382 111.544L81.1871 112.703C82.0988 112.271 83.0092 112.061 83.9237 112.061V110.779ZM80.645 111.541C79.5755 112.033 78.6929 112.772 78.0036 113.748L79.051 114.488C79.6131 113.691 80.3207 113.101 81.1803 112.706L80.645 111.541ZM78.0036 113.748C77.2903 114.759 76.9477 115.962 76.9477 117.325H78.2298C78.2298 116.185 78.513 115.25 79.051 114.488L78.0036 113.748ZM76.9477 117.325C76.9477 118.687 77.2903 119.89 78.0036 120.901L79.051 120.161C78.513 119.399 78.2298 118.464 78.2298 117.325H76.9477ZM78.0036 120.901C78.6908 121.874 79.5693 122.624 80.6322 123.141L81.1931 121.988C80.3269 121.567 79.6151 120.96 79.051 120.161L78.0036 120.901ZM80.6509 123.15C81.7182 123.627 82.8108 123.87 83.9237 123.87V122.588C83.0032 122.588 82.0884 122.388 81.1744 121.979L80.6509 123.15ZM130.844 117.833L131.485 117.851L131.485 117.842V117.833H130.844ZM129.436 123.112L128.87 122.811L128.866 122.818L129.436 123.112ZM125.799 127.179L126.149 127.716L126.155 127.712L125.799 127.179ZM110.392 125.654L110.826 125.181L109.751 124.195V125.654H110.392ZM110.392 135.43V136.071H111.033V135.43H110.392ZM101.398 135.43H100.757V136.071H101.398V135.43ZM101.398 106.688V106.047H100.757V106.688H101.398ZM109.649 106.688L110.28 106.571L110.182 106.047H109.649V106.688ZM110.158 109.425L109.527 109.543L109.753 110.757L110.616 109.873L110.158 109.425ZM120.481 106.219L120.467 106.86L120.474 106.86H120.481V106.219ZM125.799 107.705L125.452 108.244L125.456 108.246L125.799 107.705ZM129.475 111.772L128.905 112.065L129.475 111.772ZM130.844 117.559H131.485L131.485 117.551L130.844 117.559ZM120.208 121.704L119.728 121.279L119.727 121.28L120.208 121.704ZM121.811 117.637L122.452 117.659L122.452 117.639L122.452 117.619L121.811 117.637ZM120.247 113.219L119.751 113.626L119.756 113.632L119.761 113.638L120.247 113.219ZM113.091 112.28L113.43 112.824L113.435 112.821L113.091 112.28ZM111.096 114.431L110.533 114.125L110.53 114.131L111.096 114.431ZM111.917 121.743L111.448 122.18L111.453 122.185L111.917 121.743ZM130.203 117.815C130.154 119.565 129.711 121.228 128.87 122.811L130.002 123.413C130.934 121.659 131.43 119.803 131.485 117.851L130.203 117.815ZM128.866 122.818C128.056 124.39 126.918 125.663 125.444 126.645L126.155 127.712C127.81 126.609 129.096 125.171 130.006 123.406L128.866 122.818ZM125.45 126.641C123.996 127.586 122.347 128.063 120.481 128.063V129.345C122.579 129.345 124.474 128.805 126.149 127.716L125.45 126.641ZM120.481 128.063C116.054 128.063 112.876 127.063 110.826 125.181L109.959 126.126C112.34 128.311 115.889 129.345 120.481 129.345V128.063ZM109.751 125.654V135.43H111.033V125.654H109.751ZM110.392 134.789H101.398V136.071H110.392V134.789ZM102.039 135.43V106.688H100.757V135.43H102.039ZM101.398 107.329H109.649V106.047H101.398V107.329ZM109.019 106.805L109.527 109.543L110.788 109.308L110.28 106.571L109.019 106.805ZM110.616 109.873C112.632 107.81 115.864 106.758 120.467 106.86L120.496 105.578C115.714 105.472 112.064 106.557 109.699 108.978L110.616 109.873ZM120.481 106.86C122.378 106.86 124.028 107.326 125.452 108.244L126.147 107.166C124.495 106.102 122.599 105.578 120.481 105.578V106.86ZM125.456 108.246C126.92 109.173 128.069 110.441 128.905 112.065L130.045 111.478C129.109 109.661 127.807 108.218 126.142 107.163L125.456 108.246ZM128.905 112.065C129.742 113.689 130.178 115.518 130.203 117.567L131.485 117.551C131.458 115.325 130.982 113.296 130.045 111.478L128.905 112.065ZM130.203 117.559V117.676H131.485V117.559H130.203ZM130.203 117.676V117.833H131.485V117.676H130.203ZM115.984 124.027C117.949 124.027 119.549 123.417 120.688 122.129L119.727 121.28C118.885 122.233 117.669 122.745 115.984 122.745V124.027ZM120.687 122.129C121.805 120.868 122.395 119.369 122.452 117.659L121.17 117.616C121.123 119.034 120.643 120.246 119.728 121.279L120.687 122.129ZM122.452 117.619C122.396 115.701 121.836 114.078 120.732 112.8L119.761 113.638C120.638 114.653 121.121 115.976 121.17 117.656L122.452 117.619ZM120.742 112.811C119.627 111.456 118.004 110.818 115.984 110.818V112.1C117.719 112.1 118.937 112.635 119.751 113.626L120.742 112.811ZM115.984 110.818C114.8 110.818 113.715 111.123 112.746 111.739L113.435 112.821C114.187 112.342 115.031 112.1 115.984 112.1V110.818ZM112.751 111.736C111.818 112.32 111.078 113.121 110.533 114.125L111.66 114.737C112.105 113.916 112.695 113.283 113.43 112.824L112.751 111.736ZM110.53 114.131C110.011 115.111 109.751 116.166 109.751 117.285H111.033C111.033 116.372 111.243 115.523 111.663 114.731L110.53 114.131ZM109.751 117.285V117.364H111.033V117.285H109.751ZM109.751 117.364C109.751 119.313 110.298 120.941 111.448 122.18L112.387 121.307C111.504 120.356 111.033 119.064 111.033 117.364H109.751ZM111.453 122.185C112.63 123.421 114.16 124.027 115.984 124.027V122.745C114.471 122.745 113.29 122.255 112.382 121.301L111.453 122.185ZM163.101 118.224V118.865H163.742V118.224H163.101ZM142.258 118.224V117.583H141.542L141.621 118.295L142.258 118.224ZM144.096 122.291L143.637 122.738L143.643 122.744L143.649 122.75L144.096 122.291ZM152.386 122.799L152.722 123.346L152.725 123.343L152.386 122.799ZM154.146 119.475V118.834H153.505V119.475H154.146ZM163.101 119.475H163.742V118.834H163.101V119.475ZM159.191 126.397L158.857 125.849L158.854 125.851L159.191 126.397ZM140.655 127.335L140.901 126.743L140.655 127.335ZM135.141 123.268L134.632 123.658L134.635 123.661L135.141 123.268ZM135.102 111.146L134.593 110.757L134.592 110.758L135.102 111.146ZM140.616 107.079L140.856 107.674L140.86 107.672L140.616 107.079ZM156.062 107.04L155.81 107.629L155.812 107.63L156.062 107.04ZM161.224 111.029L160.702 111.401L160.704 111.404L161.224 111.029ZM163.101 117.012H163.742L163.742 117.004L163.101 117.012ZM163.101 117.207H162.46V117.848H163.101V117.207ZM163.101 117.207V116.566H162.46V117.207H163.101ZM144.448 111.498L144.849 111.999L144.448 111.498ZM142.571 114.548L141.951 114.387L141.742 115.189H142.571V114.548ZM153.911 114.548V115.189H154.709L154.538 114.41L153.911 114.548ZM163.101 117.583H142.258V118.865H163.101V117.583ZM141.621 118.295C141.818 120.063 142.484 121.556 143.637 122.738L144.555 121.843C143.623 120.887 143.064 119.67 142.896 118.153L141.621 118.295ZM143.649 122.75C144.863 123.934 146.484 124.496 148.437 124.496V123.214C146.74 123.214 145.468 122.733 144.544 121.832L143.649 122.75ZM148.437 124.496C150.028 124.496 151.463 124.118 152.722 123.346L152.051 122.253C151.015 122.888 149.817 123.214 148.437 123.214V124.496ZM152.725 123.343C154.103 122.486 154.787 121.163 154.787 119.475H153.505C153.505 120.76 153.016 121.652 152.048 122.255L152.725 123.343ZM154.146 120.116H163.101V118.834H154.146V120.116ZM162.46 119.475C162.46 122.273 161.275 124.374 158.857 125.849L159.524 126.944C162.32 125.239 163.742 122.726 163.742 119.475H162.46ZM158.854 125.851C156.414 127.354 152.951 128.141 148.398 128.141V129.423C153.073 129.423 156.805 128.619 159.527 126.942L158.854 125.851ZM148.398 128.141C145.63 128.141 143.134 127.671 140.901 126.743L140.409 127.927C142.817 128.928 145.483 129.423 148.398 129.423V128.141ZM140.901 126.743C138.669 125.815 136.927 124.523 135.648 122.875L134.635 123.661C136.068 125.507 138.001 126.926 140.409 127.927L140.901 126.743ZM135.651 122.879C134.382 121.22 133.749 119.337 133.749 117.207H132.467C132.467 119.614 133.19 121.771 134.632 123.658L135.651 122.879ZM133.749 117.207C133.749 115.047 134.372 113.164 135.612 111.534L134.592 110.758C133.174 112.621 132.467 114.78 132.467 117.207H133.749ZM135.612 111.535C136.889 109.865 138.629 108.574 140.856 107.673L140.376 106.485C137.962 107.461 136.027 108.882 134.593 110.757L135.612 111.535ZM140.86 107.672C143.12 106.743 145.63 106.273 148.398 106.273V104.991C145.483 104.991 142.805 105.486 140.372 106.486L140.86 107.672ZM148.398 106.273C151.25 106.273 153.715 106.732 155.81 107.629L156.315 106.451C154.029 105.471 151.385 104.991 148.398 104.991V106.273ZM155.812 107.63C157.934 108.529 159.554 109.789 160.702 111.401L161.746 110.657C160.443 108.827 158.622 107.428 156.312 106.45L155.812 107.63ZM160.704 111.404C161.845 112.981 162.435 114.844 162.46 117.019L163.742 117.004C163.715 114.591 163.054 112.465 161.743 110.653L160.704 111.404ZM162.46 117.012V117.207H163.742V117.012H162.46ZM163.101 117.848H163.179V116.566H163.101V117.848ZM163.179 116.566H163.101V117.848H163.179V116.566ZM162.46 117.207V118.224H163.742V117.207H162.46ZM148.398 109.762C146.598 109.762 145.117 110.142 144.048 110.997L144.849 111.999C145.605 111.394 146.756 111.044 148.398 111.044V109.762ZM144.048 110.997C143.011 111.827 142.319 112.971 141.951 114.387L143.192 114.709C143.501 113.519 144.06 112.629 144.849 111.999L144.048 110.997ZM142.571 115.189H153.911V113.907H142.571V115.189ZM154.538 114.41C154.226 112.996 153.592 111.846 152.606 111.009L151.776 111.987C152.511 112.61 153.023 113.493 153.285 114.686L154.538 114.41ZM152.606 111.009C151.585 110.143 150.148 109.762 148.398 109.762V111.044C149.985 111.044 151.076 111.393 151.776 111.987L152.606 111.009ZM184.101 116.23L183.659 115.765L183.195 116.205L183.635 116.67L184.101 116.23ZM195.245 128V128.641H196.735L195.711 127.559L195.245 128ZM184.765 128L184.314 128.455L184.501 128.641H184.765V128ZM174.794 118.107L175.245 117.652L174.153 116.568V118.107H174.794ZM174.794 128V128.641H175.435V128H174.794ZM165.8 128H165.159V128.641H165.8V128ZM165.8 106.688V106.047H165.159V106.688H165.8ZM174.794 106.688H175.435V106.047H174.794V106.688ZM174.794 114.47H174.153V115.897L175.22 114.949L174.794 114.47ZM183.553 106.688V106.047H183.31L183.127 106.209L183.553 106.688ZM194.15 106.688L194.592 107.153L195.757 106.047H194.15V106.688ZM183.635 116.67L194.78 128.441L195.711 127.559L184.566 115.789L183.635 116.67ZM195.245 127.359H184.765V128.641H195.245V127.359ZM185.217 127.545L175.245 117.652L174.342 118.562L184.314 128.455L185.217 127.545ZM174.153 118.107V128H175.435V118.107H174.153ZM174.794 127.359H165.8V128.641H174.794V127.359ZM166.441 128V106.688H165.159V128H166.441ZM165.8 107.329H174.794V106.047H165.8V107.329ZM174.153 106.688V114.47H175.435V106.688H174.153ZM175.22 114.949L183.979 107.167L183.127 106.209L174.368 113.991L175.22 114.949ZM183.553 107.329H194.15V106.047H183.553V107.329ZM193.709 106.223L183.659 115.765L184.542 116.695L194.592 107.153L193.709 106.223ZM194.997 111.576L195.51 111.96L195.513 111.956L194.997 111.576ZM200.354 107.431L200.097 106.844L200.354 107.431ZM214.744 107.157L214.502 107.751L214.512 107.755L214.744 107.157ZM219.593 110.481L220.081 110.065L219.593 110.481ZM222.018 115.448V116.089H222.806L222.645 115.317L222.018 115.448ZM213.024 115.448L212.401 115.6L212.52 116.089H213.024V115.448ZM211.225 112.632L210.833 113.14L211.225 112.632ZM203.756 113.219L204.209 113.672L204.215 113.666L203.756 113.219ZM203.717 121.743L203.247 122.18L203.253 122.185L203.717 121.743ZM211.186 122.33L210.794 121.822L211.186 122.33ZM212.985 119.553V118.912H212.484L212.363 119.398L212.985 119.553ZM221.979 119.553L222.611 119.656L222.732 118.912H221.979V119.553ZM219.632 124.363L220.111 124.79L219.632 124.363ZM214.627 127.765L214.386 127.171L214.384 127.172L214.627 127.765ZM200.393 127.531L200.131 128.116L200.136 128.118L200.393 127.531ZM194.997 123.386L194.48 123.766L194.487 123.774L194.997 123.386ZM193.682 117.481C193.682 115.429 194.29 113.595 195.51 111.96L194.483 111.193C193.096 113.051 192.4 115.154 192.4 117.481H193.682ZM195.513 111.956C196.742 110.285 198.433 108.97 200.611 108.019L200.097 106.844C197.739 107.874 195.859 109.322 194.48 111.196L195.513 111.956ZM200.611 108.019C202.789 107.067 205.204 106.586 207.862 106.586V105.304C205.046 105.304 202.454 105.814 200.097 106.844L200.611 108.019ZM207.862 106.586C210.404 106.586 212.613 106.98 214.502 107.751L214.986 106.564C212.913 105.718 210.534 105.304 207.862 105.304V106.586ZM214.512 107.755C216.435 108.504 217.958 109.555 219.106 110.898L220.081 110.065C218.777 108.54 217.069 107.375 214.977 106.56L214.512 107.755ZM219.106 110.898C220.26 112.248 221.021 113.805 221.39 115.578L222.645 115.317C222.233 113.336 221.377 111.582 220.081 110.065L219.106 110.898ZM222.018 114.806H213.024V116.089H222.018V114.806ZM213.646 115.295C213.327 113.988 212.65 112.922 211.616 112.124L210.833 113.14C211.625 113.75 212.147 114.561 212.401 115.6L213.646 115.295ZM211.616 112.124C210.577 111.323 209.327 110.935 207.901 110.935V112.217C209.082 112.217 210.048 112.533 210.833 113.14L211.616 112.124ZM207.901 110.935C206.054 110.935 204.5 111.538 203.297 112.771L204.215 113.666C205.149 112.709 206.359 112.217 207.901 112.217V110.935ZM203.303 112.765C202.093 113.975 201.512 115.57 201.512 117.481H202.794C202.794 115.847 203.281 114.6 204.209 113.672L203.303 112.765ZM201.512 117.481C201.512 119.342 202.08 120.925 203.248 122.18L204.186 121.307C203.268 120.319 202.794 119.061 202.794 117.481H201.512ZM203.253 122.185C204.432 123.423 205.976 124.027 207.823 124.027V122.745C206.28 122.745 205.088 122.253 204.181 121.301L203.253 122.185ZM207.823 124.027C209.271 124.027 210.536 123.641 211.577 122.837L210.794 121.822C210.011 122.427 209.033 122.745 207.823 122.745V124.027ZM211.577 122.837C212.607 122.043 213.286 120.992 213.607 119.709L212.363 119.398C212.11 120.409 211.589 121.209 210.794 121.822L211.577 122.837ZM212.985 120.195H221.979V118.912H212.985V120.195ZM221.346 119.451C221.08 121.095 220.356 122.588 219.154 123.937L220.111 124.79C221.464 123.271 222.304 121.558 222.611 119.656L221.346 119.451ZM219.154 123.937C217.951 125.287 216.369 126.368 214.386 127.171L214.868 128.36C217.004 127.494 218.759 126.308 220.111 124.79L219.154 123.937ZM214.384 127.172C212.437 127.971 210.266 128.376 207.862 128.376V129.658C210.411 129.658 212.75 129.228 214.87 128.358L214.384 127.172ZM207.862 128.376C205.231 128.376 202.829 127.895 200.65 126.943L200.136 128.118C202.493 129.147 205.071 129.658 207.862 129.658V128.376ZM200.655 126.946C198.472 125.967 196.763 124.648 195.507 122.997L194.487 123.774C195.889 125.617 197.778 127.061 200.131 128.116L200.655 126.946ZM195.513 123.006C194.289 121.341 193.682 119.506 193.682 117.481H192.4C192.4 119.784 193.097 121.885 194.48 123.765L195.513 123.006Z" fill="url(#paint1_linear_2504_508)"/>
<g filter="url(#filter1_i_2504_508)">
<path d="M39.2261 31.5767L54.7268 47.0005H43.0724L31.5334 35.0769V47.0005H22.033V18.5377H31.5334V28.4228L42.3801 18.5377H54.1498L39.2261 31.5767ZM86.3354 37C86.2841 38.8206 85.8226 40.5515 84.9507 42.1926C84.1045 43.8337 82.9122 45.1671 81.3737 46.1928C79.8351 47.1928 78.0915 47.6928 76.1427 47.6928C71.7066 47.6928 68.3987 46.6928 66.2191 44.6927V54.3085H57.3726V26.038H65.4883L65.9884 28.7305C68.1423 26.5252 71.5271 25.4739 76.1427 25.5765C78.1171 25.5765 79.8608 26.0637 81.3737 27.0381C82.9122 28.0125 84.1174 29.3459 84.9892 31.0383C85.861 32.7306 86.3098 34.6282 86.3354 36.7308V36.8462V37ZM71.7194 42.4618C73.5143 42.4618 74.899 41.9105 75.8734 40.8079C76.8735 39.6797 77.3991 38.3463 77.4504 36.8077C77.3991 35.0384 76.8863 33.5896 75.9119 32.4614C74.9631 31.3075 73.5656 30.7305 71.7194 30.7305C70.6681 30.7305 69.7193 30.9998 68.8731 31.5383C68.0526 32.0511 67.3987 32.7563 66.9115 33.6537C66.4499 34.5256 66.2191 35.4615 66.2191 36.4616V36.5385C66.2191 38.3334 66.7192 39.7694 67.7192 40.8464C68.7449 41.9233 70.0783 42.4618 71.7194 42.4618ZM98.4859 38.1155L109.679 26.038H118.525V47.0005H109.679V34.8846L98.4859 47.0005H89.9086V26.038H98.4859V38.1155ZM122.482 26.038H150.099V47.0005H141.252V32.1537H131.329V47.0005H122.482V26.038ZM182.005 26.038V32.5768H172.428V47.0005H163.581V32.5768H153.889V26.038H182.005ZM200.029 25.1534C202.798 25.1534 205.299 25.6406 207.529 26.615C209.76 27.5894 211.504 28.9484 212.76 30.6921C214.017 32.4101 214.645 34.3461 214.645 36.5C214.645 38.6283 214.004 40.5643 212.722 42.308C211.465 44.026 209.722 45.3722 207.491 46.3466C205.286 47.321 202.798 47.8082 200.029 47.8082C197.362 47.8082 194.862 47.321 192.529 46.3466C190.195 45.3466 188.323 43.9875 186.913 42.2695C185.528 40.5258 184.836 38.6027 184.836 36.5C184.836 34.3717 185.528 32.4486 186.913 30.7305C188.323 28.9869 190.183 27.6278 192.49 26.6534C194.824 25.6534 197.337 25.1534 200.029 25.1534ZM200.029 42.308C201.055 42.308 202.004 42.09 202.875 41.6541C203.773 41.2182 204.491 40.5643 205.029 39.6925C205.568 38.795 205.837 37.7309 205.837 36.5C205.837 35.2692 205.568 34.2179 205.029 33.346C204.491 32.4486 203.773 31.7819 202.875 31.346C202.004 30.91 201.055 30.6921 200.029 30.6921C199.029 30.6921 198.042 30.9229 197.067 31.3844C196.119 31.8203 195.337 32.4742 194.721 33.346C194.106 34.2179 193.798 35.2692 193.798 36.5C193.798 37.7309 194.106 38.7822 194.721 39.654C195.337 40.5258 196.119 41.1925 197.067 41.6541C198.042 42.09 199.029 42.308 200.029 42.308ZM137.466 87.0005H127.773L126.003 85.6927C124.439 86.2569 122.811 86.68 121.119 86.962C119.426 87.2441 117.785 87.3851 116.195 87.3851C111.246 87.3851 107.003 86.7312 103.464 85.4235C99.951 84.1157 98.1946 81.8977 98.1946 78.7694C98.1946 76.9488 98.9895 75.5513 100.579 74.5769C102.169 73.5768 104.426 72.7178 107.349 71.9998C107.144 71.846 106.515 71.3716 105.464 70.5767C104.413 69.7818 103.605 68.9612 103.041 68.115C102.502 67.2689 102.233 66.4227 102.233 65.5765C102.233 63.7302 102.926 62.2302 104.31 61.0763C105.695 59.8967 107.426 59.0505 109.503 58.5377C111.605 58.0249 113.772 57.7684 116.003 57.7684C118.695 57.7684 120.99 58.1274 122.888 58.8454C124.785 59.5634 126.209 60.4865 127.157 61.6148C128.106 62.743 128.58 63.9226 128.58 65.1534C128.58 66.4868 128.106 67.6407 127.157 68.6151C126.209 69.5638 125.016 70.3587 123.58 70.9998C122.144 71.6408 120.362 72.2819 118.234 72.9229L127.35 79.6155C129.145 77.8206 130.042 75.5256 130.042 72.7306H135.965C135.965 76.7821 134.465 80.0771 131.465 82.6157L137.466 87.0005ZM111.118 65.2688C111.118 66.7817 112.259 68.4356 114.541 70.2305C116.311 69.6664 117.683 68.9997 118.657 68.2304C119.631 67.4612 120.119 66.4611 120.119 65.2303C120.119 64.2303 119.747 63.3969 119.003 62.7302C118.285 62.0635 117.17 61.7302 115.657 61.7302C114.272 61.7302 113.17 62.0507 112.349 62.6917C111.528 63.3071 111.118 64.1662 111.118 65.2688ZM116.195 83.2696C118.119 83.2696 119.965 83.0388 121.734 82.5772L111.618 75.1538C110.49 75.6667 109.618 76.2051 109.003 76.7693C108.413 77.3334 108.118 78.0001 108.118 78.7694C108.118 79.513 108.464 80.231 109.157 80.9233C109.875 81.6156 110.849 82.1798 112.08 82.6157C113.311 83.0516 114.682 83.2696 116.195 83.2696ZM65.1159 112.808C65.1159 114.961 64.2953 116.923 62.6542 118.692C61.0131 120.436 58.7438 121.821 55.8462 122.846C52.9487 123.847 49.705 124.347 46.1151 124.347H44.3457V127H34.8838V124.347H33.3837H33.1529H33.1145C29.6528 124.347 26.4219 123.834 23.4217 122.808C20.4216 121.782 18.0113 120.398 16.1907 118.654C14.3957 116.885 13.4982 114.936 13.4982 112.808C13.4982 110.654 14.3829 108.705 16.1522 106.961C17.9472 105.217 20.3319 103.833 23.3064 102.807C26.3065 101.781 29.5374 101.256 32.9991 101.23H34.8838V98.5377H44.3457V101.23H46.1151C49.7306 101.256 52.9743 101.769 55.8462 102.769C58.7438 103.769 61.0131 105.153 62.6542 106.923C64.2953 108.666 65.1159 110.628 65.1159 112.808ZM34.8838 117.769V107.807H33.4607C30.9477 107.807 28.704 108.205 26.7296 109C24.7551 109.769 23.7679 111.038 23.7679 112.808C23.7679 114.551 24.7551 115.821 26.7296 116.615C28.7297 117.385 30.9734 117.769 33.4607 117.769H34.8838ZM45.9997 117.769C48.5126 117.769 50.6537 117.385 52.423 116.615C54.1923 115.846 55.077 114.577 55.077 112.808C55.077 111.013 54.1795 109.731 52.3846 108.961C50.6152 108.192 48.487 107.807 45.9997 107.807H44.3457V117.769H45.9997ZM83.0881 105.153C85.8575 105.153 88.3576 105.641 90.5885 106.615C92.8193 107.589 94.563 108.948 95.8195 110.692C97.0759 112.41 97.7041 114.346 97.7041 116.5C97.7041 118.628 97.0631 120.564 95.781 122.308C94.5245 124.026 92.7809 125.372 90.55 126.347C88.3448 127.321 85.8575 127.808 83.0881 127.808C80.4213 127.808 77.9212 127.321 75.5878 126.347C73.2544 125.347 71.3825 123.988 69.9722 122.27C68.5875 120.526 67.8951 118.603 67.8951 116.5C67.8951 114.372 68.5875 112.449 69.9722 110.731C71.3825 108.987 73.2415 107.628 75.5493 106.653C77.8828 105.653 80.3957 105.153 83.0881 105.153ZM83.0881 122.308C84.1138 122.308 85.0626 122.09 85.9344 121.654C86.8319 121.218 87.5499 120.564 88.0883 119.692C88.6268 118.795 88.8961 117.731 88.8961 116.5C88.8961 115.269 88.6268 114.218 88.0883 113.346C87.5499 112.449 86.8319 111.782 85.9344 111.346C85.0626 110.91 84.1138 110.692 83.0881 110.692C82.0881 110.692 81.1009 110.923 80.1265 111.384C79.1777 111.82 78.3956 112.474 77.7802 113.346C77.1648 114.218 76.8571 115.269 76.8571 116.5C76.8571 117.731 77.1648 118.782 77.7802 119.654C78.3956 120.526 79.1777 121.193 80.1265 121.654C81.1009 122.09 82.0881 122.308 83.0881 122.308ZM130.008 117C129.957 118.821 129.496 120.551 128.624 122.193C127.778 123.834 126.585 125.167 125.047 126.193C123.508 127.193 121.764 127.693 119.816 127.693C115.38 127.693 112.072 126.693 109.892 124.693V134.309H101.046V106.038H109.161L109.661 108.73C111.815 106.525 115.2 105.474 119.816 105.576C121.79 105.576 123.534 106.064 125.047 107.038C126.585 108.012 127.79 109.346 128.662 111.038C129.534 112.731 129.983 114.628 130.008 116.731V116.846V117ZM115.392 122.462C117.187 122.462 118.572 121.911 119.546 120.808C120.546 119.68 121.072 118.346 121.123 116.808C121.072 115.038 120.559 113.59 119.585 112.461C118.636 111.307 117.239 110.731 115.392 110.731C114.341 110.731 113.392 111 112.546 111.538C111.726 112.051 111.072 112.756 110.585 113.654C110.123 114.526 109.892 115.462 109.892 116.462V116.538C109.892 118.333 110.392 119.769 111.392 120.846C112.418 121.923 113.751 122.462 115.392 122.462ZM162.506 117.385H142.005C142.185 119 142.787 120.334 143.813 121.385C144.864 122.411 146.287 122.923 148.082 122.923C149.544 122.923 150.839 122.577 151.967 121.885C153.121 121.167 153.698 120.077 153.698 118.616H162.506C162.506 121.59 161.224 123.859 158.66 125.423C156.121 126.988 152.582 127.77 148.044 127.77C145.249 127.77 142.71 127.295 140.428 126.347C138.146 125.398 136.338 124.064 135.005 122.346C133.671 120.603 133.005 118.616 133.005 116.385C133.005 114.128 133.659 112.141 134.966 110.423C136.3 108.679 138.107 107.346 140.39 106.423C142.697 105.474 145.249 105 148.044 105C150.916 105 153.429 105.461 155.583 106.384C157.762 107.307 159.455 108.615 160.66 110.307C161.865 111.974 162.48 113.936 162.506 116.192V116.385H162.583H162.506V117.385ZM148.044 109.692C146.351 109.692 145.056 110.051 144.159 110.769C143.262 111.487 142.646 112.487 142.313 113.769H153.467C153.185 112.487 152.621 111.487 151.775 110.769C150.929 110.051 149.685 109.692 148.044 109.692ZM183.931 115.423L194.893 127H184.584L174.776 117.269V127H165.93V106.038H174.776V113.692L183.392 106.038H193.816L183.931 115.423ZM193.494 116.654C193.494 114.5 194.135 112.564 195.417 110.846C196.699 109.102 198.456 107.743 200.687 106.769C202.918 105.794 205.379 105.307 208.072 105.307C210.636 105.307 212.892 105.705 214.841 106.5C216.816 107.269 218.405 108.359 219.611 109.769C220.816 111.179 221.611 112.808 221.995 114.654H213.149C212.867 113.5 212.277 112.577 211.38 111.884C210.482 111.192 209.392 110.846 208.11 110.846C206.443 110.846 205.084 111.384 204.033 112.461C202.982 113.513 202.456 114.91 202.456 116.654C202.456 118.346 202.969 119.744 203.995 120.846C205.02 121.923 206.366 122.462 208.033 122.462C209.341 122.462 210.444 122.116 211.341 121.423C212.239 120.731 212.828 119.821 213.11 118.692H221.957C221.675 120.436 220.906 122.013 219.649 123.423C218.393 124.834 216.752 125.949 214.726 126.77C212.726 127.59 210.508 128.001 208.072 128.001C205.405 128.001 202.956 127.513 200.725 126.539C198.494 125.539 196.725 124.18 195.417 122.462C194.135 120.718 193.494 118.782 193.494 116.654Z" fill="url(#paint2_linear_2504_508)"/>
</g>
<defs>
<filter id="filter0_f_2504_508" x="9.65197" y="14.6909" width="216.19" height="123.463" filterUnits="userSpaceOnUse" color-interpolation-filters="sRGB">
<feFlood flood-opacity="0" result="BackgroundImageFix"/>
<feBlend mode="normal" in="SourceGraphic" in2="BackgroundImageFix" result="shape"/>
<feGaussianBlur stdDeviation="1.92316" result="effect1_foregroundBlur_2504_508"/>
</filter>
<filter id="filter1_i_2504_508" x="13.4983" y="18.5377" width="208.497" height="117.053" filterUnits="userSpaceOnUse" color-interpolation-filters="sRGB">
<feFlood flood-opacity="0" result="BackgroundImageFix"/>
<feBlend mode="normal" in="SourceGraphic" in2="BackgroundImageFix" result="shape"/>
<feColorMatrix in="SourceAlpha" type="matrix" values="0 0 0 0 0 0 0 0 0 0 0 0 0 0 0 0 0 0 127 0" result="hardAlpha"/>
<feOffset dy="1.28211"/>
<feGaussianBlur stdDeviation="0.641054"/>
<feComposite in2="hardAlpha" operator="arithmetic" k2="-1" k3="1"/>
<feColorMatrix type="matrix" values="0 0 0 0 1 0 0 0 0 1 0 0 0 0 1 0 0 0 0.25 0"/>
<feBlend mode="normal" in2="shape" result="effect1_innerShadow_2504_508"/>
</filter>
<linearGradient id="paint0_linear_2504_508" x1="1.6377" y1="1" x2="233.882" y2="1" gradientUnits="userSpaceOnUse">
<stop stop-color="#FF3842"/>
<stop offset="0.489317" stop-color="#FF37E7"/>
<stop offset="1" stop-color="#3535FF"/>
</linearGradient>
<linearGradient id="paint1_linear_2504_508" x1="118" y1="21" x2="118" y2="132" gradientUnits="userSpaceOnUse">
<stop stop-color="white" stop-opacity="0.3"/>
<stop offset="0.477654" stop-color="white" stop-opacity="0"/>
<stop offset="1" stop-color="white" stop-opacity="0.2"/>
</linearGradient>
<linearGradient id="paint2_linear_2504_508" x1="1.6377" y1="1.00049" x2="233.882" y2="1.00049" gradientUnits="userSpaceOnUse">
<stop stop-color="#FF3842"/>
<stop offset="0.489317" stop-color="#FF37E7"/>
<stop offset="1" stop-color="#3535FF"/>
</linearGradient>
</defs>
</svg>
