<svg width="889" height="99" viewBox="0 0 889 99" fill="none" xmlns="http://www.w3.org/2000/svg">
<g filter="url(#filter0_f_2485_520)">
<path d="M39.1762 38.9167L67.3995 67H46.1795L25.1695 45.2897V67H7.87136V15.1755H25.1695V33.174L44.9189 15.1755H66.349L39.1762 38.9167ZM124.952 48.7914C124.859 52.1063 124.018 55.2578 122.431 58.2459C120.89 61.2339 118.719 63.6618 115.918 65.5293C113.116 67.3502 109.942 68.2606 106.393 68.2606C98.3161 68.2606 92.2932 66.4397 88.3247 62.798V80.3063H72.217V28.8319H86.994L87.9045 33.7343C91.8263 29.719 97.9892 27.8048 106.393 27.9915C109.988 27.9915 113.163 28.8786 115.918 30.6528C118.719 32.427 120.913 34.8548 122.501 37.9362C124.088 41.0177 124.905 44.4727 124.952 48.3011V48.5112V48.7914ZM98.3394 58.7361C101.608 58.7361 104.129 57.7323 105.903 55.7247C107.724 53.6704 108.681 51.2425 108.774 48.4412C108.681 45.2197 107.747 42.5818 105.973 40.5275C104.246 38.4265 101.701 37.376 98.3394 37.376C96.4252 37.376 94.6977 37.8662 93.157 38.8467C91.6629 39.7804 90.4724 41.0644 89.5853 42.6985C88.7449 44.2859 88.3247 45.9901 88.3247 47.8109V47.951C88.3247 51.2192 89.2351 53.8338 91.056 55.7947C92.9235 57.7556 95.3513 58.7361 98.3394 58.7361ZM147.075 50.8223L167.455 28.8319H183.563V67H167.455V44.9396L147.075 67H131.458V28.8319H147.075V50.8223ZM190.767 28.8319H241.051V67H224.943V39.9672H206.875V67H190.767V28.8319ZM299.146 28.8319V40.7376H281.708V67H265.6V40.7376H247.952V28.8319H299.146ZM331.963 27.2212C337.006 27.2212 341.558 28.1083 345.62 29.8824C349.682 31.6566 352.857 34.1311 355.144 37.3059C357.432 40.4341 358.576 43.9591 358.576 47.8809C358.576 51.7561 357.409 55.2811 355.074 58.456C352.787 61.5841 349.612 64.0353 345.55 65.8094C341.535 67.5836 337.006 68.4707 331.963 68.4707C327.108 68.4707 322.556 67.5836 318.307 65.8094C314.058 63.9886 310.65 61.5141 308.082 58.3859C305.561 55.2111 304.3 51.7094 304.3 47.8809C304.3 44.0058 305.561 40.5041 308.082 37.376C310.65 34.2011 314.035 31.7266 318.237 29.9525C322.486 28.1316 327.061 27.2212 331.963 27.2212ZM331.963 58.456C333.831 58.456 335.558 58.0591 337.146 57.2654C338.78 56.4717 340.087 55.2811 341.068 53.6937C342.048 52.0596 342.538 50.122 342.538 47.8809C342.538 45.6399 342.048 43.7256 341.068 42.1382C340.087 40.5041 338.78 39.2902 337.146 38.4965C335.558 37.7028 333.831 37.3059 331.963 37.3059C330.143 37.3059 328.345 37.7261 326.571 38.5665C324.843 39.3602 323.419 40.5508 322.299 42.1382C321.178 43.7256 320.618 45.6399 320.618 47.8809C320.618 50.122 321.178 52.0362 322.299 53.6237C323.419 55.2111 324.843 56.425 326.571 57.2654C328.345 58.0591 330.143 58.456 331.963 58.456ZM460.149 67H442.5L439.279 64.6189C436.431 65.646 433.466 66.4164 430.385 66.93C427.303 67.4435 424.315 67.7003 421.42 67.7003C412.409 67.7003 404.682 66.5098 398.239 64.1286C391.843 61.7475 388.645 57.7089 388.645 52.0129C388.645 48.698 390.092 46.1535 392.987 44.3793C395.882 42.5584 399.99 40.9944 405.313 39.6871C404.939 39.4069 403.795 38.5432 401.881 37.0958C399.967 35.6485 398.496 34.1545 397.469 32.6137C396.489 31.073 395.998 29.5323 395.998 27.9915C395.998 24.6299 397.259 21.8987 399.78 19.7977C402.301 17.65 405.453 16.1092 409.235 15.1755C413.063 14.2417 417.008 13.7748 421.07 13.7748C425.973 13.7748 430.151 14.4284 433.606 15.7357C437.061 17.043 439.652 18.7238 441.38 20.7781C443.107 22.8324 443.971 24.9801 443.971 27.2212C443.971 29.649 443.107 31.75 441.38 33.5242C439.652 35.2516 437.481 36.699 434.867 37.8662C432.252 39.0334 429.007 40.2006 425.132 41.3679L441.73 53.5536C444.998 50.2854 446.632 46.1068 446.632 41.0177H457.417C457.417 48.3945 454.686 54.394 449.224 59.0162L460.149 67ZM412.176 27.4313C412.176 30.1859 414.254 33.1973 418.409 36.4655C421.63 35.4384 424.128 34.2245 425.903 32.8238C427.677 31.4232 428.564 29.6023 428.564 27.3612C428.564 25.5404 427.887 24.023 426.533 22.8091C425.226 21.5952 423.195 20.9882 420.44 20.9882C417.919 20.9882 415.911 21.5718 414.417 22.739C412.923 23.8596 412.176 25.4237 412.176 27.4313ZM421.42 60.2068C424.922 60.2068 428.284 59.7866 431.505 58.9462L413.086 45.4298C411.032 46.3636 409.445 47.344 408.324 48.3712C407.25 49.3983 406.713 50.6122 406.713 52.0129C406.713 53.3669 407.344 54.6742 408.604 55.9348C409.912 57.1954 411.686 58.2225 413.927 59.0162C416.168 59.8099 418.666 60.2068 421.42 60.2068ZM583.955 41.1578C583.955 45.0796 582.461 48.6513 579.473 51.8728C576.485 55.0477 572.353 57.5689 567.077 59.4364C561.801 61.2573 555.895 62.1677 549.358 62.1677H546.137V67H528.909V62.1677H526.177H525.757H525.687C519.384 62.1677 513.501 61.2339 508.039 59.3664C502.576 57.4988 498.187 54.9776 494.873 51.8028C491.604 48.5813 489.97 45.0329 489.97 41.1578C489.97 37.2359 491.581 33.6876 494.803 30.5127C498.071 27.3379 502.413 24.8167 507.829 22.9491C513.291 21.0816 519.174 20.1245 525.477 20.0778H528.909V15.1755H546.137V20.0778H549.358C555.941 20.1245 561.848 21.0583 567.077 22.8791C572.353 24.7 576.485 27.2212 579.473 30.4427C582.461 33.6175 583.955 37.1892 583.955 41.1578ZM528.909 50.192V32.0535H526.317C521.742 32.0535 517.657 32.7771 514.062 34.2245C510.467 35.6251 508.669 37.9362 508.669 41.1578C508.669 44.3326 510.467 46.6437 514.062 48.091C517.703 49.4917 521.789 50.192 526.317 50.192H528.909ZM549.148 50.192C553.724 50.192 557.622 49.4917 560.844 48.091C564.065 46.6904 565.676 44.3793 565.676 41.1578C565.676 37.8896 564.042 35.5551 560.774 34.1545C557.552 32.7538 553.677 32.0535 549.148 32.0535H546.137V50.192H549.148ZM616.678 27.2212C621.721 27.2212 626.273 28.1083 630.335 29.8824C634.397 31.6566 637.571 34.1311 639.859 37.3059C642.147 40.4341 643.291 43.9591 643.291 47.8809C643.291 51.7561 642.124 55.2811 639.789 58.456C637.501 61.5841 634.327 64.0353 630.265 65.8094C626.249 67.5836 621.721 68.4707 616.678 68.4707C611.823 68.4707 607.27 67.5836 603.022 65.8094C598.773 63.9886 595.365 61.5141 592.797 58.3859C590.276 55.2111 589.015 51.7094 589.015 47.8809C589.015 44.0058 590.276 40.5041 592.797 37.376C595.365 34.2011 598.75 31.7266 602.952 29.9525C607.2 28.1316 611.776 27.2212 616.678 27.2212ZM616.678 58.456C618.546 58.456 620.273 58.0591 621.861 57.2654C623.495 56.4717 624.802 55.2811 625.783 53.6937C626.763 52.0596 627.253 50.122 627.253 47.8809C627.253 45.6399 626.763 43.7256 625.783 42.1382C624.802 40.5041 623.495 39.2902 621.861 38.4965C620.273 37.7028 618.546 37.3059 616.678 37.3059C614.857 37.3059 613.06 37.7261 611.286 38.5665C609.558 39.3602 608.134 40.5508 607.014 42.1382C605.893 43.7256 605.333 45.6399 605.333 47.8809C605.333 50.122 605.893 52.0362 607.014 53.6237C608.134 55.2111 609.558 56.425 611.286 57.2654C613.06 58.0591 614.857 58.456 616.678 58.456ZM702.11 48.7914C702.017 52.1063 701.176 55.2578 699.589 58.2459C698.048 61.2339 695.877 63.6618 693.076 65.5293C690.274 67.3502 687.1 68.2606 683.551 68.2606C675.474 68.2606 669.451 66.4397 665.483 62.798V80.3063H649.375V28.8319H664.152L665.062 33.7343C668.984 29.719 675.147 27.8048 683.551 27.9915C687.146 27.9915 690.321 28.8786 693.076 30.6528C695.877 32.427 698.071 34.8548 699.659 37.9362C701.246 41.0177 702.063 44.4727 702.11 48.3011V48.5112V48.7914ZM675.497 58.7361C678.766 58.7361 681.287 57.7323 683.061 55.7247C684.882 53.6704 685.839 51.2425 685.932 48.4412C685.839 45.2197 684.905 42.5818 683.131 40.5275C681.403 38.4265 678.859 37.376 675.497 37.376C673.583 37.376 671.856 37.8662 670.315 38.8467C668.821 39.7804 667.63 41.0644 666.743 42.6985C665.903 44.2859 665.483 45.9901 665.483 47.8109V47.951C665.483 51.2192 666.393 53.8338 668.214 55.7947C670.081 57.7556 672.509 58.7361 675.497 58.7361ZM761.281 49.4917H723.953C724.28 52.4331 725.377 54.8609 727.245 56.7752C729.159 58.6427 731.75 59.5765 735.018 59.5765C737.68 59.5765 740.038 58.9462 742.092 57.6856C744.193 56.3783 745.243 54.394 745.243 51.7328H761.281C761.281 57.1487 758.946 61.2806 754.278 64.1286C749.655 66.9767 743.212 68.4007 734.948 68.4007C729.859 68.4007 725.237 67.5369 721.082 65.8094C716.927 64.082 713.635 61.6541 711.207 58.526C708.779 55.3512 707.565 51.7328 707.565 47.6708C707.565 43.5622 708.756 39.9439 711.137 36.8157C713.565 33.6409 716.857 31.2131 721.012 29.5323C725.214 27.8048 729.859 26.941 734.948 26.941C740.178 26.941 744.753 27.7814 748.675 29.4622C752.643 31.143 755.725 33.5242 757.919 36.6056C760.114 39.6404 761.234 43.2121 761.281 47.3207V47.6708H761.421H761.281V49.4917ZM734.948 35.4851C731.867 35.4851 729.509 36.1387 727.875 37.446C726.241 38.7533 725.12 40.5742 724.513 42.9086H744.823C744.31 40.5742 743.282 38.7533 741.742 37.446C740.201 36.1387 737.937 35.4851 734.948 35.4851ZM800.29 45.92L820.25 67H801.481L783.623 49.2816V67H767.515V28.8319H783.623V42.7685L799.31 28.8319H818.289L800.29 45.92ZM817.704 48.1611C817.704 44.2392 818.871 40.7142 821.205 37.5861C823.54 34.4112 826.738 31.9367 830.8 30.1626C834.862 28.3884 839.344 27.5013 844.246 27.5013C848.915 27.5013 853.024 28.225 856.572 29.6723C860.167 31.073 863.062 33.0573 865.256 35.6251C867.45 38.193 868.898 41.1578 869.598 44.5194H853.49C852.977 42.4184 851.903 40.7376 850.269 39.477C848.635 38.2164 846.651 37.5861 844.316 37.5861C841.281 37.5861 838.807 38.5665 836.893 40.5275C834.978 42.4417 834.021 44.9862 834.021 48.1611C834.021 51.2425 834.955 53.7871 836.823 55.7947C838.69 57.7556 841.141 58.7361 844.176 58.7361C846.557 58.7361 848.565 58.1058 850.199 56.8452C851.833 55.5846 852.907 53.9271 853.42 51.8728H869.528C869.014 55.0477 867.614 57.919 865.326 60.4869C863.038 63.0548 860.05 65.0858 856.362 66.5798C852.72 68.0738 848.682 68.8209 844.246 68.8209C839.39 68.8209 834.932 67.9338 830.87 66.1596C826.808 64.3387 823.586 61.8642 821.205 58.7361C818.871 55.5613 817.704 52.0362 817.704 48.1611Z" fill="url(#paint0_linear_2485_520)"/>
</g>
<path d="M42.7424 39.4487L41.9744 38.5697L41.0318 39.3932L41.9191 40.2761L42.7424 39.4487ZM71.4361 68V69.1672H74.264L72.2594 67.1726L71.4361 68ZM49.8624 68L49.0236 68.8117L49.3677 69.1672H49.8624V68ZM28.5023 45.9279L29.3411 45.1162L27.3351 43.0433V45.9279H28.5023ZM28.5023 68V69.1672H29.6695V68H28.5023ZM10.9158 68H9.74858V69.1672H10.9158V68ZM10.9158 15.3117V14.1445H9.74858V15.3117H10.9158ZM28.5023 15.3117H29.6695V14.1445H28.5023V15.3117ZM28.5023 33.6102H27.3351V36.2532L29.2885 34.4729L28.5023 33.6102ZM48.5808 15.3117V14.1445H48.1287L47.7946 14.449L48.5808 15.3117ZM70.3681 15.3117L71.1361 16.1907L73.4781 14.1445H70.3681V15.3117ZM41.9191 40.2761L70.6128 68.8274L72.2594 67.1726L43.5657 38.6213L41.9191 40.2761ZM71.4361 66.8328H49.8624V69.1672H71.4361V66.8328ZM50.7012 67.1883L29.3411 45.1162L27.6635 46.7396L49.0236 68.8117L50.7012 67.1883ZM27.3351 45.9279V68H29.6695V45.9279H27.3351ZM28.5023 66.8328H10.9158V69.1672H28.5023V66.8328ZM12.083 68V15.3117H9.74858V68H12.083ZM10.9158 16.479H28.5023V14.1445H10.9158V16.479ZM27.3351 15.3117V33.6102H29.6695V15.3117H27.3351ZM29.2885 34.4729L49.367 16.1744L47.7946 14.449L27.7161 32.7475L29.2885 34.4729ZM48.5808 16.479H70.3681V14.1445H48.5808V16.479ZM69.6001 14.4327L41.9744 38.5697L43.5103 40.3276L71.1361 16.1907L69.6001 14.4327ZM128.524 49.4879L129.691 49.5208L129.691 49.5043V49.4879H128.524ZM125.961 59.1L124.93 58.5523L124.926 58.5587L124.923 58.565L125.961 59.1ZM119.339 66.5048L119.975 67.4835L119.986 67.476L119.339 66.5048ZM91.286 63.728L92.0752 62.868L90.1188 61.0727V63.728H91.286ZM91.286 81.5281V82.6953H92.4532V81.5281H91.286ZM74.9099 81.5281H73.7427V82.6953H74.9099V81.5281ZM74.9099 29.1958V28.0286H73.7427V29.1958H74.9099ZM89.9332 29.1958L91.0808 28.9827L90.9036 28.0286H89.9332V29.1958ZM90.8588 34.1798L89.7112 34.393L90.1219 36.6047L91.6938 34.9954L90.8588 34.1798ZM109.656 28.3414L109.63 29.5083L109.643 29.5086H109.656V28.3414ZM119.339 31.047L118.707 32.0283L118.714 32.0331L119.339 31.047ZM126.032 38.4518L124.994 38.9864V38.9864L126.032 38.4518ZM128.524 48.9895H129.691V48.9824L129.691 48.9753L128.524 48.9895ZM109.157 56.5367L108.284 55.7625L108.283 55.7638L109.157 56.5367ZM112.076 49.1319L113.243 49.1708L113.244 49.1344L113.243 49.0981L112.076 49.1319ZM109.228 41.0863L108.327 41.8276L108.336 41.8385L108.345 41.8492L109.228 41.0863ZM96.1988 39.3775L96.8175 40.3673L96.8255 40.3622L96.1988 39.3775ZM92.5676 43.2935L91.5417 42.7366L91.536 42.7473L92.5676 43.2935ZM94.0628 56.6079L93.2075 57.4022L93.2125 57.4076L93.2176 57.4129L94.0628 56.6079ZM127.357 49.455C127.267 52.6417 126.461 55.6699 124.93 58.5523L126.991 59.6476C128.688 56.4542 129.59 53.0744 129.691 49.5208L127.357 49.455ZM124.923 58.565C123.448 61.4265 121.375 63.7447 118.691 65.5336L119.986 67.476C122.999 65.4675 125.341 62.8492 126.998 59.6349L124.923 58.565ZM118.703 65.5261C116.056 67.2465 113.052 68.1144 109.656 68.1144V70.4488C113.474 70.4488 116.926 69.4655 119.975 67.4834L118.703 65.5261ZM109.656 68.1144C101.594 68.1144 95.8086 66.294 92.0752 62.868L90.4968 64.588C94.8327 68.5668 101.294 70.4488 109.656 70.4488V68.1144ZM90.1188 63.728V81.5281H92.4532V63.728H90.1188ZM91.286 80.3608H74.9099V82.6953H91.286V80.3608ZM76.0771 81.5281V29.1958H73.7427V81.5281H76.0771ZM74.9099 30.363H89.9332V28.0286H74.9099V30.363ZM88.7856 29.4089L89.7112 34.393L92.0064 33.9667L91.0808 28.9827L88.7856 29.4089ZM91.6938 34.9954C95.363 31.2388 101.248 29.3221 109.63 29.5083L109.682 27.1745C100.975 26.981 94.329 28.9566 90.0238 33.3642L91.6938 34.9954ZM109.656 29.5086C113.109 29.5086 116.113 30.3576 118.707 32.0283L119.971 30.0657C116.964 28.1289 113.512 27.1742 109.656 27.1742V29.5086ZM118.714 32.0331C121.379 33.7206 123.471 36.0294 124.994 38.9864L127.069 37.9173C125.365 34.6086 122.995 31.9809 119.963 30.0609L118.714 32.0331ZM124.994 38.9864C126.517 41.9419 127.311 45.2734 127.357 49.0037L129.691 48.9753C129.641 44.9211 128.775 41.2274 127.069 37.9173L124.994 38.9864ZM127.357 48.9895V49.2031H129.691V48.9895H127.357ZM127.357 49.2031V49.4879H129.691V49.2031H127.357ZM101.468 60.7656C105.045 60.7656 107.959 59.6557 110.032 57.3097L108.283 55.7638C106.748 57.5 104.536 58.4311 101.468 58.4311V60.7656ZM110.031 57.311C112.066 55.0143 113.139 52.2843 113.243 49.1708L110.91 49.093C110.824 51.6755 109.951 53.8821 108.284 55.7625L110.031 57.311ZM113.243 49.0981C113.142 45.6069 112.123 42.6515 110.112 40.3233L108.345 41.8492C109.942 43.6981 110.821 46.1065 110.91 49.1657L113.243 49.0981ZM110.13 40.345C108.101 37.8766 105.144 36.715 101.468 36.715V39.0495C104.626 39.0495 106.844 40.0239 108.327 41.8276L110.13 40.345ZM101.468 36.715C99.3107 36.715 97.3351 37.2708 95.5722 38.3927L96.8255 40.3622C98.1953 39.4905 99.7322 39.0495 101.468 39.0495V36.715ZM95.5802 38.3877C93.8809 39.4497 92.5342 40.9084 91.5418 42.7366L93.5934 43.8503C94.4047 42.3559 95.4789 41.2039 96.8174 40.3673L95.5802 38.3877ZM91.536 42.7473C90.5913 44.5319 90.1188 46.4522 90.1188 48.4911H92.4532C92.4532 46.8275 92.8351 45.2828 93.5992 43.8396L91.536 42.7473ZM90.1188 48.4911V48.6335H92.4532V48.4911H90.1188ZM90.1188 48.6335C90.1188 52.1822 91.1135 55.1472 93.2075 57.4022L94.9181 55.8137C93.3097 54.0815 92.4532 51.7302 92.4532 48.6335H90.1188ZM93.2176 57.4129C95.3606 59.6631 98.1469 60.7656 101.468 60.7656V58.4311C98.7126 58.4311 96.5624 57.5401 94.908 55.803L93.2176 57.4129ZM149.592 51.5527H148.425V54.5294L150.448 52.3461L149.592 51.5527ZM170.311 29.1958V28.0286H169.801L169.455 28.4024L170.311 29.1958ZM186.687 29.1958H187.854V28.0286H186.687V29.1958ZM186.687 68V69.1672H187.854V68H186.687ZM170.311 68H169.144V69.1672H170.311V68ZM170.311 45.5719H171.478V42.5883L169.454 44.7798L170.311 45.5719ZM149.592 68V69.1672H150.103L150.449 68.792L149.592 68ZM133.714 68H132.547V69.1672H133.714V68ZM133.714 29.1958V28.0286H132.547V29.1958H133.714ZM149.592 29.1958H150.759V28.0286H149.592V29.1958ZM150.448 52.3461L171.167 29.9892L169.455 28.4024L148.736 50.7593L150.448 52.3461ZM170.311 30.363H186.687V28.0286H170.311V30.363ZM185.52 29.1958V68H187.854V29.1958H185.52ZM186.687 66.8328H170.311V69.1672H186.687V66.8328ZM171.478 68V45.5719H169.144V68H171.478ZM169.454 44.7798L148.734 67.208L150.449 68.792L171.169 46.3639L169.454 44.7798ZM149.592 66.8328H133.714V69.1672H149.592V66.8328ZM134.881 68V29.1958H132.547V68H134.881ZM133.714 30.363H149.592V28.0286H133.714V30.363ZM148.425 29.1958V51.5527H150.759V29.1958H148.425ZM192.588 29.1958V28.0286H191.421V29.1958H192.588ZM243.71 29.1958H244.877V28.0286H243.71V29.1958ZM243.71 68V69.1672H244.877V68H243.71ZM227.334 68H226.167V69.1672H227.334V68ZM227.334 40.5167H228.501V39.3494H227.334V40.5167ZM208.964 40.5167V39.3494H207.797V40.5167H208.964ZM208.964 68V69.1672H210.131V68H208.964ZM192.588 68H191.421V69.1672H192.588V68ZM192.588 30.363H243.71V28.0286H192.588V30.363ZM242.543 29.1958V68H244.877V29.1958H242.543ZM243.71 66.8328H227.334V69.1672H243.71V66.8328ZM228.501 68V40.5167H226.167V68H228.501ZM227.334 39.3494H208.964V41.6839H227.334V39.3494ZM207.797 40.5167V68H210.131V40.5167H207.797ZM208.964 66.8328H192.588V69.1672H208.964V66.8328ZM193.755 68V29.1958H191.421V68H193.755ZM301.349 29.1958H302.516V28.0286H301.349V29.1958ZM301.349 41.2999V42.4671H302.516V41.2999H301.349ZM283.62 41.2999V40.1326H282.453V41.2999H283.62ZM283.62 68V69.1672H284.787V68H283.62ZM267.244 68H266.077V69.1672H267.244V68ZM267.244 41.2999H268.411V40.1326H267.244V41.2999ZM249.301 41.2999H248.134V42.4671H249.301V41.2999ZM249.301 29.1958V28.0286H248.134V29.1958H249.301ZM300.182 29.1958V41.2999H302.516V29.1958H300.182ZM301.349 40.1326H283.62V42.4671H301.349V40.1326ZM282.453 41.2999V68H284.787V41.2999H282.453ZM283.62 66.8328H267.244V69.1672H283.62V66.8328ZM268.411 68V41.2999H266.077V68H268.411ZM267.244 40.1326H249.301V42.4671H267.244V40.1326ZM250.469 41.2999V29.1958H248.134V41.2999H250.469ZM249.301 30.363H301.349V28.0286H249.301V30.363ZM347.173 30.2638L347.641 29.1942L347.173 30.2638ZM356.857 37.811L355.91 38.4934L355.915 38.5001L356.857 37.811ZM356.785 59.3136L355.845 58.6221L355.843 58.6245L356.785 59.3136ZM347.102 66.7896L346.635 65.7199L346.63 65.722L347.102 66.7896ZM319.405 66.7896L318.945 67.8625L318.956 67.8667L319.405 66.7896ZM309.01 59.2424L308.096 59.9682L308.102 59.9756L308.108 59.9829L309.01 59.2424ZM309.01 37.8822L308.102 37.1482L308.101 37.1498L309.01 37.8822ZM319.334 30.335L319.788 31.4103L319.794 31.4078L319.334 30.335ZM338.558 58.1031L338.048 57.0532L338.036 57.0592L338.558 58.1031ZM342.545 54.4719L343.538 55.0853L343.542 55.0789L343.546 55.0725L342.545 54.4719ZM342.545 42.7239L341.544 43.3244L341.548 43.3308L341.552 43.3372L342.545 42.7239ZM338.558 39.0215L338.036 40.0655L338.048 40.0714L338.558 39.0215ZM327.807 39.0927L328.294 40.1533L328.307 40.1475L327.807 39.0927ZM323.464 42.7239L322.51 42.0508L323.464 42.7239ZM323.464 54.4007L322.51 55.0738L323.464 54.4007ZM327.807 58.1031L327.296 59.1528L327.313 59.161L327.33 59.1686L327.807 58.1031ZM333.289 28.7254C338.277 28.7254 342.743 29.6023 346.706 31.3334L347.641 29.1942C343.345 27.3178 338.555 26.391 333.289 26.391V28.7254ZM346.706 31.3334C350.67 33.0648 353.722 35.457 355.91 38.4934L357.804 37.1287C355.34 33.7096 351.936 31.0703 347.641 29.1942L346.706 31.3334ZM355.915 38.5001C358.092 41.4778 359.178 44.8196 359.178 48.5623H361.513C361.513 44.3305 360.273 40.5048 357.799 37.122L355.915 38.5001ZM359.178 48.5623C359.178 52.2488 358.074 55.5911 355.845 58.6221L357.726 60.005C360.244 56.5805 361.513 52.7553 361.513 48.5623H359.178ZM355.843 58.6245C353.656 61.6154 350.603 63.9868 346.635 65.72L347.569 67.8592C351.861 65.9849 355.263 63.3723 357.728 60.0026L355.843 58.6245ZM346.63 65.722C342.717 67.451 338.277 68.328 333.289 68.328V70.6624C338.554 70.6624 343.323 69.7357 347.574 67.8572L346.63 65.722ZM333.289 68.328C328.499 68.328 324.024 67.4535 319.855 65.7125L318.956 67.8667C323.425 69.7331 328.207 70.6624 333.289 70.6624V68.328ZM319.865 65.7168C315.693 63.9287 312.388 61.5181 309.912 58.5018L308.108 59.9829C310.853 63.3272 314.479 65.9481 318.945 67.8624L319.865 65.7168ZM309.924 58.5165C307.514 55.4821 306.332 52.1748 306.332 48.5623H303.998C303.998 52.7344 305.379 56.5471 308.096 59.9682L309.924 58.5165ZM306.332 48.5623C306.332 44.8995 307.516 41.5958 309.919 38.6147L308.101 37.1498C305.377 40.5293 303.998 44.3456 303.998 48.5623H306.332ZM309.918 38.6163C312.394 35.5547 315.672 33.1482 319.788 31.4103L318.88 29.2597C314.452 31.1293 310.848 33.7543 308.102 37.1482L309.918 38.6163ZM319.794 31.4078C323.959 29.6226 328.454 28.7254 333.289 28.7254V26.391C328.157 26.391 323.348 27.345 318.874 29.2622L319.794 31.4078ZM333.289 60.4808C335.359 60.4808 337.296 60.0394 339.08 59.1471L338.036 57.0592C336.593 57.7808 335.017 58.1463 333.289 58.1463V60.4808ZM339.068 59.1531C340.934 58.2467 342.429 56.8822 343.538 55.0853L341.552 53.8586C340.669 55.2894 339.505 56.3458 338.048 57.0532L339.068 59.1531ZM343.546 55.0725C344.67 53.2 345.208 51.0146 345.208 48.5623H342.873C342.873 50.6668 342.415 52.4212 341.544 53.8714L343.546 55.0725ZM345.208 48.5623C345.208 46.1111 344.67 43.9428 343.538 42.1105L341.552 43.3372C342.414 44.7327 342.873 46.4567 342.873 48.5623H345.208ZM343.546 42.1233C342.439 40.2778 340.944 38.8824 339.068 37.9715L338.048 40.0714C339.495 40.7743 340.658 41.8473 341.544 43.3244L343.546 42.1233ZM339.08 37.9775C337.296 37.0852 335.359 36.6438 333.289 36.6438V38.9783C335.017 38.9783 336.593 39.3438 338.036 40.0654L339.08 37.9775ZM333.289 36.6438C331.252 36.6438 329.255 37.1153 327.307 38.0378L328.307 40.1475C329.967 39.3612 331.624 38.9783 333.289 38.9783V36.6438ZM327.32 38.032C325.372 38.9268 323.765 40.2728 322.51 42.0508L324.417 43.397C325.441 41.9472 326.729 40.8724 328.294 40.1533L327.32 38.032ZM322.51 42.0508C321.211 43.8906 320.588 46.0811 320.588 48.5623H322.922C322.922 46.4867 323.438 44.7849 324.417 43.397L322.51 42.0508ZM320.588 48.5623C320.588 51.0435 321.211 53.234 322.51 55.0738L324.417 53.7276C323.438 52.3397 322.922 50.6379 322.922 48.5623H320.588ZM322.51 55.0738C323.762 56.8466 325.361 58.2112 327.296 59.1528L328.318 57.0535C326.74 56.2863 325.444 55.1826 324.417 53.7276L322.51 55.0738ZM327.33 59.1686C329.274 60.038 331.263 60.4808 333.289 60.4808V58.1463C331.613 58.1463 329.948 57.7821 328.284 57.0377L327.33 59.1686ZM460.763 68V69.1672H464.339L461.452 67.0576L460.763 68ZM442.821 68L442.127 68.9387L442.436 69.1672H442.821V68ZM439.545 65.5792L440.239 64.6405L439.737 64.2693L439.149 64.4812L439.545 65.5792ZM430.503 67.9288L430.311 66.7775L430.503 67.9288ZM397.822 65.0808L397.415 66.1747L397.417 66.1756L397.822 65.0808ZM392.482 45.0023L393.092 45.9975L393.103 45.9903L392.482 45.0023ZM405.013 40.2319L405.292 41.3654L407.686 40.7773L405.713 39.2981L405.013 40.2319ZM401.524 37.5974L400.82 38.5285L401.524 37.5974ZM397.039 33.0406L396.054 33.6673L396.061 33.6777L396.068 33.6881L397.039 33.0406ZM399.388 20.011L400.136 20.9077L400.145 20.8995L399.388 20.011ZM409 15.3117L408.724 14.1777L408.721 14.1785L409 15.3117ZM441.681 21.0078L440.788 21.759V21.759L441.681 21.0078ZM441.681 33.9662L442.507 34.7916L442.512 34.7861L442.518 34.7805L441.681 33.9662ZM435.06 38.3806L435.536 39.4465L435.06 38.3806ZM425.163 41.9407L424.826 40.823L422.587 41.4975L424.472 42.8815L425.163 41.9407ZM442.037 54.3295L441.347 55.2704L442.154 55.8634L442.863 55.1549L442.037 54.3295ZM447.021 41.5847V40.4174H445.854V41.5847H447.021ZM457.986 41.5847H459.153V40.4174H457.986V41.5847ZM449.656 59.8832L448.902 58.9921L447.769 59.9503L448.967 60.8256L449.656 59.8832ZM418.328 36.9566L417.606 37.8741L418.092 38.2567L418.682 38.0687L418.328 36.9566ZM425.946 33.2542L425.223 32.3381L425.946 33.2542ZM426.587 23.0726L425.793 23.9279L425.8 23.9348L425.808 23.9416L426.587 23.0726ZM414.269 23.0014L414.97 23.9351L414.979 23.9282L414.988 23.9212L414.269 23.0014ZM431.642 59.812L431.937 60.9414L434.31 60.3222L432.333 58.8709L431.642 59.812ZM412.916 46.0703L413.607 45.1293L413.056 44.7248L412.433 45.0077L412.916 46.0703ZM408.075 49.0607L407.286 48.2003L407.277 48.2087L407.268 48.2172L408.075 49.0607ZM408.36 56.7503L407.534 57.5757L407.542 57.5832L407.549 57.5906L408.36 56.7503ZM413.771 59.8832L413.381 60.9834L413.771 59.8832ZM460.763 66.8328H442.821V69.1672H460.763V66.8328ZM443.514 67.0613L440.239 64.6405L438.852 66.5178L442.127 68.9387L443.514 67.0613ZM439.149 64.4812C436.322 65.5008 433.376 66.2665 430.311 66.7775L430.695 69.0801C433.895 68.5468 436.977 67.7461 439.941 66.6772L439.149 64.4812ZM430.311 66.7775C427.237 67.2899 424.263 67.5448 421.389 67.5448V69.8792C424.401 69.8792 427.503 69.612 430.695 69.0801L430.311 66.7775ZM421.389 67.5448C412.326 67.5448 404.614 66.3466 398.227 63.9859L397.417 66.1756C404.131 68.6566 412.131 69.8792 421.389 69.8792V67.5448ZM398.229 63.9869C395.114 62.8274 392.878 61.301 391.421 59.4611C389.976 57.6364 389.235 55.425 389.235 52.7631H386.9C386.9 55.8922 387.785 58.6292 389.591 60.9104C391.386 63.1764 394.027 64.9134 397.415 66.1747L398.229 63.9869ZM389.235 52.7631C389.235 49.8109 390.485 47.5953 393.092 45.9975L391.872 44.0071C388.593 46.0168 386.9 48.975 386.9 52.7631H389.235ZM393.103 45.9903C395.896 44.2334 399.938 42.6803 405.292 41.3654L404.735 39.0983C399.266 40.4415 394.953 42.0687 391.86 44.0143L393.103 45.9903ZM405.713 39.2981C405.336 39.015 404.175 38.1386 402.228 36.6664L400.82 38.5285C402.766 39.9992 403.931 40.8791 404.313 41.1656L405.713 39.2981ZM402.228 36.6664C400.357 35.2517 398.964 33.8239 398.01 32.3932L396.068 33.6881C397.202 35.3901 398.799 37.0002 400.82 38.5285L402.228 36.6664ZM398.023 32.414C397.123 30.9997 396.711 29.6475 396.711 28.3414H394.376C394.376 30.1681 394.96 31.9488 396.054 33.6673L398.023 32.414ZM396.711 28.3414C396.711 25.2605 397.846 22.8157 400.136 20.9076L398.641 19.1143C395.804 21.4782 394.376 24.5871 394.376 28.3414H396.711ZM400.145 20.8995C402.548 18.8525 405.58 17.3584 409.28 16.4449L408.721 14.1785C404.731 15.1637 401.355 16.8025 398.631 19.1224L400.145 20.8995ZM409.277 16.4457C413.076 15.5191 416.994 15.0549 421.033 15.0549V12.7205C416.813 12.7205 412.709 13.2057 408.724 14.1778L409.277 16.4457ZM421.033 15.0549C425.92 15.0549 430.02 15.7073 433.365 16.973L434.191 14.7896C430.511 13.3973 426.115 12.7205 421.033 12.7205V15.0549ZM433.365 16.973C436.758 18.2568 439.199 19.8698 440.788 21.759L442.575 20.2565C440.651 17.9686 437.823 16.164 434.191 14.7896L433.365 16.973ZM440.788 21.759C442.404 23.6806 443.149 25.6065 443.149 27.5582H445.483C445.483 24.9531 444.471 22.512 442.575 20.2565L440.788 21.759ZM443.149 27.5582C443.149 29.7156 442.394 31.5613 440.845 33.152L442.518 34.7805C444.481 32.7637 445.483 30.3374 445.483 27.5582H443.149ZM440.856 33.1409C439.216 34.7806 437.134 36.1765 434.584 37.3148L435.536 39.4465C438.302 38.2115 440.634 36.6644 442.507 34.7916L440.856 33.1409ZM434.584 37.3148C431.985 38.4749 428.736 39.6453 424.826 40.823L425.499 43.0583C429.469 41.8627 432.818 40.6597 435.536 39.4465L434.584 37.3148ZM424.472 42.8815L441.347 55.2704L442.728 53.3887L425.854 40.9998L424.472 42.8815ZM442.863 55.1549C446.427 51.5901 448.189 47.0338 448.189 41.5847H445.854C445.854 46.4834 444.293 50.4235 441.212 53.5042L442.863 55.1549ZM447.021 42.7519H457.986V40.4174H447.021V42.7519ZM456.819 41.5847C456.819 48.7533 454.184 54.5224 448.902 58.9921L450.41 60.7742C456.235 55.8454 459.153 49.4156 459.153 41.5847H456.819ZM448.967 60.8256L460.074 68.9424L461.452 67.0576L450.344 58.9408L448.967 60.8256ZM410.824 27.7718C410.824 31.1509 413.338 34.5171 417.606 37.8741L419.049 36.0392C414.868 32.7508 413.158 29.9937 413.158 27.7718H410.824ZM418.682 38.0687C422.031 37.0009 424.715 35.7132 426.669 34.1703L425.223 32.3381C423.57 33.6433 421.174 34.8239 417.973 35.8446L418.682 38.0687ZM426.669 34.1704C428.751 32.5272 429.819 30.3398 429.819 27.7006H427.484C427.484 29.6182 426.749 31.1332 425.223 32.3381L426.669 34.1704ZM429.819 27.7006C429.819 25.5182 428.99 23.6594 427.366 22.2035L425.808 23.9416C426.937 24.954 427.484 26.1805 427.484 27.7006H429.819ZM427.381 22.2172C425.745 20.6976 423.333 20.0541 420.392 20.0541V22.3886C423.053 22.3886 424.771 22.9793 425.793 23.9279L427.381 22.2172ZM420.392 20.0541C417.655 20.0541 415.333 20.6887 413.551 22.0816L414.988 23.9212C416.243 22.9407 418.004 22.3886 420.392 22.3886V20.0541ZM413.569 22.0676C411.731 23.4458 410.824 25.3953 410.824 27.7718H413.158C413.158 26.0661 413.769 24.8354 414.97 23.9351L413.569 22.0676ZM421.389 62.2608C425.044 62.2608 428.56 61.8221 431.937 60.9414L431.347 58.6825C428.173 59.5106 424.855 59.9263 421.389 59.9263V62.2608ZM432.333 58.8709L413.607 45.1293L412.226 47.0113L430.952 60.753L432.333 58.8709ZM412.433 45.0077C410.282 45.9857 408.548 47.0432 407.286 48.2003L408.863 49.9211C409.88 48.9897 411.374 48.0535 413.399 47.1329L412.433 45.0077ZM407.268 48.2172C405.962 49.4667 405.27 50.9995 405.27 52.7631H407.604C407.604 51.6787 408.004 50.7433 408.882 49.9042L407.268 48.2172ZM405.27 52.7631C405.27 54.538 406.106 56.1471 407.534 57.5757L409.185 55.925C408.05 54.7903 407.604 53.7414 407.604 52.7631H405.27ZM407.549 57.5906C409.029 59.0178 410.992 60.1373 413.381 60.9834L414.16 58.7829C411.993 58.0152 410.348 57.0461 409.17 55.9101L407.549 57.5906ZM413.381 60.9834C415.803 61.8411 418.477 62.2608 421.389 62.2608V59.9263C418.701 59.9263 416.296 59.5391 414.16 58.7829L413.381 60.9834ZM579.228 52.6207L580.078 53.4207L580.083 53.4145L579.228 52.6207ZM566.625 60.3104L567.006 61.4137L567.015 61.4107L566.625 60.3104ZM545.336 63.0872V61.92H544.169V63.0872H545.336ZM545.336 68V69.1672H546.503V68H545.336ZM527.821 68H526.654V69.1672H527.821V68ZM527.821 63.0872H528.988V61.92H527.821V63.0872ZM506.603 60.2392L506.981 59.1347L506.603 60.2392ZM493.218 52.5495L492.398 53.3808L492.404 53.3867L492.41 53.3925L493.218 52.5495ZM493.146 30.9046L492.333 30.0674L492.327 30.0733L493.146 30.9046ZM506.39 23.215L506.012 22.1105L506.009 22.1115L506.39 23.215ZM524.332 20.2958V19.1285L524.324 19.1286L524.332 20.2958ZM527.821 20.2958V21.463H528.988V20.2958H527.821ZM527.821 15.3117V14.1445H526.654V15.3117H527.821ZM545.336 15.3117H546.503V14.1445H545.336V15.3117ZM545.336 20.2958H544.169V21.463H545.336V20.2958ZM548.612 20.2958L548.62 19.1285H548.612V20.2958ZM566.625 23.1438L566.241 24.2461L566.244 24.2471L566.625 23.1438ZM579.228 30.8334L578.372 31.6272L578.378 31.6334L579.228 30.8334ZM527.821 50.9119V52.0791H528.988V50.9119H527.821ZM527.821 32.471H528.988V31.3038H527.821V32.471ZM512.727 34.6782L513.15 35.7659L513.162 35.761L512.727 34.6782ZM512.727 48.7759L512.291 49.8587L512.299 49.8621L512.307 49.8653L512.727 48.7759ZM560.288 48.7759L559.823 47.7055L560.288 48.7759ZM560.217 34.607L559.752 35.6775L559.757 35.6799L560.217 34.607ZM545.336 32.471V31.3038H544.169V32.471H545.336ZM545.336 50.9119H544.169V52.0791H545.336V50.9119ZM582.617 41.7271C582.617 45.3837 581.236 48.7395 578.372 51.827L580.083 53.4145C583.295 49.9515 584.952 46.0449 584.952 41.7271H582.617ZM578.378 51.8208C575.498 54.8802 571.472 57.3563 566.236 59.21L567.015 61.4107C572.505 59.4671 576.881 56.8167 580.078 53.4207L578.378 51.8208ZM566.244 59.207C561.022 61.0094 555.149 61.92 548.612 61.92V64.2544C555.365 64.2544 561.501 63.3137 567.006 61.4137L566.244 59.207ZM548.612 61.92H545.336V64.2544H548.612V61.92ZM544.169 63.0872V68H546.503V63.0872H544.169ZM545.336 66.8328H527.821V69.1672H545.336V66.8328ZM528.988 68V63.0872H526.654V68H528.988ZM527.821 61.92H525.044V64.2544H527.821V61.92ZM525.044 61.92H524.617V64.2544H525.044V61.92ZM524.617 61.92H524.546V64.2544H524.617V61.92ZM524.546 61.92C518.254 61.92 512.402 60.9882 506.981 59.1347L506.226 61.3436C511.912 63.2875 518.021 64.2544 524.546 64.2544V61.92ZM506.981 59.1347C501.548 57.2772 497.245 54.7908 494.025 51.7066L492.41 53.3925C495.93 56.7638 500.552 59.4038 506.226 61.3436L506.981 59.1347ZM494.037 51.7183C490.893 48.6189 489.401 45.2973 489.401 41.7271H487.066C487.066 46.0363 488.897 49.9297 492.398 53.3808L494.037 51.7183ZM489.401 41.7271C489.401 38.1008 490.876 34.7809 493.966 31.736L492.327 30.0733C488.866 33.4839 487.066 37.3789 487.066 41.7271H489.401ZM493.96 31.7418C497.132 28.6602 501.386 26.1752 506.77 24.3184L506.009 22.1115C500.381 24.0521 495.806 26.6936 492.333 30.0674L493.96 31.7418ZM506.767 24.3194C512.192 22.4649 518.047 21.5096 524.341 21.4629L524.324 19.1286C517.801 19.1769 511.695 20.1677 506.012 22.1105L506.767 24.3194ZM524.332 21.463H527.821V19.1285H524.332V21.463ZM528.988 20.2958V15.3117H526.654V20.2958H528.988ZM527.821 16.479H545.336V14.1445H527.821V16.479ZM544.169 15.3117V20.2958H546.503V15.3117H544.169ZM545.336 21.463H548.612V19.1285H545.336V21.463ZM548.603 21.4629C555.192 21.5097 561.066 22.444 566.241 24.2461L567.009 22.0415C561.552 20.1411 555.417 19.1768 548.62 19.1286L548.603 21.4629ZM566.244 24.2471C571.475 26.0523 575.495 28.5256 578.372 31.6272L580.083 30.0396C576.885 26.5908 572.503 23.9377 567.006 22.0404L566.244 24.2471ZM578.378 31.6334C581.234 34.6679 582.617 38.0202 582.617 41.7271H584.952C584.952 37.3646 583.297 33.4545 580.078 30.0334L578.378 31.6334ZM528.988 50.9119V32.471H526.654V50.9119H528.988ZM527.821 31.3038H525.187V33.6382H527.821V31.3038ZM525.187 31.3038C520.412 31.3038 516.107 32.0591 512.291 33.5955L513.162 35.761C516.656 34.3544 520.658 33.6382 525.187 33.6382V31.3038ZM512.303 33.5906C510.34 34.3555 508.771 35.4059 507.693 36.7918C506.604 38.1923 506.077 39.8575 506.077 41.7271H508.411C508.411 40.3214 508.798 39.1742 509.536 38.225C510.286 37.2614 511.458 36.425 513.15 35.7658L512.303 33.5906ZM506.077 41.7271C506.077 43.5772 506.607 45.2293 507.693 46.6267C508.768 48.0087 510.332 49.0701 512.291 49.8587L513.162 47.6931C511.466 47.0102 510.289 46.161 509.536 45.1935C508.795 44.2412 508.411 43.1047 508.411 41.7271H506.077ZM512.307 49.8653C516.163 51.3483 520.462 52.0791 525.187 52.0791V49.7447C520.703 49.7447 516.695 49.0515 513.146 47.6865L512.307 49.8653ZM525.187 52.0791H527.821V49.7447H525.187V52.0791ZM548.398 52.0791C553.164 52.0791 557.294 51.3504 560.754 49.8463L559.823 47.7055C556.732 49.0495 552.936 49.7447 548.398 49.7447V52.0791ZM560.754 49.8463C562.541 49.0693 563.961 48.0042 564.931 46.6131C565.905 45.2153 566.368 43.5679 566.368 41.7271H564.034C564.034 43.1615 563.679 44.3265 563.015 45.2783C562.347 46.2367 561.311 47.0585 559.823 47.7055L560.754 49.8463ZM566.368 41.7271C566.368 39.8626 565.899 38.1964 564.911 36.7857C563.929 35.3816 562.489 34.3107 560.677 33.5342L559.757 35.6799C561.268 36.3274 562.32 37.1552 562.999 38.1244C563.673 39.087 564.034 40.2688 564.034 41.7271H566.368ZM560.683 33.5366C557.225 32.0332 553.118 31.3038 548.398 31.3038V33.6382C552.886 33.6382 556.659 34.3329 559.752 35.6775L560.683 33.5366ZM548.398 31.3038H545.336V33.6382H548.398V31.3038ZM544.169 32.471V50.9119H546.503V32.471H544.169ZM545.336 52.0791H548.398V49.7447H545.336V52.0791ZM629.513 30.2638L629.981 29.1942L629.513 30.2638ZM639.197 37.811L638.25 38.4934L638.255 38.5001L639.197 37.811ZM639.125 59.3136L638.185 58.6221L638.183 58.6245L639.125 59.3136ZM629.442 66.7896L628.975 65.7199L628.971 65.722L629.442 66.7896ZM601.745 66.7896L601.286 67.8625L601.296 67.8667L601.745 66.7896ZM591.35 59.2424L590.436 59.9682L590.442 59.9756L590.448 59.9829L591.35 59.2424ZM591.35 37.8822L590.443 37.1482L590.441 37.1498L591.35 37.8822ZM601.674 30.335L602.128 31.4103L602.134 31.4078L601.674 30.335ZM620.898 58.1031L620.388 57.0532L620.376 57.0592L620.898 58.1031ZM624.885 54.4719L625.879 55.0853L625.882 55.0789L625.886 55.0725L624.885 54.4719ZM624.885 42.7239L623.885 43.3244L623.888 43.3308L623.892 43.3372L624.885 42.7239ZM620.898 39.0215L620.376 40.0655L620.388 40.0714L620.898 39.0215ZM610.147 39.0927L610.634 40.1533L610.647 40.1475L610.147 39.0927ZM605.804 42.7239L604.85 42.0508L605.804 42.7239ZM605.804 54.4007L604.85 55.0738L605.804 54.4007ZM610.147 58.1031L609.636 59.1528L609.653 59.161L609.67 59.1686L610.147 58.1031ZM615.629 28.7254C620.617 28.7254 625.083 29.6023 629.046 31.3334L629.981 29.1942C625.685 27.3178 620.895 26.391 615.629 26.391V28.7254ZM629.046 31.3334C633.01 33.0648 636.062 35.457 638.25 38.4934L640.144 37.1287C637.68 33.7096 634.276 31.0703 629.981 29.1942L629.046 31.3334ZM638.255 38.5001C640.432 41.4778 641.518 44.8196 641.518 48.5623H643.853C643.853 44.3305 642.613 40.5048 640.139 37.122L638.255 38.5001ZM641.518 48.5623C641.518 52.2488 640.414 55.5911 638.185 58.6221L640.066 60.005C642.584 56.5805 643.853 52.7553 643.853 48.5623H641.518ZM638.183 58.6245C635.996 61.6154 632.943 63.9868 628.975 65.72L629.909 67.8592C634.201 65.9849 637.603 63.3723 640.068 60.0026L638.183 58.6245ZM628.971 65.722C625.057 67.451 620.617 68.328 615.629 68.328V70.6624C620.894 70.6624 625.663 69.7357 629.914 67.8572L628.971 65.722ZM615.629 68.328C610.839 68.328 606.364 67.4535 602.195 65.7125L601.296 67.8667C605.765 69.7331 610.547 70.6624 615.629 70.6624V68.328ZM602.205 65.7168C598.033 63.9287 594.728 61.5181 592.252 58.5018L590.448 59.9829C593.193 63.3272 596.819 65.9481 601.286 67.8624L602.205 65.7168ZM592.264 58.5165C589.854 55.4821 588.672 52.1748 588.672 48.5623H586.338C586.338 52.7344 587.719 56.5471 590.436 59.9682L592.264 58.5165ZM588.672 48.5623C588.672 44.8995 589.856 41.5958 592.259 38.6147L590.441 37.1498C587.717 40.5293 586.338 44.3456 586.338 48.5623H588.672ZM592.258 38.6163C594.734 35.5547 598.012 33.1482 602.128 31.4103L601.22 29.2597C596.792 31.1293 593.188 33.7543 590.443 37.1482L592.258 38.6163ZM602.134 31.4078C606.299 29.6226 610.794 28.7254 615.629 28.7254V26.391C610.497 26.391 605.688 27.345 601.214 29.2622L602.134 31.4078ZM615.629 60.4808C617.7 60.4808 619.636 60.0394 621.42 59.1471L620.376 57.0592C618.933 57.7808 617.357 58.1463 615.629 58.1463V60.4808ZM621.408 59.1531C623.274 58.2467 624.769 56.8822 625.879 55.0853L623.892 53.8586C623.009 55.2894 621.845 56.3458 620.388 57.0532L621.408 59.1531ZM625.886 55.0725C627.01 53.2 627.548 51.0146 627.548 48.5623H625.213C625.213 50.6668 624.755 52.4212 623.885 53.8714L625.886 55.0725ZM627.548 48.5623C627.548 46.1111 627.01 43.9428 625.878 42.1105L623.892 43.3372C624.754 44.7327 625.213 46.4567 625.213 48.5623H627.548ZM625.886 42.1233C624.779 40.2778 623.284 38.8824 621.408 37.9715L620.388 40.0714C621.836 40.7743 622.998 41.8473 623.885 43.3244L625.886 42.1233ZM621.42 37.9775C619.636 37.0852 617.7 36.6438 615.629 36.6438V38.9783C617.357 38.9783 618.933 39.3438 620.376 40.0654L621.42 37.9775ZM615.629 36.6438C613.592 36.6438 611.595 37.1153 609.647 38.0378L610.647 40.1475C612.307 39.3612 613.964 38.9783 615.629 38.9783V36.6438ZM609.66 38.032C607.712 38.9268 606.105 40.2728 604.85 42.0508L606.757 43.397C607.781 41.9472 609.069 40.8724 610.634 40.1533L609.66 38.032ZM604.85 42.0508C603.551 43.8906 602.928 46.0811 602.928 48.5623H605.262C605.262 46.4867 605.778 44.7849 606.757 43.397L604.85 42.0508ZM602.928 48.5623C602.928 51.0435 603.551 53.234 604.85 55.0738L606.757 53.7276C605.778 52.3397 605.262 50.6379 605.262 48.5623H602.928ZM604.85 55.0738C606.102 56.8466 607.701 58.2112 609.636 59.1528L610.658 57.0535C609.08 56.2863 607.784 55.1826 606.757 53.7276L604.85 55.0738ZM609.67 59.1686C611.614 60.038 613.603 60.4808 615.629 60.4808V58.1463C613.953 58.1463 612.288 57.7821 610.624 57.0377L609.67 59.1686ZM701.061 49.4879L702.228 49.5208L702.228 49.5043V49.4879H701.061ZM698.498 59.1L697.467 58.5523L697.464 58.5587L697.46 58.565L698.498 59.1ZM691.876 66.5048L692.512 67.4835L692.523 67.476L691.876 66.5048ZM663.823 63.728L664.612 62.868L662.656 61.0727V63.728H663.823ZM663.823 81.5281V82.6953H664.99V81.5281H663.823ZM647.447 81.5281H646.28V82.6953H647.447V81.5281ZM647.447 29.1958V28.0286H646.28V29.1958H647.447ZM662.47 29.1958L663.618 28.9827L663.441 28.0286H662.47V29.1958ZM663.396 34.1798L662.248 34.393L662.659 36.6047L664.231 34.9954L663.396 34.1798ZM682.193 28.3414L682.167 29.5083L682.18 29.5086H682.193V28.3414ZM691.876 31.047L691.244 32.0283L691.252 32.0331L691.876 31.047ZM698.569 38.4518L697.531 38.9864V38.9864L698.569 38.4518ZM701.061 48.9895H702.228V48.9824L702.228 48.9753L701.061 48.9895ZM681.694 56.5367L680.821 55.7625L680.82 55.7638L681.694 56.5367ZM684.614 49.1319L685.78 49.1708L685.781 49.1344L685.78 49.0981L684.614 49.1319ZM681.766 41.0863L680.864 41.8276L680.873 41.8385L680.882 41.8492L681.766 41.0863ZM668.736 39.3775L669.355 40.3673L669.363 40.3622L668.736 39.3775ZM665.105 43.2935L664.079 42.7366L664.073 42.7473L665.105 43.2935ZM666.6 56.6079L665.745 57.4022L665.75 57.4076L665.755 57.4129L666.6 56.6079ZM699.894 49.455C699.804 52.6417 698.998 55.6699 697.467 58.5523L699.529 59.6476C701.225 56.4542 702.128 53.0744 702.228 49.5208L699.894 49.455ZM697.46 58.565C695.985 61.4265 693.912 63.7447 691.229 65.5336L692.523 67.476C695.536 65.4675 697.878 62.8492 699.535 59.6349L697.46 58.565ZM691.24 65.5261C688.593 67.2465 685.589 68.1144 682.193 68.1144V70.4488C686.011 70.4488 689.463 69.4655 692.512 67.4834L691.24 65.5261ZM682.193 68.1144C674.131 68.1144 668.346 66.294 664.612 62.868L663.034 64.588C667.37 68.5668 673.831 70.4488 682.193 70.4488V68.1144ZM662.656 63.728V81.5281H664.99V63.728H662.656ZM663.823 80.3608H647.447V82.6953H663.823V80.3608ZM648.614 81.5281V29.1958H646.28V81.5281H648.614ZM647.447 30.363H662.47V28.0286H647.447V30.363ZM661.323 29.4089L662.248 34.393L664.544 33.9667L663.618 28.9827L661.323 29.4089ZM664.231 34.9954C667.9 31.2388 673.785 29.3221 682.167 29.5083L682.219 27.1745C673.512 26.981 666.866 28.9566 662.561 33.3642L664.231 34.9954ZM682.193 29.5086C685.646 29.5086 688.65 30.3576 691.244 32.0283L692.508 30.0657C689.501 28.1289 686.049 27.1742 682.193 27.1742V29.5086ZM691.252 32.0331C693.916 33.7206 696.008 36.0294 697.531 38.9864L699.607 37.9173C697.902 34.6086 695.532 31.9809 692.501 30.0609L691.252 32.0331ZM697.531 38.9864C699.054 41.9419 699.848 45.2734 699.894 49.0037L702.228 48.9753C702.179 44.9211 701.312 41.2274 699.607 37.9173L697.531 38.9864ZM699.894 48.9895V49.2031H702.228V48.9895H699.894ZM699.894 49.2031V49.4879H702.228V49.2031H699.894ZM674.005 60.7656C677.582 60.7656 680.496 59.6557 682.569 57.3097L680.82 55.7638C679.286 57.5 677.073 58.4311 674.005 58.4311V60.7656ZM682.568 57.311C684.604 55.0143 685.676 52.2843 685.78 49.1708L683.447 49.093C683.361 51.6755 682.488 53.8821 680.821 55.7625L682.568 57.311ZM685.78 49.0981C685.679 45.6069 684.66 42.6515 682.649 40.3233L680.882 41.8492C682.479 43.6981 683.358 46.1065 683.447 49.1657L685.78 49.0981ZM682.667 40.345C680.638 37.8766 677.681 36.715 674.005 36.715V39.0495C677.163 39.0495 679.381 40.0239 680.864 41.8276L682.667 40.345ZM674.005 36.715C671.848 36.715 669.872 37.2708 668.109 38.3927L669.363 40.3622C670.732 39.4905 672.269 39.0495 674.005 39.0495V36.715ZM668.117 38.3877C666.418 39.4497 665.071 40.9084 664.079 42.7366L666.131 43.8503C666.942 42.3559 668.016 41.2039 669.355 40.3673L668.117 38.3877ZM664.073 42.7473C663.128 44.5319 662.656 46.4522 662.656 48.4911H664.99C664.99 46.8275 665.372 45.2828 666.136 43.8396L664.073 42.7473ZM662.656 48.4911V48.6335H664.99V48.4911H662.656ZM662.656 48.6335C662.656 52.1822 663.651 55.1472 665.745 57.4022L667.455 55.8137C665.847 54.0815 664.99 51.7302 664.99 48.6335H662.656ZM665.755 57.4129C667.898 59.6631 670.684 60.7656 674.005 60.7656V58.4311C671.25 58.4311 669.1 57.5401 667.445 55.803L665.755 57.4129ZM759.794 50.1999V51.3671H760.961V50.1999H759.794ZM721.844 50.1999V49.0327H720.54L720.684 50.3288L721.844 50.1999ZM725.191 57.6047L724.355 58.4198L724.365 58.4302L724.375 58.4402L725.191 57.6047ZM740.285 58.5303L740.896 59.5252L740.902 59.5214L740.285 58.5303ZM743.489 52.4783V51.3111H742.322V52.4783H743.489ZM759.794 52.4783H760.961V51.3111H759.794V52.4783ZM752.674 65.0808L752.066 64.0843L752.062 64.0871L752.674 65.0808ZM718.925 66.7896L719.373 65.7118L718.925 66.7896ZM708.886 59.3848L707.958 60.0938L707.964 60.1004L708.886 59.3848ZM708.815 37.3126L707.887 36.6036L707.886 36.6057L708.815 37.3126ZM718.854 29.9078L719.291 30.9899L719.298 30.9874L718.854 29.9078ZM746.978 29.8366L746.518 30.9095L746.523 30.9114L746.978 29.8366ZM756.376 37.099L755.426 37.7761L755.43 37.783L756.376 37.099ZM759.794 47.9927H760.961L760.961 47.9794L759.794 47.9927ZM759.794 48.3487H758.627V49.5159H759.794V48.3487ZM759.794 48.3487V47.1815H758.627V48.3487H759.794ZM725.831 37.9534L726.561 38.8649L725.831 37.9534ZM722.414 43.5071L721.284 43.2134L720.904 44.6743H722.414V43.5071ZM743.062 43.5071V44.6743H744.514L744.202 43.2563L743.062 43.5071ZM739.929 37.9534L740.684 37.0634L739.929 37.9534ZM759.794 49.0327H721.844V51.3671H759.794V49.0327ZM720.684 50.3288C721.042 53.5485 722.255 56.2675 724.355 58.4198L726.026 56.7896C724.328 55.0497 723.311 52.8321 723.004 50.071L720.684 50.3288ZM724.375 58.4402C726.586 60.5969 729.538 61.62 733.094 61.62V59.2855C730.004 59.2855 727.687 58.41 726.006 56.7693L724.375 58.4402ZM733.094 61.62C735.992 61.62 738.605 60.931 740.896 59.5252L739.675 57.5355C737.789 58.6929 735.607 59.2855 733.094 59.2855V61.62ZM740.902 59.5214C743.41 57.9606 744.656 55.5506 744.656 52.4783H742.322C742.322 54.8173 741.432 56.4419 739.668 57.5393L740.902 59.5214ZM743.489 53.6455H759.794V51.3111H743.489V53.6455ZM758.627 52.4783C758.627 57.5727 756.47 61.3982 752.066 64.0843L753.282 66.0772C758.372 62.9724 760.961 58.3963 760.961 52.4783H758.627ZM752.062 64.0871C747.619 66.8246 741.313 68.2568 733.023 68.2568V70.5912C741.536 70.5912 748.331 69.128 753.286 66.0745L752.062 64.0871ZM733.023 68.2568C727.982 68.2568 723.438 67.4018 719.373 65.7118L718.477 67.8674C722.861 69.6899 727.715 70.5912 733.023 70.5912V68.2568ZM719.373 65.7118C715.309 64.0224 712.136 61.6689 709.808 58.6691L707.964 60.1004C710.572 63.4612 714.091 66.0443 718.477 67.8674L719.373 65.7118ZM709.813 58.6757C707.503 55.6551 706.351 52.2266 706.351 48.3487H704.016C704.016 52.7301 705.332 56.6589 707.958 60.0938L709.813 58.6757ZM706.351 48.3487C706.351 44.4147 707.484 40.9871 709.743 38.0196L707.886 36.6057C705.303 39.9988 704.016 43.9286 704.016 48.3487H706.351ZM709.742 38.0217C712.068 34.9793 715.236 32.6301 719.291 30.9899L718.416 28.8258C714.022 30.6031 710.497 33.1905 707.887 36.6036L709.742 38.0217ZM719.298 30.9874C723.413 29.2955 727.983 28.4406 733.023 28.4406V26.1062C727.715 26.1062 722.839 27.0075 718.41 28.8283L719.298 30.9874ZM733.023 28.4406C738.216 28.4406 742.705 29.2753 746.518 30.9094L747.438 28.7638C743.276 26.9803 738.462 26.1062 733.023 26.1062V28.4406ZM746.523 30.9114C750.387 32.548 753.337 34.8426 755.426 37.7761L757.327 36.422C754.954 33.0898 751.638 30.5428 747.433 28.7618L746.523 30.9114ZM755.43 37.783C757.506 40.654 758.582 44.0454 758.627 48.006L760.961 47.9794C760.911 43.5859 759.708 39.7148 757.322 36.4151L755.43 37.783ZM758.627 47.9927V48.3487H760.961V47.9927H758.627ZM759.794 49.5159H759.936V47.1815H759.794V49.5159ZM759.936 47.1815H759.794V49.5159H759.936V47.1815ZM758.627 48.3487V50.1999H760.961V48.3487H758.627ZM733.023 34.7926C729.746 34.7926 727.048 35.485 725.102 37.042L726.561 38.8649C727.937 37.7637 730.034 37.1271 733.023 37.1271V34.7926ZM725.102 37.042C723.215 38.5517 721.954 40.635 721.284 43.2134L723.543 43.8008C724.107 41.6325 725.125 40.0134 726.561 38.8649L725.102 37.042ZM722.414 44.6743H743.062V42.3399H722.414V44.6743ZM744.202 43.2563C743.635 40.6807 742.479 38.5865 740.684 37.0634L739.174 38.8435C740.512 39.9785 741.444 41.5867 741.922 43.7579L744.202 43.2563ZM740.684 37.0634C738.826 35.4869 736.209 34.7926 733.023 34.7926V37.1271C735.912 37.1271 737.899 37.7619 739.174 38.8435L740.684 37.0634ZM798.03 46.5687L797.226 45.7222L796.381 46.5248L797.182 47.3712L798.03 46.5687ZM818.322 68V69.1672H821.034L819.169 67.1975L818.322 68ZM799.24 68L798.418 68.8286L798.759 69.1672H799.24V68ZM781.084 49.9863L781.906 49.1577L779.917 47.184V49.9863H781.084ZM781.084 68V69.1672H782.251V68H781.084ZM764.708 68H763.541V69.1672H764.708V68ZM764.708 29.1958V28.0286H763.541V29.1958H764.708ZM781.084 29.1958H782.251V28.0286H781.084V29.1958ZM781.084 43.3647H779.917V45.9629L781.859 44.2373L781.084 43.3647ZM797.033 29.1958V28.0286H796.589L796.258 28.3232L797.033 29.1958ZM816.328 29.1958L817.132 30.0423L819.253 28.0286H816.328V29.1958ZM797.182 47.3712L817.474 68.8025L819.169 67.1975L798.877 45.7662L797.182 47.3712ZM818.322 66.8328H799.24V69.1672H818.322V66.8328ZM800.062 67.1714L781.906 49.1577L780.262 50.8149L798.418 68.8286L800.062 67.1714ZM779.917 49.9863V68H782.251V49.9863H779.917ZM781.084 66.8328H764.708V69.1672H781.084V66.8328ZM765.875 68V29.1958H763.541V68H765.875ZM764.708 30.363H781.084V28.0286H764.708V30.363ZM779.917 29.1958V43.3647H782.251V29.1958H779.917ZM781.859 44.2373L797.808 30.0684L796.258 28.3232L780.309 42.4921L781.859 44.2373ZM797.033 30.363H816.328V28.0286H797.033V30.363ZM815.524 28.3493L797.226 45.7222L798.833 47.4152L817.132 30.0423L815.524 28.3493ZM817.869 38.0958L818.804 38.794L818.809 38.7873L817.869 38.0958ZM827.623 30.5486L827.156 29.479L827.623 30.5486ZM853.825 30.0502L853.384 31.131L853.393 31.1344L853.401 31.1378L853.825 30.0502ZM862.654 36.1022L863.541 35.3439L862.654 36.1022ZM867.068 45.1447V46.3119H868.504L868.211 44.9066L867.068 45.1447ZM850.692 45.1447L849.559 45.4218L849.776 46.3119H850.692V45.1447ZM847.417 40.0183L846.704 40.9424L847.417 40.0183ZM833.818 41.0863L834.643 41.9117L834.653 41.9016L833.818 41.0863ZM833.747 56.6079L832.892 57.403L832.901 57.4129L833.747 56.6079ZM847.346 57.6759L846.633 56.7518L847.346 57.6759ZM850.621 52.6207V51.4535H849.71L849.489 52.3376L850.621 52.6207ZM866.997 52.6207L868.149 52.8071L868.368 51.4535H866.997V52.6207ZM862.725 61.3784L863.597 62.1548L862.725 61.3784ZM853.612 67.5728L853.173 66.491L853.169 66.4929L853.612 67.5728ZM827.695 67.1456L827.217 68.2107L827.227 68.2152L827.695 67.1456ZM817.869 59.5984L816.929 60.2898L816.934 60.2976L816.94 60.3053L817.869 59.5984ZM815.476 48.8471C815.476 45.1102 816.582 41.7715 818.804 38.7939L816.934 37.3978C814.409 40.7807 813.142 44.6096 813.142 48.8471H815.476ZM818.809 38.7873C821.046 35.7449 824.125 33.3502 828.091 31.6182L827.156 29.479C822.862 31.3545 819.438 33.9913 816.929 37.4044L818.809 38.7873ZM828.091 31.6182C832.058 29.8854 836.454 29.0102 841.294 29.0102V26.6758C836.166 26.6758 831.448 27.6043 827.156 29.479L828.091 31.6182ZM841.294 29.0102C845.922 29.0102 849.944 29.7276 853.384 31.131L854.266 28.9694C850.492 27.4299 846.16 26.6758 841.294 26.6758V29.0102ZM853.401 31.1378C856.903 32.502 859.678 34.4158 861.767 36.8605L863.541 35.3439C861.169 32.5673 858.057 30.4465 854.249 28.9626L853.401 31.1378ZM861.767 36.8605C863.868 39.3195 865.253 42.1539 865.926 45.3827L868.211 44.9066C867.46 41.3002 865.902 38.1064 863.541 35.3439L861.767 36.8605ZM867.068 43.9775H850.692V46.3119H867.068V43.9775ZM851.826 44.8675C851.244 42.4876 850.012 40.5456 848.13 39.0941L846.704 40.9424C848.145 42.0542 849.096 43.5297 849.559 45.4218L851.826 44.8675ZM848.13 39.0941C846.238 37.6345 843.961 36.9286 841.365 36.9286V39.2631C843.516 39.2631 845.274 39.8388 846.704 40.9424L848.13 39.0941ZM841.365 36.9286C838.003 36.9286 835.173 38.027 832.983 40.2709L834.653 41.9016C836.355 40.1583 838.557 39.2631 841.365 39.2631V36.9286ZM832.992 40.2609C830.79 42.4636 829.731 45.3674 829.731 48.8471H832.066C832.066 45.8713 832.954 43.6012 834.643 41.9116L832.992 40.2609ZM829.731 48.8471C829.731 52.2355 830.767 55.1186 832.892 57.4029L834.601 55.8129C832.929 54.0151 832.066 51.7244 832.066 48.8471H829.731ZM832.901 57.4129C835.048 59.6669 837.86 60.7656 841.223 60.7656V58.4311C838.414 58.4311 836.243 57.5362 834.592 55.803L832.901 57.4129ZM841.223 60.7656C843.86 60.7656 846.163 60.0629 848.059 58.6001L846.633 56.7518C845.206 57.8522 843.427 58.4311 841.223 58.4311V60.7656ZM848.059 58.6001C849.934 57.1536 851.169 55.24 851.754 52.9038L849.489 52.3376C849.029 54.1786 848.081 55.635 846.633 56.7518L848.059 58.6001ZM850.621 53.7879H866.997V51.4535H850.621V53.7879ZM865.845 52.4343C865.361 55.4273 864.042 58.1452 861.854 60.6019L863.597 62.1548C866.06 59.3902 867.589 56.2696 868.149 52.8071L865.845 52.4343ZM861.854 60.6019C859.664 63.0594 856.783 65.0287 853.173 66.491L854.05 68.6546C857.94 67.079 861.134 64.9187 863.597 62.1548L861.854 60.6019ZM853.169 66.4929C849.623 67.9473 845.671 68.684 841.294 68.684V71.0184C845.936 71.0184 850.195 70.2362 854.055 68.6527L853.169 66.4929ZM841.294 68.684C836.503 68.684 832.131 67.8094 828.162 66.076L827.227 68.2152C831.518 70.0893 836.212 71.0184 841.294 71.0184V68.684ZM828.172 66.0805C824.197 64.2984 821.086 61.8969 818.798 58.8914L816.94 60.3053C819.494 63.6604 822.933 66.2904 827.217 68.2107L828.172 66.0805ZM818.809 58.9069C816.581 55.8759 815.476 52.5336 815.476 48.8471H813.142C813.142 53.0401 814.411 56.8653 816.929 60.2898L818.809 58.9069Z" fill="url(#paint1_linear_2485_520)"/>
<g filter="url(#filter1_i_2485_520)">
<path d="M39.1762 38.9169L67.3995 67.0002H46.1795L25.1695 45.29V67.0002H7.87136V15.1757H25.1695V33.1742L44.9189 15.1757H66.349L39.1762 38.9169ZM124.952 48.7916C124.859 52.1065 124.018 55.258 122.431 58.2461C120.89 61.2342 118.719 63.662 115.918 65.5295C113.116 67.3504 109.942 68.2608 106.393 68.2608C98.3161 68.2608 92.2932 66.44 88.3247 62.7983V80.3065H72.217V28.8322H86.994L87.9045 33.7345C91.8263 29.7193 97.9892 27.805 106.393 27.9918C109.988 27.9918 113.163 28.8789 115.918 30.653C118.719 32.4272 120.913 34.855 122.501 37.9365C124.088 41.0179 124.905 44.4729 124.952 48.3014V48.5115V48.7916ZM98.3394 58.7363C101.608 58.7363 104.129 57.7325 105.903 55.7249C107.724 53.6706 108.681 51.2428 108.774 48.4415C108.681 45.2199 107.747 42.582 105.973 40.5277C104.246 38.4267 101.701 37.3762 98.3394 37.3762C96.4252 37.3762 94.6977 37.8665 93.157 38.8469C91.6629 39.7807 90.4724 41.0646 89.5853 42.6987C88.7449 44.2862 88.3247 45.9903 88.3247 47.8112V47.9512C88.3247 51.2194 89.2351 53.834 91.056 55.7949C92.9235 57.7559 95.3513 58.7363 98.3394 58.7363ZM147.075 50.8226L167.455 28.8322H183.563V67.0002H167.455V44.9398L147.075 67.0002H131.458V28.8322H147.075V50.8226ZM190.767 28.8322H241.051V67.0002H224.943V39.9674H206.875V67.0002H190.767V28.8322ZM299.146 28.8322V40.7378H281.708V67.0002H265.6V40.7378H247.952V28.8322H299.146ZM331.963 27.2214C337.006 27.2214 341.558 28.1085 345.62 29.8827C349.682 31.6568 352.857 34.1314 355.144 37.3062C357.432 40.4343 358.576 43.9593 358.576 47.8812C358.576 51.7564 357.409 55.2814 355.074 58.4562C352.787 61.5843 349.612 64.0355 345.55 65.8097C341.535 67.5839 337.006 68.4709 331.963 68.4709C327.108 68.4709 322.556 67.5839 318.307 65.8097C314.058 63.9888 310.65 61.5143 308.082 58.3862C305.561 55.2113 304.3 51.7097 304.3 47.8812C304.3 44.006 305.561 40.5044 308.082 37.3762C310.65 34.2014 314.035 31.7269 318.237 29.9527C322.486 28.1318 327.061 27.2214 331.963 27.2214ZM331.963 58.4562C333.831 58.4562 335.558 58.0593 337.146 57.2656C338.78 56.4719 340.087 55.2814 341.068 53.6939C342.048 52.0598 342.538 50.1223 342.538 47.8812C342.538 45.6401 342.048 43.7259 341.068 42.1385C340.087 40.5044 338.78 39.2905 337.146 38.4968C335.558 37.703 333.831 37.3062 331.963 37.3062C330.143 37.3062 328.345 37.7264 326.571 38.5668C324.843 39.3605 323.419 40.5511 322.299 42.1385C321.178 43.7259 320.618 45.6401 320.618 47.8812C320.618 50.1223 321.178 52.0365 322.299 53.6239C323.419 55.2113 324.843 56.4252 326.571 57.2656C328.345 58.0593 330.143 58.4562 331.963 58.4562ZM460.149 67.0002H442.5L439.279 64.6191C436.431 65.6463 433.466 66.4166 430.385 66.9302C427.303 67.4438 424.315 67.7006 421.42 67.7006C412.409 67.7006 404.682 66.51 398.239 64.1289C391.843 61.7478 388.645 57.7092 388.645 52.0131C388.645 48.6982 390.092 46.1537 392.987 44.3795C395.882 42.5587 399.99 40.9946 405.313 39.6873C404.939 39.4072 403.795 38.5434 401.881 37.0961C399.967 35.6487 398.496 34.1547 397.469 32.614C396.489 31.0732 395.998 29.5325 395.998 27.9918C395.998 24.6302 397.259 21.8989 399.78 19.7979C402.301 17.6502 405.453 16.1095 409.235 15.1757C413.063 14.2419 417.008 13.775 421.07 13.775C425.973 13.775 430.151 14.4287 433.606 15.736C437.061 17.0433 439.652 18.7241 441.38 20.7784C443.107 22.8327 443.971 24.9804 443.971 27.2214C443.971 29.6492 443.107 31.7502 441.38 33.5244C439.652 35.2519 437.481 36.6992 434.867 37.8665C432.252 39.0337 429.007 40.2009 425.132 41.3681L441.73 53.5539C444.998 50.2857 446.632 46.107 446.632 41.0179H457.417C457.417 48.3948 454.686 54.3943 449.224 59.0165L460.149 67.0002ZM412.176 27.4315C412.176 30.1861 414.254 33.1976 418.409 36.4658C421.63 35.4386 424.128 34.2247 425.903 32.8241C427.677 31.4234 428.564 29.6025 428.564 27.3615C428.564 25.5406 427.887 24.0232 426.533 22.8093C425.226 21.5954 423.195 20.9885 420.44 20.9885C417.919 20.9885 415.911 21.5721 414.417 22.7393C412.923 23.8598 412.176 25.4239 412.176 27.4315ZM421.42 60.207C424.922 60.207 428.284 59.7868 431.505 58.9464L413.086 45.43C411.032 46.3638 409.445 47.3443 408.324 48.3714C407.25 49.3986 406.713 50.6125 406.713 52.0131C406.713 53.3671 407.344 54.6744 408.604 55.935C409.912 57.1956 411.686 58.2228 413.927 59.0165C416.168 59.8102 418.666 60.207 421.42 60.207ZM583.955 41.158C583.955 45.0799 582.461 48.6516 579.473 51.8731C576.485 55.0479 572.353 57.5691 567.077 59.4367C561.801 61.2575 555.895 62.168 549.358 62.168H546.137V67.0002H528.909V62.168H526.177H525.757H525.687C519.384 62.168 513.501 61.2342 508.039 59.3666C502.576 57.4991 498.187 54.9779 494.873 51.8031C491.604 48.5815 489.97 45.0332 489.97 41.158C489.97 37.2362 491.581 33.6878 494.803 30.513C498.071 27.3381 502.413 24.8169 507.829 22.9494C513.291 21.0818 519.174 20.1247 525.477 20.078H528.909V15.1757H546.137V20.078H549.358C555.941 20.1247 561.848 21.0585 567.077 22.8794C572.353 24.7002 576.485 27.2214 579.473 30.4429C582.461 33.6178 583.955 37.1895 583.955 41.158ZM528.909 50.1923V32.0537H526.317C521.742 32.0537 517.657 32.7774 514.062 34.2247C510.467 35.6254 508.669 37.9365 508.669 41.158C508.669 44.3328 510.467 46.6439 514.062 48.0913C517.703 49.492 521.789 50.1923 526.317 50.1923H528.909ZM549.148 50.1923C553.724 50.1923 557.622 49.492 560.844 48.0913C564.065 46.6906 565.676 44.3795 565.676 41.158C565.676 37.8898 564.042 35.5554 560.774 34.1547C557.552 32.754 553.677 32.0537 549.148 32.0537H546.137V50.1923H549.148ZM616.678 27.2214C621.721 27.2214 626.273 28.1085 630.335 29.8827C634.397 31.6568 637.571 34.1314 639.859 37.3062C642.147 40.4343 643.291 43.9593 643.291 47.8812C643.291 51.7564 642.124 55.2814 639.789 58.4562C637.501 61.5843 634.327 64.0355 630.265 65.8097C626.249 67.5839 621.721 68.4709 616.678 68.4709C611.823 68.4709 607.27 67.5839 603.022 65.8097C598.773 63.9888 595.365 61.5143 592.797 58.3862C590.276 55.2113 589.015 51.7097 589.015 47.8812C589.015 44.006 590.276 40.5044 592.797 37.3762C595.365 34.2014 598.75 31.7269 602.952 29.9527C607.2 28.1318 611.776 27.2214 616.678 27.2214ZM616.678 58.4562C618.546 58.4562 620.273 58.0593 621.861 57.2656C623.495 56.4719 624.802 55.2814 625.783 53.6939C626.763 52.0598 627.253 50.1223 627.253 47.8812C627.253 45.6401 626.763 43.7259 625.783 42.1385C624.802 40.5044 623.495 39.2905 621.861 38.4968C620.273 37.703 618.546 37.3062 616.678 37.3062C614.857 37.3062 613.06 37.7264 611.286 38.5668C609.558 39.3605 608.134 40.5511 607.014 42.1385C605.893 43.7259 605.333 45.6401 605.333 47.8812C605.333 50.1223 605.893 52.0365 607.014 53.6239C608.134 55.2113 609.558 56.4252 611.286 57.2656C613.06 58.0593 614.857 58.4562 616.678 58.4562ZM702.11 48.7916C702.017 52.1065 701.176 55.258 699.589 58.2461C698.048 61.2342 695.877 63.662 693.076 65.5295C690.274 67.3504 687.1 68.2608 683.551 68.2608C675.474 68.2608 669.451 66.44 665.483 62.7983V80.3065H649.375V28.8322H664.152L665.062 33.7345C668.984 29.7193 675.147 27.805 683.551 27.9918C687.146 27.9918 690.321 28.8789 693.076 30.653C695.877 32.4272 698.071 34.855 699.659 37.9365C701.246 41.0179 702.063 44.4729 702.11 48.3014V48.5115V48.7916ZM675.497 58.7363C678.766 58.7363 681.287 57.7325 683.061 55.7249C684.882 53.6706 685.839 51.2428 685.932 48.4415C685.839 45.2199 684.905 42.582 683.131 40.5277C681.403 38.4267 678.859 37.3762 675.497 37.3762C673.583 37.3762 671.856 37.8665 670.315 38.8469C668.821 39.7807 667.63 41.0646 666.743 42.6987C665.903 44.2862 665.483 45.9903 665.483 47.8112V47.9512C665.483 51.2194 666.393 53.834 668.214 55.7949C670.081 57.7559 672.509 58.7363 675.497 58.7363ZM761.281 49.492H723.953C724.28 52.4333 725.377 54.8612 727.245 56.7754C729.159 58.643 731.75 59.5767 735.018 59.5767C737.68 59.5767 740.038 58.9464 742.092 57.6858C744.193 56.3785 745.243 54.3943 745.243 51.733H761.281C761.281 57.1489 758.946 61.2809 754.278 64.1289C749.655 66.9769 743.212 68.4009 734.948 68.4009C729.859 68.4009 725.237 67.5372 721.082 65.8097C716.927 64.0822 713.635 61.6544 711.207 58.5262C708.779 55.3514 707.565 51.733 707.565 47.6711C707.565 43.5625 708.756 39.9441 711.137 36.816C713.565 33.6411 716.857 31.2133 721.012 29.5325C725.214 27.805 729.859 26.9413 734.948 26.9413C740.178 26.9413 744.753 27.7817 748.675 29.4625C752.643 31.1433 755.725 33.5244 757.919 36.6059C760.114 39.6406 761.234 43.2123 761.281 47.3209V47.6711H761.421H761.281V49.492ZM734.948 35.4853C731.867 35.4853 729.509 36.139 727.875 37.4463C726.241 38.7535 725.12 40.5744 724.513 42.9088H744.823C744.31 40.5744 743.282 38.7535 741.742 37.4463C740.201 36.139 737.937 35.4853 734.948 35.4853ZM800.29 45.9203L820.25 67.0002H801.481L783.623 49.2819V67.0002H767.515V28.8322H783.623V42.7688L799.31 28.8322H818.289L800.29 45.9203ZM817.704 48.1613C817.704 44.2395 818.871 40.7145 821.205 37.5863C823.54 34.4115 826.738 31.937 830.8 30.1628C834.862 28.3886 839.344 27.5015 844.246 27.5015C848.915 27.5015 853.024 28.2252 856.572 29.6726C860.167 31.0732 863.062 33.0575 865.256 35.6254C867.45 38.1933 868.898 41.158 869.598 44.5196H853.49C852.977 42.4186 851.903 40.7378 850.269 39.4772C848.635 38.2166 846.651 37.5863 844.316 37.5863C841.281 37.5863 838.807 38.5668 836.893 40.5277C834.978 42.442 834.021 44.9865 834.021 48.1613C834.021 51.2428 834.955 53.7873 836.823 55.7949C838.69 57.7559 841.141 58.7363 844.176 58.7363C846.557 58.7363 848.565 58.106 850.199 56.8454C851.833 55.5848 852.907 53.9274 853.42 51.8731H869.528C869.014 55.0479 867.614 57.9193 865.326 60.4872C863.038 63.055 860.05 65.086 856.362 66.58C852.72 68.0741 848.682 68.8211 844.246 68.8211C839.39 68.8211 834.932 67.934 830.87 66.1598C826.808 64.339 823.586 61.8645 821.205 58.7363C818.871 55.5615 817.704 52.0365 817.704 48.1613Z" fill="url(#paint2_linear_2485_520)"/>
</g>
<defs>
<filter id="filter0_f_2485_520" x="0.868268" y="6.77147" width="875.733" height="80.5381" filterUnits="userSpaceOnUse" color-interpolation-filters="sRGB">
<feFlood flood-opacity="0" result="BackgroundImageFix"/>
<feBlend mode="normal" in="SourceGraphic" in2="BackgroundImageFix" result="shape"/>
<feGaussianBlur stdDeviation="3.50166" result="effect1_foregroundBlur_2485_520"/>
</filter>
<filter id="filter1_i_2485_520" x="7.87158" y="13.775" width="861.727" height="68.8659" filterUnits="userSpaceOnUse" color-interpolation-filters="sRGB">
<feFlood flood-opacity="0" result="BackgroundImageFix"/>
<feBlend mode="normal" in="SourceGraphic" in2="BackgroundImageFix" result="shape"/>
<feColorMatrix in="SourceAlpha" type="matrix" values="0 0 0 0 0 0 0 0 0 0 0 0 0 0 0 0 0 0 127 0" result="hardAlpha"/>
<feOffset dy="2.33444"/>
<feGaussianBlur stdDeviation="1.16722"/>
<feComposite in2="hardAlpha" operator="arithmetic" k2="-1" k3="1"/>
<feColorMatrix type="matrix" values="0 0 0 0 1 0 0 0 0 1 0 0 0 0 1 0 0 0 0.25 0"/>
<feBlend mode="normal" in2="shape" result="effect1_innerShadow_2485_520"/>
</filter>
<linearGradient id="paint0_linear_2485_520" x1="5" y1="0" x2="871.077" y2="0" gradientUnits="userSpaceOnUse">
<stop stop-color="#FF3842"/>
<stop offset="0.489317" stop-color="#FF37E7"/>
<stop offset="1" stop-color="#3535FF"/>
</linearGradient>
<linearGradient id="paint1_linear_2485_520" x1="448.038" y1="0" x2="448.038" y2="60.6954" gradientUnits="userSpaceOnUse">
<stop stop-color="white" stop-opacity="0.5"/>
<stop offset="1" stop-color="white" stop-opacity="0"/>
</linearGradient>
<linearGradient id="paint2_linear_2485_520" x1="5" y1="0.000244141" x2="871.077" y2="0.000244141" gradientUnits="userSpaceOnUse">
<stop stop-color="#FF3842"/>
<stop offset="0.489317" stop-color="#FF37E7"/>
<stop offset="1" stop-color="#3535FF"/>
</linearGradient>
</defs>
</svg>
