<svg width="743" height="98" viewBox="0 0 743 98" fill="none" xmlns="http://www.w3.org/2000/svg">
<g filter="url(#filter0_f_2485_521)">
<path d="M7.4707 41.1578C7.4707 35.9753 8.98808 31.3064 12.0229 27.1511C15.1043 22.9958 19.283 19.751 24.5588 17.4165C29.8813 15.0354 35.7641 13.8448 42.2071 13.8448C47.9965 13.8448 53.2257 14.7786 57.8946 16.6462C62.5634 18.467 66.3919 21.0583 69.38 24.4198C72.3681 27.7347 74.3524 31.6333 75.3328 36.1154H57.4043C56.704 34.2478 55.5134 32.6371 53.8326 31.2831C52.1985 29.8824 50.3543 28.8319 48.3 28.1316C46.2457 27.4313 44.2381 27.0811 42.2772 27.0811C39.5225 27.0811 36.8379 27.6414 34.2234 28.7619C31.6555 29.8824 29.5545 31.5165 27.9204 33.6642C26.333 35.7652 25.5392 38.2631 25.5392 41.1578C25.5392 44.0525 26.333 46.5737 27.9204 48.7213C29.5078 50.8223 31.5621 52.4331 34.0833 53.5536C36.6512 54.6275 39.3825 55.1644 42.2772 55.1644C45.4987 55.1644 48.4634 54.394 51.1714 52.8533C53.926 51.3126 55.957 49.1182 57.2643 46.2702H75.2628C74.2356 50.7056 72.228 54.6041 69.2399 57.9657C66.2519 61.2806 62.4467 63.8485 57.8245 65.6694C53.2023 67.4902 47.9965 68.4007 42.2071 68.4007C35.8108 68.4007 29.9513 67.2101 24.6288 64.829C19.353 62.4478 15.1743 59.1796 12.0929 55.0243C9.01143 50.869 7.4707 46.2468 7.4707 41.1578ZM98.0755 35.4851C101.811 31.3765 107.717 28.902 115.794 28.0616V40.2473H106.48C103.585 40.2473 101.484 41.3445 100.177 43.5389C98.8692 45.6866 98.2156 48.5112 98.2156 52.0129V67H82.108V28.8319H96.7449L98.0755 35.4851ZM181.577 28.8319L158.046 75.6141C156.506 78.6955 153.518 80.6798 149.082 81.5669C144.693 82.454 139.744 82.8975 134.235 82.8975V70.0815C136.896 70.0815 138.741 69.918 139.768 69.5912C140.795 69.2644 141.308 68.7975 141.308 68.1906C141.308 68.0038 141.215 67.677 141.028 67.2101L121.349 28.8319H138.577L151.603 57.0553L164.349 28.8319H181.577ZM240.194 48.7914C240.1 52.1063 239.26 55.2578 237.672 58.2459C236.132 61.2339 233.961 63.6618 231.159 65.5293C228.358 67.3502 225.183 68.2606 221.635 68.2606C213.558 68.2606 207.535 66.4397 203.566 62.798V80.3063H187.459V28.8319H202.236L203.146 33.7343C207.068 29.719 213.231 27.8048 221.635 27.9915C225.23 27.9915 228.405 28.8786 231.159 30.6528C233.961 32.427 236.155 34.8548 237.742 37.9362C239.33 41.0177 240.147 44.4727 240.194 48.3011V48.5112V48.7914ZM213.581 58.7361C216.849 58.7361 219.37 57.7323 221.145 55.7247C222.965 53.6704 223.923 51.2425 224.016 48.4412C223.923 45.2197 222.989 42.5818 221.215 40.5275C219.487 38.4265 216.943 37.376 213.581 37.376C211.667 37.376 209.939 37.8662 208.399 38.8467C206.905 39.7804 205.714 41.0644 204.827 42.6985C203.986 44.2859 203.566 45.9901 203.566 47.8109V47.951C203.566 51.2192 204.477 53.8338 206.298 55.7947C208.165 57.7556 210.593 58.7361 213.581 58.7361ZM269.407 28.8319H276.69V39.8271H269.407V67H253.299V39.8271H245.665V28.8319H253.299V20.568L269.407 14.0549V28.8319ZM307.864 27.2212C312.906 27.2212 317.458 28.1083 321.52 29.8824C325.582 31.6566 328.757 34.1311 331.045 37.3059C333.332 40.4341 334.476 43.9591 334.476 47.8809C334.476 51.7561 333.309 55.2811 330.975 58.456C328.687 61.5841 325.512 64.0353 321.45 65.8094C317.435 67.5836 312.906 68.4707 307.864 68.4707C303.008 68.4707 298.456 67.5836 294.207 65.8094C289.959 63.9886 286.55 61.5141 283.982 58.3859C281.461 55.2111 280.201 51.7094 280.201 47.8809C280.201 44.0058 281.461 40.5041 283.982 37.376C286.55 34.2011 289.935 31.7266 294.137 29.9525C298.386 28.1316 302.961 27.2212 307.864 27.2212ZM307.864 58.456C309.731 58.456 311.459 58.0591 313.046 57.2654C314.68 56.4717 315.988 55.2811 316.968 53.6937C317.948 52.0596 318.439 50.122 318.439 47.8809C318.439 45.6399 317.948 43.7256 316.968 42.1382C315.988 40.5041 314.68 39.2902 313.046 38.4965C311.459 37.7028 309.731 37.3059 307.864 37.3059C306.043 37.3059 304.245 37.7261 302.471 38.5665C300.744 39.3602 299.32 40.5508 298.199 42.1382C297.079 43.7256 296.518 45.6399 296.518 47.8809C296.518 50.122 297.079 52.0362 298.199 53.6237C299.32 55.2111 300.744 56.425 302.471 57.2654C304.245 58.0591 306.043 58.456 307.864 58.456ZM436.049 67H418.401L415.179 64.6189C412.331 65.646 409.366 66.4164 406.285 66.93C403.203 67.4435 400.215 67.7003 397.321 67.7003C388.31 67.7003 380.583 66.5098 374.14 64.1286C367.743 61.7475 364.545 57.7089 364.545 52.0129C364.545 48.698 365.992 46.1535 368.887 44.3793C371.782 42.5584 375.89 40.9944 381.213 39.6871C380.839 39.4069 379.696 38.5432 377.781 37.0958C375.867 35.6485 374.396 34.1545 373.369 32.6137C372.389 31.073 371.899 29.5323 371.899 27.9915C371.899 24.6299 373.159 21.8987 375.68 19.7977C378.202 17.65 381.353 16.1092 385.135 15.1755C388.963 14.2417 392.909 13.7748 396.97 13.7748C401.873 13.7748 406.051 14.4284 409.506 15.7357C412.961 17.043 415.553 18.7238 417.28 20.7781C419.008 22.8324 419.871 24.9801 419.871 27.2212C419.871 29.649 419.008 31.75 417.28 33.5242C415.553 35.2516 413.382 36.699 410.767 37.8662C408.152 39.0334 404.908 40.2006 401.032 41.3679L417.63 53.5536C420.898 50.2854 422.533 46.1068 422.533 41.0177H433.318C433.318 48.3945 430.586 54.394 425.124 59.0162L436.049 67ZM388.076 27.4313C388.076 30.1859 390.154 33.1973 394.309 36.4655C397.531 35.4384 400.029 34.2245 401.803 32.8238C403.577 31.4232 404.464 29.6023 404.464 27.3612C404.464 25.5404 403.787 24.023 402.433 22.8091C401.126 21.5952 399.095 20.9882 396.34 20.9882C393.819 20.9882 391.811 21.5718 390.317 22.739C388.823 23.8596 388.076 25.4237 388.076 27.4313ZM397.321 60.2068C400.822 60.2068 404.184 59.7866 407.405 58.9462L388.987 45.4298C386.932 46.3636 385.345 47.344 384.224 48.3712C383.151 49.3983 382.614 50.6122 382.614 52.0129C382.614 53.3669 383.244 54.6742 384.505 55.9348C385.812 57.1954 387.586 58.2225 389.827 59.0162C392.068 59.8099 394.566 60.2068 397.321 60.2068ZM523.508 15.1755V27.7114H485.27V35.2049H517.625V47.3907H485.27V67H467.971V15.1755H523.508ZM551.817 27.2212C556.859 27.2212 561.412 28.1083 565.473 29.8824C569.535 31.6566 572.71 34.1311 574.998 37.3059C577.286 40.4341 578.43 43.9591 578.43 47.8809C578.43 51.7561 577.262 55.2811 574.928 58.456C572.64 61.5841 569.465 64.0353 565.403 65.8094C561.388 67.5836 556.859 68.4707 551.817 68.4707C546.961 68.4707 542.409 67.5836 538.161 65.8094C533.912 63.9886 530.504 61.5141 527.936 58.3859C525.415 55.2111 524.154 51.7094 524.154 47.8809C524.154 44.0058 525.415 40.5041 527.936 37.376C530.504 34.2011 533.889 31.7266 538.091 29.9525C542.339 28.1316 546.915 27.2212 551.817 27.2212ZM551.817 58.456C553.685 58.456 555.412 58.0591 556.999 57.2654C558.634 56.4717 559.941 55.2811 560.921 53.6937C561.902 52.0596 562.392 50.122 562.392 47.8809C562.392 45.6399 561.902 43.7256 560.921 42.1382C559.941 40.5041 558.634 39.2902 556.999 38.4965C555.412 37.7028 553.685 37.3059 551.817 37.3059C549.996 37.3059 548.199 37.7261 546.424 38.5665C544.697 39.3602 543.273 40.5508 542.152 42.1382C541.032 43.7256 540.472 45.6399 540.472 47.8809C540.472 50.122 541.032 52.0362 542.152 53.6237C543.273 55.2111 544.697 56.425 546.424 57.2654C548.199 58.0591 549.996 58.456 551.817 58.456ZM600.481 35.4851C604.216 31.3765 610.123 28.902 618.2 28.0616V40.2473H608.885C605.991 40.2473 603.89 41.3445 602.582 43.5389C601.275 45.6866 600.621 48.5112 600.621 52.0129V67H584.514V28.8319H599.151L600.481 35.4851ZM677.68 49.4917H640.353C640.679 52.4331 641.777 54.8609 643.644 56.7752C645.558 58.6427 648.15 59.5765 651.418 59.5765C654.079 59.5765 656.437 58.9462 658.491 57.6856C660.592 56.3783 661.643 54.394 661.643 51.7328H677.68C677.68 57.1487 675.346 61.2806 670.677 64.1286C666.055 66.9767 659.612 68.4007 651.348 68.4007C646.259 68.4007 641.637 67.5369 637.481 65.8094C633.326 64.082 630.034 61.6541 627.607 58.526C625.179 55.3512 623.965 51.7328 623.965 47.6708C623.965 43.5622 625.155 39.9439 627.537 36.8157C629.964 33.6409 633.256 31.2131 637.411 29.5323C641.613 27.8048 646.259 26.941 651.348 26.941C656.577 26.941 661.152 27.7814 665.074 29.4622C669.043 31.143 672.124 33.5242 674.319 36.6056C676.513 39.6404 677.634 43.2121 677.68 47.3207V47.6708H677.82H677.68V49.4917ZM651.348 35.4851C648.266 35.4851 645.909 36.1387 644.274 37.446C642.64 38.7533 641.52 40.5742 640.913 42.9086H661.223C660.709 40.5742 659.682 38.7533 658.141 37.446C656.6 36.1387 654.336 35.4851 651.348 35.4851ZM716.94 28.8319H735.219L717.99 48.091L735.219 67H716.94L706.085 55.1644L695.16 67H676.881L694.179 48.091L676.881 28.8319H695.16L706.085 40.7376L716.94 28.8319Z" fill="url(#paint0_linear_2485_521)"/>
</g>
<path d="M15.1232 27.487L14.1857 26.7917L14.1806 26.7986L15.1232 27.487ZM27.8681 17.5901L28.3404 18.6575L28.3448 18.6556L27.8681 17.5901ZM61.7595 16.8069L61.326 17.8907L61.3354 17.8944L61.7595 16.8069ZM73.4363 24.7102L72.5639 25.4857L72.5694 25.4917L73.4363 24.7102ZM79.4884 36.6006V37.7679H80.9385L80.6286 36.3512L79.4884 36.6006ZM61.2611 36.6006L60.1682 37.0105L60.4522 37.7679H61.2611V36.6006ZM57.6299 31.6878L56.8702 32.574L56.8838 32.5856L56.8976 32.5968L57.6299 31.6878ZM52.005 28.4838L51.6284 29.5886L51.6284 29.5886L52.005 28.4838ZM37.6937 29.1246L37.2339 28.0517L37.2269 28.0548L37.6937 29.1246ZM31.2857 34.1086L30.3568 33.4018L30.3544 33.405L31.2857 34.1086ZM31.2857 49.4167L30.347 50.1105L30.3544 50.1203L31.2857 49.4167ZM37.5513 54.3295L37.0773 55.3961L37.0891 55.4014L37.101 55.4064L37.5513 54.3295ZM54.9242 53.6175L54.3544 52.5988L54.347 52.603L54.9242 53.6175ZM61.1187 46.9247V45.7575H60.3701L60.0579 46.4378L61.1187 46.9247ZM79.4172 46.9247L80.5543 47.188L80.8856 45.7575H79.4172V46.9247ZM73.2939 58.8152L74.1609 59.5967L74.1663 59.5906L73.2939 58.8152ZM61.6883 66.6472L61.2605 65.5612L61.2605 65.5612L61.6883 66.6472ZM27.9393 65.7928L27.4591 66.8567L27.4626 66.8582L27.9393 65.7928ZM15.1944 55.8247L14.2569 56.52L14.2569 56.52L15.1944 55.8247ZM11.6624 41.7271C11.6624 36.7038 13.1276 32.1986 16.0658 28.1754L14.1806 26.7986C10.9482 31.2245 9.32799 36.2127 9.32799 41.7271H11.6624ZM16.0608 28.1823C19.0599 24.138 23.1396 20.9588 28.3404 18.6575L27.3958 16.5227C21.8691 18.9682 17.4522 22.3869 14.1857 26.7917L16.0608 28.1823ZM28.3448 18.6556C33.5909 16.3086 39.4071 15.1261 45.8106 15.1261V12.7917C39.1132 12.7917 32.9677 14.03 27.3914 16.5247L28.3448 18.6556ZM45.8106 15.1261C51.5702 15.1261 56.7364 16.0548 61.326 17.8907L62.193 15.7232C57.2892 13.7617 51.8228 12.7917 45.8106 12.7917V15.1261ZM61.3354 17.8944C65.93 19.6863 69.6622 22.2211 72.5639 25.4856L74.3087 23.9347C71.1347 20.364 67.0824 17.63 62.1836 15.7195L61.3354 17.8944ZM72.5694 25.4917C75.4675 28.7069 77.3934 32.4855 78.3481 36.8501L80.6286 36.3512C79.5898 31.6021 77.4809 27.4538 74.3033 23.9287L72.5694 25.4917ZM79.4884 35.4334H61.2611V37.7679H79.4884V35.4334ZM62.354 36.1908C61.5626 34.0805 60.2198 32.2753 58.3621 30.7788L56.8976 32.5968C58.4575 33.8534 59.5355 35.3234 60.1682 37.0105L62.354 36.1908ZM58.3895 30.8016C56.6145 29.2802 54.6094 28.1385 52.3817 27.379L51.6284 29.5886C53.5778 30.2531 55.3225 31.2474 56.8702 32.574L58.3895 30.8016ZM52.3817 27.379C50.1847 26.6301 48.0164 26.2486 45.8818 26.2486V28.583C47.7344 28.583 49.6482 28.9135 51.6284 29.5886L52.3817 27.379ZM45.8818 26.2486C42.918 26.2486 40.0325 26.8524 37.234 28.0518L38.1535 30.1974C40.6712 29.1184 43.2445 28.583 45.8818 28.583V26.2486ZM37.2269 28.0548C34.441 29.2705 32.1434 31.0538 30.3568 33.4018L32.2146 34.8154C33.7507 32.7965 35.7251 31.2572 38.1606 30.1944L37.2269 28.0548ZM30.3544 33.405C28.5721 35.7639 27.6977 38.5568 27.6977 41.7271H30.0321C30.0321 39.0114 30.7715 36.7254 32.217 34.8123L30.3544 33.405ZM27.6977 41.7271C27.6977 44.8976 28.5721 47.709 30.3471 50.1105L32.2244 48.7229C30.7716 46.7574 30.0321 44.4424 30.0321 41.7271H27.6977ZM30.3544 50.1203C32.0933 52.4218 34.3423 54.1806 37.0773 55.3961L38.0254 53.2629C35.6339 52.2 33.7059 50.6837 32.217 48.7131L30.3544 50.1203ZM37.101 55.4064C39.8601 56.5602 42.7905 57.1344 45.8818 57.1344V54.7999C43.0871 54.7999 40.464 54.2824 38.0017 53.2527L37.101 55.4064ZM45.8818 57.1344C49.3522 57.1344 52.5663 56.302 55.5015 54.632L54.347 52.603C51.776 54.0658 48.9618 54.7999 45.8818 54.7999V57.1344ZM55.494 54.6362C58.5088 52.95 60.7464 50.5336 62.1795 47.4116L60.0579 46.4378C58.8328 49.1067 56.9408 51.1522 54.3545 52.5988L55.494 54.6362ZM61.1187 48.0919H79.4172V45.7575H61.1187V48.0919ZM78.28 46.6614C77.2792 50.983 75.3281 54.7698 72.4215 58.0397L74.1663 59.5906C77.3355 56.0252 79.4665 51.8851 80.5543 47.188L78.28 46.6614ZM72.427 58.0336C69.5231 61.2552 65.8109 63.7686 61.2605 65.5612L62.1161 67.7332C66.964 65.8234 70.989 63.1155 74.1609 59.5967L72.427 58.0336ZM61.2605 65.5612C56.718 67.3506 51.5739 68.2568 45.8106 68.2568V70.5912C51.8191 70.5912 57.2601 69.6462 62.1161 67.7332L61.2605 65.5612ZM45.8106 68.2568C39.4558 68.2568 33.6632 67.0748 28.4159 64.7273L27.4626 66.8582C33.0378 69.3524 39.1594 70.5912 45.8106 70.5912V68.2568ZM28.4195 64.7289C23.2151 62.38 19.1327 59.1759 16.132 55.1295L14.2569 56.52C17.5218 60.9227 21.936 64.3639 27.4591 66.8567L28.4195 64.7289ZM16.132 55.1295C13.1457 51.1025 11.6624 46.6461 11.6624 41.7271H9.32799C9.32799 47.1558 10.9776 52.0979 14.2569 56.52L16.132 55.1295ZM101.186 35.9598L100.042 36.1887L100.495 38.4554L102.05 36.745L101.186 35.9598ZM119.2 28.4126H120.367V27.1176L119.079 27.2516L119.2 28.4126ZM119.2 40.8015V41.9687H120.367V40.8015H119.2ZM103.322 44.1479L104.319 44.7548L104.325 44.7453L103.322 44.1479ZM101.329 68V69.1672H102.496V68H101.329ZM84.9524 68H83.7852V69.1672H84.9524V68ZM84.9524 29.1958V28.0286H83.7852V29.1958H84.9524ZM99.8333 29.1958L100.978 28.9669L100.79 28.0286H99.8333V29.1958ZM102.05 36.745C105.582 32.8601 111.265 30.4117 119.321 29.5735L119.079 27.2516C110.711 28.1223 104.385 30.7054 100.322 35.1747L102.05 36.745ZM118.033 28.4126V40.8015H120.367V28.4126H118.033ZM119.2 39.6342H109.73V41.9687H119.2V39.6342ZM109.73 39.6342C106.441 39.6342 103.89 40.9133 102.319 43.5505L104.325 44.7453C105.412 42.9205 107.133 41.9687 109.73 41.9687V39.6342ZM102.325 43.541C100.849 45.9656 100.161 49.0694 100.161 52.7631H102.496C102.496 49.3368 103.137 46.6971 104.319 44.7548L102.325 43.541ZM100.161 52.7631V68H102.496V52.7631H100.161ZM101.329 66.8328H84.9524V69.1672H101.329V66.8328ZM86.1196 68V29.1958H83.7852V68H86.1196ZM84.9524 30.363H99.8333V28.0286H84.9524V30.363ZM98.6888 29.4247L100.042 36.1887L102.331 35.7309L100.978 28.9669L98.6888 29.4247ZM184.656 29.1958L185.698 29.7203L186.549 28.0286H184.656V29.1958ZM160.732 76.7576L159.69 76.2332L159.688 76.2356L160.732 76.7576ZM151.619 82.8097L151.39 81.6651L151.388 81.6656L151.619 82.8097ZM136.524 84.1625H135.357V85.3297H136.524V84.1625ZM136.524 71.1328V69.9656H135.357V71.1328H136.524ZM142.149 70.6344L142.503 71.7467L142.503 71.7467L142.149 70.6344ZM143.431 68.2136L144.514 67.7801L144.494 67.7295L144.469 67.681L143.431 68.2136ZM123.423 29.1958V28.0286H121.513L122.385 29.7284L123.423 29.1958ZM140.939 29.1958L141.999 28.7067L141.686 28.0286H140.939V29.1958ZM154.182 57.8895L153.122 58.3787L154.194 60.6999L155.246 58.37L154.182 57.8895ZM167.14 29.1958V28.0286H166.387L166.077 28.7154L167.14 29.1958ZM183.613 28.6713L159.69 76.2332L161.775 77.2821L185.698 29.7203L183.613 28.6713ZM159.688 76.2356C158.331 78.9509 155.666 80.8099 151.39 81.6651L151.848 83.9542C156.59 83.0057 160.001 80.83 161.776 77.2796L159.688 76.2356ZM151.388 81.6656C147.017 82.549 142.065 82.9953 136.524 82.9953V85.3297C142.186 85.3297 147.297 84.8741 151.85 83.9538L151.388 81.6656ZM137.692 84.1625V71.1328H135.357V84.1625H137.692ZM136.524 72.3C139.225 72.3 141.267 72.1401 142.503 71.7467L141.795 69.5221C140.943 69.7933 139.235 69.9656 136.524 69.9656V72.3ZM142.503 71.7467C143.613 71.3936 144.883 70.6684 144.883 69.2104H142.548C142.548 69.1939 142.553 69.1669 142.565 69.1429C142.574 69.1225 142.576 69.1318 142.539 69.1655C142.452 69.2448 142.237 69.3816 141.795 69.5221L142.503 71.7467ZM144.883 69.2104C144.883 68.9524 144.824 68.6981 144.767 68.4981C144.704 68.2804 144.618 68.0387 144.514 67.7801L142.347 68.6471C142.433 68.8632 142.489 69.025 142.522 69.1395C142.538 69.196 142.546 69.2318 142.549 69.2501C142.553 69.2714 142.548 69.2544 142.548 69.2104H144.883ZM144.469 67.681L124.462 28.6632L122.385 29.7284L142.392 68.7462L144.469 67.681ZM123.423 30.363H140.939V28.0286H123.423V30.363ZM139.879 29.6849L153.122 58.3787L155.242 57.4004L141.999 28.7067L139.879 29.6849ZM155.246 58.37L168.204 29.6762L166.077 28.7154L153.118 57.4091L155.246 58.37ZM167.14 30.363H184.656V28.0286H167.14V30.363ZM242.825 49.4879L243.992 49.5208L243.992 49.5043V49.4879H242.825ZM240.262 59.1L239.231 58.5523L239.227 58.5587L239.224 58.565L240.262 59.1ZM233.64 66.5048L234.276 67.4835L234.287 67.476L233.64 66.5048ZM205.587 63.728L206.376 62.868L204.42 61.0727V63.728H205.587ZM205.587 81.5281V82.6953H206.754V81.5281H205.587ZM189.211 81.5281H188.044V82.6953H189.211V81.5281ZM189.211 29.1958V28.0286H188.044V29.1958H189.211ZM204.234 29.1958L205.382 28.9827L205.205 28.0286H204.234V29.1958ZM205.16 34.1798L204.012 34.393L204.423 36.6047L205.995 34.9954L205.16 34.1798ZM223.957 28.3414L223.931 29.5083L223.944 29.5086H223.957V28.3414ZM233.64 31.047L233.008 32.0283L233.015 32.0331L233.64 31.047ZM240.333 38.4518L239.295 38.9864L239.295 38.9864L240.333 38.4518ZM242.825 48.9895H243.992V48.9824L243.992 48.9753L242.825 48.9895ZM223.458 56.5367L222.585 55.7625L222.584 55.7638L223.458 56.5367ZM226.377 49.1319L227.544 49.1708L227.545 49.1344L227.544 49.0981L226.377 49.1319ZM223.529 41.0863L222.628 41.8276L222.637 41.8385L222.646 41.8492L223.529 41.0863ZM210.5 39.3775L211.118 40.3673L211.126 40.3622L210.5 39.3775ZM206.869 43.2935L205.843 42.7366L205.837 42.7473L206.869 43.2935ZM208.364 56.6079L207.508 57.4022L207.513 57.4076L207.519 57.4129L208.364 56.6079ZM241.658 49.455C241.568 52.6417 240.762 55.6699 239.231 58.5523L241.292 59.6476C242.989 56.4542 243.891 53.0744 243.992 49.5208L241.658 49.455ZM239.224 58.565C237.749 61.4265 235.676 63.7447 232.992 65.5336L234.287 67.476C237.3 65.4675 239.642 62.8492 241.299 59.6349L239.224 58.565ZM233.004 65.5261C230.357 67.2465 227.353 68.1144 223.957 68.1144V70.4488C227.775 70.4488 231.227 69.4655 234.276 67.4834L233.004 65.5261ZM223.957 68.1144C215.895 68.1144 210.11 66.294 206.376 62.868L204.798 64.588C209.134 68.5668 215.595 70.4488 223.957 70.4488V68.1144ZM204.42 63.728V81.5281H206.754V63.728H204.42ZM205.587 80.3609H189.211V82.6953H205.587V80.3609ZM190.378 81.5281V29.1958H188.044V81.5281H190.378ZM189.211 30.363H204.234V28.0286H189.211V30.363ZM203.087 29.4089L204.012 34.393L206.307 33.9667L205.382 28.9827L203.087 29.4089ZM205.995 34.9954C209.664 31.2388 215.549 29.3221 223.931 29.5083L223.983 27.1745C215.276 26.981 208.63 28.9566 204.325 33.3642L205.995 34.9954ZM223.957 29.5086C227.41 29.5086 230.414 30.3576 233.008 32.0283L234.272 30.0657C231.265 28.1289 227.813 27.1742 223.957 27.1742V29.5086ZM233.015 32.0331C235.68 33.7206 237.772 36.0294 239.295 38.9864L241.37 37.9173C239.666 34.6086 237.296 31.9809 234.264 30.0609L233.015 32.0331ZM239.295 38.9864C240.818 41.9419 241.612 45.2734 241.658 49.0037L243.992 48.9753C243.942 44.9211 243.076 41.2274 241.37 37.9173L239.295 38.9864ZM241.658 48.9895V49.2031H243.992V48.9895H241.658ZM241.658 49.2031V49.4879H243.992V49.2031H241.658ZM215.769 60.7656C219.346 60.7656 222.26 59.6557 224.333 57.3097L222.584 55.7638C221.049 57.4999 218.837 58.4311 215.769 58.4311V60.7656ZM224.332 57.311C226.367 55.0143 227.44 52.2843 227.544 49.1708L225.211 49.093C225.125 51.6755 224.252 53.8821 222.585 55.7625L224.332 57.311ZM227.544 49.0981C227.443 45.6069 226.424 42.6515 224.413 40.3233L222.646 41.8492C224.243 43.6981 225.122 46.1065 225.211 49.1657L227.544 49.0981ZM224.431 40.345C222.402 37.8766 219.445 36.715 215.769 36.715V39.0495C218.927 39.0495 221.145 40.0239 222.628 41.8276L224.431 40.345ZM215.769 36.715C213.612 36.715 211.636 37.2708 209.873 38.3927L211.126 40.3622C212.496 39.4905 214.033 39.0495 215.769 39.0495V36.715ZM209.881 38.3877C208.182 39.4497 206.835 40.9084 205.843 42.7366L207.894 43.8503C208.706 42.3559 209.78 41.2039 211.118 40.3673L209.881 38.3877ZM205.837 42.7473C204.892 44.5319 204.42 46.4522 204.42 48.4911H206.754C206.754 46.8275 207.136 45.2828 207.9 43.8396L205.837 42.7473ZM204.42 48.4911V48.6335H206.754V48.4911H204.42ZM204.42 48.6335C204.42 52.1822 205.415 55.1472 207.508 57.4022L209.219 55.8137C207.611 54.0815 206.754 51.7302 206.754 48.6335H204.42ZM207.519 57.4129C209.662 59.6631 212.448 60.7656 215.769 60.7656V58.4311C213.014 58.4311 210.863 57.5401 209.209 55.803L207.519 57.4129ZM271.101 29.1958H269.934V30.363H271.101V29.1958ZM278.506 29.1958H279.673V28.0286H278.506V29.1958ZM278.506 40.3743V41.5415H279.673V40.3743H278.506ZM271.101 40.3743V39.207H269.934V40.3743H271.101ZM271.101 68V69.1672H272.268V68H271.101ZM254.725 68H253.557V69.1672H254.725V68ZM254.725 40.3743H255.892V39.207H254.725V40.3743ZM246.964 40.3743H245.797V41.5415H246.964V40.3743ZM246.964 29.1958V28.0286H245.797V29.1958H246.964ZM254.725 29.1958V30.363H255.892V29.1958H254.725ZM254.725 20.7942L254.287 19.7121L253.557 20.0071V20.7942H254.725ZM271.101 14.1725H272.268V12.4415L270.663 13.0904L271.101 14.1725ZM271.101 30.363H278.506V28.0286H271.101V30.363ZM277.338 29.1958V40.3743H279.673V29.1958H277.338ZM278.506 39.207H271.101V41.5415H278.506V39.207ZM269.934 40.3743V68H272.268V40.3743H269.934ZM271.101 66.8328H254.725V69.1672H271.101V66.8328ZM255.892 68V40.3743H253.557V68H255.892ZM254.725 39.207H246.964V41.5415H254.725V39.207ZM248.131 40.3743V29.1958H245.797V40.3743H248.131ZM246.964 30.363H254.725V28.0286H246.964V30.363ZM255.892 29.1958V20.7942H253.557V29.1958H255.892ZM255.162 21.8763L271.538 15.2546L270.663 13.0904L254.287 19.7121L255.162 21.8763ZM269.934 14.1725V29.1958H272.268V14.1725H269.934ZM322.659 30.2638L323.126 29.1942L323.126 29.1942L322.659 30.2638ZM332.342 37.811L331.395 38.4934L331.4 38.5001L332.342 37.811ZM332.271 59.3136L331.33 58.6221L331.329 58.6245L332.271 59.3136ZM322.588 66.7896L322.12 65.7199L322.116 65.722L322.588 66.7896ZM294.891 66.7896L294.431 67.8625L294.441 67.8667L294.891 66.7896ZM284.495 59.2424L283.581 59.9682L283.587 59.9756L283.593 59.9829L284.495 59.2424ZM284.495 37.8822L283.588 37.1482L283.587 37.1498L284.495 37.8822ZM294.819 30.335L295.273 31.4103L295.279 31.4078L294.819 30.335ZM314.043 58.1031L313.533 57.0532L313.521 57.0592L314.043 58.1031ZM318.031 54.4719L319.024 55.0853L319.028 55.0789L319.032 55.0725L318.031 54.4719ZM318.031 42.7239L317.03 43.3244L317.034 43.3308L317.038 43.3372L318.031 42.7239ZM314.043 39.0215L313.521 40.0655L313.534 40.0714L314.043 39.0215ZM303.292 39.0927L303.78 40.1533L303.792 40.1475L303.292 39.0927ZM298.949 42.7239L297.995 42.0508L297.995 42.0508L298.949 42.7239ZM298.949 54.4007L297.995 55.0738L297.995 55.0738L298.949 54.4007ZM303.292 58.1031L302.782 59.1528L302.798 59.161L302.816 59.1686L303.292 58.1031ZM308.775 28.7254C313.762 28.7254 318.228 29.6023 322.192 31.3334L323.126 29.1942C318.83 27.3178 314.04 26.391 308.775 26.391V28.7254ZM322.192 31.3334C326.155 33.0648 329.207 35.457 331.395 38.4934L333.289 37.1287C330.825 33.7096 327.421 31.0703 323.126 29.1942L322.192 31.3334ZM331.4 38.5001C333.578 41.4778 334.664 44.8196 334.664 48.5623H336.998C336.998 44.3305 335.758 40.5048 333.284 37.122L331.4 38.5001ZM334.664 48.5623C334.664 52.2488 333.559 55.5911 331.33 58.6221L333.211 60.005C335.729 56.5805 336.998 52.7553 336.998 48.5623H334.664ZM331.329 58.6245C329.141 61.6154 326.088 63.9868 322.12 65.72L323.055 67.8592C327.346 65.9849 330.749 63.3723 333.213 60.0026L331.329 58.6245ZM322.116 65.722C318.203 67.451 313.763 68.328 308.775 68.328V70.6624C314.04 70.6624 318.808 69.7357 323.059 67.8572L322.116 65.722ZM308.775 68.328C303.984 68.328 299.51 67.4535 295.34 65.7125L294.441 67.8667C298.91 69.7331 303.692 70.6624 308.775 70.6624V68.328ZM295.35 65.7168C291.178 63.9287 287.874 61.5181 285.398 58.5018L283.593 59.9829C286.338 63.3272 289.964 65.9481 294.431 67.8624L295.35 65.7168ZM285.409 58.5165C283 55.4821 281.818 52.1748 281.818 48.5623H279.483C279.483 52.7344 280.865 56.5471 283.581 59.9682L285.409 58.5165ZM281.818 48.5623C281.818 44.8995 283.001 41.5958 285.404 38.6147L283.587 37.1498C280.863 40.5293 279.483 44.3456 279.483 48.5623H281.818ZM285.403 38.6163C287.879 35.5547 291.157 33.1482 295.273 31.4103L294.365 29.2597C289.937 31.1293 286.333 33.7543 283.588 37.1482L285.403 38.6163ZM295.279 31.4078C299.445 29.6226 303.939 28.7254 308.775 28.7254V26.391C303.642 26.391 298.833 27.345 294.36 29.2622L295.279 31.4078ZM308.775 60.4808C310.845 60.4808 312.781 60.0394 314.565 59.1471L313.521 57.0592C312.078 57.7808 310.502 58.1463 308.775 58.1463V60.4808ZM314.553 59.1531C316.42 58.2467 317.914 56.8822 319.024 55.0853L317.038 53.8586C316.154 55.2894 314.99 56.3458 313.534 57.0532L314.553 59.1531ZM319.032 55.0725C320.155 53.2 320.693 51.0146 320.693 48.5623H318.359C318.359 50.6668 317.9 52.4212 317.03 53.8714L319.032 55.0725ZM320.693 48.5623C320.693 46.1111 320.155 43.9428 319.024 42.1105L317.038 43.3372C317.9 44.7327 318.359 46.4567 318.359 48.5623H320.693ZM319.032 42.1233C317.924 40.2778 316.429 38.8824 314.553 37.9715L313.534 40.0714C314.981 40.7743 316.144 41.8473 317.03 43.3244L319.032 42.1233ZM314.565 37.9775C312.781 37.0852 310.845 36.6438 308.775 36.6438V38.9783C310.502 38.9783 312.078 39.3438 313.521 40.0654L314.565 37.9775ZM308.775 36.6438C306.737 36.6438 304.74 37.1153 302.793 38.0378L303.792 40.1475C305.452 39.3612 307.11 38.9783 308.775 38.9783V36.6438ZM302.805 38.032C300.858 38.9268 299.25 40.2728 297.995 42.0508L299.903 43.397C300.926 41.9472 302.214 40.8724 303.78 40.1533L302.805 38.032ZM297.995 42.0508C296.697 43.8906 296.073 46.0811 296.073 48.5623H298.407C298.407 46.4867 298.923 44.7849 299.903 43.397L297.995 42.0508ZM296.073 48.5623C296.073 51.0435 296.697 53.234 297.995 55.0738L299.903 53.7276C298.923 52.3397 298.407 50.6379 298.407 48.5623H296.073ZM297.995 55.0738C299.247 56.8466 300.846 58.2112 302.782 59.1528L303.803 57.0535C302.226 56.2863 300.93 55.1826 299.903 53.7276L297.995 55.0738ZM302.816 59.1686C304.759 60.038 306.748 60.4808 308.775 60.4808V58.1463C307.099 58.1463 305.433 57.7821 303.769 57.0377L302.816 59.1686ZM436.248 68V69.1672H439.824L436.937 67.0576L436.248 68ZM418.306 68L417.612 68.9386L417.921 69.1672H418.306V68ZM415.031 65.5792L415.724 64.6405L415.222 64.2693L414.635 64.4812L415.031 65.5792ZM405.988 67.9288L405.796 66.7775L405.796 66.7775L405.988 67.9288ZM373.307 65.0808L372.9 66.1747L372.903 66.1756L373.307 65.0808ZM367.967 45.0023L368.577 45.9975L368.589 45.9903L367.967 45.0023ZM380.498 40.2319L380.777 41.3654L383.171 40.7773L381.199 39.2981L380.498 40.2319ZM377.01 37.5974L376.306 38.5285L376.306 38.5285L377.01 37.5974ZM372.524 33.0406L371.539 33.6673L371.546 33.6777L371.553 33.6881L372.524 33.0406ZM374.874 20.011L375.621 20.9077L375.631 20.8995L374.874 20.011ZM384.486 15.3117L384.209 14.1777L384.206 14.1785L384.486 15.3117ZM417.167 21.0078L416.273 21.759L416.273 21.759L417.167 21.0078ZM417.167 33.9662L417.992 34.7916L417.998 34.7861L418.003 34.7805L417.167 33.9662ZM410.545 38.3806L411.021 39.4465L411.021 39.4465L410.545 38.3806ZM400.648 41.9407L400.312 40.823L398.072 41.4975L399.957 42.8815L400.648 41.9407ZM417.523 54.3295L416.832 55.2704L417.64 55.8634L418.348 55.1549L417.523 54.3295ZM422.507 41.5847V40.4174H421.339V41.5847H422.507ZM433.472 41.5847H434.639V40.4174H433.472V41.5847ZM425.141 59.8832L424.387 58.9921L423.255 59.9503L424.452 60.8256L425.141 59.8832ZM393.813 36.9566L393.091 37.8741L393.578 38.2567L394.168 38.0687L393.813 36.9566ZM401.431 33.2542L400.708 32.3381L400.708 32.3381L401.431 33.2542ZM402.072 23.0726L401.278 23.9279L401.285 23.9348L401.293 23.9416L402.072 23.0726ZM389.755 23.0014L390.455 23.9351L390.464 23.9282L390.473 23.9212L389.755 23.0014ZM407.127 59.812L407.422 60.9414L409.796 60.3222L407.818 58.8709L407.127 59.812ZM388.402 46.0703L389.092 45.1293L388.541 44.7248L387.919 45.0077L388.402 46.0703ZM383.56 49.0607L382.771 48.2003L382.762 48.2087L382.753 48.2172L383.56 49.0607ZM383.845 56.7503L383.02 57.5757L383.027 57.5832L383.035 57.5906L383.845 56.7503ZM389.256 59.8832L388.866 60.9834L389.256 59.8832ZM436.248 66.8328H418.306V69.1672H436.248V66.8328ZM419 67.0614L415.724 64.6405L414.337 66.5178L417.612 68.9386L419 67.0614ZM414.635 64.4812C411.808 65.5008 408.862 66.2665 405.796 66.7775L406.18 69.0801C409.38 68.5468 412.463 67.7461 415.427 66.6772L414.635 64.4812ZM405.796 66.7775C402.722 67.2899 399.748 67.5448 396.875 67.5448V69.8792C399.887 69.8792 402.989 69.612 406.18 69.0801L405.796 66.7775ZM396.875 67.5448C387.811 67.5448 380.099 66.3466 373.712 63.9859L372.903 66.1756C379.616 68.6566 387.616 69.8792 396.875 69.8792V67.5448ZM373.714 63.9869C370.6 62.8274 368.363 61.301 366.906 59.4611C365.461 57.6364 364.72 55.425 364.72 52.7631H362.386C362.386 55.8922 363.27 58.6292 365.076 60.9104C366.871 63.1764 369.512 64.9134 372.9 66.1747L373.714 63.9869ZM364.72 52.7631C364.72 49.8109 365.97 47.5953 368.577 45.9975L367.357 44.0071C364.078 46.0168 362.386 48.975 362.386 52.7631H364.72ZM368.589 45.9903C371.382 44.2334 375.423 42.6803 380.777 41.3654L380.22 39.0983C374.751 40.4415 370.439 42.0687 367.346 44.0143L368.589 45.9903ZM381.199 39.2981C380.821 39.015 379.661 38.1386 377.714 36.6664L376.306 38.5285C378.251 39.9992 379.416 40.8791 379.798 41.1656L381.199 39.2981ZM377.714 36.6664C375.843 35.2517 374.449 33.8239 373.495 32.3932L371.553 33.6881C372.688 35.3901 374.284 37.0002 376.306 38.5285L377.714 36.6664ZM373.509 32.414C372.609 30.9997 372.196 29.6475 372.196 28.3414H369.862C369.862 30.1681 370.446 31.9488 371.539 33.6673L373.509 32.414ZM372.196 28.3414C372.196 25.2605 373.331 22.8157 375.621 20.9076L374.126 19.1143C371.29 21.4782 369.862 24.5871 369.862 28.3414H372.196ZM375.631 20.8995C378.034 18.8525 381.066 17.3584 384.765 16.4449L384.206 14.1785C380.216 15.1637 376.84 16.8025 374.117 19.1224L375.631 20.8995ZM384.762 16.4457C388.561 15.5191 392.479 15.0549 396.519 15.0549V12.7205C392.299 12.7205 388.195 13.2057 384.209 14.1778L384.762 16.4457ZM396.519 15.0549C401.405 15.0549 405.505 15.7073 408.85 16.973L409.676 14.7896C405.997 13.3973 401.6 12.7205 396.519 12.7205V15.0549ZM408.85 16.973C412.243 18.2568 414.685 19.8698 416.273 21.759L418.06 20.2565C416.136 17.9686 413.309 16.164 409.676 14.7896L408.85 16.973ZM416.273 21.759C417.889 23.6806 418.634 25.6065 418.634 27.5582H420.968C420.968 24.9531 419.957 22.512 418.06 20.2565L416.273 21.759ZM418.634 27.5582C418.634 29.7156 417.879 31.5613 416.33 33.152L418.003 34.7805C419.967 32.7637 420.968 30.3374 420.968 27.5582H418.634ZM416.341 33.1409C414.702 34.7806 412.619 36.1765 410.069 37.3148L411.021 39.4465C413.787 38.2115 416.119 36.6644 417.992 34.7916L416.341 33.1409ZM410.069 37.3148C407.471 38.4749 404.222 39.6453 400.312 40.823L400.985 43.0583C404.954 41.8627 408.303 40.6597 411.021 39.4465L410.069 37.3148ZM399.957 42.8815L416.832 55.2704L418.213 53.3887L401.339 40.9998L399.957 42.8815ZM418.348 55.1549C421.913 51.5901 423.674 47.0338 423.674 41.5847H421.339C421.339 46.4834 419.778 50.4236 416.697 53.5042L418.348 55.1549ZM422.507 42.7519H433.472V40.4174H422.507V42.7519ZM432.304 41.5847C432.304 48.7533 429.669 54.5224 424.387 58.9921L425.895 60.7742C431.72 55.8454 434.639 49.4156 434.639 41.5847H432.304ZM424.452 60.8256L435.56 68.9424L436.937 67.0576L425.83 58.9408L424.452 60.8256ZM386.309 27.7718C386.309 31.1509 388.823 34.5171 393.091 37.8741L394.535 36.0392C390.354 32.7508 388.643 29.9937 388.643 27.7718H386.309ZM394.168 38.0687C397.517 37.0009 400.2 35.7132 402.155 34.1704L400.708 32.3381C399.055 33.6433 396.66 34.8239 393.458 35.8446L394.168 38.0687ZM402.155 34.1704C404.236 32.5272 405.304 30.3398 405.304 27.7006H402.97C402.97 29.6182 402.234 31.1332 400.708 32.3381L402.155 34.1704ZM405.304 27.7006C405.304 25.5182 404.475 23.6594 402.851 22.2035L401.293 23.9416C402.422 24.954 402.97 26.1805 402.97 27.7006H405.304ZM402.866 22.2172C401.23 20.6976 398.818 20.0541 395.878 20.0541V22.3886C398.539 22.3886 400.256 22.9793 401.278 23.9279L402.866 22.2172ZM395.878 20.0541C393.14 20.0541 390.819 20.6887 389.036 22.0816L390.473 23.9212C391.728 22.9407 393.489 22.3886 395.878 22.3886V20.0541ZM389.054 22.0676C387.217 23.4458 386.309 25.3953 386.309 27.7718H388.643C388.643 26.0661 389.255 24.8354 390.455 23.9351L389.054 22.0676ZM396.875 62.2608C400.529 62.2608 404.046 61.8221 407.422 60.9414L406.833 58.6825C403.659 59.5106 400.34 59.9263 396.875 59.9263V62.2608ZM407.818 58.8709L389.092 45.1293L387.711 47.0113L406.437 60.753L407.818 58.8709ZM387.919 45.0077C385.767 45.9857 384.034 47.0432 382.771 48.2003L384.349 49.9211C385.365 48.9897 386.859 48.0535 388.885 47.1329L387.919 45.0077ZM382.753 48.2172C381.447 49.4667 380.755 50.9995 380.755 52.7631H383.09C383.09 51.6787 383.49 50.7433 384.367 49.9042L382.753 48.2172ZM380.755 52.7631C380.755 54.538 381.591 56.1471 383.02 57.5757L384.67 55.925C383.536 54.7903 383.09 53.7414 383.09 52.7631H380.755ZM383.035 57.5906C384.515 59.0178 386.477 60.1373 388.866 60.9834L389.646 58.7829C387.478 58.0152 385.833 57.0461 384.655 55.9101L383.035 57.5906ZM388.866 60.9834C391.288 61.8411 393.962 62.2608 396.875 62.2608V59.9263C394.186 59.9263 391.781 59.5391 389.646 58.7829L388.866 60.9834ZM522.317 15.3117H523.484V14.1445H522.317V15.3117ZM522.317 28.0566V29.2238H523.484V28.0566H522.317ZM483.441 28.0566V26.8894H482.274V28.0566H483.441ZM483.441 35.675H482.274V36.8423H483.441V35.675ZM516.336 35.675H517.503V34.5078H516.336V35.675ZM516.336 48.0639V49.2311H517.503V48.0639H516.336ZM483.441 48.0639V46.8967H482.274V48.0639H483.441ZM483.441 68V69.1672H484.609V68H483.441ZM465.855 68H464.688V69.1672H465.855V68ZM465.855 15.3117V14.1445H464.688V15.3117H465.855ZM521.15 15.3117V28.0566H523.484V15.3117H521.15ZM522.317 26.8894H483.441V29.2238H522.317V26.8894ZM482.274 28.0566V35.675H484.609V28.0566H482.274ZM483.441 36.8423H516.336V34.5078H483.441V36.8423ZM515.169 35.675V48.0639H517.503V35.675H515.169ZM516.336 46.8967H483.441V49.2311H516.336V46.8967ZM482.274 48.0639V68H484.609V48.0639H482.274ZM483.441 66.8328H465.855V69.1672H483.441V66.8328ZM467.022 68V15.3117H464.688V68H467.022ZM465.855 16.4789H522.317V14.1445H465.855V16.4789ZM563.558 30.2638L564.025 29.1942L564.025 29.1942L563.558 30.2638ZM573.241 37.811L572.294 38.4934L572.299 38.5001L573.241 37.811ZM573.17 59.3136L572.23 58.6221L572.228 58.6245L573.17 59.3136ZM563.487 66.7896L563.02 65.7199L563.015 65.722L563.487 66.7896ZM535.79 66.7896L535.33 67.8625L535.34 67.8667L535.79 66.7896ZM525.395 59.2424L524.48 59.9682L524.486 59.9756L524.492 59.9829L525.395 59.2424ZM525.395 37.8822L524.487 37.1482L524.486 37.1498L525.395 37.8822ZM535.719 30.335L536.173 31.4103L536.178 31.4078L535.719 30.335ZM554.943 58.1031L554.433 57.0532L554.421 57.0592L554.943 58.1031ZM558.93 54.4719L559.923 55.0853L559.927 55.0789L559.931 55.0725L558.93 54.4719ZM558.93 42.7239L557.929 43.3244L557.933 43.3308L557.937 43.3372L558.93 42.7239ZM554.943 39.0215L554.421 40.0655L554.433 40.0714L554.943 39.0215ZM544.191 39.0927L544.679 40.1533L544.691 40.1475L544.191 39.0927ZM539.848 42.7239L538.895 42.0508L538.895 42.0508L539.848 42.7239ZM539.848 54.4007L538.895 55.0738L538.895 55.0738L539.848 54.4007ZM544.191 58.1031L543.681 59.1528L543.698 59.161L543.715 59.1686L544.191 58.1031ZM549.674 28.7254C554.662 28.7254 559.127 29.6023 563.091 31.3334L564.025 29.1942C559.729 27.3178 554.939 26.391 549.674 26.391V28.7254ZM563.091 31.3334C567.055 33.0648 570.106 35.457 572.294 38.4934L574.188 37.1287C571.724 33.7096 568.321 31.0703 564.025 29.1942L563.091 31.3334ZM572.299 38.5001C574.477 41.4778 575.563 44.8196 575.563 48.5623H577.897C577.897 44.3305 576.657 40.5048 574.183 37.122L572.299 38.5001ZM575.563 48.5623C575.563 52.2488 574.458 55.5911 572.23 58.6221L574.11 60.005C576.628 56.5805 577.897 52.7553 577.897 48.5623H575.563ZM572.228 58.6245C570.04 61.6154 566.988 63.9868 563.02 65.72L563.954 67.8592C568.245 65.9849 571.648 63.3723 574.112 60.0026L572.228 58.6245ZM563.015 65.722C559.102 67.451 554.662 68.328 549.674 68.328V70.6624C554.939 70.6624 559.707 69.7357 563.958 67.8572L563.015 65.722ZM549.674 68.328C544.883 68.328 540.409 67.4535 536.24 65.7125L535.34 67.8667C539.81 69.7331 544.591 70.6624 549.674 70.6624V68.328ZM536.25 65.7168C532.077 63.9287 528.773 61.5181 526.297 58.5018L524.492 59.9829C527.238 63.3272 530.863 65.9481 535.33 67.8624L536.25 65.7168ZM526.309 58.5165C523.899 55.4821 522.717 52.1748 522.717 48.5623H520.382C520.382 52.7344 521.764 56.5471 524.48 59.9682L526.309 58.5165ZM522.717 48.5623C522.717 44.8995 523.901 41.5958 526.303 38.6147L524.486 37.1498C521.762 40.5293 520.382 44.3456 520.382 48.5623H522.717ZM526.302 38.6163C528.778 35.5547 532.056 33.1482 536.173 31.4103L535.265 29.2597C530.837 31.1293 527.232 33.7543 524.487 37.1482L526.302 38.6163ZM536.178 31.4078C540.344 29.6226 544.838 28.7254 549.674 28.7254V26.391C544.541 26.391 539.732 27.345 535.259 29.2622L536.178 31.4078ZM549.674 60.4808C551.744 60.4808 553.68 60.0394 555.465 59.1471L554.421 57.0592C552.977 57.7808 551.401 58.1463 549.674 58.1463V60.4808ZM555.453 59.1531C557.319 58.2467 558.813 56.8822 559.923 55.0853L557.937 53.8586C557.053 55.2894 555.889 56.3458 554.433 57.0532L555.453 59.1531ZM559.931 55.0725C561.054 53.2 561.592 51.0146 561.592 48.5623H559.258C559.258 50.6668 558.799 52.4212 557.929 53.8714L559.931 55.0725ZM561.592 48.5623C561.592 46.1111 561.055 43.9428 559.923 42.1105L557.937 43.3372C558.799 44.7327 559.258 46.4567 559.258 48.5623H561.592ZM559.931 42.1233C558.823 40.2778 557.328 38.8824 555.453 37.9715L554.433 40.0714C555.88 40.7743 557.043 41.8473 557.929 43.3244L559.931 42.1233ZM555.465 37.9775C553.68 37.0852 551.744 36.6438 549.674 36.6438V38.9783C551.401 38.9783 552.977 39.3438 554.421 40.0654L555.465 37.9775ZM549.674 36.6438C547.637 36.6438 545.639 37.1153 543.692 38.0378L544.691 40.1475C546.351 39.3612 548.009 38.9783 549.674 38.9783V36.6438ZM543.704 38.032C541.757 38.9268 540.15 40.2728 538.895 42.0508L540.802 43.397C541.825 41.9472 543.114 40.8724 544.679 40.1533L543.704 38.032ZM538.895 42.0508C537.596 43.8906 536.972 46.0811 536.972 48.5623H539.307C539.307 46.4867 539.822 44.7849 540.802 43.397L538.895 42.0508ZM536.972 48.5623C536.972 51.0435 537.596 53.234 538.895 55.0738L540.802 53.7276C539.822 52.3397 539.307 50.6379 539.307 48.5623H536.972ZM538.895 55.0738C540.146 56.8466 541.745 58.2112 543.681 59.1528L544.702 57.0535C543.125 56.2863 541.829 55.1826 540.802 53.7276L538.895 55.0738ZM543.715 59.1686C545.658 60.038 547.647 60.4808 549.674 60.4808V58.1463C547.998 58.1463 546.332 57.7821 544.668 57.0377L543.715 59.1686ZM597.725 35.9598L596.581 36.1887L597.034 38.4554L598.589 36.745L597.725 35.9598ZM615.739 28.4126H616.906V27.1176L615.618 27.2516L615.739 28.4126ZM615.739 40.8015V41.9687H616.906V40.8015H615.739ZM599.861 44.1479L600.858 44.7548L600.864 44.7453L599.861 44.1479ZM597.868 68V69.1672H599.035V68H597.868ZM581.492 68H580.324V69.1672H581.492V68ZM581.492 29.1958V28.0286H580.324V29.1958H581.492ZM596.372 29.1958L597.517 28.9669L597.329 28.0286H596.372V29.1958ZM598.589 36.745C602.121 32.8601 607.804 30.4117 615.86 29.5735L615.618 27.2516C607.251 28.1223 600.925 30.7054 596.862 35.1747L598.589 36.745ZM614.572 28.4126V40.8015H616.906V28.4126H614.572ZM615.739 39.6342H606.269V41.9687H615.739V39.6342ZM606.269 39.6342C602.98 39.6342 600.43 40.9133 598.858 43.5505L600.864 44.7453C601.951 42.9205 603.672 41.9687 606.269 41.9687V39.6342ZM598.864 43.541C597.388 45.9656 596.7 49.0694 596.7 52.7631H599.035C599.035 49.3368 599.676 46.6971 600.858 44.7548L598.864 43.541ZM596.7 52.7631V68H599.035V52.7631H596.7ZM597.868 66.8328H581.492V69.1672H597.868V66.8328ZM582.659 68V29.1958H580.324V68H582.659ZM581.492 30.363H596.372V28.0286H581.492V30.363ZM595.228 29.4247L596.581 36.1887L598.87 35.7309L597.517 28.9669L595.228 29.4247ZM674.787 50.1999V51.3671H675.954V50.1999H674.787ZM636.837 50.1999V49.0327H635.533L635.677 50.3288L636.837 50.1999ZM640.183 57.6047L639.348 58.4198L639.358 58.4302L639.368 58.4402L640.183 57.6047ZM655.278 58.5304L655.888 59.5252L655.895 59.5214L655.278 58.5304ZM658.482 52.4783V51.3111H657.315V52.4783H658.482ZM674.787 52.4783H675.954V51.3111H674.787V52.4783ZM667.667 65.0808L667.059 64.0843L667.054 64.0871L667.667 65.0808ZM633.918 66.7896L634.366 65.7118L634.366 65.7118L633.918 66.7896ZM623.879 59.3848L622.951 60.0938L622.956 60.1004L623.879 59.3848ZM623.807 37.3126L622.88 36.6036L622.879 36.6057L623.807 37.3126ZM633.847 29.9078L634.284 30.9899L634.29 30.9874L633.847 29.9078ZM661.971 29.8366L661.511 30.9095L661.516 30.9114L661.971 29.8366ZM671.369 37.099L670.418 37.7761L670.423 37.783L671.369 37.099ZM674.787 47.9927H675.954L675.954 47.9794L674.787 47.9927ZM674.787 48.3487H673.62V49.5159H674.787V48.3487ZM674.787 48.3487V47.1815H673.62V48.3487H674.787ZM640.824 37.9534L641.553 38.8649L641.553 38.8649L640.824 37.9534ZM637.407 43.5071L636.277 43.2134L635.897 44.6743H637.407V43.5071ZM658.055 43.5071V44.6743H659.507L659.195 43.2563L658.055 43.5071ZM654.922 37.9534L655.677 37.0634L654.922 37.9534ZM674.787 49.0327H636.837V51.3671H674.787V49.0327ZM635.677 50.3288C636.035 53.5485 637.248 56.2675 639.348 58.4198L641.019 56.7896C639.321 55.0497 638.304 52.8321 637.997 50.071L635.677 50.3288ZM639.368 58.4402C641.579 60.5969 644.531 61.62 648.087 61.62V59.2855C644.997 59.2855 642.68 58.41 640.999 56.7693L639.368 58.4402ZM648.087 61.62C650.985 61.62 653.597 60.931 655.888 59.5252L654.667 57.5355C652.781 58.6929 650.6 59.2855 648.087 59.2855V61.62ZM655.895 59.5214C658.403 57.9606 659.649 55.5506 659.649 52.4783H657.315C657.315 54.8173 656.425 56.4419 654.661 57.5393L655.895 59.5214ZM658.482 53.6455H674.787V51.3111H658.482V53.6455ZM673.62 52.4783C673.62 57.5727 671.462 61.3982 667.059 64.0843L668.275 66.0772C673.365 62.9724 675.954 58.3963 675.954 52.4783H673.62ZM667.054 64.0871C662.612 66.8246 656.305 68.2568 648.015 68.2568V70.5912C656.529 70.5912 663.323 69.128 668.279 66.0745L667.054 64.0871ZM648.015 68.2568C642.975 68.2568 638.431 67.4018 634.366 65.7118L633.47 67.8674C637.854 69.6899 642.708 70.5912 648.015 70.5912V68.2568ZM634.366 65.7118C630.302 64.0224 627.129 61.6689 624.801 58.6691L622.956 60.1004C625.565 63.4612 629.084 66.0443 633.47 67.8674L634.366 65.7118ZM624.806 58.6757C622.496 55.6551 621.343 52.2266 621.343 48.3487H619.009C619.009 52.7301 620.325 56.6589 622.951 60.0938L624.806 58.6757ZM621.343 48.3487C621.343 44.4147 622.477 40.9871 624.736 38.0196L622.879 36.6057C620.296 39.9988 619.009 43.9286 619.009 48.3487H621.343ZM624.735 38.0217C627.061 34.9793 630.229 32.6301 634.284 30.9899L633.409 28.8258C629.015 30.6031 625.49 33.1905 622.88 36.6036L624.735 38.0217ZM634.29 30.9874C638.406 29.2955 642.976 28.4406 648.015 28.4406V26.1062C642.708 26.1062 637.832 27.0075 633.403 28.8283L634.29 30.9874ZM648.015 28.4406C653.208 28.4406 657.698 29.2753 661.511 30.9094L662.431 28.7638C658.269 26.9803 653.455 26.1062 648.015 26.1062V28.4406ZM661.516 30.9114C665.38 32.548 668.329 34.8426 670.418 37.7761L672.32 36.422C669.947 33.0898 666.631 30.5428 662.426 28.7618L661.516 30.9114ZM670.423 37.783C672.499 40.654 673.575 44.0454 673.62 48.006L675.954 47.9794C675.904 43.5859 674.701 39.7148 672.315 36.4151L670.423 37.783ZM673.62 47.9927V48.3487H675.954V47.9927H673.62ZM674.787 49.5159H674.929V47.1815H674.787V49.5159ZM674.929 47.1815H674.787V49.5159H674.929V47.1815ZM673.62 48.3487V50.1999H675.954V48.3487H673.62ZM648.015 34.7926C644.738 34.7926 642.041 35.485 640.095 37.042L641.553 38.8649C642.93 37.7637 645.027 37.1271 648.015 37.1271V34.7926ZM640.095 37.042C638.208 38.5517 636.947 40.635 636.277 43.2134L638.536 43.8008C639.1 41.6325 640.118 40.0134 641.553 38.8649L640.095 37.042ZM637.407 44.6743H658.055V42.3399H637.407V44.6743ZM659.195 43.2563C658.628 40.6807 657.472 38.5865 655.677 37.0634L654.167 38.8435C655.505 39.9785 656.437 41.5867 656.915 43.7579L659.195 43.2563ZM655.677 37.0634C653.819 35.4868 651.201 34.7926 648.015 34.7926V37.1271C650.905 37.1271 652.892 37.7619 654.167 38.8435L655.677 37.0634ZM713.277 29.1958V28.0286H712.761L712.414 28.4094L713.277 29.1958ZM731.86 29.1958L732.73 29.974L734.47 28.0286H731.86V29.1958ZM714.345 48.7759L713.475 47.9977L712.772 48.7831L713.482 49.562L714.345 48.7759ZM731.86 68V69.1672H734.503L732.723 67.2139L731.86 68ZM713.277 68L712.417 68.7889L712.763 69.1672H713.277V68ZM702.241 55.9671L703.101 55.1782L702.243 54.2433L701.383 55.1754L702.241 55.9671ZM691.133 68V69.1672H691.644L691.991 68.7917L691.133 68ZM672.55 68L671.689 67.2121L669.9 69.1672H672.55V68ZM690.137 48.7759L690.998 49.5638L691.712 48.7831L691.005 47.9959L690.137 48.7759ZM672.55 29.1958V28.0286H669.933L671.682 29.9758L672.55 29.1958ZM691.133 29.1958L691.993 28.4066L691.647 28.0286H691.133V29.1958ZM702.241 41.2999L701.381 42.089L702.243 43.0292L703.103 42.0863L702.241 41.2999ZM713.277 30.363H731.86V28.0286H713.277V30.363ZM730.99 28.4176L713.475 47.9977L715.215 49.5541L732.73 29.974L730.99 28.4176ZM713.482 49.562L730.997 68.7861L732.723 67.2139L715.208 47.9898L713.482 49.562ZM731.86 66.8328H713.277V69.1672H731.86V66.8328ZM714.137 67.2111L703.101 55.1782L701.38 56.7561L712.417 68.7889L714.137 67.2111ZM701.383 55.1754L690.276 67.2083L691.991 68.7917L703.098 56.7588L701.383 55.1754ZM691.133 66.8328H672.55V69.1672H691.133V66.8328ZM673.411 68.7879L690.998 49.5638L689.275 47.988L671.689 67.2121L673.411 68.7879ZM691.005 47.9959L673.418 28.4158L671.682 29.9758L689.268 49.5559L691.005 47.9959ZM672.55 30.363H691.133V28.0286H672.55V30.363ZM690.273 29.985L701.381 42.089L703.101 40.5107L691.993 28.4066L690.273 29.985ZM703.103 42.0863L714.139 29.9822L712.414 28.4094L701.378 40.5134L703.103 42.0863Z" fill="url(#paint1_linear_2485_521)"/>
<g filter="url(#filter1_i_2485_521)">
<path d="M7.4707 41.1578C7.4707 35.9753 8.98808 31.3064 12.0229 27.1511C15.1043 22.9958 19.283 19.751 24.5588 17.4165C29.8813 15.0354 35.7641 13.8448 42.2071 13.8448C47.9965 13.8448 53.2257 14.7786 57.8946 16.6462C62.5634 18.467 66.3919 21.0583 69.38 24.4198C72.3681 27.7347 74.3524 31.6333 75.3328 36.1154H57.4043C56.704 34.2478 55.5134 32.6371 53.8326 31.2831C52.1985 29.8824 50.3543 28.8319 48.3 28.1316C46.2457 27.4313 44.2381 27.0811 42.2772 27.0811C39.5225 27.0811 36.8379 27.6414 34.2234 28.7619C31.6555 29.8824 29.5545 31.5165 27.9204 33.6642C26.333 35.7652 25.5392 38.2631 25.5392 41.1578C25.5392 44.0525 26.333 46.5737 27.9204 48.7213C29.5078 50.8223 31.5621 52.4331 34.0833 53.5536C36.6512 54.6275 39.3825 55.1644 42.2772 55.1644C45.4987 55.1644 48.4634 54.394 51.1714 52.8533C53.926 51.3126 55.957 49.1182 57.2643 46.2702H75.2628C74.2356 50.7056 72.228 54.6041 69.2399 57.9657C66.2519 61.2806 62.4467 63.8485 57.8245 65.6694C53.2023 67.4902 47.9965 68.4007 42.2071 68.4007C35.8108 68.4007 29.9513 67.2101 24.6288 64.829C19.353 62.4478 15.1743 59.1796 12.0929 55.0243C9.01143 50.869 7.4707 46.2468 7.4707 41.1578ZM98.0755 35.4851C101.811 31.3765 107.717 28.902 115.794 28.0616V40.2473H106.48C103.585 40.2473 101.484 41.3445 100.177 43.5389C98.8692 45.6866 98.2156 48.5112 98.2156 52.0129V67H82.108V28.8319H96.7449L98.0755 35.4851ZM181.577 28.8319L158.046 75.6141C156.506 78.6955 153.518 80.6798 149.082 81.5669C144.693 82.454 139.744 82.8975 134.235 82.8975V70.0815C136.896 70.0815 138.741 69.918 139.768 69.5912C140.795 69.2644 141.308 68.7975 141.308 68.1906C141.308 68.0038 141.215 67.677 141.028 67.2101L121.349 28.8319H138.577L151.603 57.0553L164.349 28.8319H181.577ZM240.194 48.7914C240.1 52.1063 239.26 55.2578 237.672 58.2459C236.132 61.2339 233.961 63.6618 231.159 65.5293C228.358 67.3502 225.183 68.2606 221.635 68.2606C213.558 68.2606 207.535 66.4397 203.566 62.798V80.3063H187.459V28.8319H202.236L203.146 33.7343C207.068 29.719 213.231 27.8048 221.635 27.9915C225.23 27.9915 228.405 28.8786 231.159 30.6528C233.961 32.427 236.155 34.8548 237.742 37.9362C239.33 41.0177 240.147 44.4727 240.194 48.3011V48.5112V48.7914ZM213.581 58.7361C216.849 58.7361 219.37 57.7323 221.145 55.7247C222.965 53.6704 223.923 51.2425 224.016 48.4412C223.923 45.2197 222.989 42.5818 221.215 40.5275C219.487 38.4265 216.943 37.376 213.581 37.376C211.667 37.376 209.939 37.8662 208.399 38.8467C206.905 39.7804 205.714 41.0644 204.827 42.6985C203.986 44.2859 203.566 45.9901 203.566 47.8109V47.951C203.566 51.2192 204.477 53.8338 206.298 55.7947C208.165 57.7556 210.593 58.7361 213.581 58.7361ZM269.407 28.8319H276.69V39.8271H269.407V67H253.299V39.8271H245.665V28.8319H253.299V20.568L269.407 14.0549V28.8319ZM307.864 27.2212C312.906 27.2212 317.458 28.1083 321.52 29.8824C325.582 31.6566 328.757 34.1311 331.045 37.3059C333.332 40.4341 334.476 43.9591 334.476 47.8809C334.476 51.7561 333.309 55.2811 330.975 58.456C328.687 61.5841 325.512 64.0353 321.45 65.8094C317.435 67.5836 312.906 68.4707 307.864 68.4707C303.008 68.4707 298.456 67.5836 294.207 65.8094C289.959 63.9886 286.55 61.5141 283.982 58.3859C281.461 55.2111 280.201 51.7094 280.201 47.8809C280.201 44.0058 281.461 40.5041 283.982 37.376C286.55 34.2011 289.935 31.7266 294.137 29.9525C298.386 28.1316 302.961 27.2212 307.864 27.2212ZM307.864 58.456C309.731 58.456 311.459 58.0591 313.046 57.2654C314.68 56.4717 315.988 55.2811 316.968 53.6937C317.948 52.0596 318.439 50.122 318.439 47.8809C318.439 45.6399 317.948 43.7256 316.968 42.1382C315.988 40.5041 314.68 39.2902 313.046 38.4965C311.459 37.7028 309.731 37.3059 307.864 37.3059C306.043 37.3059 304.245 37.7261 302.471 38.5665C300.744 39.3602 299.32 40.5508 298.199 42.1382C297.079 43.7256 296.518 45.6399 296.518 47.8809C296.518 50.122 297.079 52.0362 298.199 53.6237C299.32 55.2111 300.744 56.425 302.471 57.2654C304.245 58.0591 306.043 58.456 307.864 58.456ZM436.049 67H418.401L415.179 64.6189C412.331 65.646 409.366 66.4164 406.285 66.93C403.203 67.4435 400.215 67.7003 397.321 67.7003C388.31 67.7003 380.583 66.5098 374.14 64.1286C367.743 61.7475 364.545 57.7089 364.545 52.0129C364.545 48.698 365.992 46.1535 368.887 44.3793C371.782 42.5584 375.89 40.9944 381.213 39.6871C380.839 39.4069 379.696 38.5432 377.781 37.0958C375.867 35.6485 374.396 34.1545 373.369 32.6137C372.389 31.073 371.899 29.5323 371.899 27.9915C371.899 24.6299 373.159 21.8987 375.68 19.7977C378.202 17.65 381.353 16.1092 385.135 15.1755C388.963 14.2417 392.909 13.7748 396.97 13.7748C401.873 13.7748 406.051 14.4284 409.506 15.7357C412.961 17.043 415.553 18.7238 417.28 20.7781C419.008 22.8324 419.871 24.9801 419.871 27.2212C419.871 29.649 419.008 31.75 417.28 33.5242C415.553 35.2516 413.382 36.699 410.767 37.8662C408.152 39.0334 404.908 40.2006 401.032 41.3679L417.63 53.5536C420.898 50.2854 422.533 46.1068 422.533 41.0177H433.318C433.318 48.3945 430.586 54.394 425.124 59.0162L436.049 67ZM388.076 27.4313C388.076 30.1859 390.154 33.1973 394.309 36.4655C397.531 35.4384 400.029 34.2245 401.803 32.8238C403.577 31.4232 404.464 29.6023 404.464 27.3612C404.464 25.5404 403.787 24.023 402.433 22.8091C401.126 21.5952 399.095 20.9882 396.34 20.9882C393.819 20.9882 391.811 21.5718 390.317 22.739C388.823 23.8596 388.076 25.4237 388.076 27.4313ZM397.321 60.2068C400.822 60.2068 404.184 59.7866 407.405 58.9462L388.987 45.4298C386.932 46.3636 385.345 47.344 384.224 48.3712C383.151 49.3983 382.614 50.6122 382.614 52.0129C382.614 53.3669 383.244 54.6742 384.505 55.9348C385.812 57.1954 387.586 58.2225 389.827 59.0162C392.068 59.8099 394.566 60.2068 397.321 60.2068ZM523.508 15.1755V27.7114H485.27V35.2049H517.625V47.3907H485.27V67H467.971V15.1755H523.508ZM551.817 27.2212C556.859 27.2212 561.412 28.1083 565.473 29.8824C569.535 31.6566 572.71 34.1311 574.998 37.3059C577.286 40.4341 578.43 43.9591 578.43 47.8809C578.43 51.7561 577.262 55.2811 574.928 58.456C572.64 61.5841 569.465 64.0353 565.403 65.8094C561.388 67.5836 556.859 68.4707 551.817 68.4707C546.961 68.4707 542.409 67.5836 538.161 65.8094C533.912 63.9886 530.504 61.5141 527.936 58.3859C525.415 55.2111 524.154 51.7094 524.154 47.8809C524.154 44.0058 525.415 40.5041 527.936 37.376C530.504 34.2011 533.889 31.7266 538.091 29.9525C542.339 28.1316 546.915 27.2212 551.817 27.2212ZM551.817 58.456C553.685 58.456 555.412 58.0591 556.999 57.2654C558.634 56.4717 559.941 55.2811 560.921 53.6937C561.902 52.0596 562.392 50.122 562.392 47.8809C562.392 45.6399 561.902 43.7256 560.921 42.1382C559.941 40.5041 558.634 39.2902 556.999 38.4965C555.412 37.7028 553.685 37.3059 551.817 37.3059C549.996 37.3059 548.199 37.7261 546.424 38.5665C544.697 39.3602 543.273 40.5508 542.152 42.1382C541.032 43.7256 540.472 45.6399 540.472 47.8809C540.472 50.122 541.032 52.0362 542.152 53.6237C543.273 55.2111 544.697 56.425 546.424 57.2654C548.199 58.0591 549.996 58.456 551.817 58.456ZM600.481 35.4851C604.216 31.3765 610.123 28.902 618.2 28.0616V40.2473H608.885C605.991 40.2473 603.89 41.3445 602.582 43.5389C601.275 45.6866 600.621 48.5112 600.621 52.0129V67H584.514V28.8319H599.151L600.481 35.4851ZM677.68 49.4917H640.353C640.679 52.4331 641.777 54.8609 643.644 56.7752C645.558 58.6427 648.15 59.5765 651.418 59.5765C654.079 59.5765 656.437 58.9462 658.491 57.6856C660.592 56.3783 661.643 54.394 661.643 51.7328H677.68C677.68 57.1487 675.346 61.2806 670.677 64.1286C666.055 66.9767 659.612 68.4007 651.348 68.4007C646.259 68.4007 641.637 67.5369 637.481 65.8094C633.326 64.082 630.034 61.6541 627.607 58.526C625.179 55.3512 623.965 51.7328 623.965 47.6708C623.965 43.5622 625.155 39.9439 627.537 36.8157C629.964 33.6409 633.256 31.2131 637.411 29.5323C641.613 27.8048 646.259 26.941 651.348 26.941C656.577 26.941 661.152 27.7814 665.074 29.4622C669.043 31.143 672.124 33.5242 674.319 36.6056C676.513 39.6404 677.634 43.2121 677.68 47.3207V47.6708H677.82H677.68V49.4917ZM651.348 35.4851C648.266 35.4851 645.909 36.1387 644.274 37.446C642.64 38.7533 641.52 40.5742 640.913 42.9086H661.223C660.709 40.5742 659.682 38.7533 658.141 37.446C656.6 36.1387 654.336 35.4851 651.348 35.4851ZM716.94 28.8319H735.219L717.99 48.091L735.219 67H716.94L706.085 55.1644L695.16 67H676.881L694.179 48.091L676.881 28.8319H695.16L706.085 40.7376L716.94 28.8319Z" fill="url(#paint2_linear_2485_521)"/>
</g>
<defs>
<filter id="filter0_f_2485_521" x="0.467389" y="6.77147" width="741.755" height="83.1294" filterUnits="userSpaceOnUse" color-interpolation-filters="sRGB">
<feFlood flood-opacity="0" result="BackgroundImageFix"/>
<feBlend mode="normal" in="SourceGraphic" in2="BackgroundImageFix" result="shape"/>
<feGaussianBlur stdDeviation="3.50166" result="effect1_foregroundBlur_2485_521"/>
</filter>
<filter id="filter1_i_2485_521" x="7.4707" y="13.7748" width="727.748" height="71.4572" filterUnits="userSpaceOnUse" color-interpolation-filters="sRGB">
<feFlood flood-opacity="0" result="BackgroundImageFix"/>
<feBlend mode="normal" in="SourceGraphic" in2="BackgroundImageFix" result="shape"/>
<feColorMatrix in="SourceAlpha" type="matrix" values="0 0 0 0 0 0 0 0 0 0 0 0 0 0 0 0 0 0 127 0" result="hardAlpha"/>
<feOffset dy="2.33444"/>
<feGaussianBlur stdDeviation="1.16722"/>
<feComposite in2="hardAlpha" operator="arithmetic" k2="-1" k3="1"/>
<feColorMatrix type="matrix" values="0 0 0 0 1 0 0 0 0 1 0 0 0 0 1 0 0 0 0.25 0"/>
<feBlend mode="normal" in2="shape" result="effect1_innerShadow_2485_521"/>
</filter>
<linearGradient id="paint0_linear_2485_521" x1="6" y1="0" x2="738" y2="0" gradientUnits="userSpaceOnUse">
<stop stop-color="#FF3842"/>
<stop offset="0.489317" stop-color="#FF37E7"/>
<stop offset="1" stop-color="#3535FF"/>
</linearGradient>
<linearGradient id="paint1_linear_2485_521" x1="373.5" y1="0" x2="373.5" y2="60.6667" gradientUnits="userSpaceOnUse">
<stop stop-color="white" stop-opacity="0.5"/>
<stop offset="1" stop-color="white" stop-opacity="0"/>
</linearGradient>
<linearGradient id="paint2_linear_2485_521" x1="6" y1="0" x2="738" y2="0" gradientUnits="userSpaceOnUse">
<stop stop-color="#FF3842"/>
<stop offset="0.489317" stop-color="#FF37E7"/>
<stop offset="1" stop-color="#3535FF"/>
</linearGradient>
</defs>
</svg>
