<svg width="320" height="199" viewBox="0 0 320 199" fill="none" xmlns="http://www.w3.org/2000/svg">
<path fill-rule="evenodd" clip-rule="evenodd" d="M320 -81H0V199H320V-81ZM319.5 -80.5H280.5V-41.5H319.5V-80.5ZM279.5 -80.5H240.5V-41.5H279.5V-80.5ZM200.5 -80.5H239.5V-41.5H200.5V-80.5ZM199.5 -80.5H160.5V-41.5H199.5V-80.5ZM120.5 -80.5H159.5V-41.5H120.5V-80.5ZM119.5 -80.5H80.5V-41.5H119.5V-80.5ZM40.5 -80.5H79.5V-41.5H40.5V-80.5ZM39.5 -80.5H0.5V-41.5H39.5V-80.5ZM280.5 -40.5H319.5V-1.5H280.5V-40.5ZM279.5 -40.5H240.5V-1.5H279.5V-40.5ZM200.5 -40.5H239.5V-1.5H200.5V-40.5ZM199.5 -40.5H160.5V-1.5H199.5V-40.5ZM120.5 -40.5H159.5V-1.5H120.5V-40.5ZM119.5 -40.5H80.5V-1.5H119.5V-40.5ZM40.5 -40.5H79.5V-1.5H40.5V-40.5ZM39.5 -40.5H0.5V-1.5H39.5V-40.5ZM280.5 -0.5H319.5V38.5H280.5V-0.5ZM279.5 -0.5H240.5V38.5H279.5V-0.5ZM200.5 -0.5H239.5V38.5H200.5V-0.5ZM199.5 -0.5H160.5V38.5H199.5V-0.5ZM120.5 -0.5H159.5V38.5H120.5V-0.5ZM119.5 -0.5H80.5V38.5H119.5V-0.5ZM40.5 -0.5H79.5V38.5H40.5V-0.5ZM39.5 -0.5H0.5V38.5H39.5V-0.5ZM280.5 39.5H319.5V78.5H280.5V39.5ZM279.5 39.5H240.5V78.5H279.5V39.5ZM200.5 39.5H239.5V78.5H200.5V39.5ZM199.5 39.5H160.5V78.5H199.5V39.5ZM120.5 39.5H159.5V78.5H120.5V39.5ZM119.5 39.5H80.5V78.5H119.5V39.5ZM40.5 39.5H79.5V78.5H40.5V39.5ZM39.5 39.5H0.5V78.5H39.5V39.5ZM280.5 79.5H319.5V118.5H280.5V79.5ZM279.5 79.5H240.5V118.5H279.5V79.5ZM200.5 79.5H239.5V118.5H200.5V79.5ZM199.5 79.5H160.5V118.5H199.5V79.5ZM120.5 79.5H159.5V118.5H120.5V79.5ZM119.5 79.5H80.5V118.5H119.5V79.5ZM40.5 79.5H79.5V118.5H40.5V79.5ZM39.5 79.5H0.5V118.5H39.5V79.5ZM280.5 119.5H319.5V158.5H280.5V119.5ZM279.5 119.5H240.5V158.5H279.5V119.5ZM200.5 119.5H239.5V158.5H200.5V119.5ZM199.5 119.5H160.5V158.5H199.5V119.5ZM120.5 119.5H159.5V158.5H120.5V119.5ZM119.5 119.5H80.5V158.5H119.5V119.5ZM40.5 119.5H79.5V158.5H40.5V119.5ZM39.5 119.5H0.5V158.5H39.5V119.5ZM280.5 159.5H319.5V198.5H280.5V159.5ZM279.5 159.5H240.5V198.5H279.5V159.5ZM200.5 159.5H239.5V198.5H200.5V159.5ZM199.5 159.5H160.5V198.5H199.5V159.5ZM120.5 159.5H159.5V198.5H120.5V159.5ZM119.5 159.5H80.5V198.5H119.5V159.5ZM40.5 159.5H79.5V198.5H40.5V159.5ZM39.5 159.5H0.5V198.5H39.5V159.5Z" fill="url(#paint0_linear_102_295)"/>
<defs>
<linearGradient id="paint0_linear_102_295" x1="0" y1="-81" x2="320" y2="-81" gradientUnits="userSpaceOnUse">
<stop stop-color="#30324F"/>
<stop offset="1" stop-color="#232439"/>
</linearGradient>
</defs>
</svg>
