<svg width="320" height="279" viewBox="0 0 320 279" fill="none" xmlns="http://www.w3.org/2000/svg">
<path fill-rule="evenodd" clip-rule="evenodd" d="M0 -1H320V279H0V-1ZM0.5 -0.5H39.5V38.5H0.5V-0.5ZM40.5 -0.5H79.5V38.5H40.5V-0.5ZM119.5 -0.5H80.5V38.5H119.5V-0.5ZM120.5 -0.5H159.5V38.5H120.5V-0.5ZM199.5 -0.5H160.5V38.5H199.5V-0.5ZM200.5 -0.5H239.5V38.5H200.5V-0.5ZM279.5 -0.5H240.5V38.5H279.5V-0.5ZM280.5 -0.5H319.5V38.5H280.5V-0.5ZM39.5 39.5H0.5V78.5H39.5V39.5ZM40.5 39.5H79.5V78.5H40.5V39.5ZM119.5 39.5H80.5V78.5H119.5V39.5ZM120.5 39.5H159.5V78.5H120.5V39.5ZM199.5 39.5H160.5V78.5H199.5V39.5ZM200.5 39.5H239.5V78.5H200.5V39.5ZM279.5 39.5H240.5V78.5H279.5V39.5ZM280.5 39.5H319.5V78.5H280.5V39.5ZM39.5 79.5H0.5V118.5H39.5V79.5ZM40.5 79.5H79.5V118.5H40.5V79.5ZM119.5 79.5H80.5V118.5H119.5V79.5ZM120.5 79.5H159.5V118.5H120.5V79.5ZM199.5 79.5H160.5V118.5H199.5V79.5ZM200.5 79.5H239.5V118.5H200.5V79.5ZM279.5 79.5H240.5V118.5H279.5V79.5ZM280.5 79.5H319.5V118.5H280.5V79.5ZM39.5 119.5H0.5V158.5H39.5V119.5ZM40.5 119.5H79.5V158.5H40.5V119.5ZM119.5 119.5H80.5V158.5H119.5V119.5ZM120.5 119.5H159.5V158.5H120.5V119.5ZM199.5 119.5H160.5V158.5H199.5V119.5ZM200.5 119.5H239.5V158.5H200.5V119.5ZM279.5 119.5H240.5V158.5H279.5V119.5ZM280.5 119.5H319.5V158.5H280.5V119.5ZM39.5 159.5H0.5V198.5H39.5V159.5ZM40.5 159.5H79.5V198.5H40.5V159.5ZM119.5 159.5H80.5V198.5H119.5V159.5ZM120.5 159.5H159.5V198.5H120.5V159.5ZM199.5 159.5H160.5V198.5H199.5V159.5ZM200.5 159.5H239.5V198.5H200.5V159.5ZM279.5 159.5H240.5V198.5H279.5V159.5ZM280.5 159.5H319.5V198.5H280.5V159.5ZM39.5 199.5H0.5V238.5H39.5V199.5ZM40.5 199.5H79.5V238.5H40.5V199.5ZM119.5 199.5H80.5V238.5H119.5V199.5ZM120.5 199.5H159.5V238.5H120.5V199.5ZM199.5 199.5H160.5V238.5H199.5V199.5ZM200.5 199.5H239.5V238.5H200.5V199.5ZM279.5 199.5H240.5V238.5H279.5V199.5ZM280.5 199.5H319.5V238.5H280.5V199.5ZM39.5 239.5H0.5V278.5H39.5V239.5ZM40.5 239.5H79.5V278.5H40.5V239.5ZM119.5 239.5H80.5V278.5H119.5V239.5ZM120.5 239.5H159.5V278.5H120.5V239.5ZM199.5 239.5H160.5V278.5H199.5V239.5ZM200.5 239.5H239.5V278.5H200.5V239.5ZM279.5 239.5H240.5V278.5H279.5V239.5ZM280.5 239.5H319.5V278.5H280.5V239.5Z" fill="url(#paint0_linear_102_354)"/>
<defs>
<linearGradient id="paint0_linear_102_354" x1="320" y1="-1" x2="0" y2="-1" gradientUnits="userSpaceOnUse">
<stop stop-color="#30324F"/>
<stop offset="1" stop-color="#232439"/>
</linearGradient>
</defs>
</svg>
