<svg width="1618" height="828" viewBox="0 0 1618 828" fill="none" xmlns="http://www.w3.org/2000/svg">
<g filter="url(#filter0_f_2317_63835)">
<path d="M1604 363.986V522.179" stroke="#5D2469" stroke-width="0.7903" stroke-miterlimit="10"/>
<path d="M1604 413.059V485.081" stroke="#5D2469" stroke-width="6.3222" stroke-miterlimit="10"/>
<path d="M1554.35 390.765V548.958" stroke="#232439" stroke-width="0.7903" stroke-miterlimit="10"/>
<path d="M1554.35 464.375V511.86" stroke="#232439" stroke-width="6.3222" stroke-miterlimit="10"/>
<path d="M1504.69 404.673V562.866" stroke="#5D2469" stroke-width="0.7903" stroke-miterlimit="10"/>
<path d="M1092 609.986V768.179" stroke="#5D2469" stroke-width="0.7903" stroke-miterlimit="10"/>
<path d="M1504.69 474.986V549.217" stroke="#5D2469" stroke-width="6.3222" stroke-miterlimit="10"/>
<path d="M1092 680.3V754.53" stroke="#5D2469" stroke-width="6.3222" stroke-miterlimit="10"/>
<path d="M1455 396.84V555.033" stroke="#232439" stroke-width="0.7903" stroke-miterlimit="10"/>
<path d="M1455 419.961V517.935" stroke="#232439" stroke-width="6.3222" stroke-miterlimit="10"/>
<path d="M1405.34 450.986V569.63" stroke="#5D2469" stroke-width="0.7903" stroke-miterlimit="10"/>
<path d="M1405.34 481.595V533.947" stroke="#5D2469" stroke-width="6.3222" stroke-miterlimit="10"/>
<path d="M1355.69 467.999V609.178" stroke="#232439" stroke-width="0.7903" stroke-miterlimit="10"/>
<path d="M1355.69 505.132V589.094" stroke="#232439" stroke-width="6.3222" stroke-miterlimit="10"/>
<path d="M1305.98 443.084V565.973" stroke="#5D2469" stroke-width="0.7903" stroke-miterlimit="10"/>
<path d="M1305.98 471.864V541.643" stroke="#5D2469" stroke-width="6.3222" stroke-miterlimit="10"/>
<path d="M1256.33 393.769V541.022" stroke="#232439" stroke-width="0.7903" stroke-miterlimit="10"/>
<path d="M1256.33 422.378V514.864" stroke="#232439" stroke-width="6.3222" stroke-miterlimit="10"/>
<path d="M1206.68 463.41V580.26" stroke="#5D2469" stroke-width="0.7903" stroke-miterlimit="10"/>
<path d="M1206.68 491.397V547.993" stroke="#5D2469" stroke-width="6.3222" stroke-miterlimit="10"/>
<path d="M1156.98 511.238V628.675" stroke="#232439" stroke-width="0.7903" stroke-miterlimit="10"/>
<path d="M1156.98 548.335V591.542" stroke="#232439" stroke-width="6.3222" stroke-miterlimit="10"/>
<path d="M1107.33 480.801V600.688" stroke="#5D2469" stroke-width="0.7903" stroke-miterlimit="10"/>
<path d="M1107.33 517.933V563.141" stroke="#5D2469" stroke-width="6.3222" stroke-miterlimit="10"/>
<path d="M1057.68 511.238V656.662" stroke="#232439" stroke-width="0.7903" stroke-miterlimit="10"/>
<path d="M1057.68 548.335V632.332" stroke="#232439" stroke-width="6.3222" stroke-miterlimit="10"/>
<path d="M1007.97 511.238V611.938" stroke="#5D2469" stroke-width="0.7903" stroke-miterlimit="10"/>
<path d="M1007.97 548.335V589.333" stroke="#5D2469" stroke-width="6.3222" stroke-miterlimit="10"/>
<path d="M958.321 495.4V600.689" stroke="#232439" stroke-width="0.7903" stroke-miterlimit="10"/>
<path d="M958.321 532.532V563.142" stroke="#232439" stroke-width="6.3222" stroke-miterlimit="10"/>
<path d="M908.619 543.986V745.385" stroke="#5D2469" stroke-width="0.7903" stroke-miterlimit="10"/>
<path d="M908.619 581.084V723.471" stroke="#5D2469" stroke-width="6.3222" stroke-miterlimit="10"/>
<path d="M858.968 567.834V726.027" stroke="#232439" stroke-width="0.7903" stroke-miterlimit="10"/>
<path d="M858.968 604.932V688.895" stroke="#232439" stroke-width="6.3222" stroke-miterlimit="10"/>
<path d="M1306 574.529V754.636" stroke="#5D2469" stroke-width="0.7903" stroke-miterlimit="10"/>
<path d="M1306 608.591V717.504" stroke="#5D2469" stroke-width="6.3222" stroke-miterlimit="10"/>
<path d="M760 677.986L760 767.986" stroke="#232439" stroke-width="0.7903" stroke-miterlimit="10"/>
<path d="M760 702.986L760 767.986" stroke="#232439" stroke-width="6.3222" stroke-miterlimit="10"/>
<path d="M660.31 550.167V708.394" stroke="#232439" stroke-width="0.7903" stroke-miterlimit="10"/>
<path d="M660.31 609.8V671.262" stroke="#232439" stroke-width="6.3222" stroke-miterlimit="10"/>
<path d="M610.609 609.8V767.993" stroke="#5D2469" stroke-width="0.7903" stroke-miterlimit="10"/>
<path d="M610.609 677.335V730.895" stroke="#5D2469" stroke-width="6.3222" stroke-miterlimit="10"/>
<path d="M561 646.986L561 768.986" stroke="#232439" stroke-width="0.7903" stroke-miterlimit="10"/>
<path d="M560.954 726.028V767.992" stroke="#232439" stroke-width="6.3222" stroke-miterlimit="10"/>
<path d="M461.604 609.8V767.993" stroke="#232439" stroke-width="0.7903" stroke-miterlimit="10"/>
<path d="M461.604 667.017V730.895" stroke="#232439" stroke-width="6.3222" stroke-miterlimit="10"/>
<path d="M411.948 610.986V769.179" stroke="#5D2469" stroke-width="0.7903" stroke-miterlimit="10"/>
<path d="M411.948 633.487V732.081" stroke="#5D2469" stroke-width="6.3222" stroke-miterlimit="10"/>
<path d="M362.296 609.986V768.179" stroke="#232439" stroke-width="0.7903" stroke-miterlimit="10"/>
<path d="M362.296 647.119V742.642" stroke="#232439" stroke-width="6.3222" stroke-miterlimit="10"/>
<path d="M312.594 517.9V676.093" stroke="#5D2469" stroke-width="0.7903" stroke-miterlimit="10"/>
<path d="M312.594 555.033V651.764" stroke="#5D2469" stroke-width="6.3222" stroke-miterlimit="10"/>
<path d="M262.94 544.68L262.94 757.68" stroke="#232439" stroke-width="0.7903" stroke-miterlimit="10"/>
<path d="M262.94 580.738L262.94 707.729" stroke="#232439" stroke-width="6.3222" stroke-miterlimit="10"/>
<path d="M213.291 511.86V670.053" stroke="#5D2469" stroke-width="0.7903" stroke-miterlimit="10"/>
<path d="M213.291 548.958V575.117" stroke="#5D2469" stroke-width="6.3222" stroke-miterlimit="10"/>
<path d="M163.586 475.935V634.128" stroke="#232439" stroke-width="0.7903" stroke-miterlimit="10"/>
<path d="M163.586 513.068V555.031" stroke="#232439" stroke-width="6.3222" stroke-miterlimit="10"/>
<path d="M113.534 552.655V741.325" stroke="#5D2469" stroke-width="0.7903" stroke-miterlimit="10"/>
<path d="M113.534 573.854V703.167" stroke="#5D2469" stroke-width="6.3222" stroke-miterlimit="10"/>
<path d="M65.043 658.651V817.642" stroke="#232439" stroke-width="0.7903" stroke-miterlimit="10"/>
<path d="M65.043 618.372V692.568" stroke="#232439" stroke-width="6.3222" stroke-miterlimit="10"/>
<path d="M14 629.986V767.986" stroke="#5D2469" stroke-width="0.7903" stroke-miterlimit="10"/>
<path d="M14 655.425V750.82" stroke="#5D2469" stroke-width="6.3222" stroke-miterlimit="10"/>
</g>
<g filter="url(#filter1_f_2317_63835)">
<path d="M14 453.002V294.809" stroke="#232439" stroke-width="0.7903" stroke-miterlimit="10"/>
<path d="M14 403.929V331.908" stroke="#232439" stroke-width="6.3222" stroke-miterlimit="10"/>
<path d="M63.6504 426.223V268.03" stroke="#2C2C9C" stroke-width="0.7903" stroke-miterlimit="10"/>
<path d="M63.6504 352.613V305.128" stroke="#2C2C9C" stroke-width="6.3222" stroke-miterlimit="10"/>
<path d="M113.308 412.315V254.122" stroke="#232439" stroke-width="0.7903" stroke-miterlimit="10"/>
<path d="M113.308 331.7V257.47" stroke="#232439" stroke-width="6.3222" stroke-miterlimit="10"/>
<path d="M163.005 420.148V261.955" stroke="#2C2C9C" stroke-width="0.7903" stroke-miterlimit="10"/>
<path d="M163.005 397.027V299.054" stroke="#2C2C9C" stroke-width="6.3222" stroke-miterlimit="10"/>
<path d="M212.663 366.003V247.358" stroke="#232439" stroke-width="0.7903" stroke-miterlimit="10"/>
<path d="M212.663 335.393V283.042" stroke="#232439" stroke-width="6.3222" stroke-miterlimit="10"/>
<path d="M262.312 179.986L262.312 28.9863" stroke="#2C2C9C" stroke-width="0.7903" stroke-miterlimit="10"/>
<path d="M262.312 140.271L262.312 50.4678" stroke="#2C2C9C" stroke-width="6.3222" stroke-miterlimit="10"/>
<path d="M312.019 373.905V251.015" stroke="#232439" stroke-width="0.7903" stroke-miterlimit="10"/>
<path d="M312.019 345.124V275.345" stroke="#232439" stroke-width="6.3222" stroke-miterlimit="10"/>
<path d="M361.668 423.219V275.966" stroke="#2C2C9C" stroke-width="0.7903" stroke-miterlimit="10"/>
<path d="M361.668 394.61V302.124" stroke="#2C2C9C" stroke-width="6.3222" stroke-miterlimit="10"/>
<path d="M411.318 353.579V236.729" stroke="#232439" stroke-width="0.7903" stroke-miterlimit="10"/>
<path d="M411.318 325.591V268.995" stroke="#232439" stroke-width="6.3222" stroke-miterlimit="10"/>
<path d="M461.023 276.423V158.986" stroke="#2C2C9C" stroke-width="0.7903" stroke-miterlimit="10"/>
<path d="M461.023 239.326V196.119" stroke="#2C2C9C" stroke-width="6.3222" stroke-miterlimit="10"/>
<path d="M510.673 336.188V216.301" stroke="#232439" stroke-width="0.7903" stroke-miterlimit="10"/>
<path d="M510.673 299.055V253.847" stroke="#232439" stroke-width="6.3222" stroke-miterlimit="10"/>
<path d="M560.323 270.41V124.986" stroke="#2C2C9C" stroke-width="0.7903" stroke-miterlimit="10"/>
<path d="M560.323 233.313V149.316" stroke="#2C2C9C" stroke-width="6.3222" stroke-miterlimit="10"/>
<path d="M610.027 305.75V205.051" stroke="#232439" stroke-width="0.7903" stroke-miterlimit="10"/>
<path d="M610.027 268.653V227.655" stroke="#232439" stroke-width="6.3222" stroke-miterlimit="10"/>
<path d="M659.679 284.456V253.846" stroke="#2C2C9C" stroke-width="6.3222" stroke-miterlimit="10"/>
<path d="M1057.05 170.056V11.8636" stroke="#2C2C9C" stroke-width="0.7903" stroke-miterlimit="10"/>
<path d="M1057.05 90.96V48.9961" stroke="#2C2C9C" stroke-width="6.3222" stroke-miterlimit="10"/>
<path d="M1106.7 191.97V33.7769" stroke="#232439" stroke-width="0.7903" stroke-miterlimit="10"/>
<path d="M1106.7 121.984V70.8749" stroke="#232439" stroke-width="6.3222" stroke-miterlimit="10"/>
<path d="M1156.4 207.188V48.9957" stroke="#2C2C9C" stroke-width="0.7903" stroke-miterlimit="10"/>
<path d="M1156.4 149.971V86.0934" stroke="#2C2C9C" stroke-width="6.3222" stroke-miterlimit="10"/>
<path d="M1206.05 168.193V9.99989" stroke="#232439" stroke-width="0.7903" stroke-miterlimit="10"/>
<path d="M1206.05 145.692V47.0978" stroke="#232439" stroke-width="6.3222" stroke-miterlimit="10"/>
<path d="M362 204.179V45.9865" stroke="#232439" stroke-width="0.7903" stroke-miterlimit="10"/>
<path d="M362 181.679V83.0843" stroke="#232439" stroke-width="6.3222" stroke-miterlimit="10"/>
<path d="M1255.7 234.004V75.8114" stroke="#2C2C9C" stroke-width="0.7903" stroke-miterlimit="10"/>
<path d="M1255.7 196.872V101.349" stroke="#2C2C9C" stroke-width="6.3222" stroke-miterlimit="10"/>
<path d="M1305.41 299.088V140.895" stroke="#232439" stroke-width="0.7903" stroke-miterlimit="10"/>
<path d="M1305.41 261.955V165.224" stroke="#232439" stroke-width="6.3222" stroke-miterlimit="10"/>
<path d="M1355.06 272.309V114.116" stroke="#2C2C9C" stroke-width="0.7903" stroke-miterlimit="10"/>
<path d="M1355.06 245.529V151.214" stroke="#2C2C9C" stroke-width="6.3222" stroke-miterlimit="10"/>
<path d="M1404.71 305.128V146.935" stroke="#232439" stroke-width="0.7903" stroke-miterlimit="10"/>
<path d="M1404.71 268.03V241.872" stroke="#232439" stroke-width="6.3222" stroke-miterlimit="10"/>
<path d="M1454.41 341.053V182.86" stroke="#2C2C9C" stroke-width="0.7903" stroke-miterlimit="10"/>
<path d="M1454.41 303.921V261.957" stroke="#2C2C9C" stroke-width="6.3222" stroke-miterlimit="10"/>
<path d="M1553 157.986L1553 10.9863" stroke="#2C2C9C" stroke-width="0.7903" stroke-miterlimit="10"/>
<path d="M1552.96 198.616V124.42" stroke="#2C2C9C" stroke-width="6.3222" stroke-miterlimit="10"/>
</g>
<path d="M1604 363.986V522.179" stroke="#5D2469" stroke-width="0.7903" stroke-miterlimit="10"/>
<path d="M1604 413.059V485.081" stroke="#5D2469" stroke-width="6.3222" stroke-miterlimit="10"/>
<path d="M1554.35 390.765V548.958" stroke="#232439" stroke-width="0.7903" stroke-miterlimit="10"/>
<path d="M1554.35 464.375V511.86" stroke="#232439" stroke-width="6.3222" stroke-miterlimit="10"/>
<path d="M1504.69 404.673V562.866" stroke="#5D2469" stroke-width="0.7903" stroke-miterlimit="10"/>
<path d="M1092 609.986V768.179" stroke="#5D2469" stroke-width="0.7903" stroke-miterlimit="10"/>
<path d="M1504.69 474.986V549.217" stroke="#5D2469" stroke-width="6.3222" stroke-miterlimit="10"/>
<path d="M1092 680.3V754.53" stroke="#5D2469" stroke-width="6.3222" stroke-miterlimit="10"/>
<path d="M1455 396.84V555.033" stroke="#232439" stroke-width="0.7903" stroke-miterlimit="10"/>
<path d="M1455 419.961V517.935" stroke="#232439" stroke-width="6.3222" stroke-miterlimit="10"/>
<path d="M1405.34 450.986V569.63" stroke="#5D2469" stroke-width="0.7903" stroke-miterlimit="10"/>
<path d="M1405.34 481.595V533.947" stroke="#5D2469" stroke-width="6.3222" stroke-miterlimit="10"/>
<path d="M1355.69 467.999V609.178" stroke="#232439" stroke-width="0.7903" stroke-miterlimit="10"/>
<path d="M1355.69 505.132V589.094" stroke="#232439" stroke-width="6.3222" stroke-miterlimit="10"/>
<path d="M1305.98 443.084V565.973" stroke="#5D2469" stroke-width="0.7903" stroke-miterlimit="10"/>
<path d="M1305.98 471.864V541.643" stroke="#5D2469" stroke-width="6.3222" stroke-miterlimit="10"/>
<path d="M1256.33 393.769V541.022" stroke="#232439" stroke-width="0.7903" stroke-miterlimit="10"/>
<path d="M1256.33 422.378V514.864" stroke="#232439" stroke-width="6.3222" stroke-miterlimit="10"/>
<path d="M1206.68 463.41V580.26" stroke="#5D2469" stroke-width="0.7903" stroke-miterlimit="10"/>
<path d="M1206.68 491.397V547.993" stroke="#5D2469" stroke-width="6.3222" stroke-miterlimit="10"/>
<path d="M1156.98 511.238V628.675" stroke="#232439" stroke-width="0.7903" stroke-miterlimit="10"/>
<path d="M1156.98 548.335V591.542" stroke="#232439" stroke-width="6.3222" stroke-miterlimit="10"/>
<path d="M1107.33 480.801V600.688" stroke="#5D2469" stroke-width="0.7903" stroke-miterlimit="10"/>
<path d="M1107.33 517.933V563.141" stroke="#5D2469" stroke-width="6.3222" stroke-miterlimit="10"/>
<path d="M1057.68 511.238V656.662" stroke="#232439" stroke-width="0.7903" stroke-miterlimit="10"/>
<path d="M1057.68 548.335V632.332" stroke="#232439" stroke-width="6.3222" stroke-miterlimit="10"/>
<path d="M1007.97 511.238V611.938" stroke="#5D2469" stroke-width="0.7903" stroke-miterlimit="10"/>
<path d="M1007.97 548.335V589.333" stroke="#5D2469" stroke-width="6.3222" stroke-miterlimit="10"/>
<path d="M958.321 495.4V600.689" stroke="#232439" stroke-width="0.7903" stroke-miterlimit="10"/>
<path d="M958.321 532.532V563.142" stroke="#232439" stroke-width="6.3222" stroke-miterlimit="10"/>
<path d="M908.619 543.986V745.385" stroke="#5D2469" stroke-width="0.7903" stroke-miterlimit="10"/>
<path d="M908.619 581.084V723.471" stroke="#5D2469" stroke-width="6.3222" stroke-miterlimit="10"/>
<path d="M858.968 567.834V726.027" stroke="#232439" stroke-width="0.7903" stroke-miterlimit="10"/>
<path d="M858.968 604.932V688.895" stroke="#232439" stroke-width="6.3222" stroke-miterlimit="10"/>
<path d="M1306 574.529V754.636" stroke="#5D2469" stroke-width="0.7903" stroke-miterlimit="10"/>
<path d="M1306 608.591V717.504" stroke="#5D2469" stroke-width="6.3222" stroke-miterlimit="10"/>
<path d="M760 677.986L760 767.986" stroke="#232439" stroke-width="0.7903" stroke-miterlimit="10"/>
<path d="M760 702.986L760 767.986" stroke="#232439" stroke-width="6.3222" stroke-miterlimit="10"/>
<path d="M660.31 550.167V708.394" stroke="#232439" stroke-width="0.7903" stroke-miterlimit="10"/>
<path d="M660.31 609.8V671.262" stroke="#232439" stroke-width="6.3222" stroke-miterlimit="10"/>
<path d="M610.609 609.8V767.993" stroke="#5D2469" stroke-width="0.7903" stroke-miterlimit="10"/>
<path d="M610.609 677.335V730.895" stroke="#5D2469" stroke-width="6.3222" stroke-miterlimit="10"/>
<path d="M561 646.986L561 768.986" stroke="#232439" stroke-width="0.7903" stroke-miterlimit="10"/>
<path d="M560.954 726.028V767.992" stroke="#232439" stroke-width="6.3222" stroke-miterlimit="10"/>
<path d="M461.604 609.8V767.993" stroke="#232439" stroke-width="0.7903" stroke-miterlimit="10"/>
<path d="M461.604 667.017V730.895" stroke="#232439" stroke-width="6.3222" stroke-miterlimit="10"/>
<path d="M411.948 610.986V769.179" stroke="#5D2469" stroke-width="0.7903" stroke-miterlimit="10"/>
<path d="M411.948 633.487V732.081" stroke="#5D2469" stroke-width="6.3222" stroke-miterlimit="10"/>
<path d="M362.296 609.986V768.179" stroke="#232439" stroke-width="0.7903" stroke-miterlimit="10"/>
<path d="M362.296 647.119V742.642" stroke="#232439" stroke-width="6.3222" stroke-miterlimit="10"/>
<path d="M312.594 517.9V676.093" stroke="#5D2469" stroke-width="0.7903" stroke-miterlimit="10"/>
<path d="M312.594 555.033V651.764" stroke="#5D2469" stroke-width="6.3222" stroke-miterlimit="10"/>
<path d="M262.94 544.68L262.94 757.68" stroke="#232439" stroke-width="0.7903" stroke-miterlimit="10"/>
<path d="M262.94 580.738L262.94 707.729" stroke="#232439" stroke-width="6.3222" stroke-miterlimit="10"/>
<path d="M213.291 511.86V670.053" stroke="#5D2469" stroke-width="0.7903" stroke-miterlimit="10"/>
<path d="M213.291 548.958V575.117" stroke="#5D2469" stroke-width="6.3222" stroke-miterlimit="10"/>
<path d="M163.586 475.935V634.128" stroke="#232439" stroke-width="0.7903" stroke-miterlimit="10"/>
<path d="M163.586 513.068V555.031" stroke="#232439" stroke-width="6.3222" stroke-miterlimit="10"/>
<path d="M113.534 552.655V741.325" stroke="#5D2469" stroke-width="0.7903" stroke-miterlimit="10"/>
<path d="M113.534 573.854V703.167" stroke="#5D2469" stroke-width="6.3222" stroke-miterlimit="10"/>
<path d="M65.043 658.651V817.642" stroke="#232439" stroke-width="0.7903" stroke-miterlimit="10"/>
<path d="M65.043 618.372V692.568" stroke="#232439" stroke-width="6.3222" stroke-miterlimit="10"/>
<path d="M14 629.986V767.986" stroke="#5D2469" stroke-width="0.7903" stroke-miterlimit="10"/>
<path d="M14 655.425V750.82" stroke="#5D2469" stroke-width="6.3222" stroke-miterlimit="10"/>
<path d="M14 453.002V294.809" stroke="#232439" stroke-width="0.7903" stroke-miterlimit="10"/>
<path d="M14 403.929V331.908" stroke="#232439" stroke-width="6.3222" stroke-miterlimit="10"/>
<path d="M63.6504 426.223V268.03" stroke="#2C2C9C" stroke-width="0.7903" stroke-miterlimit="10"/>
<path d="M63.6504 352.613V305.128" stroke="#2C2C9C" stroke-width="6.3222" stroke-miterlimit="10"/>
<path d="M113.308 412.315V254.122" stroke="#232439" stroke-width="0.7903" stroke-miterlimit="10"/>
<path d="M113.308 331.7V257.47" stroke="#232439" stroke-width="6.3222" stroke-miterlimit="10"/>
<path d="M163.005 420.148V261.955" stroke="#2C2C9C" stroke-width="0.7903" stroke-miterlimit="10"/>
<path d="M163.005 397.027V299.054" stroke="#2C2C9C" stroke-width="6.3222" stroke-miterlimit="10"/>
<path d="M212.663 366.003V247.358" stroke="#232439" stroke-width="0.7903" stroke-miterlimit="10"/>
<path d="M212.663 335.393V283.042" stroke="#232439" stroke-width="6.3222" stroke-miterlimit="10"/>
<path d="M262.312 179.986L262.312 28.9863" stroke="#2C2C9C" stroke-width="0.7903" stroke-miterlimit="10"/>
<path d="M262.312 140.271L262.312 50.4678" stroke="#2C2C9C" stroke-width="6.3222" stroke-miterlimit="10"/>
<path d="M312.019 373.905V251.015" stroke="#232439" stroke-width="0.7903" stroke-miterlimit="10"/>
<path d="M312.019 345.124V275.345" stroke="#232439" stroke-width="6.3222" stroke-miterlimit="10"/>
<path d="M361.668 423.219V275.966" stroke="#2C2C9C" stroke-width="0.7903" stroke-miterlimit="10"/>
<path d="M361.668 394.61V302.124" stroke="#2C2C9C" stroke-width="6.3222" stroke-miterlimit="10"/>
<path d="M411.318 353.579V236.729" stroke="#232439" stroke-width="0.7903" stroke-miterlimit="10"/>
<path d="M411.318 325.591V268.995" stroke="#232439" stroke-width="6.3222" stroke-miterlimit="10"/>
<path d="M461.023 276.423V158.986" stroke="#2C2C9C" stroke-width="0.7903" stroke-miterlimit="10"/>
<path d="M461.023 239.326V196.119" stroke="#2C2C9C" stroke-width="6.3222" stroke-miterlimit="10"/>
<path d="M510.673 336.188V216.301" stroke="#232439" stroke-width="0.7903" stroke-miterlimit="10"/>
<path d="M510.673 299.055V253.847" stroke="#232439" stroke-width="6.3222" stroke-miterlimit="10"/>
<path d="M560.323 270.41V124.986" stroke="#2C2C9C" stroke-width="0.7903" stroke-miterlimit="10"/>
<path d="M560.323 233.313V149.316" stroke="#2C2C9C" stroke-width="6.3222" stroke-miterlimit="10"/>
<path d="M610.027 305.75V205.051" stroke="#232439" stroke-width="0.7903" stroke-miterlimit="10"/>
<path d="M610.027 268.653V227.655" stroke="#232439" stroke-width="6.3222" stroke-miterlimit="10"/>
<path d="M659.679 284.456V253.846" stroke="#2C2C9C" stroke-width="6.3222" stroke-miterlimit="10"/>
<path d="M1057.05 170.056V11.8636" stroke="#2C2C9C" stroke-width="0.7903" stroke-miterlimit="10"/>
<path d="M1057.05 90.96V48.9961" stroke="#2C2C9C" stroke-width="6.3222" stroke-miterlimit="10"/>
<path d="M1106.7 191.97V33.7769" stroke="#232439" stroke-width="0.7903" stroke-miterlimit="10"/>
<path d="M1106.7 121.984V70.8749" stroke="#232439" stroke-width="6.3222" stroke-miterlimit="10"/>
<path d="M1156.4 207.188V48.9957" stroke="#2C2C9C" stroke-width="0.7903" stroke-miterlimit="10"/>
<path d="M1156.4 149.971V86.0934" stroke="#2C2C9C" stroke-width="6.3222" stroke-miterlimit="10"/>
<path d="M1206.05 168.193V9.99989" stroke="#232439" stroke-width="0.7903" stroke-miterlimit="10"/>
<path d="M1206.05 145.692V47.0978" stroke="#232439" stroke-width="6.3222" stroke-miterlimit="10"/>
<path d="M362 204.179V45.9865" stroke="#232439" stroke-width="0.7903" stroke-miterlimit="10"/>
<path d="M362 181.679V83.0843" stroke="#232439" stroke-width="6.3222" stroke-miterlimit="10"/>
<path d="M1255.7 234.004V75.8114" stroke="#2C2C9C" stroke-width="0.7903" stroke-miterlimit="10"/>
<path d="M1255.7 196.872V101.349" stroke="#2C2C9C" stroke-width="6.3222" stroke-miterlimit="10"/>
<path d="M1305.41 299.088V140.895" stroke="#232439" stroke-width="0.7903" stroke-miterlimit="10"/>
<path d="M1305.41 261.955V165.224" stroke="#232439" stroke-width="6.3222" stroke-miterlimit="10"/>
<path d="M1355.06 272.309V114.116" stroke="#2C2C9C" stroke-width="0.7903" stroke-miterlimit="10"/>
<path d="M1355.06 245.529V151.214" stroke="#2C2C9C" stroke-width="6.3222" stroke-miterlimit="10"/>
<path d="M1404.71 305.128V146.935" stroke="#232439" stroke-width="0.7903" stroke-miterlimit="10"/>
<path d="M1404.71 268.03V241.872" stroke="#232439" stroke-width="6.3222" stroke-miterlimit="10"/>
<path d="M1454.41 341.053V182.86" stroke="#2C2C9C" stroke-width="0.7903" stroke-miterlimit="10"/>
<path d="M1454.41 303.921V261.957" stroke="#2C2C9C" stroke-width="6.3222" stroke-miterlimit="10"/>
<path d="M1553 157.986L1553 10.9863" stroke="#2C2C9C" stroke-width="0.7903" stroke-miterlimit="10"/>
<path d="M1552.96 198.616V124.42" stroke="#2C2C9C" stroke-width="6.3222" stroke-miterlimit="10"/>
<defs>
<filter id="filter0_f_2317_63835" x="0.838867" y="353.986" width="1616.32" height="473.656" filterUnits="userSpaceOnUse" color-interpolation-filters="sRGB">
<feFlood flood-opacity="0" result="BackgroundImageFix"/>
<feBlend mode="normal" in="SourceGraphic" in2="BackgroundImageFix" result="shape"/>
<feGaussianBlur stdDeviation="5" result="effect1_foregroundBlur_2317_63835"/>
</filter>
<filter id="filter1_f_2317_63835" x="0.838867" y="0" width="1565.28" height="463.002" filterUnits="userSpaceOnUse" color-interpolation-filters="sRGB">
<feFlood flood-opacity="0" result="BackgroundImageFix"/>
<feBlend mode="normal" in="SourceGraphic" in2="BackgroundImageFix" result="shape"/>
<feGaussianBlur stdDeviation="5" result="effect1_foregroundBlur_2317_63835"/>
</filter>
</defs>
</svg>
