<svg width="43" height="98" viewBox="0 0 43 98" fill="none" xmlns="http://www.w3.org/2000/svg">
<path d="M42.3479 -7.62939e-06H43.3479V-1.00001H42.3479V-7.62939e-06ZM42.3479 98V99H43.3479V98H42.3479ZM19.6679 98H18.6679V99H19.6679V98ZM19.6679 18.2H20.6679V17.2H19.6679V18.2ZM0.0678906 18.2H-0.932109V19.2H0.0678906V18.2ZM0.0678906 -7.62939e-06V-1.00001H-0.932109V-7.62939e-06H0.0678906ZM41.3479 -7.62939e-06V98H43.3479V-7.62939e-06H41.3479ZM42.3479 97H19.6679V99H42.3479V97ZM20.6679 98V18.2H18.6679V98H20.6679ZM19.6679 17.2H0.0678906V19.2H19.6679V17.2ZM1.06789 18.2V-7.62939e-06H-0.932109V18.2H1.06789ZM0.0678906 0.999992H42.3479V-1.00001H0.0678906V0.999992Z" fill="#4B5888"/>
</svg>
