<svg width="79" height="100" viewBox="0 0 79 100" fill="none" xmlns="http://www.w3.org/2000/svg">
<path d="M78.8909 81.52H79.8909V80.52H78.8909V81.52ZM78.8909 100V101H79.8909V100H78.8909ZM4.83094 100H3.83094V101H4.83094V100ZM4.83094 85.3L4.14431 84.573L3.83094 84.869V85.3H4.83094ZM42.6309 49.6L43.3176 50.327L43.321 50.3237L42.6309 49.6ZM50.7509 39.8L51.6392 40.2595L51.6454 40.2472L50.7509 39.8ZM48.7909 22.58L48.1562 23.3527L48.1711 23.365L48.1866 23.3767L48.7909 22.58ZM25.5509 21.88L25.9684 22.7887L25.9785 22.7841L25.9884 22.7792L25.5509 21.88ZM16.8709 29.16L16.3295 30.0007L17.1307 30.5168L17.6847 29.7412L16.8709 29.16ZM0.350938 18.52L-0.479014 17.9622L-1.04788 18.8085L-0.19054 19.3607L0.350938 18.52ZM16.1709 5.21999L16.598 6.1243L16.6081 6.11936L16.1709 5.21999ZM58.3109 3.95999L57.9019 4.8725L57.9113 4.87672L57.9208 4.88074L58.3109 3.95999ZM71.0509 14.04L70.2243 14.6028L70.2313 14.6129L70.2384 14.6229L71.0509 14.04ZM72.3109 44.28L73.2125 44.7127L72.3109 44.28ZM59.2909 60.24L58.6109 59.5068L58.6045 59.5129L59.2909 60.24ZM36.7509 81.52L36.0644 80.7929L34.235 82.52H36.7509V81.52ZM77.8909 81.52V100H79.8909V81.52H77.8909ZM78.8909 99H4.83094V101H78.8909V99ZM5.83094 100V85.3H3.83094V100H5.83094ZM5.51756 86.027L43.3176 50.327L41.9443 48.873L4.14431 84.573L5.51756 86.027ZM43.321 50.3237C47.3601 46.4725 50.1624 43.1145 51.6392 40.2594L49.8627 39.3406C48.5395 41.8988 45.9284 45.0742 41.9409 48.8763L43.321 50.3237ZM51.6454 40.2472C53.1039 37.3301 53.8509 34.4245 53.8509 31.54H51.8509C51.8509 34.0688 51.198 36.6699 49.8565 39.3528L51.6454 40.2472ZM53.8509 31.54C53.8509 27.3618 52.3918 24.0565 49.3953 21.7833L48.1866 23.3767C50.6035 25.2102 51.8509 27.8782 51.8509 31.54H53.8509ZM49.4257 21.8073C46.5613 19.4544 42.4211 18.36 37.1709 18.36V20.36C42.1875 20.36 45.7939 21.4122 48.1562 23.3527L49.4257 21.8073ZM37.1709 18.36C32.7441 18.36 28.7185 19.227 25.1135 20.9808L25.9884 22.7792C29.2901 21.173 33.0111 20.36 37.1709 20.36V18.36ZM25.1334 20.9713C21.5127 22.6349 18.4859 25.1786 16.0572 28.5788L17.6847 29.7412C19.9226 26.6081 22.6825 24.2984 25.9684 22.7887L25.1334 20.9713ZM17.4124 28.3193L0.892415 17.6793L-0.19054 19.3607L16.3295 30.0007L17.4124 28.3193ZM1.18089 19.0778C4.8986 13.5466 10.027 9.2272 16.5979 6.12424L15.7439 4.31575C8.8749 7.55946 3.4566 12.1067 -0.479014 17.9622L1.18089 19.0778ZM16.6081 6.11936C23.1715 2.92883 30.718 1.32 39.2709 1.32V-0.68C30.4639 -0.68 22.6104 0.977829 15.7337 4.32063L16.6081 6.11936ZM39.2709 1.32C46.4412 1.32 52.643 2.51506 57.9019 4.8725L58.72 3.04749C53.1523 0.551601 46.6607 -0.68 39.2709 -0.68V1.32ZM57.9208 4.88074C63.2738 7.14895 67.3591 10.3944 70.2243 14.6028L71.8775 13.4772C68.7695 8.91222 64.3615 5.43771 58.7011 3.03924L57.9208 4.88074ZM70.2384 14.6229C73.1829 18.7273 74.6709 23.6044 74.6709 29.3H76.6709C76.6709 23.2356 75.079 17.9394 71.8635 13.4571L70.2384 14.6229ZM74.6709 29.3C74.6709 34.4745 73.5828 39.3195 71.4094 43.8473L73.2125 44.7127C75.5191 39.9072 76.6709 34.7655 76.6709 29.3H74.6709ZM71.4094 43.8473C69.2488 48.3485 65.014 53.5678 58.6109 59.5068L59.971 60.9732C66.4479 54.9656 70.8931 49.5448 73.2125 44.7127L71.4094 43.8473ZM58.6045 59.5129L36.0644 80.7929L37.4374 82.2471L59.9774 60.9671L58.6045 59.5129ZM36.7509 82.52H78.8909V80.52H36.7509V82.52Z" fill="#4B5888"/>
</svg>
