<svg width="79" height="100" viewBox="0 0 79 100" fill="none" xmlns="http://www.w3.org/2000/svg">
<path d="M52.3142 39.9L51.5627 39.2403L50.3722 40.5966L52.1533 40.887L52.3142 39.9ZM72.0542 49.56L71.3136 50.232L71.32 50.2389L72.0542 49.56ZM74.4342 83.86L75.2813 84.3915L75.2859 84.3841L74.4342 83.86ZM60.7142 95.34L60.2891 94.4349L60.2837 94.4374L60.7142 95.34ZM17.8742 97.02L17.6031 97.9825L17.6111 97.9848L17.6191 97.9869L17.8742 97.02ZM0.934219 89.18L0.042686 88.7271L-0.345405 89.4909L0.349914 89.9915L0.934219 89.18ZM9.75422 71.82L10.3542 71.02L9.40189 70.3058L8.86269 71.367L9.75422 71.82ZM22.6342 78.4L22.3235 79.3505L22.3343 79.354L22.3452 79.3573L22.6342 78.4ZM51.1942 77.42L51.7434 78.2557L51.7516 78.2503L51.7598 78.2447L51.1942 77.42ZM27.3942 56H26.3942V57H27.3942V56ZM27.3942 41.02L26.6448 40.3579L26.3942 40.6415V41.02H27.3942ZM47.5542 18.2L48.3037 18.8621L49.772 17.2H47.5542V18.2ZM5.83422 18.2H4.83422V19.2H5.83422V18.2ZM5.83422 -7.62939e-06V-1.00001H4.83422V-7.62939e-06H5.83422ZM74.4342 -7.62939e-06H75.4342V-1.00001H74.4342V-7.62939e-06ZM74.4342 14.7L75.1858 15.3597L75.4342 15.0766V14.7H74.4342ZM52.1533 40.887C60.5798 42.2608 66.9304 45.4014 71.3137 50.232L72.7948 48.888C68.0314 43.6386 61.222 40.3391 52.4751 38.913L52.1533 40.887ZM71.32 50.2389C75.7057 54.9826 77.9142 60.8925 77.9142 68.04H79.9142C79.9142 60.4408 77.5494 54.0307 72.7885 48.8811L71.32 50.2389ZM77.9142 68.04C77.9142 73.5481 76.4723 78.64 73.5826 83.3359L75.2859 84.3841C78.3694 79.3733 79.9142 73.9186 79.9142 68.04H77.9142ZM73.5872 83.3285C70.7221 87.8947 66.3125 91.6057 60.2891 94.4349L61.1394 96.2451C67.436 93.2876 72.173 89.3453 75.2813 84.3915L73.5872 83.3285ZM60.2837 94.4374C54.3873 97.2496 47.0774 98.68 38.3142 98.68V100.68C47.2844 100.68 54.9078 99.2171 61.1447 96.2426L60.2837 94.4374ZM38.3142 98.68C31.4942 98.68 24.7666 97.8046 18.1294 96.0531L17.6191 97.9869C24.4218 99.7821 31.3209 100.68 38.3142 100.68V98.68ZM18.1454 96.0575C11.6095 94.2164 6.07379 91.6483 1.51852 88.3685L0.349914 89.9915C5.12798 93.4317 10.8856 96.0903 17.6031 97.9825L18.1454 96.0575ZM1.82575 89.6329L10.6458 72.273L8.86269 71.367L0.042686 88.7271L1.82575 89.6329ZM9.15422 72.62C12.9829 75.4915 17.3759 77.733 22.3235 79.3505L22.945 77.4495C18.1859 75.8936 13.9922 73.7485 10.3542 71.02L9.15422 72.62ZM22.3452 79.3573C27.385 80.8788 32.5223 81.64 37.7542 81.64V79.64C32.7194 79.64 27.7768 78.9079 22.9232 77.4427L22.3452 79.3573ZM37.7542 81.64C43.5583 81.64 48.2551 80.548 51.7434 78.2557L50.645 76.5843C47.6 78.5853 43.3368 79.64 37.7542 79.64V81.64ZM51.7598 78.2447C55.3026 75.8153 57.0942 72.3778 57.0942 68.04H55.0942C55.0942 71.7288 53.6191 74.5447 50.6287 76.5953L51.7598 78.2447ZM57.0942 68.04C57.0942 63.7287 55.4273 60.386 52.058 58.174C48.7621 56.0103 43.9452 55 37.7542 55V57C43.79 57 48.143 57.9964 50.9604 59.846C53.7044 61.6474 55.0942 64.3246 55.0942 68.04H57.0942ZM37.7542 55H27.3942V57H37.7542V55ZM28.3942 56V41.02H26.3942V56H28.3942ZM28.1437 41.6821L48.3037 18.8621L46.8048 17.5379L26.6448 40.3579L28.1437 41.6821ZM47.5542 17.2H5.83422V19.2H47.5542V17.2ZM6.83422 18.2V-7.62939e-06H4.83422V18.2H6.83422ZM5.83422 0.999992H74.4342V-1.00001H5.83422V0.999992ZM73.4342 -7.62939e-06V14.7H75.4342V-7.62939e-06H73.4342ZM73.6827 14.0403L51.5627 39.2403L53.0658 40.5597L75.1858 15.3597L73.6827 14.0403Z" fill="#4B5888"/>
</svg>
