<svg width="40" height="39" viewBox="0 0 40 39" fill="none" xmlns="http://www.w3.org/2000/svg">
<g opacity="0.5">
<path fill-rule="evenodd" clip-rule="evenodd" d="M19.7204 3.83398C10.8484 3.83398 3.66406 10.8625 3.66406 19.5226C3.66406 28.1827 10.8484 35.2112 19.7204 35.2112C28.6084 35.2112 35.8089 28.1827 35.8089 19.5226C35.8089 10.8625 28.6084 3.83398 19.7204 3.83398ZM19.7351 32.0736C12.6311 32.0736 6.87718 26.4571 6.87718 19.5227C6.87718 12.5883 12.6311 6.97182 19.7351 6.97182C26.8391 6.97182 32.593 12.5883 32.593 19.5227C32.593 26.4571 26.8391 32.0736 19.7351 32.0736ZM18.1302 11.6779H20.5411V19.9144L27.7736 24.1033L26.5682 26.033L18.1302 21.091V11.6779Z" fill="white"/>
</g>
</svg>
