<svg width="43" height="47" viewBox="0 0 43 47" fill="none" xmlns="http://www.w3.org/2000/svg">
<g opacity="0.5">
<path fill-rule="evenodd" clip-rule="evenodd" d="M25.611 38.4187C25.4928 38.4187 25.371 38.4129 25.2492 38.3995C23.696 38.2329 22.4782 37.0435 22.1428 35.3678L17.4074 11.6347L12.5308 23.8575C12.2501 24.5584 11.613 25.0123 10.9105 25.0123H5.61556C4.63953 25.0123 3.85059 24.1543 3.85059 23.0971C3.85059 22.038 4.63953 21.1819 5.61556 21.1819H9.75268L14.1757 10.0949C14.8023 8.53211 16.1825 7.6224 17.7516 7.79285C19.3047 7.95947 20.5226 9.1488 20.8579 10.8246L25.5934 34.5576L30.47 22.3349C30.7506 21.6339 31.386 21.1819 32.0903 21.1819H37.3852C38.3612 21.1819 39.1502 22.038 39.1502 23.0971C39.1502 24.1543 38.3612 25.0123 37.3852 25.0123H33.2481L28.825 36.0974C28.2479 37.5396 27.0106 38.4187 25.611 38.4187Z" fill="#F2F2F2"/>
</g>
</svg>
