<svg width="35" height="42" viewBox="0 0 35 42" fill="none" xmlns="http://www.w3.org/2000/svg">
<path d="M28.5663 22.4023C28.5155 17.1952 32.828 14.6601 33.0272 14.5429C30.5858 10.9804 26.8007 10.496 25.4686 10.4569C22.2928 10.1249 19.2108 12.3632 17.5936 12.3632C15.9413 12.3632 13.4452 10.4921 10.7616 10.5468C7.30065 10.6015 4.06628 12.6054 2.29284 15.7108C-1.36341 22.0507 1.36316 31.3632 4.87097 36.4882C6.62878 38.996 8.67566 41.8007 11.3592 41.6991C13.9842 41.5898 14.9647 40.0273 18.1327 40.0273C21.2733 40.0273 22.1952 41.6991 24.9335 41.6366C27.7499 41.5898 29.5233 39.1171 31.2147 36.5819C33.246 33.7069 34.0585 30.8749 34.0897 30.7304C34.0233 30.7069 28.621 28.6444 28.5663 22.4023Z" fill="white"/>
<path d="M23.3946 7.08984C24.8047 5.32422 25.7774 2.91797 25.504 0.480469C23.461 0.574219 20.9063 1.89453 19.4336 3.62109C18.1329 5.14453 16.9649 7.64062 17.2696 9.98437C19.5665 10.1562 21.9219 8.82812 23.3946 7.08984Z" fill="white"/>
</svg>
