<svg width="20" height="45" viewBox="0 0 20 45" fill="none" xmlns="http://www.w3.org/2000/svg">
<g filter="url(#filter0_f_1164_10550)">
<path d="M10.75 5C10.75 4.58579 10.4142 4.25 10 4.25C9.58579 4.25 9.25 4.58579 9.25 5L10.75 5ZM9.46967 40.5303C9.76257 40.8232 10.2374 40.8232 10.5303 40.5303L15.3033 35.7574C15.5962 35.4645 15.5962 34.9896 15.3033 34.6967C15.0104 34.4038 14.5355 34.4038 14.2426 34.6967L10 38.9393L5.75736 34.6967C5.46447 34.4038 4.98959 34.4038 4.6967 34.6967C4.40381 34.9896 4.40381 35.4645 4.6967 35.7574L9.46967 40.5303ZM9.25 5L9.25 40L10.75 40L10.75 5L9.25 5Z" fill="white"/>
</g>
<path d="M10.75 5C10.75 4.58579 10.4142 4.25 10 4.25C9.58579 4.25 9.25 4.58579 9.25 5L10.75 5ZM9.46967 40.5303C9.76257 40.8232 10.2374 40.8232 10.5303 40.5303L15.3033 35.7574C15.5962 35.4645 15.5962 34.9896 15.3033 34.6967C15.0104 34.4038 14.5355 34.4038 14.2426 34.6967L10 38.9393L5.75736 34.6967C5.46447 34.4038 4.98959 34.4038 4.6967 34.6967C4.40381 34.9896 4.40381 35.4645 4.6967 35.7574L9.46967 40.5303ZM9.25 5L9.25 40L10.75 40L10.75 5L9.25 5Z" fill="white"/>
<defs>
<filter id="filter0_f_1164_10550" x="0.476562" y="0.25" width="19.0469" height="44.5" filterUnits="userSpaceOnUse" color-interpolation-filters="sRGB">
<feFlood flood-opacity="0" result="BackgroundImageFix"/>
<feBlend mode="normal" in="SourceGraphic" in2="BackgroundImageFix" result="shape"/>
<feGaussianBlur stdDeviation="2" result="effect1_foregroundBlur_1164_10550"/>
</filter>
</defs>
</svg>
