<svg width="50" height="51" viewBox="0 0 50 51" fill="none" xmlns="http://www.w3.org/2000/svg">
<g filter="url(#filter0_dd_1003_10774)">
<path fill-rule="evenodd" clip-rule="evenodd" d="M9.6083 6.7207C7.54205 6.7207 5.83203 8.41847 5.83203 10.4847V16.7662H43.5212V10.4847C43.5212 8.41847 41.8234 6.7207 39.7571 6.7207H9.6083ZM12.1185 10.4847C12.8123 10.4847 13.3748 11.0472 13.3748 11.741C13.3748 12.4348 12.8123 12.9973 12.1185 12.9973C11.4246 12.9973 10.8622 12.4348 10.8622 11.741C10.8621 11.0472 11.4246 10.4847 12.1185 10.4847ZM17.1437 10.4847C17.8375 10.4847 18.4 11.0472 18.4 11.741C18.4 12.4348 17.8375 12.9973 17.1437 12.9973C16.4498 12.9973 15.8874 12.4348 15.8874 11.741C15.8874 11.0472 16.4498 10.4847 17.1437 10.4847ZM22.1689 10.4847C22.8627 10.4847 23.4252 11.0472 23.4252 11.741C23.4252 12.4348 22.8627 12.9973 22.1689 12.9973C21.4751 12.9973 20.9126 12.4348 20.9126 11.741C20.9126 11.0472 21.475 10.4847 22.1689 10.4847ZM5.83203 19.2788V40.636C5.83203 42.7022 7.54205 44.4098 9.6083 44.4098H39.7571C41.8234 44.4098 43.5212 42.7022 43.5212 40.636V19.2788H5.83203ZM17.1461 25.5604H32.2169C32.3842 25.5566 32.5506 25.5863 32.7064 25.6478C32.8621 25.7092 33.0039 25.8011 33.1236 25.9182C33.2433 26.0352 33.3384 26.175 33.4033 26.3293C33.4683 26.4836 33.5017 26.6493 33.5017 26.8167C33.5017 26.9841 33.4683 27.1498 33.4033 27.3041C33.3384 27.4583 33.2433 27.5981 33.1236 27.7151C33.0039 27.8322 32.8621 27.9241 32.7064 27.9856C32.5506 28.047 32.3842 28.0767 32.2169 28.073H17.1461C16.9788 28.0767 16.8124 28.047 16.6566 27.9856C16.5009 27.9241 16.3591 27.8322 16.2394 27.7151C16.1197 27.5981 16.0246 27.4583 15.9597 27.3041C15.8947 27.1498 15.8613 26.9841 15.8613 26.8167C15.8613 26.6493 15.8947 26.4836 15.9597 26.3293C16.0246 26.175 16.1197 26.0352 16.2394 25.9182C16.3591 25.8011 16.5009 25.7092 16.6566 25.6478C16.8124 25.5863 16.9788 25.5566 17.1461 25.5604ZM17.0161 30.5856C17.0594 30.5833 17.1028 30.5833 17.1461 30.5856H32.2169C32.5504 30.5856 32.8702 30.7181 33.1061 30.9539C33.3419 31.1897 33.4744 31.5096 33.4744 31.8431C33.4744 32.1766 33.3419 32.4965 33.1061 32.7323C32.8702 32.9681 32.5504 33.1006 32.2169 33.1006H17.1461C16.8126 33.1179 16.4859 33.0019 16.2379 32.7783C15.9898 32.5547 15.8408 32.2416 15.8236 31.9081C15.8063 31.5746 15.9223 31.2479 16.1459 30.9999C16.3696 30.7518 16.6826 30.6028 17.0161 30.5856ZM17.0161 35.6132C17.0594 35.611 17.1028 35.611 17.1461 35.6132H24.6766C24.8439 35.6095 25.0104 35.6392 25.1661 35.7006C25.3218 35.7621 25.4636 35.854 25.5833 35.9711C25.703 36.0881 25.7981 36.2279 25.863 36.3822C25.928 36.5364 25.9614 36.7022 25.9614 36.8695C25.9614 37.0369 25.928 37.2027 25.863 37.3569C25.7981 37.5112 25.703 37.651 25.5833 37.768C25.4636 37.8851 25.3218 37.977 25.1661 38.0384C25.0104 38.0999 24.8439 38.1296 24.6766 38.1259H17.1461C16.8174 38.1355 16.4979 38.0162 16.2561 37.7932C16.0143 37.5703 15.8694 37.2616 15.8524 36.9331C15.8354 36.6047 15.9477 36.2827 16.1652 36.036C16.3827 35.7893 16.6881 35.6375 17.0161 35.6132Z" fill="url(#paint0_linear_1003_10774)" shape-rendering="crispEdges"/>
</g>
<defs>
<filter id="filter0_dd_1003_10774" x="0.0886282" y="0.9773" width="49.1763" height="49.1758" filterUnits="userSpaceOnUse" color-interpolation-filters="sRGB">
<feFlood flood-opacity="0" result="BackgroundImageFix"/>
<feColorMatrix in="SourceAlpha" type="matrix" values="0 0 0 0 0 0 0 0 0 0 0 0 0 0 0 0 0 0 127 0" result="hardAlpha"/>
<feOffset dx="-1.91447" dy="-1.91447"/>
<feGaussianBlur stdDeviation="1.91447"/>
<feComposite in2="hardAlpha" operator="out"/>
<feColorMatrix type="matrix" values="0 0 0 0 1 0 0 0 0 1 0 0 0 0 1 0 0 0 0.1 0"/>
<feBlend mode="normal" in2="BackgroundImageFix" result="effect1_dropShadow_1003_10774"/>
<feColorMatrix in="SourceAlpha" type="matrix" values="0 0 0 0 0 0 0 0 0 0 0 0 0 0 0 0 0 0 127 0" result="hardAlpha"/>
<feOffset dx="1.91447" dy="1.91447"/>
<feGaussianBlur stdDeviation="1.91447"/>
<feComposite in2="hardAlpha" operator="out"/>
<feColorMatrix type="matrix" values="0 0 0 0 0 0 0 0 0 0 0 0 0 0 0 0 0 0 0.25 0"/>
<feBlend mode="normal" in2="effect1_dropShadow_1003_10774" result="effect2_dropShadow_1003_10774"/>
<feBlend mode="normal" in="SourceGraphic" in2="effect2_dropShadow_1003_10774" result="shape"/>
</filter>
<linearGradient id="paint0_linear_1003_10774" x1="8.40426" y1="19.1546" x2="41.5425" y2="37.6962" gradientUnits="userSpaceOnUse">
<stop stop-color="white" stop-opacity="0.38"/>
<stop offset="1" stop-color="white" stop-opacity="0.69"/>
</linearGradient>
</defs>
</svg>
