<svg width="14" height="14" viewBox="0 0 14 14" fill="none" xmlns="http://www.w3.org/2000/svg">
<path d="M1.95237 7.10937L12.494 7.10937V1.75L1.95237 1.75V7.10937ZM13.247 14L1.1994 14C0.999694 14 0.808171 13.9193 0.666961 13.7758C0.52575 13.6322 0.446419 13.4374 0.446419 13.2344L0.446419 0.984373C0.446419 0.781317 0.52575 0.586576 0.666961 0.442994C0.808171 0.299411 0.999694 0.218748 1.1994 0.218748L13.247 0.218748C13.4467 0.218748 13.6382 0.299411 13.7795 0.442994C13.9207 0.586576 14 0.781317 14 0.984373L14 13.2344C14 13.4374 13.9207 13.6322 13.7795 13.7758C13.6382 13.9193 13.4467 14 13.247 14Z" fill="#C4C4C4"/>
</svg>
