<svg width="183" height="208" viewBox="0 0 183 208" fill="none" xmlns="http://www.w3.org/2000/svg">
<rect x="1" y="1" width="181" height="206" rx="30" fill="url(#paint0_radial_1560_12111)"/>
<rect x="1" y="1" width="181" height="206" rx="30" fill="url(#paint1_radial_1560_12111)"/>
<rect x="1" y="1" width="181" height="206" rx="30" stroke="url(#paint2_linear_1560_12111)" stroke-linecap="round"/>
<path fill-rule="evenodd" clip-rule="evenodd" d="M90 171.5C127.279 171.5 157.5 141.279 157.5 104C157.5 90.2495 153.388 77.4593 146.328 66.7918L92.6627 126.419C87.4677 132.192 78.7259 133.044 72.5133 128.385L48 110C44.6863 107.515 44.0147 102.814 46.5 99.5C48.9853 96.1863 53.6863 95.5147 57 98L81.5133 116.385L136.605 55.1716C124.489 43.6038 108.074 36.5 90 36.5C52.7208 36.5 22.5 66.7208 22.5 104C22.5 141.279 52.7208 171.5 90 171.5Z" fill="url(#paint3_radial_1560_12111)"/>
<path fill-rule="evenodd" clip-rule="evenodd" d="M90 171.5C127.279 171.5 157.5 141.279 157.5 104C157.5 90.2495 153.388 77.4593 146.328 66.7918L92.6627 126.419C87.4677 132.192 78.7259 133.044 72.5133 128.385L48 110C44.6863 107.515 44.0147 102.814 46.5 99.5C48.9853 96.1863 53.6863 95.5147 57 98L81.5133 116.385L136.605 55.1716C124.489 43.6038 108.074 36.5 90 36.5C52.7208 36.5 22.5 66.7208 22.5 104C22.5 141.279 52.7208 171.5 90 171.5Z" fill="url(#paint4_radial_1560_12111)"/>
<defs>
<radialGradient id="paint0_radial_1560_12111" cx="0" cy="0" r="1" gradientUnits="userSpaceOnUse" gradientTransform="translate(48.7639 43.9167) rotate(54.872) scale(199.4 192.555)">
<stop stop-color="#4B5889"/>
<stop offset="0.666667" stop-color="#4B5889"/>
<stop offset="1" stop-opacity="0"/>
</radialGradient>
<radialGradient id="paint1_radial_1560_12111" cx="0" cy="0" r="1" gradientUnits="userSpaceOnUse" gradientTransform="translate(157.205 181.25) rotate(-93.226) scale(176.238 172.748)">
<stop stop-color="#4B5889"/>
<stop offset="1" stop-color="#4B5889" stop-opacity="0.24"/>
</radialGradient>
<linearGradient id="paint2_linear_1560_12111" x1="91.5" y1="1" x2="91.5" y2="207" gradientUnits="userSpaceOnUse">
<stop stop-color="white" stop-opacity="0.3"/>
<stop offset="1" stop-color="white" stop-opacity="0.1"/>
</linearGradient>
<radialGradient id="paint3_radial_1560_12111" cx="0" cy="0" r="1" gradientUnits="userSpaceOnUse" gradientTransform="translate(58.125 35.2536) rotate(57.6893) scale(133.3 123.167)">
<stop stop-color="white"/>
<stop offset="0.666667" stop-color="#D6DBEE" stop-opacity="0.259552"/>
<stop offset="1" stop-opacity="0"/>
</radialGradient>
<radialGradient id="paint4_radial_1560_12111" cx="0" cy="0" r="1" gradientUnits="userSpaceOnUse" gradientTransform="translate(139.007 150.31) rotate(-92.8727) scale(147.602 128.887)">
<stop stop-color="white" stop-opacity="0.12"/>
<stop offset="1" stop-color="white" stop-opacity="0.24"/>
</radialGradient>
</defs>
</svg>
