<svg width="1325" height="884" viewBox="0 0 1325 884" fill="none" xmlns="http://www.w3.org/2000/svg">
<g opacity="0.2">
<g filter="url(#filter0_f_1513_12716)">
<path d="M710.677 844.484V423.134L701.043 423.584V844.484H710.677Z" fill="url(#paint0_linear_1513_12716)"/>
<path d="M667.115 340.557H657.48V746.634H667.115V340.557Z" fill="url(#paint1_linear_1513_12716)"/>
<path d="M630.388 410.902H620.754V787.781H630.388V410.902Z" fill="url(#paint2_linear_1513_12716)"/>
<path d="M552.31 436.449H542.676V746.622H552.31V436.449Z" fill="url(#paint3_linear_1513_12716)"/>
<path d="M511.361 491.48H501.727V746.626H511.361V491.48Z" fill="url(#paint4_linear_1513_12716)"/>
<path d="M588.24 396.25H578.605V746.626H588.24V396.25Z" fill="url(#paint5_linear_1513_12716)"/>
<path d="M431.679 587.379H422.045V746.62H431.679V587.379Z" fill="url(#paint6_linear_1513_12716)"/>
<path d="M391.308 645.06H381.674V804.301H391.308V645.06Z" fill="url(#paint7_linear_1513_12716)"/>
<path d="M270.297 581.396H260.662V863.493H270.297V581.396Z" fill="url(#paint8_linear_1513_12716)"/>
<path d="M348.978 587.455H339.344V863.488H348.978V587.455Z" fill="url(#paint9_linear_1513_12716)"/>
<path d="M151.871 587.455H142.236V863.488H151.871V587.455Z" fill="url(#paint10_linear_1513_12716)"/>
<path d="M230.353 731.651H220.719V863.492H230.353V731.651Z" fill="url(#paint11_linear_1513_12716)"/>
<path d="M108.715 634.174H99.0801V863.491H108.715V634.174Z" fill="url(#paint12_linear_1513_12716)"/>
<path d="M72.7907 746.476H63.1562V863.492H72.7907V746.476Z" fill="url(#paint13_linear_1513_12716)"/>
<path d="M29.6345 811.608H20V863.491H29.6345V811.608Z" fill="url(#paint14_linear_1513_12716)"/>
<path d="M311.445 528.835H301.811V863.49H311.445V528.835Z" fill="url(#paint15_linear_1513_12716)"/>
<path d="M192.021 788.466H182.387V863.707H192.021V788.466Z" fill="url(#paint16_linear_1513_12716)"/>
<path d="M788.624 407.407H778.365V673.019H788.624V407.407Z" fill="url(#paint17_linear_1513_12716)"/>
<path d="M749.296 444.104H739.037V692.241H749.296V444.104Z" fill="url(#paint18_linear_1513_12716)"/>
<path d="M872.405 309.55H863.855V634.575H872.405V309.55Z" fill="url(#paint19_linear_1513_12716)"/>
<path d="M470.613 539.093H460.979V746.623H470.613V539.093Z" fill="url(#paint20_linear_1513_12716)"/>
<path d="M910.018 262.369H901.469V613.606H910.018V262.369Z" fill="url(#paint21_linear_1513_12716)"/>
<path d="M983.545 136.553H974.996V587.394H983.545V136.553Z" fill="url(#paint22_linear_1513_12716)"/>
<path d="M1029.71 136.553H1019.45V557.688H1029.71V136.553Z" fill="url(#paint23_linear_1513_12716)"/>
<path d="M1075.88 122.574H1065.62V519.244H1075.88V122.574Z" fill="url(#paint24_linear_1513_12716)"/>
<path d="M1122 20H1112V476H1122V20Z" fill="url(#paint25_linear_1513_12716)"/>
<path d="M1214.38 108.594H1204.12V423.134H1214.38V108.594Z" fill="url(#paint26_linear_1513_12716)"/>
<path d="M1166.5 122.574H1157.96V456.336H1166.5V122.574Z" fill="url(#paint27_linear_1513_12716)"/>
<path d="M1258.84 43.9385H1250.29V377.701H1258.84V43.9385Z" fill="url(#paint28_linear_1513_12716)"/>
<path d="M1305 20H1296V336H1305V20Z" fill="url(#paint29_linear_1513_12716)"/>
<path d="M827.948 290.329H819.398V685.251H827.948V290.329Z" fill="url(#paint30_linear_1513_12716)"/>
<path d="M947.635 234.41H939.086V601.374H947.635V234.41Z" fill="url(#paint31_linear_1513_12716)"/>
</g>
<path d="M710.677 844.484V423.134L701.043 423.584V844.484H710.677Z" fill="url(#paint32_linear_1513_12716)"/>
<path d="M667.115 340.557H657.48V746.634H667.115V340.557Z" fill="url(#paint33_linear_1513_12716)"/>
<path d="M630.388 410.902H620.754V787.781H630.388V410.902Z" fill="url(#paint34_linear_1513_12716)"/>
<path d="M552.31 436.449H542.676V746.622H552.31V436.449Z" fill="url(#paint35_linear_1513_12716)"/>
<path d="M511.361 491.48H501.727V746.626H511.361V491.48Z" fill="url(#paint36_linear_1513_12716)"/>
<path d="M588.24 396.25H578.605V746.626H588.24V396.25Z" fill="url(#paint37_linear_1513_12716)"/>
<path d="M431.679 587.379H422.045V746.62H431.679V587.379Z" fill="url(#paint38_linear_1513_12716)"/>
<path d="M391.308 645.06H381.674V804.301H391.308V645.06Z" fill="url(#paint39_linear_1513_12716)"/>
<path d="M270 581H261V864H270V581Z" fill="url(#paint40_linear_1513_12716)"/>
<path d="M349 587H339V864H349V587Z" fill="url(#paint41_linear_1513_12716)"/>
<path d="M152 587H142V864H152V587Z" fill="url(#paint42_linear_1513_12716)"/>
<path d="M230 732H221V864H230V732Z" fill="url(#paint43_linear_1513_12716)"/>
<path d="M109 634H99V864H109V634Z" fill="url(#paint44_linear_1513_12716)"/>
<path d="M73 746H63V864H73V746Z" fill="url(#paint45_linear_1513_12716)"/>
<path d="M30 812H20V864H30V812Z" fill="url(#paint46_linear_1513_12716)"/>
<path d="M311 529H302V864H311V529Z" fill="url(#paint47_linear_1513_12716)"/>
<path d="M192 788H182V864H192V788Z" fill="url(#paint48_linear_1513_12716)"/>
<path d="M788.624 407.407H778.365V673.019H788.624V407.407Z" fill="url(#paint49_linear_1513_12716)"/>
<path d="M749.296 444.104H739.037V692.241H749.296V444.104Z" fill="url(#paint50_linear_1513_12716)"/>
<path d="M872.405 309.55H863.855V634.575H872.405V309.55Z" fill="url(#paint51_linear_1513_12716)"/>
<path d="M470.613 539.093H460.979V746.623H470.613V539.093Z" fill="url(#paint52_linear_1513_12716)"/>
<path d="M910.018 262.369H901.469V613.606H910.018V262.369Z" fill="url(#paint53_linear_1513_12716)"/>
<path d="M983.545 136.553H974.996V587.394H983.545V136.553Z" fill="url(#paint54_linear_1513_12716)"/>
<path d="M1029.71 136.553H1019.45V557.688H1029.71V136.553Z" fill="url(#paint55_linear_1513_12716)"/>
<path d="M1075.88 122.574H1065.62V519.244H1075.88V122.574Z" fill="url(#paint56_linear_1513_12716)"/>
<path d="M1122 20H1112V476H1122V20Z" fill="url(#paint57_linear_1513_12716)"/>
<path d="M1214.38 108.594H1204.12V423.134H1214.38V108.594Z" fill="url(#paint58_linear_1513_12716)"/>
<path d="M1166.5 122.574H1157.96V456.336H1166.5V122.574Z" fill="url(#paint59_linear_1513_12716)"/>
<path d="M1258.84 43.9385H1250.29V377.701H1258.84V43.9385Z" fill="url(#paint60_linear_1513_12716)"/>
<path d="M1305 20H1296V336H1305V20Z" fill="url(#paint61_linear_1513_12716)"/>
<path d="M827.948 290.329H819.398V685.251H827.948V290.329Z" fill="url(#paint62_linear_1513_12716)"/>
<path d="M947.635 234.41H939.086V601.374H947.635V234.41Z" fill="url(#paint63_linear_1513_12716)"/>
</g>
<defs>
<filter id="filter0_f_1513_12716" x="0" y="0" width="1325" height="883.707" filterUnits="userSpaceOnUse" color-interpolation-filters="sRGB">
<feFlood flood-opacity="0" result="BackgroundImageFix"/>
<feBlend mode="normal" in="SourceGraphic" in2="BackgroundImageFix" result="shape"/>
<feGaussianBlur stdDeviation="10" result="effect1_foregroundBlur_1513_12716"/>
</filter>
<linearGradient id="paint0_linear_1513_12716" x1="711.43" y1="519.174" x2="714.229" y2="519.275" gradientUnits="userSpaceOnUse">
<stop offset="2.1e-07" stop-color="#9DB3FF"/>
<stop offset="1" stop-color="#6484FF"/>
</linearGradient>
<linearGradient id="paint1_linear_1513_12716" x1="667.867" y1="433.115" x2="670.666" y2="433.22" gradientUnits="userSpaceOnUse">
<stop offset="2.1e-07" stop-color="#9DB3FF"/>
<stop offset="1" stop-color="#6484FF"/>
</linearGradient>
<linearGradient id="paint2_linear_1513_12716" x1="631.141" y1="496.805" x2="633.939" y2="496.918" gradientUnits="userSpaceOnUse">
<stop offset="2.1e-07" stop-color="#9DB3FF"/>
<stop offset="1" stop-color="#6484FF"/>
</linearGradient>
<linearGradient id="paint3_linear_1513_12716" x1="553.063" y1="507.148" x2="555.859" y2="507.285" gradientUnits="userSpaceOnUse">
<stop offset="2.1e-07" stop-color="#9DB3FF"/>
<stop offset="1" stop-color="#6484FF"/>
</linearGradient>
<linearGradient id="paint4_linear_1513_12716" x1="512.113" y1="549.636" x2="514.906" y2="549.803" gradientUnits="userSpaceOnUse">
<stop offset="2.1e-07" stop-color="#9DB3FF"/>
<stop offset="1" stop-color="#6484FF"/>
</linearGradient>
<linearGradient id="paint5_linear_1513_12716" x1="588.992" y1="476.112" x2="591.79" y2="476.233" gradientUnits="userSpaceOnUse">
<stop offset="2.1e-07" stop-color="#9DB3FF"/>
<stop offset="1" stop-color="#6484FF"/>
</linearGradient>
<linearGradient id="paint6_linear_1513_12716" x1="432.432" y1="623.675" x2="435.209" y2="623.941" gradientUnits="userSpaceOnUse">
<stop offset="2.1e-07" stop-color="#9DB3FF"/>
<stop offset="1" stop-color="#6484FF"/>
</linearGradient>
<linearGradient id="paint7_linear_1513_12716" x1="392.061" y1="681.356" x2="394.838" y2="681.622" gradientUnits="userSpaceOnUse">
<stop offset="2.1e-07" stop-color="#9DB3FF"/>
<stop offset="1" stop-color="#6484FF"/>
</linearGradient>
<linearGradient id="paint8_linear_1513_12716" x1="271.049" y1="645.695" x2="273.843" y2="645.846" gradientUnits="userSpaceOnUse">
<stop offset="2.1e-07" stop-color="#9DB3FF"/>
<stop offset="1" stop-color="#6484FF"/>
</linearGradient>
<linearGradient id="paint9_linear_1513_12716" x1="349.731" y1="650.372" x2="352.525" y2="650.526" gradientUnits="userSpaceOnUse">
<stop offset="2.1e-07" stop-color="#9DB3FF"/>
<stop offset="1" stop-color="#6484FF"/>
</linearGradient>
<linearGradient id="paint10_linear_1513_12716" x1="152.623" y1="650.372" x2="155.417" y2="650.526" gradientUnits="userSpaceOnUse">
<stop offset="2.1e-07" stop-color="#9DB3FF"/>
<stop offset="1" stop-color="#6484FF"/>
</linearGradient>
<linearGradient id="paint11_linear_1513_12716" x1="231.106" y1="761.702" x2="233.871" y2="762.022" gradientUnits="userSpaceOnUse">
<stop offset="2.1e-07" stop-color="#9DB3FF"/>
<stop offset="1" stop-color="#6484FF"/>
</linearGradient>
<linearGradient id="paint12_linear_1513_12716" x1="109.467" y1="686.443" x2="112.257" y2="686.629" gradientUnits="userSpaceOnUse">
<stop offset="2.1e-07" stop-color="#9DB3FF"/>
<stop offset="1" stop-color="#6484FF"/>
</linearGradient>
<linearGradient id="paint13_linear_1513_12716" x1="73.5431" y1="773.148" x2="76.2991" y2="773.506" gradientUnits="userSpaceOnUse">
<stop offset="2.1e-07" stop-color="#9DB3FF"/>
<stop offset="1" stop-color="#6484FF"/>
</linearGradient>
<linearGradient id="paint14_linear_1513_12716" x1="30.3868" y1="823.434" x2="32.9671" y2="824.191" gradientUnits="userSpaceOnUse">
<stop offset="2.1e-07" stop-color="#9DB3FF"/>
<stop offset="1" stop-color="#6484FF"/>
</linearGradient>
<linearGradient id="paint15_linear_1513_12716" x1="312.197" y1="605.114" x2="314.994" y2="605.241" gradientUnits="userSpaceOnUse">
<stop offset="2.1e-07" stop-color="#9DB3FF"/>
<stop offset="1" stop-color="#6484FF"/>
</linearGradient>
<linearGradient id="paint16_linear_1513_12716" x1="192.774" y1="805.616" x2="195.466" y2="806.161" gradientUnits="userSpaceOnUse">
<stop offset="2.1e-07" stop-color="#9DB3FF"/>
<stop offset="1" stop-color="#6484FF"/>
</linearGradient>
<linearGradient id="paint17_linear_1513_12716" x1="789.426" y1="467.949" x2="792.399" y2="468.13" gradientUnits="userSpaceOnUse">
<stop offset="2.1e-07" stop-color="#9DB3FF"/>
<stop offset="1" stop-color="#6484FF"/>
</linearGradient>
<linearGradient id="paint18_linear_1513_12716" x1="750.097" y1="500.662" x2="753.069" y2="500.856" gradientUnits="userSpaceOnUse">
<stop offset="2.1e-07" stop-color="#9DB3FF"/>
<stop offset="1" stop-color="#6484FF"/>
</linearGradient>
<linearGradient id="paint19_linear_1513_12716" x1="873.072" y1="383.634" x2="875.555" y2="383.737" gradientUnits="userSpaceOnUse">
<stop offset="2.1e-07" stop-color="#9DB3FF"/>
<stop offset="1" stop-color="#6484FF"/>
</linearGradient>
<linearGradient id="paint20_linear_1513_12716" x1="471.365" y1="586.396" x2="474.153" y2="586.6" gradientUnits="userSpaceOnUse">
<stop offset="2.1e-07" stop-color="#9DB3FF"/>
<stop offset="1" stop-color="#6484FF"/>
</linearGradient>
<linearGradient id="paint21_linear_1513_12716" x1="910.686" y1="342.428" x2="913.169" y2="342.523" gradientUnits="userSpaceOnUse">
<stop offset="2.1e-07" stop-color="#9DB3FF"/>
<stop offset="1" stop-color="#6484FF"/>
</linearGradient>
<linearGradient id="paint22_linear_1513_12716" x1="984.213" y1="239.315" x2="986.698" y2="239.389" gradientUnits="userSpaceOnUse">
<stop offset="2.1e-07" stop-color="#9DB3FF"/>
<stop offset="1" stop-color="#6484FF"/>
</linearGradient>
<linearGradient id="paint23_linear_1513_12716" x1="1030.51" y1="232.544" x2="1033.49" y2="232.658" gradientUnits="userSpaceOnUse">
<stop offset="2.1e-07" stop-color="#9DB3FF"/>
<stop offset="1" stop-color="#6484FF"/>
</linearGradient>
<linearGradient id="paint24_linear_1513_12716" x1="1076.68" y1="212.988" x2="1079.66" y2="213.11" gradientUnits="userSpaceOnUse">
<stop offset="2.1e-07" stop-color="#9DB3FF"/>
<stop offset="1" stop-color="#6484FF"/>
</linearGradient>
<linearGradient id="paint25_linear_1513_12716" x1="1122.78" y1="123.937" x2="1125.69" y2="124.038" gradientUnits="userSpaceOnUse">
<stop offset="2.1e-07" stop-color="#9DB3FF"/>
<stop offset="1" stop-color="#6484FF"/>
</linearGradient>
<linearGradient id="paint26_linear_1513_12716" x1="1215.18" y1="180.288" x2="1218.16" y2="180.442" gradientUnits="userSpaceOnUse">
<stop offset="2.1e-07" stop-color="#9DB3FF"/>
<stop offset="1" stop-color="#6484FF"/>
</linearGradient>
<linearGradient id="paint27_linear_1513_12716" x1="1167.17" y1="198.649" x2="1169.65" y2="198.75" gradientUnits="userSpaceOnUse">
<stop offset="2.1e-07" stop-color="#9DB3FF"/>
<stop offset="1" stop-color="#6484FF"/>
</linearGradient>
<linearGradient id="paint28_linear_1513_12716" x1="1259.51" y1="120.014" x2="1261.99" y2="120.114" gradientUnits="userSpaceOnUse">
<stop offset="2.1e-07" stop-color="#9DB3FF"/>
<stop offset="1" stop-color="#6484FF"/>
</linearGradient>
<linearGradient id="paint29_linear_1513_12716" x1="1305.7" y1="92.0269" x2="1308.32" y2="92.1445" gradientUnits="userSpaceOnUse">
<stop offset="2.1e-07" stop-color="#9DB3FF"/>
<stop offset="1" stop-color="#6484FF"/>
</linearGradient>
<linearGradient id="paint30_linear_1513_12716" x1="828.615" y1="380.345" x2="831.099" y2="380.43" gradientUnits="userSpaceOnUse">
<stop offset="2.1e-07" stop-color="#9DB3FF"/>
<stop offset="1" stop-color="#6484FF"/>
</linearGradient>
<linearGradient id="paint31_linear_1513_12716" x1="948.303" y1="318.053" x2="950.786" y2="318.145" gradientUnits="userSpaceOnUse">
<stop offset="2.1e-07" stop-color="#9DB3FF"/>
<stop offset="1" stop-color="#6484FF"/>
</linearGradient>
<linearGradient id="paint32_linear_1513_12716" x1="711.43" y1="519.174" x2="714.229" y2="519.275" gradientUnits="userSpaceOnUse">
<stop offset="2.1e-07" stop-color="#9DB3FF"/>
<stop offset="1" stop-color="#6484FF"/>
</linearGradient>
<linearGradient id="paint33_linear_1513_12716" x1="667.867" y1="433.115" x2="670.666" y2="433.22" gradientUnits="userSpaceOnUse">
<stop offset="2.1e-07" stop-color="#9DB3FF"/>
<stop offset="1" stop-color="#6484FF"/>
</linearGradient>
<linearGradient id="paint34_linear_1513_12716" x1="631.141" y1="496.805" x2="633.939" y2="496.918" gradientUnits="userSpaceOnUse">
<stop offset="2.1e-07" stop-color="#9DB3FF"/>
<stop offset="1" stop-color="#6484FF"/>
</linearGradient>
<linearGradient id="paint35_linear_1513_12716" x1="553.063" y1="507.148" x2="555.859" y2="507.285" gradientUnits="userSpaceOnUse">
<stop offset="2.1e-07" stop-color="#9DB3FF"/>
<stop offset="1" stop-color="#6484FF"/>
</linearGradient>
<linearGradient id="paint36_linear_1513_12716" x1="512.113" y1="549.636" x2="514.906" y2="549.803" gradientUnits="userSpaceOnUse">
<stop offset="2.1e-07" stop-color="#9DB3FF"/>
<stop offset="1" stop-color="#6484FF"/>
</linearGradient>
<linearGradient id="paint37_linear_1513_12716" x1="588.992" y1="476.112" x2="591.79" y2="476.233" gradientUnits="userSpaceOnUse">
<stop offset="2.1e-07" stop-color="#9DB3FF"/>
<stop offset="1" stop-color="#6484FF"/>
</linearGradient>
<linearGradient id="paint38_linear_1513_12716" x1="432.432" y1="623.675" x2="435.209" y2="623.941" gradientUnits="userSpaceOnUse">
<stop offset="2.1e-07" stop-color="#9DB3FF"/>
<stop offset="1" stop-color="#6484FF"/>
</linearGradient>
<linearGradient id="paint39_linear_1513_12716" x1="392.061" y1="681.356" x2="394.838" y2="681.622" gradientUnits="userSpaceOnUse">
<stop offset="2.1e-07" stop-color="#9DB3FF"/>
<stop offset="1" stop-color="#6484FF"/>
</linearGradient>
<linearGradient id="paint40_linear_1513_12716" x1="270.703" y1="645.505" x2="273.314" y2="645.636" gradientUnits="userSpaceOnUse">
<stop offset="2.1e-07" stop-color="#9DB3FF"/>
<stop offset="1" stop-color="#6484FF"/>
</linearGradient>
<linearGradient id="paint41_linear_1513_12716" x1="349.781" y1="650.137" x2="352.68" y2="650.303" gradientUnits="userSpaceOnUse">
<stop offset="2.1e-07" stop-color="#9DB3FF"/>
<stop offset="1" stop-color="#6484FF"/>
</linearGradient>
<linearGradient id="paint42_linear_1513_12716" x1="152.781" y1="650.137" x2="155.68" y2="650.303" gradientUnits="userSpaceOnUse">
<stop offset="2.1e-07" stop-color="#9DB3FF"/>
<stop offset="1" stop-color="#6484FF"/>
</linearGradient>
<linearGradient id="paint43_linear_1513_12716" x1="230.703" y1="762.087" x2="233.291" y2="762.366" gradientUnits="userSpaceOnUse">
<stop offset="2.1e-07" stop-color="#9DB3FF"/>
<stop offset="1" stop-color="#6484FF"/>
</linearGradient>
<linearGradient id="paint44_linear_1513_12716" x1="109.781" y1="686.425" x2="112.676" y2="686.624" gradientUnits="userSpaceOnUse">
<stop offset="2.1e-07" stop-color="#9DB3FF"/>
<stop offset="1" stop-color="#6484FF"/>
</linearGradient>
<linearGradient id="paint45_linear_1513_12716" x1="73.7809" y1="772.896" x2="76.6386" y2="773.279" gradientUnits="userSpaceOnUse">
<stop offset="2.1e-07" stop-color="#9DB3FF"/>
<stop offset="1" stop-color="#6484FF"/>
</linearGradient>
<linearGradient id="paint46_linear_1513_12716" x1="30.7809" y1="823.853" x2="33.4438" y2="824.662" gradientUnits="userSpaceOnUse">
<stop offset="2.1e-07" stop-color="#9DB3FF"/>
<stop offset="1" stop-color="#6484FF"/>
</linearGradient>
<linearGradient id="paint47_linear_1513_12716" x1="311.703" y1="605.358" x2="314.316" y2="605.469" gradientUnits="userSpaceOnUse">
<stop offset="2.1e-07" stop-color="#9DB3FF"/>
<stop offset="1" stop-color="#6484FF"/>
</linearGradient>
<linearGradient id="paint48_linear_1513_12716" x1="192.781" y1="805.323" x2="195.569" y2="805.903" gradientUnits="userSpaceOnUse">
<stop offset="2.1e-07" stop-color="#9DB3FF"/>
<stop offset="1" stop-color="#6484FF"/>
</linearGradient>
<linearGradient id="paint49_linear_1513_12716" x1="789.426" y1="467.949" x2="792.399" y2="468.13" gradientUnits="userSpaceOnUse">
<stop offset="2.1e-07" stop-color="#9DB3FF"/>
<stop offset="1" stop-color="#6484FF"/>
</linearGradient>
<linearGradient id="paint50_linear_1513_12716" x1="750.097" y1="500.662" x2="753.069" y2="500.856" gradientUnits="userSpaceOnUse">
<stop offset="2.1e-07" stop-color="#9DB3FF"/>
<stop offset="1" stop-color="#6484FF"/>
</linearGradient>
<linearGradient id="paint51_linear_1513_12716" x1="873.072" y1="383.634" x2="875.555" y2="383.737" gradientUnits="userSpaceOnUse">
<stop offset="2.1e-07" stop-color="#9DB3FF"/>
<stop offset="1" stop-color="#6484FF"/>
</linearGradient>
<linearGradient id="paint52_linear_1513_12716" x1="471.365" y1="586.396" x2="474.153" y2="586.6" gradientUnits="userSpaceOnUse">
<stop offset="2.1e-07" stop-color="#9DB3FF"/>
<stop offset="1" stop-color="#6484FF"/>
</linearGradient>
<linearGradient id="paint53_linear_1513_12716" x1="910.686" y1="342.428" x2="913.169" y2="342.523" gradientUnits="userSpaceOnUse">
<stop offset="2.1e-07" stop-color="#9DB3FF"/>
<stop offset="1" stop-color="#6484FF"/>
</linearGradient>
<linearGradient id="paint54_linear_1513_12716" x1="984.213" y1="239.315" x2="986.698" y2="239.389" gradientUnits="userSpaceOnUse">
<stop offset="2.1e-07" stop-color="#9DB3FF"/>
<stop offset="1" stop-color="#6484FF"/>
</linearGradient>
<linearGradient id="paint55_linear_1513_12716" x1="1030.51" y1="232.544" x2="1033.49" y2="232.658" gradientUnits="userSpaceOnUse">
<stop offset="2.1e-07" stop-color="#9DB3FF"/>
<stop offset="1" stop-color="#6484FF"/>
</linearGradient>
<linearGradient id="paint56_linear_1513_12716" x1="1076.68" y1="212.988" x2="1079.66" y2="213.11" gradientUnits="userSpaceOnUse">
<stop offset="2.1e-07" stop-color="#9DB3FF"/>
<stop offset="1" stop-color="#6484FF"/>
</linearGradient>
<linearGradient id="paint57_linear_1513_12716" x1="1122.78" y1="123.937" x2="1125.69" y2="124.038" gradientUnits="userSpaceOnUse">
<stop offset="2.1e-07" stop-color="#9DB3FF"/>
<stop offset="1" stop-color="#6484FF"/>
</linearGradient>
<linearGradient id="paint58_linear_1513_12716" x1="1215.18" y1="180.288" x2="1218.16" y2="180.442" gradientUnits="userSpaceOnUse">
<stop offset="2.1e-07" stop-color="#9DB3FF"/>
<stop offset="1" stop-color="#6484FF"/>
</linearGradient>
<linearGradient id="paint59_linear_1513_12716" x1="1167.17" y1="198.649" x2="1169.65" y2="198.75" gradientUnits="userSpaceOnUse">
<stop offset="2.1e-07" stop-color="#9DB3FF"/>
<stop offset="1" stop-color="#6484FF"/>
</linearGradient>
<linearGradient id="paint60_linear_1513_12716" x1="1259.51" y1="120.014" x2="1261.99" y2="120.114" gradientUnits="userSpaceOnUse">
<stop offset="2.1e-07" stop-color="#9DB3FF"/>
<stop offset="1" stop-color="#6484FF"/>
</linearGradient>
<linearGradient id="paint61_linear_1513_12716" x1="1305.7" y1="92.0269" x2="1308.32" y2="92.1445" gradientUnits="userSpaceOnUse">
<stop offset="2.1e-07" stop-color="#9DB3FF"/>
<stop offset="1" stop-color="#6484FF"/>
</linearGradient>
<linearGradient id="paint62_linear_1513_12716" x1="828.615" y1="380.345" x2="831.099" y2="380.43" gradientUnits="userSpaceOnUse">
<stop offset="2.1e-07" stop-color="#9DB3FF"/>
<stop offset="1" stop-color="#6484FF"/>
</linearGradient>
<linearGradient id="paint63_linear_1513_12716" x1="948.303" y1="318.053" x2="950.786" y2="318.145" gradientUnits="userSpaceOnUse">
<stop offset="2.1e-07" stop-color="#9DB3FF"/>
<stop offset="1" stop-color="#6484FF"/>
</linearGradient>
</defs>
</svg>
