<svg width="38" height="42" viewBox="0 0 38 42" fill="none" xmlns="http://www.w3.org/2000/svg">
<path d="M1.25328 1.00439C0.773281 1.48439 0.613281 2.28439 0.613281 3.24439V38.6044C0.613281 39.5644 0.933281 40.3644 1.41328 40.8444L1.57328 41.0044L21.4133 21.1644V20.8444L1.25328 1.00439Z" fill="url(#paint0_linear_1106_10851)"/>
<path d="M27.8139 27.8837L21.2539 21.3237V20.8437L27.8139 14.2837L27.9739 14.4437L35.8139 18.9237C38.0539 20.2037 38.0539 22.2837 35.8139 23.5637L27.8139 27.8837V27.8837Z" fill="url(#paint1_linear_1106_10851)"/>
<path d="M27.9739 27.7239L21.2539 21.0039L1.25391 41.0039C2.05391 41.8039 3.17391 41.8039 4.61391 41.1639L27.9739 27.7239" fill="url(#paint2_linear_1106_10851)"/>
<path d="M27.9739 14.284L4.61391 1.00399C3.17391 0.203988 2.05391 0.363988 1.25391 1.16399L21.2539 21.004L27.9739 14.284V14.284Z" fill="url(#paint3_linear_1106_10851)"/>
<path opacity="0.2" d="M27.8139 27.564L4.61391 40.684C3.33391 41.484 2.21391 41.324 1.41391 40.684L1.25391 40.844L1.41391 41.004C2.21391 41.644 3.33391 41.804 4.61391 41.004L27.8139 27.564Z" fill="black"/>
<path opacity="0.12" d="M1.25328 40.6839C0.773281 40.2039 0.613281 39.4039 0.613281 38.4439V38.6039C0.613281 39.5639 0.933281 40.3639 1.41328 40.8439V40.6839H1.25328ZM35.8133 23.0839L27.8133 27.5639L27.9733 27.7239L35.8133 23.2439C36.9333 22.6039 37.4133 21.8039 37.4133 21.0039C37.4133 21.8039 36.7733 22.4439 35.8133 23.0839V23.0839Z" fill="black"/>
<path opacity="0.25" d="M4.61328 1.16395L35.8133 18.9239C36.7733 19.5639 37.4133 20.2039 37.4133 21.0039C37.4133 20.2039 36.9333 19.4039 35.8133 18.7639L4.61328 1.00395C2.37328 -0.276052 0.613281 0.683948 0.613281 3.24395V3.40395C0.613281 1.00395 2.37328 -0.116052 4.61328 1.16395Z" fill="white"/>
<defs>
<linearGradient id="paint0_linear_1106_10851" x1="19.4933" y1="2.94039" x2="-7.35953" y2="29.7916" gradientUnits="userSpaceOnUse">
<stop stop-color="#00A0FF"/>
<stop offset="0.007" stop-color="#00A1FF"/>
<stop offset="0.26" stop-color="#00BEFF"/>
<stop offset="0.512" stop-color="#00D2FF"/>
<stop offset="0.76" stop-color="#00DFFF"/>
<stop offset="1" stop-color="#00E3FF"/>
</linearGradient>
<linearGradient id="paint1_linear_1106_10851" x1="38.7483" y1="21.0053" x2="0.0331045" y2="21.0053" gradientUnits="userSpaceOnUse">
<stop stop-color="#FFE000"/>
<stop offset="0.409" stop-color="#FFBD00"/>
<stop offset="0.775" stop-color="#FFA500"/>
<stop offset="1" stop-color="#FF9C00"/>
</linearGradient>
<linearGradient id="paint2_linear_1106_10851" x1="24.3371" y1="24.6775" x2="-12.0757" y2="61.0903" gradientUnits="userSpaceOnUse">
<stop stop-color="#FF3A44"/>
<stop offset="1" stop-color="#C31162"/>
</linearGradient>
<linearGradient id="paint3_linear_1106_10851" x1="-3.71089" y1="-10.7144" x2="12.5499" y2="5.54639" gradientUnits="userSpaceOnUse">
<stop stop-color="#32A071"/>
<stop offset="0.069" stop-color="#2DA771"/>
<stop offset="0.476" stop-color="#15CF74"/>
<stop offset="0.801" stop-color="#06E775"/>
<stop offset="1" stop-color="#00F076"/>
</linearGradient>
</defs>
</svg>
