<svg width="1920" height="816" viewBox="0 0 1920 816" fill="none" xmlns="http://www.w3.org/2000/svg">
<path d="M1912.22 142.109V362.897" stroke="#293048" stroke-width="3.34958" stroke-miterlimit="10"/>
<path d="M1912.22 193.817V319.184" stroke="#293048" stroke-width="26.7958" stroke-miterlimit="10"/>
<path d="M1823.02 53.5093V318.07" stroke="#333B57" stroke-width="3.34958" stroke-miterlimit="10"/>
<path d="M1823.02 104.909V271.073" stroke="#333B57" stroke-width="26.7958" stroke-miterlimit="10"/>
<path d="M1733.82 178.628V388.566" stroke="#293048" stroke-width="3.34958" stroke-miterlimit="10"/>
<path d="M1733.82 228.912V330.594" stroke="#293048" stroke-width="26.7958" stroke-miterlimit="10"/>
<path d="M1644.52 264.559V475.551" stroke="#333B57" stroke-width="3.34958" stroke-miterlimit="10"/>
<path d="M1644.52 331.21V408.836" stroke="#333B57" stroke-width="26.7958" stroke-miterlimit="10"/>
<path d="M1555.31 209.875V425.268" stroke="#293048" stroke-width="3.34958" stroke-miterlimit="10"/>
<path d="M1555.31 276.589V357.811" stroke="#293048" stroke-width="26.7958" stroke-miterlimit="10"/>
<path d="M1466.11 264.559V525.834" stroke="#333B57" stroke-width="3.34958" stroke-miterlimit="10"/>
<path d="M1466.11 331.21V482.122" stroke="#333B57" stroke-width="26.7958" stroke-miterlimit="10"/>
<path d="M1376.81 264.559V445.48" stroke="#293048" stroke-width="3.34958" stroke-miterlimit="10"/>
<path d="M1376.81 331.21V404.868" stroke="#293048" stroke-width="26.7958" stroke-miterlimit="10"/>
<path d="M1287.6 236.103V425.269" stroke="#333B57" stroke-width="3.34958" stroke-miterlimit="10"/>
<path d="M1287.6 302.817V357.812" stroke="#333B57" stroke-width="26.7958" stroke-miterlimit="10"/>
<path d="M1198.31 264.559V626.4" stroke="#293048" stroke-width="3.34958" stroke-miterlimit="10"/>
<path d="M1198.31 331.21V587.029" stroke="#293048" stroke-width="26.7958" stroke-miterlimit="10"/>
<path d="M1109.1 366.242V650.458" stroke="#333B57" stroke-width="3.34958" stroke-miterlimit="10"/>
<path d="M1109.1 432.894V583.743" stroke="#333B57" stroke-width="26.7958" stroke-miterlimit="10"/>
<path d="M1019.89 378.27V701.856" stroke="#293048" stroke-width="3.34958" stroke-miterlimit="10"/>
<path d="M1019.89 439.466V635.143" stroke="#293048" stroke-width="26.7958" stroke-miterlimit="10"/>
<path d="M931 564L931 793" stroke="#333B57" stroke-width="3.34958" stroke-miterlimit="10"/>
<path d="M930.604 608.917V759.767" stroke="#333B57" stroke-width="26.7958" stroke-miterlimit="10"/>
<path d="M841.397 311.309V595.524" stroke="#293048" stroke-width="3.34958" stroke-miterlimit="10"/>
<path d="M841.397 377.961V563.842" stroke="#293048" stroke-width="26.7958" stroke-miterlimit="10"/>
<path d="M752.184 334.499V618.776" stroke="#333B57" stroke-width="3.34958" stroke-miterlimit="10"/>
<path d="M752.184 441.638V552.062" stroke="#333B57" stroke-width="26.7958" stroke-miterlimit="10"/>
<path d="M662.891 441.639V725.854" stroke="#293048" stroke-width="3.34958" stroke-miterlimit="10"/>
<path d="M662.891 562.976V659.203" stroke="#293048" stroke-width="26.7958" stroke-miterlimit="10"/>
<path d="M573.68 508.351V792.566" stroke="#333B57" stroke-width="3.34958" stroke-miterlimit="10"/>
<path d="M573.68 650.458V725.852" stroke="#333B57" stroke-width="26.7958" stroke-miterlimit="10"/>
<path d="M484.473 468.981V753.197" stroke="#293048" stroke-width="3.34958" stroke-miterlimit="10"/>
<path d="M484.473 594.721V686.545" stroke="#293048" stroke-width="26.7958" stroke-miterlimit="10"/>
<path d="M395.18 441.639V725.854" stroke="#333B57" stroke-opacity="0.1" stroke-width="3.34958" stroke-miterlimit="10"/>
<path d="M395.18 544.438V659.202" stroke="#333B57" stroke-opacity="0.3" stroke-width="26.7958" stroke-miterlimit="10"/>
<path d="M305.971 511.7V795.915" stroke="#293048" stroke-width="3.34958" stroke-miterlimit="10"/>
<path d="M305.971 552.125V729.264" stroke="#293048" stroke-width="26.7958" stroke-miterlimit="10"/>
<path d="M216.764 393.46V677.675" stroke="#333B57" stroke-width="3.34958" stroke-miterlimit="10"/>
<path d="M216.764 460.174V631.794" stroke="#333B57" stroke-width="26.7958" stroke-miterlimit="10"/>
<path d="M127.464 276.528V560.743" stroke="#293048" stroke-width="3.34958" stroke-miterlimit="10"/>
<path d="M127.464 343.242V517.032" stroke="#293048" stroke-width="26.7958" stroke-miterlimit="10"/>
<path d="M38.2539 324.641V608.856" stroke="#333B57" stroke-width="3.34958" stroke-miterlimit="10"/>
<path d="M38.2539 372.754V542.204" stroke="#333B57" stroke-width="26.7958" stroke-miterlimit="10"/>
</svg>
