<svg width="13" height="11" viewBox="0 0 13 11" fill="none" xmlns="http://www.w3.org/2000/svg">
<path d="M5.28094 10.8759C4.9012 10.8759 4.54153 10.731 4.31107 10.4814L1.19193 7.11356C1.09549 7.00955 1.02509 6.89103 0.984742 6.76478C0.944394 6.63852 0.934894 6.507 0.956785 6.37775C0.978675 6.24849 1.03153 6.12403 1.11232 6.01147C1.19311 5.89891 1.30025 5.80047 1.42763 5.72178C1.55496 5.64275 1.70013 5.58504 1.8548 5.55195C2.00948 5.51885 2.17063 5.51103 2.32901 5.52892C2.4874 5.54681 2.6399 5.59007 2.77779 5.65622C2.91568 5.72236 3.03623 5.8101 3.13255 5.91439L5.18492 8.12868L10.3451 1.3574C10.5162 1.13383 10.7889 0.974853 11.1032 0.915342C11.4176 0.855831 11.7481 0.900644 12.0221 1.03995C12.5921 1.32958 12.7676 1.94307 12.4114 2.40962L6.31455 10.4065C6.21047 10.5436 6.06701 10.6579 5.89663 10.7394C5.72624 10.821 5.53408 10.8673 5.33681 10.8744C5.31761 10.8759 5.30015 10.8759 5.28094 10.8759Z" fill="#39425B"/>
</svg>
