<svg width="9" height="9" viewBox="0 0 9 9" fill="none" xmlns="http://www.w3.org/2000/svg">
<path d="M5.31193 4.2513L8.28068 1.28255C8.42157 1.1419 8.50083 0.951045 8.501 0.751964C8.50118 0.552882 8.42226 0.361885 8.28161 0.220989C8.14097 0.0800923 7.95011 0.000838857 7.75103 0.000663042C7.55194 0.000487227 7.36095 0.0794034 7.22005 0.220051L4.2513 3.1888L1.28255 0.220051C1.14165 0.0791548 0.950558 0 0.751301 0C0.552044 0 0.360947 0.0791548 0.220051 0.220051C0.0791548 0.360947 0 0.552044 0 0.751301C0 0.950558 0.0791548 1.14165 0.220051 1.28255L3.1888 4.2513L0.220051 7.22005C0.0791548 7.36095 0 7.55204 0 7.7513C0 7.95056 0.0791548 8.14165 0.220051 8.28255C0.360947 8.42345 0.552044 8.5026 0.751301 8.5026C0.950558 8.5026 1.14165 8.42345 1.28255 8.28255L4.2513 5.3138L7.22005 8.28255C7.36095 8.42345 7.55204 8.5026 7.7513 8.5026C7.95056 8.5026 8.14165 8.42345 8.28255 8.28255C8.42345 8.14165 8.5026 7.95056 8.5026 7.7513C8.5026 7.55204 8.42345 7.36095 8.28255 7.22005L5.31193 4.2513Z" fill="#21263B"/>
</svg>
