<svg width="10" height="8" viewBox="0 0 10 8" fill="none" xmlns="http://www.w3.org/2000/svg">
<path d="M3.4733 8C3.16908 8 2.88095 7.88399 2.69632 7.68397L0.197565 4.986C0.12031 4.90268 0.0639096 4.80774 0.0315871 4.70659C-0.000735455 4.60545 -0.00834603 4.50009 0.00919034 4.39654C0.0267267 4.29299 0.0690661 4.19329 0.133788 4.10312C0.19851 4.01295 0.284346 3.93409 0.386388 3.87104C0.488393 3.80774 0.604684 3.7615 0.728597 3.73499C0.852509 3.70848 0.981606 3.70221 1.10849 3.71654C1.23537 3.73088 1.35754 3.76553 1.46801 3.81852C1.57847 3.87151 1.67505 3.9418 1.75221 4.02534L3.39637 5.79922L7.53019 0.374717C7.66729 0.195615 7.88572 0.0682581 8.13757 0.0205834C8.38942 -0.0270913 8.65413 0.00880839 8.87364 0.120408C9.33031 0.352429 9.47088 0.843904 9.18554 1.21765L4.30132 7.62397C4.21794 7.73382 4.10302 7.82538 3.96652 7.89071C3.83003 7.95604 3.67608 7.99316 3.51805 7.99886C3.50267 8 3.48868 8 3.4733 8Z" fill="white"/>
</svg>
