<svg width="12" height="12" viewBox="0 0 12 12" fill="none" xmlns="http://www.w3.org/2000/svg">
<path d="M7.57606 6.07242L11.2819 2.3666C11.4578 2.19104 11.5567 1.95279 11.5569 1.70428C11.5571 1.45577 11.4586 1.21736 11.2831 1.04148C11.1075 0.865602 10.8692 0.766672 10.6207 0.766453C10.3722 0.766233 10.1338 0.864742 9.95793 1.04031L6.25211 4.74613L2.54629 1.04031C2.37041 0.864432 2.13187 0.765625 1.88314 0.765625C1.63442 0.765625 1.39587 0.864432 1.22 1.04031C1.04412 1.21619 0.945312 1.45473 0.945312 1.70346C0.945312 1.95218 1.04412 2.19073 1.22 2.3666L4.92582 6.07242L1.22 9.77824C1.04412 9.95412 0.945312 10.1927 0.945312 10.4414C0.945312 10.6901 1.04412 10.9287 1.22 11.1045C1.39587 11.2804 1.63442 11.3792 1.88314 11.3792C2.13187 11.3792 2.37041 11.2804 2.54629 11.1045L6.25211 7.39871L9.95793 11.1045C10.1338 11.2804 10.3723 11.3792 10.6211 11.3792C10.8698 11.3792 11.1083 11.2804 11.2842 11.1045C11.4601 10.9287 11.5589 10.6901 11.5589 10.4414C11.5589 10.1927 11.4601 9.95412 11.2842 9.77824L7.57606 6.07242Z" fill="#9BAAD7"/>
</svg>
