<svg width="20" height="20" viewBox="0 0 20 20" fill="none" xmlns="http://www.w3.org/2000/svg">
<path d="M13.9087 7.06508L17.4127 3.50214L16.1331 2.201L12.629 5.76394L13.9087 7.06508ZM19.2545 3.50214C19.2545 3.72102 19.1827 3.90342 19.0392 4.04935L3.65955 19.6874C3.51603 19.8333 3.33665 19.9062 3.12138 19.9062C2.90611 19.9062 2.72672 19.8333 2.58321 19.6874L0.215267 17.2796C0.0717558 17.1337 0 16.9513 0 16.7324C0 16.5136 0.0717558 16.3312 0.215267 16.1852L15.5949 0.547209C15.7384 0.401287 15.9178 0.328325 16.1331 0.328325C16.3484 0.328325 16.5278 0.401287 16.6713 0.547209L19.0392 2.95493C19.1827 3.10085 19.2545 3.28325 19.2545 3.50214ZM3.09746 1.1917L4.26947 1.55651L3.09746 1.92131L2.73868 3.11301L2.3799 1.92131L1.20789 1.55651L2.3799 1.1917L2.73868 0L3.09746 1.1917ZM7.28322 3.16165L9.62724 3.89126L7.28322 4.62088L6.56566 7.00428L5.8481 4.62088L3.50408 3.89126L5.8481 3.16165L6.56566 0.778253L7.28322 3.16165ZM18.4054 8.97423L19.5774 9.33904L18.4054 9.70384L18.0466 10.8955L17.6878 9.70384L16.5158 9.33904L17.6878 8.97423L18.0466 7.78253L18.4054 8.97423ZM10.7514 1.1917L11.9234 1.55651L10.7514 1.92131L10.3926 3.11301L10.0339 1.92131L8.86184 1.55651L10.0339 1.1917L10.3926 0L10.7514 1.1917Z" fill="#C4C4C4"/>
</svg>
