<svg width="261" height="54" viewBox="0 0 261 54" fill="none" xmlns="http://www.w3.org/2000/svg">
<rect width="261" height="54" rx="8" fill="#803A32"/>
<path d="M97.7748 39.8399C95.7519 39.8399 93.9499 39.34 92.3687 38.3402C90.7876 37.3403 89.5436 35.8987 88.6368 34.0153C87.7532 32.1086 87.3114 29.8415 87.3114 27.2141C87.3114 24.5866 87.7532 22.3311 88.6368 20.4477C89.5436 18.541 90.7876 17.0878 92.3687 16.0879C93.9499 15.0881 95.7519 14.5882 97.7748 14.5882C99.7978 14.5882 101.6 15.0881 103.181 16.0879C104.762 17.0878 105.994 18.541 106.878 20.4477C107.785 22.3311 108.238 24.5866 108.238 27.2141C108.238 29.8415 107.785 32.1086 106.878 34.0153C105.994 35.8987 104.762 37.3403 103.181 38.3402C101.6 39.34 99.7978 39.8399 97.7748 39.8399ZM97.7748 35.0616C99.263 35.0616 100.426 34.4222 101.263 33.1433C102.123 31.8645 102.553 29.888 102.553 27.2141C102.553 24.5401 102.123 22.5636 101.263 21.2848C100.426 20.0059 99.263 19.3665 97.7748 19.3665C96.31 19.3665 95.1474 20.0059 94.287 21.2848C93.45 22.5636 93.0314 24.5401 93.0314 27.2141C93.0314 29.888 93.45 31.8645 94.287 33.1433C95.1474 34.4222 96.31 35.0616 97.7748 35.0616ZM113.75 39.7004C112.796 39.7004 111.994 39.3749 111.343 38.7238C110.692 38.0728 110.366 37.2589 110.366 36.2824C110.366 35.2825 110.692 34.4803 111.343 33.8758C111.994 33.248 112.796 32.9341 113.75 32.9341C114.703 32.9341 115.505 33.248 116.156 33.8758C116.807 34.4803 117.133 35.2825 117.133 36.2824C117.133 37.2589 116.807 38.0728 116.156 38.7238C115.505 39.3749 114.703 39.7004 113.75 39.7004ZM138.237 15.0067V18.6689L129.169 39.4214H123.03L131.785 19.6106H123.693V23.5867H118.671V15.0067H138.237ZM150.51 15.0067V39.4214H144.86V19.5409H139.977V15.0067H150.51ZM173.865 15.0067V18.6689L164.796 39.4214H158.658L167.412 19.6106H159.321V23.5867H154.298V15.0067H173.865ZM184.96 14.5882C188.378 14.5882 191.052 15.6345 192.982 17.7272C194.912 19.7966 195.877 22.7845 195.877 26.6909C195.877 29.4579 195.354 31.8296 194.307 33.806C193.284 35.7824 191.831 37.2822 189.948 38.3053C188.064 39.3284 185.89 39.8399 183.425 39.8399C182.123 39.8399 180.879 39.7004 179.693 39.4214C178.508 39.1191 177.496 38.7006 176.659 38.1658L178.752 34.0153C179.938 34.8291 181.461 35.236 183.321 35.236C185.39 35.236 187.029 34.6315 188.239 33.4224C189.448 32.19 190.099 30.4228 190.192 28.1209C188.727 29.5858 186.704 30.3182 184.123 30.3182C182.565 30.3182 181.147 30.0043 179.868 29.3765C178.589 28.7487 177.577 27.8651 176.833 26.7258C176.089 25.5632 175.717 24.2262 175.717 22.7148C175.717 21.0871 176.124 19.6571 176.938 18.4248C177.752 17.1924 178.856 16.2507 180.251 15.5996C181.67 14.9253 183.239 14.5882 184.96 14.5882ZM185.379 26.098C186.611 26.098 187.611 25.7608 188.378 25.0865C189.169 24.3889 189.564 23.5053 189.564 22.4358C189.564 21.3662 189.18 20.4942 188.413 19.8199C187.669 19.1456 186.634 18.8084 185.309 18.8084C184.1 18.8084 183.111 19.134 182.344 19.785C181.6 20.4361 181.228 21.3197 181.228 22.4358C181.228 23.5519 181.6 24.4471 182.344 25.1214C183.111 25.7724 184.123 26.098 185.379 26.098ZM217.564 15.0067V18.6689L208.496 39.4214H202.358L211.112 19.6106H203.02V23.5867H197.998V15.0067H217.564Z" fill="white"/>
<rect x="27.7988" y="16.5562" width="24.7445" height="2.47445" rx="1.23723" fill="white"/>
<rect x="41.4082" y="20.2681" width="17.3212" height="2.47445" rx="1.23723" transform="rotate(90 41.4082 20.2681)" fill="white"/>
<rect width="7.61113" height="2.57104" rx="1.28552" transform="matrix(-0.649034 0.760759 -0.798295 -0.602266 42.2109 20.5791)" fill="white"/>
<rect width="7.58893" height="2.57833" rx="1.28916" transform="matrix(0.610777 0.791803 -0.826106 0.563515 40.4834 19.0308)" fill="white"/>
</svg>
