<svg width="261" height="54" viewBox="0 0 261 54" fill="none" xmlns="http://www.w3.org/2000/svg">
<rect width="261" height="54" rx="8" fill="#267B3A"/>
<path d="M97.9056 40.0186C95.8826 40.0186 94.0806 39.5187 92.4994 38.5189C90.9183 37.519 89.6743 36.0774 88.7675 34.194C87.8839 32.2873 87.4421 30.0202 87.4421 27.3928C87.4421 24.7653 87.8839 22.5098 88.7675 20.6264C89.6743 18.7197 90.9183 17.2665 92.4994 16.2666C94.0806 15.2668 95.8826 14.7669 97.9056 14.7669C99.9285 14.7669 101.731 15.2668 103.312 16.2666C104.893 17.2665 106.125 18.7197 107.009 20.6264C107.916 22.5098 108.369 24.7653 108.369 27.3928C108.369 30.0202 107.916 32.2873 107.009 34.194C106.125 36.0774 104.893 37.519 103.312 38.5189C101.731 39.5187 99.9285 40.0186 97.9056 40.0186ZM97.9056 35.2403C99.3937 35.2403 100.556 34.6009 101.393 33.322C102.254 32.0432 102.684 30.0668 102.684 27.3928C102.684 24.7188 102.254 22.7423 101.393 21.4635C100.556 20.1846 99.3937 19.5452 97.9056 19.5452C96.4407 19.5452 95.2781 20.1846 94.4177 21.4635C93.5807 22.7423 93.1621 24.7188 93.1621 27.3928C93.1621 30.0668 93.5807 32.0432 94.4177 33.322C95.2781 34.6009 96.4407 35.2403 97.9056 35.2403ZM113.88 39.8791C112.927 39.8791 112.125 39.5536 111.474 38.9025C110.823 38.2515 110.497 37.4377 110.497 36.4611C110.497 35.4612 110.823 34.659 111.474 34.0545C112.125 33.4267 112.927 33.1128 113.88 33.1128C114.834 33.1128 115.636 33.4267 116.287 34.0545C116.938 34.659 117.263 35.4612 117.263 36.4611C117.263 37.4377 116.938 38.2515 116.287 38.9025C115.636 39.5536 114.834 39.8791 113.88 39.8791ZM138.368 15.1854V18.8476L129.3 39.6001H123.161L131.916 19.7893H123.824V23.7654H118.801V15.1854H138.368ZM150.641 15.1854V39.6001H144.991V19.7196H140.108V15.1854H150.641ZM163.253 24.3584C166.694 24.3584 169.229 25.0443 170.856 26.4162C172.507 27.788 173.333 29.625 173.333 31.9269C173.333 33.415 172.961 34.7753 172.217 36.0077C171.473 37.2168 170.333 38.1933 168.799 38.9374C167.287 39.6582 165.415 40.0186 163.183 40.0186C161.463 40.0186 159.765 39.7977 158.091 39.356C156.44 38.8909 155.033 38.2399 153.871 37.4028L156.103 33.0779C157.033 33.7755 158.103 34.3219 159.312 34.7172C160.521 35.0892 161.765 35.2752 163.044 35.2752C164.462 35.2752 165.578 34.9962 166.392 34.4381C167.206 33.8801 167.613 33.1011 167.613 32.1013C167.613 31.055 167.183 30.2644 166.322 29.7296C165.485 29.1948 164.02 28.9274 161.928 28.9274H155.684L156.94 15.1854H171.833V19.7196H161.649L161.265 24.3584H163.253ZM183.826 24.3584C187.267 24.3584 189.801 25.0443 191.429 26.4162C193.08 27.788 193.905 29.625 193.905 31.9269C193.905 33.415 193.533 34.7753 192.789 36.0077C192.045 37.2168 190.906 38.1933 189.371 38.9374C187.86 39.6582 185.988 40.0186 183.756 40.0186C182.035 40.0186 180.338 39.7977 178.664 39.356C177.013 38.8909 175.606 38.2399 174.443 37.4028L176.676 33.0779C177.606 33.7755 178.675 34.3219 179.884 34.7172C181.093 35.0892 182.337 35.2752 183.616 35.2752C185.035 35.2752 186.151 34.9962 186.965 34.4381C187.778 33.8801 188.185 33.1011 188.185 32.1013C188.185 31.055 187.755 30.2644 186.895 29.7296C186.058 29.1948 184.593 28.9274 182.5 28.9274H176.257L177.513 15.1854H192.406V19.7196H182.221L181.838 24.3584H183.826ZM218.555 34.473H214.579V39.6001H209.068V34.473H195.919V30.6713L207.429 15.1854H213.358L202.685 29.8691H209.242V25.3001H214.579V29.8691H218.555V34.473Z" fill="white"/>
<rect x="52.5469" y="37.769" width="24.7445" height="2.47445" rx="1.23723" transform="rotate(180 52.5469 37.769)" fill="white"/>
<rect x="38.9404" y="34.0566" width="17.3212" height="2.47445" rx="1.23723" transform="rotate(-90 38.9404 34.0566)" fill="white"/>
<rect width="7.61113" height="2.57104" rx="1.28552" transform="matrix(0.649034 -0.76076 0.798295 0.602266 38.1348 33.7461)" fill="white"/>
<rect width="7.58892" height="2.57833" rx="1.28916" transform="matrix(-0.610777 -0.791803 0.826106 -0.563515 39.8633 35.2944)" fill="white"/>
</svg>
