<svg width="20" height="21" viewBox="0 0 20 21" fill="none" xmlns="http://www.w3.org/2000/svg">
<path fill-rule="evenodd" clip-rule="evenodd" d="M2.21555 15.2279C2.76405 14.9279 2.764 14.3278 2.764 13.7276C1.39275 10.7271 1.94125 6.82632 4.13525 4.42585C7.152 1.12522 11.8142 1.12522 14.831 4.42585C17.025 6.82632 17.5735 10.7271 16.2022 13.7276C15.928 14.3278 16.2023 14.9279 16.7508 15.2279C17.2993 15.528 17.8478 15.2279 18.122 14.6278C19.7675 10.7271 19.219 5.92614 16.2022 2.92556C12.637 -0.975188 6.6035 -0.975188 2.764 2.92556C0.0214987 5.92614 -0.801201 10.7271 0.844299 14.6278C1.3928 15.2279 1.9413 15.2279 2.21555 15.2279ZM9.62025 13.1275L13.4597 17.3283C11.2657 19.1287 7.97475 19.1287 5.5065 17.3283L9.62025 13.1275ZM15.6538 18.2285C15.928 17.9285 15.928 17.0283 15.6538 16.7282L10.4431 11.0271C10.1688 10.7271 9.34605 10.7271 9.0718 11.0271L3.86098 16.7282C3.58673 17.0283 3.58673 17.9285 3.86098 18.2285C6.87774 21.8292 12.3628 21.8292 15.6538 18.2285Z" fill="#C4C4C4"/>
</svg>
