<svg width="1920" height="2364" viewBox="0 0 1920 2364" fill="none" xmlns="http://www.w3.org/2000/svg">
<g opacity="0.4">
<path d="M-350.663 1711.82C-327.886 1695.49 -342.379 1336.29 364.797 1270.27C1071.97 1204.25 1191.86 1548.36 2181.23 1265.39" stroke="white" stroke-opacity="0.1" stroke-linecap="round" stroke-linejoin="round"/>
<path d="M-375.858 1658.32C-353.081 1641.99 -367.575 1282.79 339.602 1216.77C1046.78 1150.75 1166.66 1494.86 2156.03 1211.9" stroke="white" stroke-opacity="0.1" stroke-linecap="round" stroke-linejoin="round"/>
<path d="M-388.456 1752.53C-365.679 1736.2 -380.172 1376.99 327.004 1310.98C1034.18 1244.96 1154.07 1589.07 2143.43 1306.1" stroke="white" stroke-opacity="0.1" stroke-linecap="round" stroke-linejoin="round"/>
<path d="M-414.132 1690.32C-391.355 1673.99 -405.848 1314.79 301.329 1248.77C1008.51 1182.75 1128.39 1526.86 2117.76 1243.9" stroke="white" stroke-opacity="0.1" stroke-linecap="round" stroke-linejoin="round"/>
<path d="M-438.847 1645.54C-416.07 1629.21 -430.563 1270 276.614 1203.98C983.79 1137.97 1103.68 1482.08 2093.04 1199.11" stroke="white" stroke-opacity="0.1" stroke-linecap="round" stroke-linejoin="round"/>
<path d="M-451.444 1618.79C-428.667 1602.46 -443.161 1243.26 264.016 1177.24C971.193 1111.22 1091.08 1455.33 2080.45 1172.36" stroke="white" stroke-opacity="0.1" stroke-linecap="round" stroke-linejoin="round"/>
<path d="M-464.042 1592.04C-441.265 1575.71 -455.758 1216.51 251.418 1150.49C958.595 1084.47 1078.48 1428.58 2067.85 1145.62" stroke="white" stroke-opacity="0.1" stroke-linecap="round" stroke-linejoin="round"/>
<path d="M-476.64 1565.29C-453.863 1548.96 -468.356 1189.76 238.821 1123.74C945.997 1057.72 1065.88 1401.83 2055.25 1118.87" stroke="white" stroke-opacity="0.1" stroke-linecap="round" stroke-linejoin="round"/>
<path d="M-489.237 1538.54C-466.46 1522.21 -480.953 1163.01 226.223 1096.99C933.4 1030.97 1053.28 1375.09 2042.65 1092.12" stroke="white" stroke-opacity="0.1" stroke-linecap="round" stroke-linejoin="round"/>
<path d="M-501.837 1511.8C-479.06 1495.47 -493.553 1136.27 213.623 1070.25C920.8 1004.23 1040.68 1348.34 2030.05 1065.37" stroke="white" stroke-opacity="0.1" stroke-linecap="round" stroke-linejoin="round"/>
<path d="M-514.435 1485.05C-491.657 1468.72 -506.151 1109.52 201.026 1043.5C908.202 977.479 1028.09 1321.59 2017.46 1038.63" stroke="white" stroke-opacity="0.1" stroke-linecap="round" stroke-linejoin="round"/>
<path d="M-527.03 1458.3C-504.253 1441.97 -518.746 1082.77 188.43 1016.75C895.607 950.732 1015.49 1294.84 2004.86 1011.88" stroke="white" stroke-opacity="0.1" stroke-linecap="round" stroke-linejoin="round"/>
<path d="M-539.63 1431.55C-516.853 1415.22 -531.346 1056.02 175.831 990.003C883.007 923.984 1002.89 1268.1 1992.26 985.131" stroke="white" stroke-opacity="0.1" stroke-linecap="round" stroke-linejoin="round"/>
<path d="M-552.228 1404.81C-529.45 1388.48 -543.944 1029.28 163.233 963.255C870.409 897.236 990.294 1241.35 1979.66 958.383" stroke="white" stroke-opacity="0.1" stroke-linecap="round" stroke-linejoin="round"/>
<path d="M-564.825 1378.06C-542.048 1361.73 -556.541 1002.53 150.635 936.508C857.812 870.488 977.697 1214.6 1967.06 931.635" stroke="white" stroke-opacity="0.1" stroke-linecap="round" stroke-linejoin="round"/>
<path d="M-577.421 1351.31C-554.644 1334.98 -569.137 975.78 138.039 909.76C845.216 843.741 965.101 1187.85 1954.47 904.888" stroke="white" stroke-opacity="0.1" stroke-linecap="round" stroke-linejoin="round"/>
<path d="M-590.02 1324.56C-567.243 1308.23 -581.737 949.033 125.44 883.013C832.616 816.994 952.501 1161.11 1941.87 878.141" stroke="white" stroke-opacity="0.1" stroke-linecap="round" stroke-linejoin="round"/>
<path d="M-602.618 1297.82C-579.841 1281.49 -594.334 922.285 112.842 856.266C820.019 790.246 939.904 1134.36 1929.27 851.393" stroke="white" stroke-opacity="0.1" stroke-linecap="round" stroke-linejoin="round"/>
<path d="M-615.214 1271.07C-592.437 1254.74 -606.93 895.538 100.247 829.519C807.423 763.499 927.308 1107.61 1916.68 824.646" stroke="white" stroke-opacity="0.1" stroke-linecap="round" stroke-linejoin="round"/>
<path d="M-627.813 1244.32C-605.036 1227.99 -619.53 868.79 87.6469 802.771C794.824 736.751 914.708 1080.86 1904.08 797.898" stroke="white" stroke-opacity="0.1" stroke-linecap="round" stroke-linejoin="round"/>
</g>
</svg>
