<svg width="144" height="59" viewBox="0 0 144 59" fill="none" xmlns="http://www.w3.org/2000/svg">
<path d="M0.847656 43.1586C0.847656 37.5913 4.90248 33.0781 9.90436 33.0781C14.9062 33.0781 18.9611 37.5913 18.9611 43.1586V48.1989C18.9611 53.7662 14.9062 58.2794 9.90436 58.2794C4.90248 58.2794 0.847656 53.7662 0.847656 48.1989V43.1586Z" fill="white"/>
<path fill-rule="evenodd" clip-rule="evenodd" d="M47.3122 49.0539V35.2157C47.3122 30.5418 43.5963 26.7778 39.043 26.7778C34.4897 26.7778 30.7739 30.5418 30.7739 35.2157V49.0539C30.7739 53.7278 34.4897 57.4918 39.043 57.4918C43.5963 57.4918 47.3122 53.7278 47.3122 49.0539ZM39.043 25.9902C34.0412 25.9902 29.9863 30.1206 29.9863 35.2157V49.0539C29.9863 54.149 34.0412 58.2794 39.043 58.2794C44.0449 58.2794 48.0997 54.149 48.0997 49.0539V35.2157C48.0997 30.1206 44.0449 25.9902 39.043 25.9902Z" fill="white"/>
<path fill-rule="evenodd" clip-rule="evenodd" d="M80.3894 49.3538V27.0402C80.3894 22.5566 76.698 18.9023 72.1202 18.9023C67.5424 18.9023 63.851 22.5566 63.851 27.0402V49.3538C63.851 53.8375 67.5424 57.4917 72.1202 57.4917C76.698 57.4917 80.3894 53.8375 80.3894 49.3538ZM72.1202 18.1147C67.1183 18.1147 63.0635 22.1108 63.0635 27.0402V49.3538C63.0635 54.2832 67.1183 58.2793 72.1202 58.2793C77.1221 58.2793 81.1769 54.2832 81.1769 49.3538V27.0402C81.1769 22.1108 77.1221 18.1147 72.1202 18.1147Z" fill="white"/>
<path fill-rule="evenodd" clip-rule="evenodd" d="M111.191 48.9717V16.3962C111.191 11.5216 107.403 7.87641 103.139 7.87641C98.874 7.87641 95.086 11.5216 95.086 16.3962V48.9717C95.086 53.8462 98.874 57.4914 103.139 57.4914C107.403 57.4914 111.191 53.8462 111.191 48.9717ZM103.139 7.08887C98.1681 7.08887 94.1387 11.2559 94.1387 16.3962V48.9717C94.1387 54.1119 98.1681 58.2789 103.139 58.2789C108.109 58.2789 112.139 54.1119 112.139 48.9717V16.3962C112.139 11.2559 108.109 7.08887 103.139 7.08887Z" fill="white"/>
<path fill-rule="evenodd" clip-rule="evenodd" d="M142.605 49.3131V8.96681C142.605 4.45753 138.91 0.788516 134.336 0.788516C129.762 0.788516 126.067 4.45753 126.067 8.96681V49.3131C126.067 53.8224 129.762 57.4914 134.336 57.4914C138.91 57.4914 142.605 53.8224 142.605 49.3131ZM134.336 0.000976562C129.334 0.000976562 125.279 4.01512 125.279 8.96681V49.3131C125.279 54.2648 129.334 58.2789 134.336 58.2789C139.338 58.2789 143.393 54.2648 143.393 49.3131V8.96681C143.393 4.01512 139.338 0.000976562 134.336 0.000976562Z" fill="white"/>
</svg>
