<svg width="143" height="59" viewBox="0 0 143 59" fill="none" xmlns="http://www.w3.org/2000/svg">
<path d="M0.246094 43.1586C0.246094 37.5913 4.30092 33.0781 9.3028 33.0781C14.3047 33.0781 18.3595 37.5913 18.3595 43.1586V48.1989C18.3595 53.7662 14.3047 58.2794 9.3028 58.2794C4.30092 58.2794 0.246094 53.7662 0.246094 48.1989V43.1586Z" fill="white"/>
<path d="M29.3848 35.2157C29.3848 30.1206 33.4396 25.9902 38.4415 25.9902C43.4434 25.9902 47.4982 30.1206 47.4982 35.2157V49.0539C47.4982 54.149 43.4434 58.2794 38.4415 58.2794C33.4396 58.2794 29.3848 54.149 29.3848 49.0539V35.2157Z" fill="white"/>
<path fill-rule="evenodd" clip-rule="evenodd" d="M79.7878 49.3538V27.0402C79.7878 22.5566 76.0964 18.9023 71.5186 18.9023C66.9408 18.9023 63.2495 22.5566 63.2495 27.0402V49.3538C63.2495 53.8375 66.9408 57.4917 71.5186 57.4917C76.0964 57.4917 79.7878 53.8375 79.7878 49.3538ZM71.5186 18.1147C66.5167 18.1147 62.4619 22.1108 62.4619 27.0402V49.3538C62.4619 54.2832 66.5167 58.2793 71.5186 58.2793C76.5205 58.2793 80.5753 54.2832 80.5753 49.3538V27.0402C80.5753 22.1108 76.5205 18.1147 71.5186 18.1147Z" fill="white"/>
<path fill-rule="evenodd" clip-rule="evenodd" d="M110.591 48.9717V16.3962C110.591 11.5216 106.803 7.87641 102.538 7.87641C98.2734 7.87641 94.4855 11.5216 94.4855 16.3962V48.9717C94.4855 53.8462 98.2734 57.4914 102.538 57.4914C106.803 57.4914 110.591 53.8462 110.591 48.9717ZM102.538 7.08887C97.5675 7.08887 93.5381 11.2559 93.5381 16.3962V48.9717C93.5381 54.1119 97.5675 58.2789 102.538 58.2789C107.509 58.2789 111.538 54.1119 111.538 48.9717V16.3962C111.538 11.2559 107.509 7.08887 102.538 7.08887Z" fill="white"/>
<path fill-rule="evenodd" clip-rule="evenodd" d="M142.004 49.3131V8.96681C142.004 4.45753 138.309 0.788516 133.734 0.788516C129.16 0.788516 125.465 4.45753 125.465 8.96681V49.3131C125.465 53.8224 129.16 57.4914 133.734 57.4914C138.309 57.4914 142.004 53.8224 142.004 49.3131ZM133.734 0.000976562C128.733 0.000976562 124.678 4.01512 124.678 8.96681V49.3131C124.678 54.2648 128.733 58.2789 133.734 58.2789C138.736 58.2789 142.791 54.2648 142.791 49.3131V8.96681C142.791 4.01512 138.736 0.000976562 133.734 0.000976562Z" fill="white"/>
</svg>
