<svg width="144" height="59" viewBox="0 0 144 59" fill="none" xmlns="http://www.w3.org/2000/svg">
<path d="M0.990234 43.1586C0.990234 37.5913 5.04506 33.0781 10.0469 33.0781C15.0488 33.0781 19.1036 37.5913 19.1036 43.1586V48.1989C19.1036 53.7662 15.0488 58.2794 10.0469 58.2794C5.04506 58.2794 0.990234 53.7662 0.990234 48.1989V43.1586Z" fill="white"/>
<path d="M30.1289 35.2157C30.1289 30.1206 34.1837 25.9902 39.1856 25.9902C44.1875 25.9902 48.2423 30.1206 48.2423 35.2157V49.0539C48.2423 54.149 44.1875 58.2794 39.1856 58.2794C34.1837 58.2794 30.1289 54.149 30.1289 49.0539V35.2157Z" fill="white"/>
<path d="M63.2061 27.0402C63.2061 22.1108 67.2609 18.1147 72.2628 18.1147C77.2646 18.1147 81.3195 22.1108 81.3195 27.0402V49.3538C81.3195 54.2832 77.2646 58.2793 72.2628 58.2793C67.2609 58.2793 63.2061 54.2832 63.2061 49.3538V27.0402Z" fill="white"/>
<path fill-rule="evenodd" clip-rule="evenodd" d="M111.335 48.9717V16.3962C111.335 11.5216 107.547 7.87641 103.282 7.87641C99.0175 7.87641 95.2296 11.5216 95.2296 16.3962V48.9717C95.2296 53.8462 99.0175 57.4914 103.282 57.4914C107.547 57.4914 111.335 53.8462 111.335 48.9717ZM103.282 7.08887C98.3117 7.08887 94.2822 11.2559 94.2822 16.3962V48.9717C94.2822 54.1119 98.3117 58.2789 103.282 58.2789C108.253 58.2789 112.282 54.1119 112.282 48.9717V16.3962C112.282 11.2559 108.253 7.08887 103.282 7.08887Z" fill="white"/>
<path fill-rule="evenodd" clip-rule="evenodd" d="M142.748 49.3131V8.96681C142.748 4.45753 139.053 0.788516 134.479 0.788516C129.904 0.788516 126.209 4.45753 126.209 8.96681V49.3131C126.209 53.8224 129.904 57.4914 134.479 57.4914C139.053 57.4914 142.748 53.8224 142.748 49.3131ZM134.479 0.000976562C129.477 0.000976562 125.422 4.01512 125.422 8.96681V49.3131C125.422 54.2648 129.477 58.2789 134.479 58.2789C139.48 58.2789 143.535 54.2648 143.535 49.3131V8.96681C143.535 4.01512 139.48 0.000976562 134.479 0.000976562Z" fill="white"/>
</svg>
