<svg width="143" height="59" viewBox="0 0 143 59" fill="none" xmlns="http://www.w3.org/2000/svg">
<path d="M0.391602 43.1586C0.391602 37.5913 4.44643 33.0781 9.44831 33.0781C14.4502 33.0781 18.505 37.5913 18.505 43.1586V48.1989C18.505 53.7662 14.4502 58.2794 9.44831 58.2794C4.44643 58.2794 0.391602 53.7662 0.391602 48.1989V43.1586Z" fill="white"/>
<path d="M29.5303 35.2157C29.5303 30.1206 33.5851 25.9902 38.587 25.9902C43.5889 25.9902 47.6437 30.1206 47.6437 35.2157V49.0539C47.6437 54.149 43.5889 58.2794 38.587 58.2794C33.5851 58.2794 29.5303 54.149 29.5303 49.0539V35.2157Z" fill="white"/>
<path d="M62.6074 27.0402C62.6074 22.1108 66.6622 18.1147 71.6641 18.1147C76.666 18.1147 80.7208 22.1108 80.7208 27.0402V49.3538C80.7208 54.2832 76.666 58.2793 71.6641 58.2793C66.6622 58.2793 62.6074 54.2832 62.6074 49.3538V27.0402Z" fill="white"/>
<path d="M93.6836 16.3962C93.6836 11.2559 97.713 7.08887 102.684 7.08887C107.654 7.08887 111.684 11.2559 111.684 16.3962V48.9717C111.684 54.1119 107.654 58.2789 102.684 58.2789C97.713 58.2789 93.6836 54.1119 93.6836 48.9717V16.3962Z" fill="white"/>
<path d="M124.823 8.96681C124.823 4.01512 128.878 0.000976562 133.88 0.000976562C138.882 0.000976562 142.937 4.01512 142.937 8.96681V49.3131C142.937 54.2648 138.882 58.2789 133.88 58.2789C128.878 58.2789 124.823 54.2648 124.823 49.3131V8.96681Z" fill="white"/>
</svg>
