<svg width="144" height="59" viewBox="0 0 144 59" fill="none" xmlns="http://www.w3.org/2000/svg">
<path d="M0.691406 43.1586C0.691406 37.5913 4.74623 33.0781 9.74811 33.0781C14.75 33.0781 18.8048 37.5913 18.8048 43.1586V48.1989C18.8048 53.7662 14.75 58.2794 9.74811 58.2794C4.74623 58.2794 0.691406 53.7662 0.691406 48.1989V43.1586Z" fill="white"/>
<path d="M29.8301 35.2157C29.8301 30.1206 33.8849 25.9902 38.8868 25.9902C43.8887 25.9902 47.9435 30.1206 47.9435 35.2157V49.0539C47.9435 54.149 43.8887 58.2794 38.8868 58.2794C33.8849 58.2794 29.8301 54.149 29.8301 49.0539V35.2157Z" fill="white"/>
<path d="M62.9072 27.0402C62.9072 22.1108 66.9621 18.1147 71.9639 18.1147C76.9658 18.1147 81.0206 22.1108 81.0206 27.0402V49.3538C81.0206 54.2832 76.9658 58.2793 71.9639 58.2793C66.9621 58.2793 62.9072 54.2832 62.9072 49.3538V27.0402Z" fill="white"/>
<path d="M93.9824 16.3962C93.9824 11.2559 98.0119 7.08887 102.982 7.08887C107.953 7.08887 111.982 11.2559 111.982 16.3962V48.9717C111.982 54.1119 107.953 58.2789 102.982 58.2789C98.0119 58.2789 93.9824 54.1119 93.9824 48.9717V16.3962Z" fill="white"/>
<path fill-rule="evenodd" clip-rule="evenodd" d="M142.449 49.3131V8.96681C142.449 4.45753 138.754 0.788516 134.18 0.788516C129.605 0.788516 125.911 4.45753 125.911 8.96681V49.3131C125.911 53.8224 129.605 57.4914 134.18 57.4914C138.754 57.4914 142.449 53.8224 142.449 49.3131ZM134.18 0.000976562C129.178 0.000976562 125.123 4.01512 125.123 8.96681V49.3131C125.123 54.2648 129.178 58.2789 134.18 58.2789C139.182 58.2789 143.236 54.2648 143.236 49.3131V8.96681C143.236 4.01512 139.182 0.000976562 134.18 0.000976562Z" fill="white"/>
</svg>
