<svg width="144" height="59" viewBox="0 0 144 59" fill="none" xmlns="http://www.w3.org/2000/svg">
<path d="M1.32212 43.1586C1.32212 37.806 5.20968 33.5565 9.90046 33.5565C14.5912 33.5565 18.4788 37.806 18.4788 43.1586V48.1989C18.4788 53.5515 14.5912 57.801 9.90046 57.801C5.20968 57.801 1.32212 53.5515 1.32212 48.1989V43.1586Z" stroke="white" stroke-width="0.956749"/>
<path fill-rule="evenodd" clip-rule="evenodd" d="M47.3083 49.0539V35.2157C47.3083 30.5418 43.5924 26.7778 39.0391 26.7778C34.4858 26.7778 30.77 30.5418 30.77 35.2157V49.0539C30.77 53.7278 34.4858 57.4918 39.0391 57.4918C43.5924 57.4918 47.3083 53.7278 47.3083 49.0539ZM39.0391 25.9902C34.0372 25.9902 29.9824 30.1206 29.9824 35.2157V49.0539C29.9824 54.149 34.0372 58.2794 39.0391 58.2794C44.041 58.2794 48.0958 54.149 48.0958 49.0539V35.2157C48.0958 30.1206 44.041 25.9902 39.0391 25.9902Z" fill="white"/>
<path fill-rule="evenodd" clip-rule="evenodd" d="M80.3854 49.3538V27.0402C80.3854 22.5566 76.6941 18.9023 72.1163 18.9023C67.5385 18.9023 63.8471 22.5566 63.8471 27.0402V49.3538C63.8471 53.8375 67.5385 57.4917 72.1163 57.4917C76.6941 57.4917 80.3854 53.8375 80.3854 49.3538ZM72.1163 18.1147C67.1144 18.1147 63.0596 22.1108 63.0596 27.0402V49.3538C63.0596 54.2832 67.1144 58.2793 72.1163 58.2793C77.1182 58.2793 81.173 54.2832 81.173 49.3538V27.0402C81.173 22.1108 77.1182 18.1147 72.1163 18.1147Z" fill="white"/>
<path fill-rule="evenodd" clip-rule="evenodd" d="M111.053 48.7273V16.2727C111.053 11.4163 107.265 7.78462 103 7.78462C98.7353 7.78462 94.9474 11.4163 94.9474 16.2727V48.7273C94.9474 53.5837 98.7353 57.2154 103 57.2154C107.265 57.2154 111.053 53.5837 111.053 48.7273ZM103 7C98.0294 7 94 11.1515 94 16.2727V48.7273C94 53.8485 98.0294 58 103 58C107.971 58 112 53.8485 112 48.7273V16.2727C112 11.1515 107.971 7 103 7Z" fill="white"/>
<path fill-rule="evenodd" clip-rule="evenodd" d="M142.601 49.3131V8.96681C142.601 4.45753 138.907 0.788516 134.332 0.788516C129.758 0.788516 126.063 4.45753 126.063 8.96681V49.3131C126.063 53.8224 129.758 57.4914 134.332 57.4914C138.907 57.4914 142.601 53.8224 142.601 49.3131ZM134.332 0.000976562C129.33 0.000976562 125.275 4.01512 125.275 8.96681V49.3131C125.275 54.2648 129.33 58.2789 134.332 58.2789C139.334 58.2789 143.389 54.2648 143.389 49.3131V8.96681C143.389 4.01512 139.334 0.000976562 134.332 0.000976562Z" fill="white"/>
</svg>
