<svg width="19" height="17" viewBox="0 0 19 17" fill="none" xmlns="http://www.w3.org/2000/svg">
<path fill-rule="evenodd" clip-rule="evenodd" d="M11.2443 16.2031C10.1473 16.2031 9.59875 15.603 9.3245 14.7028L6.85627 1.80035L4.38803 8.40162C4.11378 8.70168 3.83948 9.00173 3.56522 9.00173H0.822718C0.274217 9.00173 0 8.40162 0 8.10156C0 7.50145 0.548468 7.20139 0.822718 7.20139H3.01677L5.48501 1.20023C5.75926 0.300057 6.58205 0 7.4048 0C8.22755 0 8.77599 0.600116 9.05024 1.50029L11.5186 14.4028L13.9868 7.8015C14.261 7.50145 14.5353 7.20139 14.8095 7.20139H17.552C18.1005 7.20139 18.3748 7.80151 18.3748 8.10156C18.3748 8.70168 17.8263 9.00173 17.552 9.00173H15.3581L12.8898 15.0029C12.6156 15.603 12.067 16.2031 11.2443 16.2031Z" fill="#C4C4C4"/>
</svg>
