<svg width="1920" height="880" viewBox="0 0 1920 880" fill="none" xmlns="http://www.w3.org/2000/svg">
<rect x="19" width="1920" height="927" fill="#22293E"/>
<g opacity="0.4">
<path d="M-37.3593 1150.3C-17.5373 1135.36 -47.0329 783.226 588.542 750.929C1224.12 718.633 1348.09 1060.82 2228.58 829.134" stroke="white" stroke-opacity="0.1" stroke-linecap="round" stroke-linejoin="round"/>
<path d="M-49.957 1123.55C-30.1349 1108.61 -59.6305 756.478 575.944 724.182C1211.52 691.886 1335.5 1034.07 2215.98 802.387" stroke="white" stroke-opacity="0.1" stroke-linecap="round" stroke-linejoin="round"/>
<path d="M-62.5547 1096.8C-42.7326 1081.87 -72.2282 729.73 563.346 697.434C1198.92 665.138 1322.9 1007.32 2203.39 775.639" stroke="white" stroke-opacity="0.1" stroke-linecap="round" stroke-linejoin="round"/>
<path d="M-75.1523 1070.06C-55.3302 1055.12 -84.8258 702.983 550.749 670.687C1186.32 638.391 1310.3 980.575 2190.79 748.892" stroke="white" stroke-opacity="0.1" stroke-linecap="round" stroke-linejoin="round"/>
<path d="M-87.7509 1043.31C-67.9289 1028.37 -97.4245 676.235 538.15 643.939C1173.72 611.643 1297.7 953.828 2178.19 722.144" stroke="white" stroke-opacity="0.1" stroke-linecap="round" stroke-linejoin="round"/>
<path d="M-101.376 1020.07C-81.5539 1005.13 -111.049 652.992 524.525 620.696C1160.1 588.4 1284.08 930.585 2164.56 698.901" stroke="white" stroke-opacity="0.1" stroke-linecap="round" stroke-linejoin="round"/>
<path d="M-112.946 989.812C-93.1242 974.874 -122.62 622.739 512.955 590.443C1148.53 558.147 1272.51 900.331 2152.99 668.648" stroke="white" stroke-opacity="0.1" stroke-linecap="round" stroke-linejoin="round"/>
<path d="M-125.544 963.065C-105.722 948.126 -135.217 595.991 500.357 563.695C1135.93 531.399 1259.91 873.584 2140.4 641.9" stroke="white" stroke-opacity="0.1" stroke-linecap="round" stroke-linejoin="round"/>
<path d="M-138.143 936.317C-118.32 921.378 -147.816 569.243 487.759 536.947C1123.33 504.651 1247.31 846.836 2127.8 615.152" stroke="white" stroke-opacity="0.1" stroke-linecap="round" stroke-linejoin="round"/>
<path d="M-150.739 909.571C-130.917 894.632 -160.413 542.497 475.162 510.201C1110.74 477.905 1234.71 820.09 2115.2 588.406" stroke="white" stroke-opacity="0.1" stroke-linecap="round" stroke-linejoin="round"/>
<path d="M-163.337 882.823C-143.515 867.885 -173.01 515.75 462.564 483.453C1098.14 451.157 1222.12 793.342 2102.6 561.658" stroke="white" stroke-opacity="0.1" stroke-linecap="round" stroke-linejoin="round"/>
<path d="M-175.935 856.076C-156.112 841.137 -185.608 489.002 449.967 456.706C1085.54 424.41 1209.52 766.594 2090.01 534.911" stroke="white" stroke-opacity="0.1" stroke-linecap="round" stroke-linejoin="round"/>
<path d="M-188.532 829.328C-168.71 814.389 -198.206 462.254 437.369 429.958C1072.94 397.662 1196.92 739.846 2077.41 508.163" stroke="white" stroke-opacity="0.1" stroke-linecap="round" stroke-linejoin="round"/>
<path d="M-201.13 802.58C-181.308 787.642 -210.803 435.507 424.771 403.211C1060.35 370.915 1184.32 713.099 2064.81 481.416" stroke="white" stroke-opacity="0.1" stroke-linecap="round" stroke-linejoin="round"/>
<path d="M-213.728 775.833C-193.905 760.895 -223.401 408.759 412.174 376.463C1047.75 344.167 1171.72 686.352 2052.21 454.668" stroke="white" stroke-opacity="0.1" stroke-linecap="round" stroke-linejoin="round"/>
<path d="M-226.326 749.085C-206.504 734.146 -236 382.011 399.575 349.715C1035.15 317.419 1159.13 659.604 2039.61 427.92" stroke="white" stroke-opacity="0.1" stroke-linecap="round" stroke-linejoin="round"/>
<path d="M-238.924 722.337C-219.102 707.398 -248.597 355.263 386.977 322.967C1022.55 290.671 1146.53 632.856 2027.02 401.172" stroke="white" stroke-opacity="0.1" stroke-linecap="round" stroke-linejoin="round"/>
<path d="M-251.52 695.589C-231.698 680.651 -261.194 328.516 374.381 296.22C1009.96 263.923 1133.93 606.108 2014.42 374.425" stroke="white" stroke-opacity="0.1" stroke-linecap="round" stroke-linejoin="round"/>
<path d="M-264.119 668.842C-244.297 653.903 -273.793 301.768 361.782 269.472C997.357 237.176 1121.33 579.361 2001.82 347.677" stroke="white" stroke-opacity="0.1" stroke-linecap="round" stroke-linejoin="round"/>
<path d="M-276.717 642.094C-256.895 627.156 -286.39 275.021 349.184 242.724C984.759 210.428 1108.74 552.613 1989.22 320.929" stroke="white" stroke-opacity="0.1" stroke-linecap="round" stroke-linejoin="round"/>
<path d="M-289.314 615.347C-269.492 600.408 -298.988 248.273 336.587 215.977C972.161 183.681 1096.14 525.865 1976.63 294.182" stroke="white" stroke-opacity="0.1" stroke-linecap="round" stroke-linejoin="round"/>
<path d="M-301.912 588.599C-282.09 573.66 -311.586 221.525 323.989 189.229C959.564 156.933 1083.54 499.117 1964.03 267.434" stroke="white" stroke-opacity="0.1" stroke-linecap="round" stroke-linejoin="round"/>
<path d="M-314.51 561.851C-294.688 546.913 -324.183 194.778 311.391 162.482C946.966 130.186 1070.94 472.37 1951.43 240.687" stroke="white" stroke-opacity="0.1" stroke-linecap="round" stroke-linejoin="round"/>
<path d="M-327.108 535.103C-307.286 520.165 -336.782 168.03 298.793 135.734C934.367 103.438 1058.34 445.622 1938.83 213.939" stroke="white" stroke-opacity="0.1" stroke-linecap="round" stroke-linejoin="round"/>
</g>
</svg>
