<?xml version="1.0" encoding="utf-8"?>
<!-- Generator: Adobe Illustrator 23.0.0, SVG Export Plug-In . SVG Version: 6.00 Build 0)  -->
<svg version="1.1" id="Слой_1" xmlns="http://www.w3.org/2000/svg" xmlns:xlink="http://www.w3.org/1999/xlink" x="0px" y="0px"
	 viewBox="0 0 59 59" style="enable-background:new 0 0 59 59;" xml:space="preserve">
<style type="text/css">
	.st0{fill:#94CB40;}
	.st1{fill:#FF001F;}
	.st2{fill:#FFFFFF;}
</style>
<path class="st0" d="M7.9,29.6c0-12.5,10.2-22.7,22.7-22.7c4.2,0,8,1.1,11.4,3.1c-4.1-3.5-9.3-5.7-15.1-5.7
	C14.4,4.3,4.2,14.5,4.2,27c0,8.4,4.5,15.7,11.3,19.6C10.8,42.4,7.9,36.4,7.9,29.6z"/>
<path class="st1" d="M44.8,7.4c4.9,4.8,7.9,11.5,7.9,18.9c0,14.6-11.8,26.4-26.4,26.4c-5.7,0-11-1.8-15.3-4.9
	c4.8,4.7,11.3,7.5,18.4,7.5c14.6,0,26.4-11.8,26.4-26.4C55.8,20,51.4,12.2,44.8,7.4z"/>
<g>
	<path class="st2" d="M17.8,20.2l4,5.4l4-5.4h3.9l-5.8,7.9l6.3,8.5h-4l-4.4-5.8l-4.4,5.8h-3.9l6.2-8.4l-5.8-8
		C13.9,20.2,17.8,20.2,17.8,20.2z"/>
	<path class="st2" d="M39.8,23c-1.6,0-2.6,0.5-2.6,1.6c0,3.4,9.3,1.6,9.3,7.4c0,3.1-2.8,4.8-6.6,4.8c-2.7,0-5.4-1-7.4-2.6l1.4-2.6
		c1.8,1.6,4.1,2.5,6,2.5c1.8,0,3-0.6,3-1.8c0-3.4-9.3-1.4-9.3-7.2c0-2.8,2.6-4.7,6.5-4.7c2.3,0,4.7,0.6,6.2,1.7L45,24.6
		C43.1,23.5,41.1,23,39.8,23z"/>
</g>
</svg>
