<svg width="21" height="24" viewBox="0 0 21 24" fill="none" xmlns="http://www.w3.org/2000/svg">
<path fill-rule="evenodd" clip-rule="evenodd" d="M6.03129 1.03047e-05C5.9962 0.000369187 5.9635 0.00942306 5.93126 0.0272904C5.8254 0.0859685 5.79059 0.207611 5.84942 0.313736L6.89517 2.20291C4.88319 3.2498 3.52421 5.23931 3.52148 7.52261H16.7616C16.7589 5.23931 15.3999 3.2498 13.3879 2.20291L14.4337 0.313736C14.4925 0.207611 14.4577 0.0859685 14.3518 0.0272904C14.3196 0.00942306 14.2869 0.000344783 14.2518 1.03047e-05C14.1767 -0.000714639 14.1055 0.0368217 14.0654 0.109132L13.006 2.01877C12.1394 1.63436 11.1673 1.4186 10.1416 1.4186C9.11578 1.4186 8.14372 1.63436 7.2771 2.01877L6.21771 0.109132C6.17762 0.0368217 6.10641 -0.000710331 6.03129 1.03047e-05ZM7.08563 3.99438C6.78339 3.99438 6.5332 4.24457 6.5332 4.54682C6.5332 4.84906 6.78339 5.09925 7.08563 5.09925C7.38788 5.09925 7.63806 4.84906 7.63806 4.54682C7.63806 4.24457 7.38788 3.99438 7.08563 3.99438ZM13.1965 3.99438C12.8942 3.99438 12.644 4.24457 12.644 4.54682C12.644 4.84906 12.8942 5.09925 13.1965 5.09925C13.4987 5.09925 13.7489 4.84906 13.7489 4.54682C13.7489 4.24457 13.4987 3.99438 13.1965 3.99438Z" fill="#D6DDEE" fill-opacity="0.8"/>
<path d="M3.52148 8.04548V17.6414C3.52148 18.528 4.23529 19.2418 5.12194 19.2418H6.18359V22.5155C6.18359 23.3422 6.84141 24 7.66811 24C8.49481 24 9.15262 23.3422 9.15262 22.5155V19.2418H11.1305V22.5155C11.1305 23.3422 11.7883 24 12.615 24C13.4417 24 14.0995 23.3422 14.0995 22.5155V19.2418H15.1612C16.0478 19.2418 16.7616 18.528 16.7616 17.6414V8.04548H3.52148Z" fill="#D6DDEE" fill-opacity="0.8"/>
<path d="M1.48451 7.79089C0.657815 7.79089 0 8.44871 0 9.27541V15.459C0 16.2857 0.657815 16.9435 1.48451 16.9435C2.31121 16.9435 2.96903 16.2857 2.96903 15.459V9.27541C2.96903 8.44871 2.31121 7.79089 1.48451 7.79089Z" fill="#D6DDEE" fill-opacity="0.8"/>
<path d="M18.7985 7.79089C17.9718 7.79089 17.314 8.44871 17.314 9.27541V15.459C17.314 16.2857 17.9718 16.9435 18.7985 16.9435C19.6252 16.9435 20.283 16.2857 20.283 15.459V9.27541C20.283 8.44871 19.6252 7.79089 18.7985 7.79089Z" fill="#D6DDEE" fill-opacity="0.8"/>
</svg>
