<svg width="1630" height="2440" viewBox="0 0 1630 2440" fill="none" xmlns="http://www.w3.org/2000/svg">
<g opacity="0.3">
<path d="M0 1252L68 1309.09C136 1366.18 272 1480.36 408 1488.52C544 1496.68 680 1398.81 816 1366.18C952 1333.56 1088 1366.18 1224 1390.65C1360 1415.12 1496 1431.43 1564 1439.58L1632 1447.74" stroke="url(#paint0_radial_149_3421)"/>
<path d="M0 1252L68 1309.09C136 1366.18 272 1480.36 408 1488.52C544 1496.68 680 1398.81 816 1366.18C952 1333.56 1088 1366.18 1224 1390.65C1360 1415.12 1496 1431.43 1564 1439.58L1632 1447.74" stroke="url(#paint1_radial_149_3421)"/>
</g>
<g opacity="0.3">
<path d="M0 1276.12L68 1284.3C136 1292.49 272 1308.86 408 1366.17C544 1423.47 680 1521.71 816 1513.52C952 1505.33 1088 1390.73 1224 1325.24C1360 1259.75 1496 1243.37 1564 1235.19L1632 1227" stroke="url(#paint2_radial_149_3421)"/>
<path d="M0 1276.12L68 1284.3C136 1292.49 272 1308.86 408 1366.17C544 1423.47 680 1521.71 816 1513.52C952 1505.33 1088 1390.73 1224 1325.24C1360 1259.75 1496 1243.37 1564 1235.19L1632 1227" stroke="url(#paint3_radial_149_3421)"/>
</g>
<g opacity="0.3">
<path d="M0 1223L44.88 1280.17C91.12 1337.33 180.88 1451.67 272 1443.5C363.12 1435.33 452.88 1304.67 544 1263.83C635.12 1223 724.88 1272 816 1312.83C907.12 1353.67 996.88 1386.33 1088 1419C1179.12 1451.67 1268.88 1484.33 1360 1500.67C1451.12 1517 1540.88 1517 1587.12 1517H1632" stroke="url(#paint4_radial_149_3421)"/>
<path d="M0 1223L44.88 1280.17C91.12 1337.33 180.88 1451.67 272 1443.5C363.12 1435.33 452.88 1304.67 544 1263.83C635.12 1223 724.88 1272 816 1312.83C907.12 1353.67 996.88 1386.33 1088 1419C1179.12 1451.67 1268.88 1484.33 1360 1500.67C1451.12 1517 1540.88 1517 1587.12 1517H1632" stroke="url(#paint5_radial_149_3421)"/>
</g>
<path d="M1835.98 1858.03V1681.17M1811.27 1889.55V1649.66M1786.56 1876.15V1618.14M1761.88 1952.57V1649.66M1737.18 1984.06V1555.12M1712.5 1921.06V1523.63M1687.79 2047.08V1573.24M1663.08 2004.2V1460.6M1638.4 2177.78V1429.09M1440.82 1858.03V1681.17M1465.53 1889.55V1649.66M1490.21 1876.15V1618.14M1514.92 1952.57V1649.66M1539.6 1984.06V1555.12M1564.3 1921.06V1649.66M1589.01 2047.08V1573.24M1613.69 1889.55V1523.63M1045.66 1858.03V1681.17M1070.37 1889.55V1618.14M1095.05 1876.15V1699.7M1119.76 1952.57V1649.66M1144.46 1889.55V1657.09M1169.14 1921.06V1618.14M1193.85 2159.44V1479.9M1218.53 2137.03V1370M1243.24 2219V1445.63M1416.11 1889.55V1649.66M1391.43 1876.15V1618.14M1366.72 1952.57V1649.66M1342.02 1876.15V1681.17M1317.34 1921.06V1627.93M1292.63 1939.67V1573.24M1267.95 2004.2V1460.6M255.341 1858.03V1681.17M280.049 1889.55V1649.66M304.757 1876.15V1618.14M329.437 1952.57V1649.66M354.145 2147.77V1555.12M378.825 1921.06V1523.63M403.533 1952.57V1573.24M428.241 2004.2V1657.09M452.921 2123.01V1429.09M650.501 1858.03V1681.17M625.82 1889.55V1649.66M601.113 1876.15V1618.14M576.405 1952.57V1649.66M551.725 1984.06V1555.12M527.017 1921.06V1649.66M502.337 2047.08V1573.24M477.629 1974.16V1523.63M230.661 1830.65V1649.66M205.953 1876.15V1681.17M181.273 2004.2V1649.66M156.565 2123.01V1495.59M131.857 1921.06V1523.63M107.177 1952.57V1573.24M82.4693 1935.95V1657.09M57.7616 2182.13V1429.09M-139.791 1858.03V1681.17M-115.11 1889.55V1649.66M-90.4028 1876.15V1618.14M-65.7224 1952.57V1649.66M-41.0147 1876.15V1715.63M-16.3069 1921.06V1649.66M8.37345 2047.08V1573.24M33.0812 1974.16V1601.72M-164.499 2084.28V1520.05M-189.206 1876.15V1618.14M-213.887 1952.57V1649.66M1020.95 1889.55V1618.14M996.272 1876.15V1699.7M971.565 1952.57V1649.66M946.884 1889.55V1657.09M922.177 1921.06V1618.14M897.469 2066.74V1479.9M872.788 2137.03V1523.63M848.081 2080.05V1454.29M675.209 1889.55V1649.66M699.889 1876.15V1618.14M724.597 1952.57V1649.66M749.304 1876.15V1681.17M773.985 1921.06V1627.93M798.692 1939.67V1681.17M823.4 1939.67V1627.93" stroke="#242A3A" stroke-width="10" stroke-miterlimit="10"/>
<path d="M1835.98 1858.03V1681.17M1811.27 1889.55V1649.66M1786.56 1876.15V1618.14M1761.88 1952.57V1649.66M1737.18 1984.06V1555.12M1712.5 1921.06V1523.63M1687.79 2047.08V1573.24M1663.08 2004.2V1460.6M1638.4 2177.78V1429.09M1440.82 1858.03V1681.17M1465.53 1889.55V1649.66M1490.21 1876.15V1618.14M1514.92 1952.57V1649.66M1539.6 1984.06V1555.12M1564.3 1921.06V1649.66M1589.01 2047.08V1573.24M1613.69 1889.55V1523.63M1045.66 1858.03V1681.17M1070.37 1889.55V1618.14M1095.05 1876.15V1699.7M1119.76 1952.57V1649.66M1144.46 1889.55V1657.09M1169.14 1921.06V1618.14M1193.85 2159.44V1479.9M1218.53 2137.03V1370M1243.24 2219V1445.63M1416.11 1889.55V1649.66M1391.43 1876.15V1618.14M1366.72 1952.57V1649.66M1342.02 1876.15V1681.17M1317.34 1921.06V1627.93M1292.63 1939.67V1573.24M1267.95 2004.2V1460.6M255.341 1858.03V1681.17M280.049 1889.55V1649.66M304.757 1876.15V1618.14M329.437 1952.57V1649.66M354.145 2147.77V1555.12M378.825 1921.06V1523.63M403.533 1952.57V1573.24M428.241 2004.2V1657.09M452.921 2123.01V1429.09M650.501 1858.03V1681.17M625.82 1889.55V1649.66M601.113 1876.15V1618.14M576.405 1952.57V1649.66M551.725 1984.06V1555.12M527.017 1921.06V1649.66M502.337 2047.08V1573.24M477.629 1974.16V1523.63M230.661 1830.65V1649.66M205.953 1876.15V1681.17M181.273 2004.2V1649.66M156.565 2123.01V1495.59M131.857 1921.06V1523.63M107.177 1952.57V1573.24M82.4693 1935.95V1657.09M57.7616 2182.13V1429.09M-139.791 1858.03V1681.17M-115.11 1889.55V1649.66M-90.4028 1876.15V1618.14M-65.7224 1952.57V1649.66M-41.0147 1876.15V1715.63M-16.3069 1921.06V1649.66M8.37345 2047.08V1573.24M33.0812 1974.16V1601.72M-164.499 2084.28V1520.05M-189.206 1876.15V1618.14M-213.887 1952.57V1649.66M1020.95 1889.55V1618.14M996.272 1876.15V1699.7M971.565 1952.57V1649.66M946.884 1889.55V1657.09M922.177 1921.06V1618.14M897.469 2066.74V1479.9M872.788 2137.03V1523.63M848.081 2080.05V1454.29M675.209 1889.55V1649.66M699.889 1876.15V1618.14M724.597 1952.57V1649.66M749.304 1876.15V1681.17M773.985 1921.06V1627.93M798.692 1939.67V1681.17M823.4 1939.67V1627.93" stroke="url(#paint6_radial_149_3421)" stroke-width="10" stroke-miterlimit="10"/>
<path d="M1835.98 1858.03V1681.17M1811.27 1889.55V1649.66M1786.56 1876.15V1618.14M1761.88 1952.57V1649.66M1737.18 1984.06V1555.12M1712.5 1921.06V1523.63M1687.79 2047.08V1573.24M1663.08 2004.2V1460.6M1638.4 2177.78V1429.09M1440.82 1858.03V1681.17M1465.53 1889.55V1649.66M1490.21 1876.15V1618.14M1514.92 1952.57V1649.66M1539.6 1984.06V1555.12M1564.3 1921.06V1649.66M1589.01 2047.08V1573.24M1613.69 1889.55V1523.63M1045.66 1858.03V1681.17M1070.37 1889.55V1618.14M1095.05 1876.15V1699.7M1119.76 1952.57V1649.66M1144.46 1889.55V1657.09M1169.14 1921.06V1618.14M1193.85 2159.44V1479.9M1218.53 2137.03V1370M1243.24 2219V1445.63M1416.11 1889.55V1649.66M1391.43 1876.15V1618.14M1366.72 1952.57V1649.66M1342.02 1876.15V1681.17M1317.34 1921.06V1627.93M1292.63 1939.67V1573.24M1267.95 2004.2V1460.6M255.341 1858.03V1681.17M280.049 1889.55V1649.66M304.757 1876.15V1618.14M329.437 1952.57V1649.66M354.145 2147.77V1555.12M378.825 1921.06V1523.63M403.533 1952.57V1573.24M428.241 2004.2V1657.09M452.921 2123.01V1429.09M650.501 1858.03V1681.17M625.82 1889.55V1649.66M601.113 1876.15V1618.14M576.405 1952.57V1649.66M551.725 1984.06V1555.12M527.017 1921.06V1649.66M502.337 2047.08V1573.24M477.629 1974.16V1523.63M230.661 1830.65V1649.66M205.953 1876.15V1681.17M181.273 2004.2V1649.66M156.565 2123.01V1495.59M131.857 1921.06V1523.63M107.177 1952.57V1573.24M82.4693 1935.95V1657.09M57.7616 2182.13V1429.09M-139.791 1858.03V1681.17M-115.11 1889.55V1649.66M-90.4028 1876.15V1618.14M-65.7224 1952.57V1649.66M-41.0147 1876.15V1715.63M-16.3069 1921.06V1649.66M8.37345 2047.08V1573.24M33.0812 1974.16V1601.72M-164.499 2084.28V1520.05M-189.206 1876.15V1618.14M-213.887 1952.57V1649.66M1020.95 1889.55V1618.14M996.272 1876.15V1699.7M971.565 1952.57V1649.66M946.884 1889.55V1657.09M922.177 1921.06V1618.14M897.469 2066.74V1479.9M872.788 2137.03V1523.63M848.081 2080.05V1454.29M675.209 1889.55V1649.66M699.889 1876.15V1618.14M724.597 1952.57V1649.66M749.304 1876.15V1681.17M773.985 1921.06V1627.93M798.692 1939.67V1681.17M823.4 1939.67V1627.93" stroke="url(#paint7_radial_149_3421)" stroke-width="10" stroke-miterlimit="10"/>
<g filter="url(#filter0_f_149_3421)">
<circle cx="-173.5" cy="824.5" r="325.5" fill="#FD4B6C" fill-opacity="0.31"/>
</g>
<g filter="url(#filter1_f_149_3421)">
<circle cx="1858" cy="1450" r="438" fill="#FD4B6C" fill-opacity="0.31"/>
</g>
<defs>
<filter id="filter0_f_149_3421" x="-1099" y="-101" width="1851" height="1851" filterUnits="userSpaceOnUse" color-interpolation-filters="sRGB">
<feFlood flood-opacity="0" result="BackgroundImageFix"/>
<feBlend mode="normal" in="SourceGraphic" in2="BackgroundImageFix" result="shape"/>
<feGaussianBlur stdDeviation="300" result="effect1_foregroundBlur_149_3421"/>
</filter>
<filter id="filter1_f_149_3421" x="820" y="412" width="2076" height="2076" filterUnits="userSpaceOnUse" color-interpolation-filters="sRGB">
<feFlood flood-opacity="0" result="BackgroundImageFix"/>
<feBlend mode="normal" in="SourceGraphic" in2="BackgroundImageFix" result="shape"/>
<feGaussianBlur stdDeviation="300" result="effect1_foregroundBlur_149_3421"/>
</filter>
<radialGradient id="paint0_radial_149_3421" cx="0" cy="0" r="1" gradientUnits="userSpaceOnUse" gradientTransform="translate(539.89 1289.99) scale(1111.21 279.486)">
<stop stop-color="#0051FF"/>
<stop offset="0.13" stop-color="#014AE9"/>
<stop offset="0.39" stop-color="#033FC1"/>
<stop offset="0.64" stop-color="#0436A4"/>
<stop offset="0.85" stop-color="#053192"/>
<stop offset="1" stop-color="#052F8C"/>
</radialGradient>
<radialGradient id="paint1_radial_149_3421" cx="0" cy="0" r="1" gradientUnits="userSpaceOnUse" gradientTransform="translate(0 1252) rotate(8.26277) scale(1649.12 725.016)">
<stop stop-color="#4BBEFF"/>
<stop offset="1" stop-color="#2370DC"/>
</radialGradient>
<radialGradient id="paint2_radial_149_3421" cx="0" cy="0" r="1" gradientUnits="userSpaceOnUse" gradientTransform="translate(539.89 1273) scale(1111.21 338.449)">
<stop stop-color="#0051FF"/>
<stop offset="0.13" stop-color="#014AE9"/>
<stop offset="0.39" stop-color="#033FC1"/>
<stop offset="0.64" stop-color="#0436A4"/>
<stop offset="0.85" stop-color="#053192"/>
<stop offset="1" stop-color="#052F8C"/>
</radialGradient>
<radialGradient id="paint3_radial_149_3421" cx="0" cy="0" r="1" gradientUnits="userSpaceOnUse" gradientTransform="translate(0 1227) rotate(9.97393) scale(1657.04 873.774)">
<stop stop-color="#4BBEFF"/>
<stop offset="1" stop-color="#2370DC"/>
</radialGradient>
<radialGradient id="paint4_radial_149_3421" cx="0" cy="0" r="1" gradientUnits="userSpaceOnUse" gradientTransform="translate(539.89 1270.12) scale(1111.21 346.704)">
<stop stop-color="#0051FF"/>
<stop offset="0.13" stop-color="#014AE9"/>
<stop offset="0.39" stop-color="#033FC1"/>
<stop offset="0.64" stop-color="#0436A4"/>
<stop offset="0.85" stop-color="#053192"/>
<stop offset="1" stop-color="#052F8C"/>
</radialGradient>
<radialGradient id="paint5_radial_149_3421" cx="0" cy="0" r="1" gradientUnits="userSpaceOnUse" gradientTransform="translate(0 1223) rotate(10.2121) scale(1658.27 894.423)">
<stop stop-color="#4BBEFF"/>
<stop offset="1" stop-color="#2370DC"/>
</radialGradient>
<radialGradient id="paint6_radial_149_3421" cx="0" cy="0" r="1" gradientUnits="userSpaceOnUse" gradientTransform="translate(152 1480.5) rotate(46.3159) scale(923.725)">
<stop stop-color="#212737"/>
<stop offset="1" stop-color="#212737" stop-opacity="0"/>
</radialGradient>
<radialGradient id="paint7_radial_149_3421" cx="0" cy="0" r="1" gradientUnits="userSpaceOnUse" gradientTransform="translate(1086.5 1989) rotate(-129.582) scale(509.271)">
<stop stop-color="#212737"/>
<stop offset="1" stop-color="#212737" stop-opacity="0"/>
</radialGradient>
</defs>
</svg>
