<svg width="43" height="36" viewBox="0 0 43 36" fill="none" xmlns="http://www.w3.org/2000/svg">
<path d="M12.536 19.096C14.2427 19.6933 15.5653 20.6747 16.504 22.04C17.4427 23.4053 17.912 25.0693 17.912 27.032C17.912 29.592 17.1013 31.6827 15.48 33.304C13.8587 34.9253 11.8533 35.736 9.464 35.736C6.98933 35.736 4.94133 34.9253 3.32 33.304C1.69867 31.5973 0.888 29.5067 0.888 27.032C0.888 25.8373 1.016 24.6427 1.272 23.448C1.61333 22.168 2.25333 20.3333 3.192 17.944L9.208 0.0239944H17.272L12.536 19.096ZM36.728 19.096C38.4347 19.6933 39.7573 20.6747 40.696 22.04C41.6347 23.4053 42.104 25.0693 42.104 27.032C42.104 29.592 41.2933 31.6827 39.672 33.304C38.0507 34.9253 36.0453 35.736 33.656 35.736C31.1813 35.736 29.1333 34.9253 27.512 33.304C25.8907 31.5973 25.08 29.5067 25.08 27.032C25.08 25.8373 25.208 24.6427 25.464 23.448C25.8053 22.168 26.4453 20.3333 27.384 17.944L33.4 0.0239944H41.464L36.728 19.096Z" fill="#FD4B6C"/>
</svg>
