<svg width="42" height="36" viewBox="0 0 42 36" fill="none" xmlns="http://www.w3.org/2000/svg">
<path d="M8.72 0.255997C11.1093 0.255997 13.072 1.10933 14.608 2.81599C16.2293 4.43733 17.04 6.48533 17.04 8.96C17.04 10.24 16.912 11.52 16.656 12.8C16.4 13.9947 15.8453 15.744 14.992 18.048L8.848 35.968H0.784L5.52 16.896C3.89867 16.2987 2.576 15.3173 1.552 13.952C0.613334 12.5013 0.144 10.8373 0.144 8.96C0.144 6.4 0.954667 4.30933 2.576 2.688C4.19733 1.06666 6.24533 0.255997 8.72 0.255997ZM32.912 0.255997C35.3013 0.255997 37.264 1.10933 38.8 2.81599C40.4213 4.43733 41.232 6.48533 41.232 8.96C41.232 10.24 41.104 11.52 40.848 12.8C40.592 13.9947 40.0373 15.744 39.184 18.048L33.04 35.968H24.976L29.712 16.896C28.0907 16.2987 26.768 15.3173 25.744 13.952C24.8053 12.5013 24.336 10.8373 24.336 8.96C24.336 6.4 25.1467 4.30933 26.768 2.688C28.3893 1.06666 30.4373 0.255997 32.912 0.255997Z" fill="#FD4B6C"/>
</svg>
