<svg width="496" height="218" viewBox="0 0 496 218" fill="none" xmlns="http://www.w3.org/2000/svg">
<rect x="4.7446" y="1.74857" width="489.342" height="214.373" rx="13.7664" fill="url(#paint0_linear_56_53982)" stroke="url(#paint1_linear_56_53982)" stroke-width="2.50298"/>
<g opacity="0.5">
<path d="M276.485 121.714C276.746 121.796 276.95 121.933 277.098 122.127C277.245 122.317 277.319 122.552 277.319 122.832C277.319 123.229 277.163 123.535 276.85 123.751C276.542 123.962 276.09 124.068 275.495 124.068H273.137V119.541H275.365C275.921 119.541 276.346 119.646 276.642 119.858C276.941 120.069 277.091 120.356 277.091 120.718C277.091 120.938 277.037 121.134 276.928 121.306C276.824 121.479 276.676 121.614 276.485 121.714ZM274.186 120.33V121.397H275.234C275.495 121.397 275.693 121.351 275.827 121.261C275.962 121.17 276.029 121.037 276.029 120.86C276.029 120.683 275.962 120.552 275.827 120.465C275.693 120.375 275.495 120.33 275.234 120.33H274.186ZM275.417 123.279C275.695 123.279 275.903 123.233 276.042 123.143C276.186 123.052 276.257 122.912 276.257 122.722C276.257 122.347 275.977 122.16 275.417 122.16H274.186V123.279H275.417Z" fill="#8F939B"/>
<path d="M281.577 120.588V124.068H280.613V123.654C280.479 123.805 280.318 123.921 280.131 124.003C279.944 124.081 279.742 124.119 279.525 124.119C279.065 124.119 278.7 123.988 278.431 123.725C278.162 123.462 278.027 123.072 278.027 122.554V120.588H279.043V122.406C279.043 122.966 279.28 123.246 279.753 123.246C279.997 123.246 280.192 123.169 280.34 123.013C280.487 122.854 280.561 122.619 280.561 122.309V120.588H281.577Z" fill="#8F939B"/>
<path d="M282.519 119.269H283.535V124.068H282.519V119.269Z" fill="#8F939B"/>
<path d="M284.478 119.269H285.495V124.068H284.478V119.269Z" fill="#8F939B"/>
<path d="M287.617 124.119C287.326 124.119 287.042 124.085 286.764 124.016C286.486 123.943 286.264 123.852 286.099 123.744L286.438 123.02C286.594 123.119 286.783 123.201 287.005 123.266C287.226 123.326 287.443 123.356 287.656 123.356C288.086 123.356 288.301 123.251 288.301 123.039C288.301 122.94 288.243 122.869 288.125 122.826C288.008 122.783 287.828 122.746 287.585 122.716C287.298 122.673 287.061 122.623 286.874 122.567C286.688 122.511 286.525 122.412 286.386 122.27C286.251 122.127 286.184 121.925 286.184 121.662C286.184 121.442 286.247 121.248 286.373 121.08C286.503 120.907 286.69 120.774 286.933 120.679C287.181 120.584 287.472 120.537 287.806 120.537C288.054 120.537 288.299 120.565 288.542 120.621C288.79 120.672 288.994 120.746 289.155 120.841L288.816 121.558C288.507 121.386 288.171 121.3 287.806 121.3C287.589 121.3 287.426 121.33 287.317 121.39C287.209 121.451 287.155 121.528 287.155 121.623C287.155 121.731 287.213 121.806 287.331 121.849C287.448 121.893 287.635 121.933 287.891 121.972C288.177 122.02 288.412 122.071 288.594 122.127C288.777 122.179 288.935 122.276 289.07 122.419C289.205 122.561 289.272 122.759 289.272 123.013C289.272 123.229 289.207 123.421 289.076 123.589C288.946 123.757 288.755 123.889 288.503 123.984C288.256 124.074 287.96 124.119 287.617 124.119Z" fill="#8F939B"/>
<path d="M295.32 124.145L294.773 123.641C294.339 123.977 293.831 124.145 293.249 124.145C292.919 124.145 292.621 124.093 292.356 123.99C292.091 123.882 291.883 123.733 291.731 123.544C291.583 123.354 291.509 123.141 291.509 122.904C291.509 122.623 291.588 122.378 291.744 122.166C291.905 121.951 292.161 121.746 292.513 121.552C292.348 121.384 292.228 121.224 292.154 121.073C292.08 120.918 292.044 120.759 292.044 120.595C292.044 120.375 292.102 120.181 292.219 120.013C292.337 119.845 292.502 119.715 292.715 119.625C292.932 119.53 293.181 119.482 293.464 119.482C293.859 119.482 294.176 119.577 294.415 119.767C294.654 119.952 294.773 120.205 294.773 120.524C294.773 120.756 294.702 120.963 294.558 121.144C294.419 121.326 294.193 121.5 293.881 121.668L294.715 122.438C294.814 122.231 294.89 121.996 294.943 121.733L295.757 121.985C295.67 122.386 295.531 122.729 295.34 123.013L295.874 123.505L295.32 124.145ZM293.464 120.168C293.312 120.168 293.19 120.207 293.099 120.284C293.012 120.362 292.969 120.461 292.969 120.582C292.969 120.672 292.993 120.759 293.04 120.841C293.088 120.918 293.181 121.024 293.32 121.157C293.542 121.041 293.696 120.938 293.783 120.847C293.87 120.752 293.913 120.651 293.913 120.543C293.913 120.431 293.874 120.34 293.796 120.271C293.718 120.202 293.607 120.168 293.464 120.168ZM293.32 123.356C293.638 123.356 293.922 123.268 294.174 123.091L293.073 122.069C292.869 122.186 292.723 122.3 292.636 122.412C292.55 122.524 292.506 122.651 292.506 122.794C292.506 122.962 292.58 123.098 292.728 123.201C292.875 123.305 293.073 123.356 293.32 123.356Z" fill="#8F939B"/>
<path d="M301.749 121.714C302.009 121.796 302.214 121.933 302.361 122.127C302.509 122.317 302.583 122.552 302.583 122.832C302.583 123.229 302.426 123.535 302.114 123.751C301.805 123.962 301.354 124.068 300.759 124.068H298.4V119.541H300.628C301.184 119.541 301.61 119.646 301.905 119.858C302.205 120.069 302.355 120.356 302.355 120.718C302.355 120.938 302.3 121.134 302.192 121.306C302.088 121.479 301.94 121.614 301.749 121.714ZM299.449 120.33V121.397H300.498C300.759 121.397 300.956 121.351 301.091 121.261C301.225 121.17 301.293 121.037 301.293 120.86C301.293 120.683 301.225 120.552 301.091 120.465C300.956 120.375 300.759 120.33 300.498 120.33H299.449ZM300.68 123.279C300.958 123.279 301.167 123.233 301.306 123.143C301.449 123.052 301.521 122.912 301.521 122.722C301.521 122.347 301.241 122.16 300.68 122.16H299.449V123.279H300.68Z" fill="#8F939B"/>
<path d="M306.743 122.341C306.743 122.354 306.737 122.444 306.724 122.613H304.072C304.12 122.828 304.233 122.998 304.411 123.123C304.589 123.248 304.811 123.311 305.076 123.311C305.258 123.311 305.419 123.285 305.558 123.233C305.701 123.177 305.833 123.091 305.955 122.975L306.496 123.557C306.166 123.932 305.684 124.119 305.049 124.119C304.654 124.119 304.305 124.044 304.001 123.893C303.697 123.738 303.462 123.524 303.297 123.253C303.132 122.981 303.049 122.673 303.049 122.328C303.049 121.987 303.13 121.681 303.29 121.41C303.456 121.134 303.679 120.92 303.961 120.769C304.248 120.614 304.567 120.537 304.919 120.537C305.262 120.537 305.573 120.61 305.851 120.756C306.129 120.903 306.346 121.114 306.502 121.39C306.663 121.662 306.743 121.979 306.743 122.341ZM304.926 121.3C304.695 121.3 304.502 121.364 304.346 121.494C304.19 121.623 304.094 121.8 304.059 122.024H305.786C305.751 121.804 305.655 121.63 305.499 121.5C305.343 121.367 305.152 121.3 304.926 121.3Z" fill="#8F939B"/>
<path d="M308.738 120.537C309.281 120.537 309.698 120.666 309.989 120.925C310.28 121.179 310.425 121.565 310.425 122.082V124.068H309.474V123.634C309.283 123.958 308.927 124.119 308.406 124.119C308.137 124.119 307.902 124.074 307.702 123.984C307.507 123.893 307.357 123.768 307.253 123.608C307.149 123.449 307.096 123.268 307.096 123.065C307.096 122.742 307.218 122.487 307.461 122.302C307.709 122.117 308.089 122.024 308.601 122.024H309.409C309.409 121.804 309.342 121.636 309.207 121.52C309.073 121.399 308.871 121.339 308.601 121.339C308.415 121.339 308.23 121.369 308.048 121.429C307.87 121.485 307.718 121.563 307.592 121.662L307.227 120.957C307.418 120.823 307.646 120.72 307.911 120.647C308.18 120.573 308.456 120.537 308.738 120.537ZM308.66 123.44C308.834 123.44 308.988 123.402 309.123 123.324C309.257 123.242 309.353 123.123 309.409 122.968V122.613H308.712C308.295 122.613 308.087 122.748 308.087 123.02C308.087 123.149 308.137 123.253 308.237 123.33C308.341 123.404 308.482 123.44 308.66 123.44Z" fill="#8F939B"/>
<path d="M312.316 121.047C312.438 120.879 312.6 120.752 312.805 120.666C313.013 120.58 313.252 120.537 313.521 120.537V121.468C313.408 121.459 313.332 121.455 313.293 121.455C313.002 121.455 312.774 121.537 312.609 121.701C312.444 121.86 312.362 122.102 312.362 122.425V124.068H311.345V120.588H312.316V121.047Z" fill="#8F939B"/>
<path d="M315.317 124.119C315.026 124.119 314.742 124.085 314.464 124.016C314.186 123.943 313.964 123.852 313.799 123.744L314.138 123.02C314.295 123.119 314.483 123.201 314.705 123.266C314.926 123.326 315.144 123.356 315.356 123.356C315.786 123.356 316.001 123.251 316.001 123.039C316.001 122.94 315.943 122.869 315.825 122.826C315.708 122.783 315.528 122.746 315.285 122.716C314.998 122.673 314.761 122.623 314.575 122.567C314.388 122.511 314.225 122.412 314.086 122.27C313.951 122.127 313.884 121.925 313.884 121.662C313.884 121.442 313.947 121.248 314.073 121.08C314.203 120.907 314.39 120.774 314.633 120.679C314.881 120.584 315.172 120.537 315.506 120.537C315.754 120.537 315.999 120.565 316.242 120.621C316.49 120.672 316.694 120.746 316.855 120.841L316.516 121.558C316.208 121.386 315.871 121.3 315.506 121.3C315.289 121.3 315.126 121.33 315.018 121.39C314.909 121.451 314.855 121.528 314.855 121.623C314.855 121.731 314.913 121.806 315.031 121.849C315.148 121.893 315.335 121.933 315.591 121.972C315.878 122.02 316.112 122.071 316.295 122.127C316.477 122.179 316.635 122.276 316.77 122.419C316.905 122.561 316.972 122.759 316.972 123.013C316.972 123.229 316.907 123.421 316.777 123.589C316.646 123.757 316.455 123.889 316.203 123.984C315.956 124.074 315.66 124.119 315.317 124.119Z" fill="#8F939B"/>
</g>
<path d="M202.341 143.856C202.899 143.856 203.341 144.023 203.667 144.357C203.999 144.685 204.165 145.166 204.165 145.799V148.433H203.566V145.86C203.566 145.388 203.45 145.028 203.219 144.78C202.989 144.533 202.659 144.409 202.231 144.409C201.753 144.409 201.373 144.556 201.091 144.849C200.816 145.137 200.678 145.537 200.678 146.05V148.433H200.078V142.025H200.678V144.685C200.841 144.42 201.066 144.216 201.353 144.072C201.64 143.928 201.97 143.856 202.341 143.856Z" fill="#9A9CA3"/>
<path d="M205.793 143.891H206.393V148.433H205.793V143.891ZM206.097 142.897C205.973 142.897 205.869 142.854 205.785 142.768C205.7 142.681 205.658 142.578 205.658 142.457C205.658 142.342 205.7 142.241 205.785 142.155C205.869 142.068 205.973 142.025 206.097 142.025C206.221 142.025 206.325 142.068 206.409 142.155C206.494 142.235 206.536 142.333 206.536 142.448C206.536 142.575 206.494 142.681 206.409 142.768C206.325 142.854 206.221 142.897 206.097 142.897Z" fill="#9A9CA3"/>
<path d="M212.173 143.891V147.881C212.173 148.652 211.987 149.222 211.616 149.591C211.25 149.965 210.695 150.152 209.952 150.152C209.541 150.152 209.15 150.089 208.779 149.962C208.413 149.841 208.114 149.671 207.883 149.452L208.187 148.986C208.401 149.182 208.66 149.334 208.964 149.444C209.274 149.553 209.598 149.608 209.935 149.608C210.498 149.608 210.912 149.473 211.177 149.202C211.441 148.937 211.574 148.523 211.574 147.958V147.38C211.388 147.668 211.143 147.886 210.839 148.036C210.541 148.186 210.208 148.261 209.843 148.261C209.426 148.261 209.046 148.169 208.703 147.984C208.365 147.794 208.097 147.532 207.9 147.198C207.709 146.859 207.613 146.476 207.613 146.05C207.613 145.624 207.709 145.244 207.9 144.91C208.097 144.576 208.365 144.317 208.703 144.132C209.04 143.948 209.42 143.856 209.843 143.856C210.22 143.856 210.56 143.934 210.864 144.089C211.168 144.245 211.413 144.469 211.599 144.763V143.891H212.173ZM209.902 147.717C210.223 147.717 210.512 147.647 210.771 147.509C211.03 147.365 211.23 147.167 211.371 146.913C211.517 146.66 211.591 146.372 211.591 146.05C211.591 145.727 211.517 145.442 211.371 145.195C211.23 144.941 211.03 144.746 210.771 144.607C210.518 144.463 210.228 144.391 209.902 144.391C209.581 144.391 209.291 144.461 209.032 144.599C208.779 144.737 208.579 144.933 208.432 145.186C208.292 145.439 208.221 145.727 208.221 146.05C208.221 146.372 208.292 146.66 208.432 146.913C208.579 147.167 208.779 147.365 209.032 147.509C209.291 147.647 209.581 147.717 209.902 147.717Z" fill="#9A9CA3"/>
<path d="M216.113 143.856C216.67 143.856 217.112 144.023 217.439 144.357C217.771 144.685 217.937 145.166 217.937 145.799V148.433H217.337V145.86C217.337 145.388 217.222 145.028 216.991 144.78C216.76 144.533 216.431 144.409 216.003 144.409C215.525 144.409 215.145 144.556 214.863 144.849C214.587 145.137 214.449 145.537 214.449 146.05V148.433H213.85V142.025H214.449V144.685C214.613 144.42 214.838 144.216 215.125 144.072C215.412 143.928 215.741 143.856 216.113 143.856Z" fill="#9A9CA3"/>
<path d="M376.06 143.856C376.617 143.856 377.059 144.023 377.386 144.357C377.718 144.685 377.884 145.166 377.884 145.799V148.434H377.284V145.86C377.284 145.388 377.169 145.028 376.938 144.78C376.707 144.533 376.378 144.409 375.95 144.409C375.472 144.409 375.092 144.556 374.81 144.849C374.534 145.137 374.396 145.537 374.396 146.05V148.434H373.797V142.025H374.396V144.685C374.56 144.42 374.785 144.216 375.072 144.072C375.359 143.928 375.688 143.856 376.06 143.856Z" fill="#9A9CA3"/>
<path d="M379.512 143.891H380.111V148.434H379.512V143.891ZM379.816 142.898C379.692 142.898 379.588 142.854 379.503 142.768C379.419 142.682 379.377 142.578 379.377 142.457C379.377 142.342 379.419 142.241 379.503 142.155C379.588 142.068 379.692 142.025 379.816 142.025C379.94 142.025 380.044 142.068 380.128 142.155C380.213 142.235 380.255 142.333 380.255 142.448C380.255 142.575 380.213 142.682 380.128 142.768C380.044 142.854 379.94 142.898 379.816 142.898Z" fill="#9A9CA3"/>
<path d="M385.892 143.891V147.881C385.892 148.652 385.706 149.222 385.335 149.591C384.969 149.965 384.414 150.152 383.671 150.152C383.26 150.152 382.869 150.089 382.497 149.962C382.131 149.841 381.833 149.671 381.602 149.453L381.906 148.986C382.12 149.182 382.379 149.335 382.683 149.444C382.993 149.553 383.316 149.608 383.654 149.608C384.217 149.608 384.631 149.473 384.896 149.202C385.16 148.937 385.292 148.523 385.292 147.959V147.38C385.107 147.668 384.862 147.887 384.558 148.036C384.259 148.186 383.927 148.261 383.561 148.261C383.145 148.261 382.765 148.169 382.421 147.984C382.084 147.794 381.816 147.533 381.619 147.199C381.428 146.859 381.332 146.476 381.332 146.05C381.332 145.624 381.428 145.244 381.619 144.91C381.816 144.576 382.084 144.317 382.421 144.133C382.759 143.948 383.139 143.856 383.561 143.856C383.938 143.856 384.279 143.934 384.583 144.089C384.887 144.245 385.132 144.469 385.318 144.763V143.891H385.892ZM383.62 147.717C383.941 147.717 384.231 147.648 384.49 147.509C384.749 147.366 384.949 147.167 385.09 146.914C385.236 146.66 385.309 146.372 385.309 146.05C385.309 145.727 385.236 145.442 385.09 145.195C384.949 144.942 384.749 144.746 384.49 144.608C384.237 144.464 383.947 144.392 383.62 144.392C383.3 144.392 383.01 144.461 382.751 144.599C382.497 144.737 382.297 144.933 382.151 145.186C382.01 145.44 381.94 145.727 381.94 146.05C381.94 146.372 382.01 146.66 382.151 146.914C382.297 147.167 382.497 147.366 382.751 147.509C383.01 147.648 383.3 147.717 383.62 147.717Z" fill="#9A9CA3"/>
<path d="M389.832 143.856C390.389 143.856 390.831 144.023 391.157 144.357C391.49 144.685 391.656 145.166 391.656 145.799V148.434H391.056V145.86C391.056 145.388 390.941 145.028 390.71 144.78C390.479 144.533 390.15 144.409 389.722 144.409C389.243 144.409 388.863 144.556 388.582 144.849C388.306 145.137 388.168 145.537 388.168 146.05V148.434H387.569V142.025H388.168V144.685C388.331 144.42 388.557 144.216 388.844 144.072C389.131 143.928 389.46 143.856 389.832 143.856Z" fill="#9A9CA3"/>
<path d="M287.748 142.025H288.376V148.483H287.748V142.025Z" fill="#9A9CA3"/>
<path d="M292.023 148.527C291.575 148.527 291.171 148.428 290.812 148.231C290.452 148.028 290.169 147.749 289.963 147.395C289.757 147.041 289.654 146.641 289.654 146.194C289.654 145.747 289.757 145.347 289.963 144.993C290.169 144.639 290.452 144.363 290.812 144.166C291.171 143.969 291.575 143.87 292.023 143.87C292.471 143.87 292.874 143.969 293.234 144.166C293.593 144.363 293.873 144.639 294.074 144.993C294.28 145.347 294.383 145.747 294.383 146.194C294.383 146.641 294.28 147.041 294.074 147.395C293.873 147.749 293.593 148.028 293.234 148.231C292.874 148.428 292.471 148.527 292.023 148.527ZM292.023 147.978C292.353 147.978 292.648 147.906 292.907 147.761C293.172 147.61 293.378 147.398 293.526 147.125C293.673 146.853 293.747 146.542 293.747 146.194C293.747 145.846 293.673 145.536 293.526 145.263C293.378 144.99 293.172 144.781 292.907 144.636C292.648 144.485 292.353 144.41 292.023 144.41C291.693 144.41 291.395 144.485 291.13 144.636C290.871 144.781 290.664 144.99 290.511 145.263C290.364 145.536 290.29 145.846 290.29 146.194C290.29 146.542 290.364 146.853 290.511 147.125C290.664 147.398 290.871 147.61 291.13 147.761C291.395 147.906 291.693 147.978 292.023 147.978Z" fill="#9A9CA3"/>
<path d="M302.36 143.905L300.601 148.483H300.008L298.541 144.732L297.073 148.483H296.481L294.731 143.905H295.332L296.79 147.796L298.284 143.905H298.824L300.309 147.796L301.785 143.905H302.36Z" fill="#9A9CA3"/>
<mask id="mask0_56_53982" style="mask-type:alpha" maskUnits="userSpaceOnUse" x="221" y="125" width="74" height="16">
<path d="M294.244 139.069V140.399H221.185V125.77L294.244 139.069Z" fill="black"/>
</mask>
<g mask="url(#mask0_56_53982)">
<path fill-rule="evenodd" clip-rule="evenodd" d="M291.753 125.77H294.244V140.399H291.753V125.77ZM290.093 125.77H287.602V140.399H290.093V125.77ZM283.451 125.77H285.942V140.399H283.451V125.77ZM281.791 125.77H279.3V140.399H281.791V125.77ZM275.149 125.77H277.64V140.399H275.149V125.77ZM273.489 125.77H270.998V140.399H273.489V125.77ZM266.847 125.77H269.338V140.399H266.847V125.77ZM265.187 125.77H262.696V140.399H265.187V125.77ZM258.545 125.77H261.036V140.399H258.545V125.77ZM256.884 125.77H254.394V140.399H256.884V125.77ZM250.243 125.77H252.733V140.399H250.243V125.77ZM248.582 125.77H246.092V140.399H248.582V125.77ZM241.941 125.77H244.431V140.399H241.941V125.77ZM240.28 125.77H237.79V140.399H240.28V125.77ZM233.638 125.77H236.129V140.399H233.638V125.77ZM231.978 125.77H229.487V140.399H231.978V125.77ZM225.336 125.77H227.827V140.399H225.336V125.77ZM221.185 125.77H223.676V140.399H221.185V125.77Z" fill="url(#paint2_linear_56_53982)"/>
</g>
<mask id="mask1_56_53982" style="mask-type:alpha" maskUnits="userSpaceOnUse" x="294" y="125" width="75" height="16">
<path d="M294.244 139.069V140.399H368.927V125.77L294.244 139.069Z" fill="black"/>
</mask>
<g mask="url(#mask1_56_53982)">
<path fill-rule="evenodd" clip-rule="evenodd" d="M296.79 125.77H294.244V140.399H296.79V125.77ZM298.487 125.77H301.033V140.399H298.487V125.77ZM305.277 125.77H302.731V140.399H305.277V125.77ZM306.974 125.77H309.52V140.399H306.974V125.77ZM313.763 125.77H311.217V140.399H313.763V125.77ZM315.461 125.77H318.007V140.399H315.461V125.77ZM322.25 125.77H319.704V140.399H322.25V125.77ZM323.947 125.77H326.493V140.399H323.947V125.77ZM330.737 125.77H328.191V140.399H330.737V125.77ZM332.434 125.77H334.98V140.399H332.434V125.77ZM339.223 125.77H336.677V140.399H339.223V125.77ZM340.921 125.77H343.467V140.399H340.921V125.77ZM347.71 125.77H345.164V140.399H347.71V125.77ZM349.407 125.77H351.953V140.399H349.407V125.77ZM356.197 125.77H353.651V140.399H356.197V125.77ZM357.894 125.77H360.44V140.399H357.894V125.77ZM364.683 125.77H362.137V140.399H364.683V125.77ZM368.927 125.77H366.381V140.399H368.927V125.77Z" fill="url(#paint3_linear_56_53982)"/>
</g>
<path d="M357.561 127.736V140.399H360.183V127.282L357.561 127.736Z" fill="#232938"/>
<path d="M361.932 126.98V140.399H364.554V126.526L361.932 126.98Z" fill="#232938"/>
<path d="M366.303 126.224V140.399H368.925V125.77L366.303 126.224Z" fill="#232938"/>
<path fill-rule="evenodd" clip-rule="evenodd" d="M358.435 128.484V139.512H359.309V128.333L358.435 128.484ZM357.561 127.736V140.399H360.183V127.282L357.561 127.736ZM361.932 140.399V126.98L364.554 126.526V140.399H361.932ZM363.68 139.512V127.577L362.806 127.728V139.512H363.68ZM366.303 140.399V126.224L368.925 125.77V140.399H366.303ZM368.051 139.512V126.821L367.177 126.972V139.512H368.051Z" fill="#2F3545"/>
<path d="M248.783 130.759V140.399H246.274V130.306L248.783 130.759Z" fill="#232938"/>
<path d="M244.601 130.003V140.399H242.092V129.55L244.601 130.003Z" fill="#232938"/>
<path d="M240.42 129.247V140.399H237.91V128.794L240.42 129.247Z" fill="#232938"/>
<path d="M236.238 128.492V140.399H233.729V128.038L236.238 128.492Z" fill="#232938"/>
<path d="M232.056 127.736V140.399H229.547V127.282L232.056 127.736Z" fill="#232938"/>
<path d="M227.874 126.98V140.399H225.365V126.526L227.874 126.98Z" fill="#232938"/>
<path d="M223.692 126.224V140.399H221.183V125.77L223.692 126.224Z" fill="#232938"/>
<path fill-rule="evenodd" clip-rule="evenodd" d="M247.947 131.508V139.512H247.11V131.357L247.947 131.508ZM248.783 130.759V140.399H246.274V130.306L248.783 130.759ZM244.601 140.399V130.003L242.092 129.55V140.399H244.601ZM242.929 139.512V130.601L243.765 130.752V139.512H242.929ZM239.583 129.996V139.512H238.747V129.845L239.583 129.996ZM240.42 129.247V140.399H237.91V128.794L240.42 129.247ZM236.238 140.399V128.492L233.729 128.038V140.399H236.238ZM234.565 139.512V129.089L235.401 129.24V139.512H234.565ZM231.22 128.484V139.512H230.383V128.333L231.22 128.484ZM232.056 127.736V140.399H229.547V127.282L232.056 127.736ZM227.874 140.399V126.98L225.365 126.526V140.399H227.874ZM226.201 139.512V127.577L227.038 127.728V139.512H226.201ZM223.692 140.399V126.224L221.183 125.77V140.399H223.692ZM222.02 139.512V126.821L222.856 126.972V139.512H222.02Z" fill="#2F3545"/>
<path d="M253.656 126.468C253.656 127.75 252.682 128.325 251.22 130.647C249.759 128.325 248.785 127.75 248.785 126.468C248.785 125.185 249.875 124.146 251.22 124.146C252.565 124.146 253.656 125.185 253.656 126.468Z" fill="#1BC53C"/>
<path fill-rule="evenodd" clip-rule="evenodd" d="M252.282 127.709C252.675 127.162 252.803 126.864 252.803 126.468C252.803 125.634 252.095 124.958 251.22 124.958C250.346 124.958 249.638 125.634 249.638 126.468C249.638 126.864 249.766 127.162 250.158 127.709C250.264 127.856 250.39 128.023 250.534 128.212C250.734 128.476 250.966 128.783 251.22 129.14C251.475 128.783 251.707 128.476 251.907 128.212C252.05 128.023 252.177 127.856 252.282 127.709ZM251.727 129.879C252.042 129.422 252.327 129.046 252.575 128.719C253.252 127.825 253.656 127.293 253.656 126.468C253.656 125.185 252.565 124.146 251.22 124.146C249.875 124.146 248.785 125.185 248.785 126.468C248.785 127.293 249.189 127.825 249.866 128.719C250.114 129.046 250.399 129.422 250.714 129.879C250.875 130.113 251.044 130.367 251.22 130.647C251.397 130.367 251.566 130.113 251.727 129.879Z" fill="white"/>
<path d="M359.183 123.217C359.183 124.499 358.209 125.074 356.748 127.396C355.287 125.074 354.312 124.499 354.312 123.217C354.312 121.934 355.403 120.895 356.748 120.895C358.093 120.895 359.183 121.934 359.183 123.217Z" fill="#D64730"/>
<path fill-rule="evenodd" clip-rule="evenodd" d="M357.81 124.458C358.202 123.911 358.331 123.613 358.331 123.217C358.331 122.383 357.622 121.708 356.748 121.708C355.874 121.708 355.165 122.383 355.165 123.217C355.165 123.613 355.294 123.911 355.686 124.458C355.791 124.605 355.918 124.772 356.061 124.961C356.261 125.225 356.493 125.532 356.748 125.889C357.002 125.532 357.235 125.225 357.434 124.961C357.578 124.772 357.704 124.605 357.81 124.458ZM357.254 126.629C357.569 126.172 357.854 125.796 358.103 125.468C358.78 124.574 359.183 124.042 359.183 123.217C359.183 121.934 358.093 120.895 356.748 120.895C355.403 120.895 354.312 121.934 354.312 123.217C354.312 124.042 354.716 124.574 355.393 125.468C355.641 125.796 355.926 126.172 356.242 126.629C356.403 126.862 356.572 127.117 356.748 127.396C356.924 127.117 357.093 126.862 357.254 126.629Z" fill="white"/>
<g opacity="0.5">
<path d="M354.853 160.372H352.689V159.417H358.229V160.372H356.065V165.494H354.853V160.372Z" fill="white"/>
<path d="M360.018 161.535C360.353 161.049 360.944 160.806 361.789 160.806V161.839C361.69 161.822 361.6 161.813 361.519 161.813C361.065 161.813 360.711 161.938 360.456 162.186C360.201 162.429 360.074 162.782 360.074 163.245V165.494H358.908V160.858H360.018V161.535Z" fill="white"/>
<path d="M367.414 163.202C367.414 163.277 367.408 163.384 367.395 163.523H363.488C363.557 163.865 363.734 164.137 364.02 164.339C364.312 164.536 364.672 164.634 365.101 164.634C365.648 164.634 366.099 164.466 366.453 164.131L367.078 164.799C366.854 165.048 366.572 165.236 366.23 165.363C365.888 165.491 365.502 165.554 365.073 165.554C364.526 165.554 364.045 165.453 363.628 165.251C363.211 165.048 362.888 164.767 362.658 164.409C362.434 164.044 362.322 163.633 362.322 163.176C362.322 162.725 362.431 162.319 362.649 161.961C362.873 161.596 363.18 161.313 363.572 161.11C363.964 160.907 364.405 160.806 364.896 160.806C365.381 160.806 365.813 160.907 366.192 161.11C366.578 161.307 366.876 161.587 367.088 161.952C367.305 162.311 367.414 162.727 367.414 163.202ZM364.896 161.674C364.523 161.674 364.206 161.778 363.945 161.987C363.69 162.189 363.535 162.461 363.479 162.803H366.304C366.255 162.467 366.102 162.195 365.847 161.987C365.592 161.778 365.275 161.674 364.896 161.674Z" fill="white"/>
<path d="M371.359 160.806C371.987 160.806 372.491 160.977 372.87 161.318C373.249 161.66 373.439 162.166 373.439 162.837V165.494H372.273V162.976C372.273 162.571 372.17 162.267 371.965 162.065C371.76 161.857 371.468 161.752 371.089 161.752C370.66 161.752 370.321 161.874 370.072 162.117C369.824 162.354 369.699 162.699 369.699 163.15V165.494H368.534V160.858H369.643V161.457C369.836 161.243 370.078 161.081 370.371 160.971C370.663 160.861 370.992 160.806 371.359 160.806Z" fill="white"/>
<path d="M379.84 159.053V165.494H378.721V164.895C378.528 165.115 378.289 165.279 378.003 165.389C377.723 165.499 377.412 165.554 377.07 165.554C376.592 165.554 376.16 165.456 375.774 165.259C375.395 165.062 375.097 164.785 374.879 164.426C374.661 164.061 374.553 163.645 374.553 163.176C374.553 162.707 374.661 162.293 374.879 161.935C375.097 161.576 375.395 161.298 375.774 161.101C376.16 160.905 376.592 160.806 377.07 160.806C377.4 160.806 377.701 160.858 377.975 160.962C378.248 161.067 378.482 161.223 378.674 161.431V159.053H379.84ZM377.21 164.626C377.49 164.626 377.742 164.568 377.966 164.452C378.189 164.33 378.367 164.16 378.497 163.94C378.628 163.72 378.693 163.465 378.693 163.176C378.693 162.887 378.628 162.632 378.497 162.412C378.367 162.192 378.189 162.024 377.966 161.909C377.742 161.787 377.49 161.726 377.21 161.726C376.93 161.726 376.679 161.787 376.455 161.909C376.231 162.024 376.054 162.192 375.923 162.412C375.793 162.632 375.728 162.887 375.728 163.176C375.728 163.465 375.793 163.72 375.923 163.94C376.054 164.16 376.231 164.33 376.455 164.452C376.679 164.568 376.93 164.626 377.21 164.626Z" fill="white"/>
<path d="M382.903 165.554C382.499 165.554 382.105 165.505 381.719 165.407C381.334 165.308 381.026 165.184 380.796 165.034L381.244 164.209C381.467 164.348 381.735 164.461 382.045 164.547C382.363 164.628 382.673 164.669 382.978 164.669C383.674 164.669 384.022 164.498 384.022 164.157C384.022 163.995 383.932 163.882 383.752 163.818C383.578 163.755 383.295 163.694 382.903 163.636C382.493 163.578 382.157 163.512 381.896 163.436C381.641 163.361 381.418 163.231 381.225 163.046C381.038 162.855 380.945 162.591 380.945 162.256C380.945 161.816 381.141 161.466 381.533 161.206C381.93 160.939 382.465 160.806 383.137 160.806C383.478 160.806 383.82 160.844 384.162 160.919C384.504 160.989 384.784 161.084 385.002 161.206L384.554 162.03C384.131 161.799 383.656 161.683 383.127 161.683C382.785 161.683 382.524 161.732 382.344 161.83C382.17 161.923 382.083 162.048 382.083 162.204C382.083 162.377 382.176 162.502 382.363 162.577C382.555 162.646 382.851 162.713 383.248 162.777C383.646 162.835 383.973 162.901 384.228 162.976C384.482 163.052 384.7 163.179 384.88 163.358C385.067 163.538 385.16 163.792 385.16 164.122C385.16 164.556 384.958 164.903 384.554 165.164C384.15 165.424 383.6 165.554 382.903 165.554Z" fill="white"/>
</g>
<path fill-rule="evenodd" clip-rule="evenodd" d="M367.888 178.051C367.439 178.051 367.075 178.415 367.075 178.865C367.075 179.315 367.439 179.679 367.888 179.679C368.337 179.679 368.701 179.315 368.701 178.865C368.701 178.415 368.337 178.051 367.888 178.051ZM367.346 178.865C367.346 178.565 367.588 178.322 367.888 178.322C368.187 178.322 368.43 178.565 368.43 178.865C368.43 179.165 368.187 179.408 367.888 179.408C367.588 179.408 367.346 179.165 367.346 178.865Z" fill="#D5CE41"/>
<path fill-rule="evenodd" clip-rule="evenodd" d="M364.642 178.051C364.193 178.051 363.829 178.415 363.829 178.865C363.829 179.315 364.193 179.679 364.642 179.679C365.091 179.679 365.455 179.315 365.455 178.865C365.455 178.415 365.091 178.051 364.642 178.051ZM364.1 178.865C364.1 178.565 364.342 178.322 364.642 178.322C364.941 178.322 365.184 178.565 365.184 178.865C365.184 179.165 364.941 179.408 364.642 179.408C364.342 179.408 364.1 179.165 364.1 178.865Z" fill="#D5CE41"/>
<path fill-rule="evenodd" clip-rule="evenodd" d="M371.136 178.051C370.687 178.051 370.323 178.415 370.323 178.865C370.323 179.315 370.687 179.679 371.136 179.679C371.585 179.679 371.949 179.315 371.949 178.865C371.949 178.415 371.585 178.051 371.136 178.051ZM370.594 178.865C370.594 178.565 370.837 178.322 371.136 178.322C371.435 178.322 371.678 178.565 371.678 178.865C371.678 179.165 371.435 179.408 371.136 179.408C370.837 179.408 370.594 179.165 370.594 178.865Z" fill="#8F939B"/>
<path d="M371.477 172.229C371.747 172.401 371.747 172.83 371.477 173.001L365.794 176.617C365.463 176.827 365.077 176.463 365.214 176.071L366.421 172.615L365.214 169.159C365.077 168.767 365.463 168.403 365.794 168.613L371.477 172.229Z" fill="#D5CE41"/>
<path d="M41.0515 112.564V120.336H39.9522V113.53H38.1979V112.564H41.0515ZM46.1492 114.396C46.8968 114.396 47.489 114.614 47.9257 115.051C48.3699 115.48 48.5919 116.113 48.5919 116.949V120.336H47.526V117.071C47.526 116.502 47.3891 116.072 47.1152 115.783C46.8413 115.495 46.449 115.35 45.9382 115.35C45.3609 115.35 44.9056 115.521 44.5725 115.861C44.2394 116.194 44.0729 116.675 44.0729 117.305V120.336H43.007V112.097H44.0729V115.284C44.2949 115.003 44.5836 114.784 44.9389 114.629C45.3016 114.473 45.7051 114.396 46.1492 114.396Z" fill="#606572"/>
<path d="M37.6423 69.1128C38.7526 69.1128 39.5669 69.3237 40.085 69.7456C40.6106 70.1602 40.8734 70.7301 40.8734 71.4556C40.8734 71.9145 40.7624 72.329 40.5403 72.6991C40.3256 73.0618 39.9962 73.3505 39.5521 73.5652C39.1154 73.7725 38.575 73.8761 37.931 73.8761C37.3832 73.8761 36.854 73.7947 36.3432 73.6318C35.8325 73.4616 35.4105 73.2284 35.0774 72.9323L35.5882 72.0551C35.8547 72.3068 36.1952 72.5104 36.6097 72.6658C37.0242 72.8139 37.461 72.8879 37.9199 72.8879C38.5047 72.8879 38.9562 72.7658 39.2745 72.5215C39.6002 72.2698 39.763 71.9293 39.763 71.5C39.763 71.0336 39.5854 70.682 39.2301 70.4452C38.8748 70.2009 38.2678 70.0787 37.4091 70.0787H35.6437L36.0545 66.0149H40.4404V66.9809H36.9872L36.7763 69.1128H37.6423ZM49.4143 67.847C50.1545 67.847 50.7393 68.0616 51.1686 68.491C51.6053 68.9203 51.8237 69.5569 51.8237 70.4007V73.7873H50.7578V70.5229C50.7578 69.9529 50.6245 69.5236 50.3581 69.2349C50.099 68.9462 49.7252 68.8019 49.2366 68.8019C48.6963 68.8019 48.2669 68.9721 47.9486 69.3126C47.6303 69.6457 47.4712 70.1269 47.4712 70.7561V73.7873H46.4053V70.5229C46.4053 69.9529 46.272 69.5236 46.0056 69.2349C45.7465 68.9462 45.3727 68.8019 44.8841 68.8019C44.3438 68.8019 43.9144 68.9721 43.5961 69.3126C43.2778 69.6457 43.1187 70.1269 43.1187 70.7561V73.7873H42.0528V67.9025H43.0743V68.7797C43.2889 68.4762 43.5702 68.2467 43.9181 68.0912C44.266 67.9284 44.6621 67.847 45.1062 67.847C45.5651 67.847 45.9722 67.9395 46.3276 68.1246C46.6829 68.3096 46.9567 68.5798 47.1492 68.9351C47.3713 68.5946 47.6785 68.3281 48.0708 68.1357C48.4705 67.9432 48.9183 67.847 49.4143 67.847Z" fill="#606572"/>
<path d="M43.745 160.704H42.2682V162.614H41.1912V160.704H36.872V159.927L40.847 154.842H42.0462L38.2377 159.749H41.2245V158.062H42.2682V159.749H43.745V160.704ZM47.8082 156.674C48.5558 156.674 49.148 156.892 49.5847 157.329C50.0289 157.758 50.2509 158.391 50.2509 159.228V162.614H49.185V159.35C49.185 158.78 49.0481 158.35 48.7742 158.062C48.5003 157.773 48.108 157.629 47.5972 157.629C47.0199 157.629 46.5646 157.799 46.2315 158.139C45.8984 158.472 45.7319 158.954 45.7319 159.583V162.614H44.666V154.375H45.7319V157.562C45.9539 157.281 46.2426 157.062 46.5979 156.907C46.9606 156.751 47.3641 156.674 47.8082 156.674Z" fill="#606572"/>
<g filter="url(#filter0_i_56_53982)">
<path d="M442.162 38.6941C442.162 36.3598 444.086 34.4676 446.46 34.4676H463.65C466.024 34.4676 467.948 36.3598 467.948 38.6941V183.453H442.162V38.6941Z" fill="#1C1F2F"/>
</g>
<path d="M442.162 103.23H467.948V183.453H442.162V103.23Z" fill="#2D9CDB"/>
<path opacity="0.2" fill-rule="evenodd" clip-rule="evenodd" d="M467.948 51.6581H442.162V50.2256H467.948V51.6581Z" fill="#2D9CDB"/>
<path opacity="0.2" fill-rule="evenodd" clip-rule="evenodd" d="M467.948 64.5512H442.162V63.1186H467.948V64.5512Z" fill="#2D9CDB"/>
<path opacity="0.2" fill-rule="evenodd" clip-rule="evenodd" d="M467.948 77.4441H442.162V76.0116H467.948V77.4441Z" fill="#2D9CDB"/>
<path opacity="0.2" fill-rule="evenodd" clip-rule="evenodd" d="M467.948 89.4158H442.162V87.9833H467.948V89.4158Z" fill="#2D9CDB"/>
<path fill-rule="evenodd" clip-rule="evenodd" d="M467.948 104.663H442.162V103.23H467.948V104.663Z" fill="#2D9CDB"/>
<path fill-rule="evenodd" clip-rule="evenodd" d="M467.948 117.556H442.162V116.123H467.948V117.556Z" fill="#2D9CDB"/>
<path fill-rule="evenodd" clip-rule="evenodd" d="M467.948 131.881H442.162V130.448H467.948V131.881Z" fill="#2D9CDB"/>
<path fill-rule="evenodd" clip-rule="evenodd" d="M467.948 144.774H442.162V143.342H467.948V144.774Z" fill="#2D9CDB"/>
<path fill-rule="evenodd" clip-rule="evenodd" d="M467.948 157.667H442.162V156.234H467.948V157.667Z" fill="#2D9CDB"/>
<path fill-rule="evenodd" clip-rule="evenodd" d="M467.948 170.56H442.162V169.127H467.948V170.56Z" fill="#2D9CDB"/>
<path d="M447.108 25.2663C447.784 25.2663 448.321 25.4723 448.718 25.8844C449.121 26.2893 449.323 26.8825 449.323 27.664V30.9143H448.594V27.7386C448.594 27.1561 448.454 26.712 448.174 26.4065C447.894 26.101 447.494 25.9483 446.974 25.9483C446.393 25.9483 445.932 26.1295 445.59 26.4918C445.255 26.847 445.087 27.3408 445.087 27.9731V30.9143H444.359V23.0071H445.087V26.2893C445.286 25.9625 445.559 25.7103 445.908 25.5327C446.256 25.3551 446.656 25.2663 447.108 25.2663Z" fill="#9A9CA3"/>
<path d="M451.299 25.3089H452.027V30.9143H451.299V25.3089ZM451.668 24.0834C451.518 24.0834 451.391 24.0301 451.289 23.9235C451.186 23.817 451.135 23.6891 451.135 23.5399C451.135 23.3978 451.186 23.2735 451.289 23.1669C451.391 23.0604 451.518 23.0071 451.668 23.0071C451.819 23.0071 451.945 23.0604 452.048 23.1669C452.15 23.2664 452.202 23.3872 452.202 23.5293C452.202 23.6856 452.15 23.817 452.048 23.9235C451.945 24.0301 451.819 24.0834 451.668 24.0834Z" fill="#9A9CA3"/>
<path d="M459.047 25.3089V30.2323C459.047 31.1842 458.821 31.8876 458.37 32.3423C457.926 32.804 457.252 33.0349 456.35 33.0349C455.851 33.0349 455.376 32.9568 454.925 32.8005C454.48 32.6513 454.118 32.4417 453.838 32.1718L454.207 31.5963C454.467 31.8379 454.781 32.0261 455.15 32.1611C455.526 32.2961 455.919 32.3636 456.33 32.3636C457.013 32.3636 457.516 32.1966 457.837 31.8627C458.158 31.5359 458.319 31.0244 458.319 30.3282V29.6142C458.093 29.9694 457.796 30.2394 457.427 30.4241C457.064 30.6088 456.661 30.7011 456.217 30.7011C455.711 30.7011 455.249 30.5875 454.832 30.3601C454.422 30.1257 454.098 29.8024 453.858 29.3904C453.626 28.9712 453.51 28.4988 453.51 27.9731C453.51 27.4473 453.626 26.9784 453.858 26.5664C454.098 26.1543 454.422 25.8346 454.832 25.6073C455.243 25.3799 455.704 25.2663 456.217 25.2663C456.675 25.2663 457.088 25.3622 457.458 25.554C457.827 25.7458 458.124 26.0229 458.35 26.3852V25.3089H459.047ZM456.289 30.0298C456.678 30.0298 457.03 29.9445 457.345 29.774C457.659 29.5964 457.902 29.3513 458.073 29.0387C458.251 28.7261 458.339 28.3709 458.339 27.9731C458.339 27.5752 458.251 27.2235 458.073 26.9181C457.902 26.6055 457.659 26.3639 457.345 26.1934C457.037 26.0158 456.685 25.927 456.289 25.927C455.899 25.927 455.547 26.0122 455.232 26.1827C454.925 26.3533 454.682 26.5948 454.504 26.9074C454.333 27.22 454.248 27.5752 454.248 27.9731C454.248 28.3709 454.333 28.7261 454.504 29.0387C454.682 29.3513 454.925 29.5964 455.232 29.774C455.547 29.9445 455.899 30.0298 456.289 30.0298Z" fill="#9A9CA3"/>
<path d="M463.831 25.2663C464.508 25.2663 465.045 25.4723 465.441 25.8844C465.845 26.2893 466.046 26.8825 466.046 27.664V30.9143H465.318V27.7386C465.318 27.1561 465.178 26.712 464.898 26.4065C464.617 26.101 464.217 25.9483 463.698 25.9483C463.117 25.9483 462.655 26.1295 462.314 26.4918C461.979 26.847 461.811 27.3408 461.811 27.9731V30.9143H461.083V23.0071H461.811V26.2893C462.009 25.9625 462.283 25.7103 462.631 25.5327C462.98 25.3551 463.38 25.2663 463.831 25.2663Z" fill="#9A9CA3"/>
<path d="M447.068 186.318H447.825V194.856H447.068V186.318Z" fill="#9A9CA3"/>
<path d="M452.223 194.913C451.683 194.913 451.196 194.783 450.763 194.522C450.329 194.254 449.988 193.885 449.739 193.417C449.491 192.95 449.366 192.42 449.366 191.83C449.366 191.239 449.491 190.71 449.739 190.242C449.988 189.774 450.329 189.409 450.763 189.149C451.196 188.888 451.683 188.757 452.223 188.757C452.763 188.757 453.25 188.888 453.684 189.149C454.117 189.409 454.455 189.774 454.697 190.242C454.945 190.71 455.07 191.239 455.07 191.83C455.07 192.42 454.945 192.95 454.697 193.417C454.455 193.885 454.117 194.254 453.684 194.522C453.25 194.783 452.763 194.913 452.223 194.913ZM452.223 194.188C452.621 194.188 452.977 194.093 453.289 193.901C453.609 193.701 453.858 193.421 454.036 193.061C454.213 192.7 454.302 192.29 454.302 191.83C454.302 191.369 454.213 190.959 454.036 190.598C453.858 190.238 453.609 189.962 453.289 189.77C452.977 189.57 452.621 189.471 452.223 189.471C451.825 189.471 451.466 189.57 451.147 189.77C450.834 189.962 450.585 190.238 450.4 190.598C450.223 190.959 450.134 191.369 450.134 191.83C450.134 192.29 450.223 192.7 450.4 193.061C450.585 193.421 450.834 193.701 451.147 193.901C451.466 194.093 451.825 194.188 452.223 194.188Z" fill="#9A9CA3"/>
<path d="M464.689 188.803L462.567 194.856H461.853L460.083 189.896L458.314 194.856H457.6L455.489 188.803H456.214L457.973 193.947L459.774 188.803H460.425L462.216 193.947L463.996 188.803H464.689Z" fill="#9A9CA3"/>
<g style="mix-blend-mode:screen">
<path d="M442.162 103.23H467.948V104.663H442.162V103.23Z" fill="#2D9CDB"/>
</g>
<g filter="url(#filter1_d_56_53982)">
<path fill-rule="evenodd" clip-rule="evenodd" d="M56.2857 158.519V28.7364C56.2857 21.5687 50.5318 15.7582 43.4339 15.7582C36.336 15.7582 30.5821 21.5687 30.5821 28.7364V158.519C30.5821 165.687 36.336 171.497 43.4339 171.497C50.5318 171.497 56.2857 165.687 56.2857 158.519ZM43.4339 14.4603C35.6262 14.4603 29.2969 20.8519 29.2969 28.7364V158.519C29.2969 166.403 35.6262 172.795 43.4339 172.795C51.2416 172.795 57.5709 166.403 57.5709 158.519V28.7364C57.5709 20.8519 51.2416 14.4603 43.4339 14.4603Z" fill="#2F3545"/>
</g>
<g filter="url(#filter2_d_56_53982)">
<path d="M29.2969 28.5973C29.2969 20.7897 35.6262 14.4603 43.4339 14.4603V14.4603C51.2416 14.4603 57.5709 20.7897 57.5709 28.5973V28.5973C57.5709 36.405 51.2416 42.7344 43.4339 42.7344V42.7344C35.6262 42.7344 29.2969 36.405 29.2969 28.5973V28.5973Z" fill="#353C4E"/>
</g>
<g filter="url(#filter3_d_56_53982)">
<path fill-rule="evenodd" clip-rule="evenodd" d="M30.5821 28.5973C30.5821 35.6952 36.336 41.4492 43.4339 41.4492C50.5318 41.4492 56.2857 35.6952 56.2857 28.5973C56.2857 21.4995 50.5318 15.7455 43.4339 15.7455C36.336 15.7455 30.5821 21.4995 30.5821 28.5973ZM43.4339 14.4603C35.6262 14.4603 29.2969 20.7897 29.2969 28.5973C29.2969 36.405 35.6262 42.7344 43.4339 42.7344C51.2416 42.7344 57.5709 36.405 57.5709 28.5973C57.5709 20.7897 51.2416 14.4603 43.4339 14.4603Z" fill="#969BA5"/>
</g>
<path fill-rule="evenodd" clip-rule="evenodd" d="M41.4101 179.907C36.98 179.907 33.3926 183.507 33.3926 187.942C33.3926 192.377 36.98 195.977 41.4101 195.977C45.8482 195.977 49.4437 192.377 49.4437 187.942C49.4437 183.507 45.8482 179.907 41.4101 179.907ZM41.4181 194.37C37.8708 194.37 34.9977 191.493 34.9977 187.942C34.9977 184.391 37.8708 181.514 41.4181 181.514C44.9654 181.514 47.8386 184.391 47.8386 187.942C47.8386 191.493 44.9654 194.37 41.4181 194.37ZM40.6156 183.925H41.8194V188.143L45.4309 190.288L44.829 191.276L40.6156 188.745V183.925Z" fill="#5F6471"/>
<path d="M274.013 89.2216H270.127L269.386 91.0153H267.401L271.131 82.645H273.045L276.787 91.0153H274.754L274.013 89.2216ZM273.403 87.7509L272.076 84.5463L270.749 87.7509H273.403ZM280.96 91.1587C279.764 91.1587 278.832 90.8279 278.162 90.1663C277.5 89.5046 277.17 88.56 277.17 87.3324V82.645H279.107V87.2606C279.107 88.7593 279.728 89.5086 280.972 89.5086C281.578 89.5086 282.04 89.3293 282.359 88.9705C282.678 88.6038 282.837 88.0339 282.837 87.2606V82.645H284.751V87.3324C284.751 88.56 284.416 89.5046 283.746 90.1663C283.085 90.8279 282.156 91.1587 280.96 91.1587ZM286.426 82.645H290.228C291.137 82.645 291.938 82.8204 292.632 83.1712C293.333 83.514 293.875 84.0002 294.258 84.63C294.648 85.2597 294.844 85.9931 294.844 86.8302C294.844 87.6672 294.648 88.4006 294.258 89.0303C293.875 89.6601 293.333 90.1503 292.632 90.5011C291.938 90.8439 291.137 91.0153 290.228 91.0153H286.426V82.645ZM290.132 89.4249C290.969 89.4249 291.635 89.1937 292.129 88.7314C292.632 88.2611 292.883 87.6273 292.883 86.8302C292.883 86.033 292.632 85.4032 292.129 84.9409C291.635 84.4706 290.969 84.2354 290.132 84.2354H288.363V89.4249H290.132ZM299.784 91.1587C298.588 91.1587 297.656 90.8279 296.986 90.1663C296.324 89.5046 295.994 88.56 295.994 87.3324V82.645H297.931V87.2606C297.931 88.7593 298.553 89.5086 299.796 89.5086C300.402 89.5086 300.864 89.3293 301.183 88.9705C301.502 88.6038 301.661 88.0339 301.661 87.2606V82.645H303.575V87.3324C303.575 88.56 303.24 89.5046 302.57 90.1663C301.909 90.8279 300.98 91.1587 299.784 91.1587ZM308 91.1587C307.338 91.1587 306.697 91.0711 306.075 90.8957C305.461 90.7123 304.967 90.4772 304.592 90.1902L305.25 88.7314C305.608 88.9945 306.035 89.2057 306.529 89.3651C307.023 89.5246 307.518 89.6043 308.012 89.6043C308.562 89.6043 308.969 89.5246 309.232 89.3651C309.495 89.1977 309.626 88.9785 309.626 88.7075C309.626 88.5082 309.546 88.3448 309.387 88.2172C309.236 88.0817 309.036 87.9741 308.789 87.8944C308.55 87.8146 308.223 87.727 307.809 87.6313C307.171 87.4798 306.649 87.3284 306.242 87.1769C305.836 87.0255 305.485 86.7823 305.19 86.4475C304.903 86.1127 304.759 85.6663 304.759 85.1083C304.759 84.622 304.891 84.1836 305.154 83.793C305.417 83.3944 305.812 83.0795 306.338 82.8483C306.872 82.6171 307.522 82.5016 308.287 82.5016C308.821 82.5016 309.343 82.5653 309.853 82.6929C310.364 82.8204 310.81 83.0038 311.193 83.2429L310.595 84.7137C309.821 84.2752 309.048 84.056 308.275 84.056C307.733 84.056 307.33 84.1437 307.067 84.3191C306.812 84.4945 306.685 84.7256 306.685 85.0126C306.685 85.2996 306.832 85.5148 307.127 85.6583C307.43 85.7938 307.888 85.9294 308.502 86.0649C309.14 86.2163 309.662 86.3678 310.069 86.5193C310.475 86.6707 310.822 86.9099 311.109 87.2367C311.404 87.5635 311.551 88.006 311.551 88.564C311.551 89.0423 311.416 89.4807 311.145 89.8793C310.882 90.2699 310.483 90.5808 309.949 90.812C309.415 91.0432 308.765 91.1587 308 91.1587ZM312.636 82.645H316.438C317.347 82.645 318.148 82.8204 318.842 83.1712C319.543 83.514 320.085 84.0002 320.468 84.63C320.859 85.2597 321.054 85.9931 321.054 86.8302C321.054 87.6672 320.859 88.4006 320.468 89.0303C320.085 89.6601 319.543 90.1503 318.842 90.5011C318.148 90.8439 317.347 91.0153 316.438 91.0153H312.636V82.645ZM316.343 89.4249C317.18 89.4249 317.845 89.1937 318.34 88.7314C318.842 88.2611 319.093 87.6273 319.093 86.8302C319.093 86.033 318.842 85.4032 318.34 84.9409C317.845 84.4706 317.18 84.2354 316.343 84.2354H314.573V89.4249H316.343Z" fill="#91949B"/>
<g filter="url(#filter4_d_56_53982)">
<path d="M224.993 116.017C222.84 116.017 221.084 114.344 221.192 112.285C221.947 97.8361 227.072 83.8783 235.985 72.1311L242.293 76.5196C234.348 86.9911 229.747 99.4142 228.999 112.285C228.88 114.344 227.146 116.017 224.993 116.017V116.017Z" fill="url(#paint4_linear_56_53982)"/>
</g>
<g filter="url(#filter5_d_56_53982)">
<path fill-rule="evenodd" clip-rule="evenodd" d="M236.184 73.3134C227.689 84.7834 222.804 98.322 222.073 112.327C221.992 113.876 223.314 115.172 224.993 115.172C226.647 115.172 228.024 113.88 228.119 112.238C228.86 99.4856 233.336 87.1672 241.066 76.7095L236.184 73.3134ZM235.985 72.1311C235.985 72.1311 235.985 72.131 235.985 72.1311C235.812 72.3589 235.641 72.5876 235.471 72.817C226.875 84.4199 221.932 98.1163 221.192 112.285C221.084 114.344 222.84 116.017 224.993 116.017C227.146 116.017 228.88 114.344 229 112.285C229.747 99.4143 234.348 86.9911 242.293 76.5197C242.293 76.5197 242.293 76.5197 242.293 76.5197L235.985 72.1311Z" fill="white" fill-opacity="0.1"/>
</g>
<g opacity="0.5" filter="url(#filter6_d_56_53982)">
<path d="M366.747 116.017C368.901 116.017 370.656 114.344 370.549 112.285C369.794 97.8361 364.668 83.8783 355.755 72.1311L349.447 76.5196C357.392 86.9911 361.993 99.4142 362.741 112.285C362.86 114.344 364.594 116.017 366.747 116.017V116.017Z" fill="url(#paint5_linear_56_53982)"/>
</g>
<g opacity="0.5" filter="url(#filter7_d_56_53982)">
<path d="M355.75 72.5966C346.528 59.8892 333.524 50.4309 318.603 45.5771L316.307 52.6509C329.737 57.0193 341.44 65.5318 349.739 76.9684L355.75 72.5966Z" fill="url(#paint6_linear_56_53982)"/>
</g>
<g opacity="0.5" filter="url(#filter8_d_56_53982)">
<path d="M272.688 45.578C257.767 50.4317 244.763 59.8901 235.541 72.5974L241.552 76.9692C249.851 65.5326 261.555 57.0201 274.984 52.6517L272.688 45.578Z" fill="url(#paint7_linear_56_53982)"/>
</g>
<g opacity="0.5" filter="url(#filter9_d_56_53982)">
<path d="M318.601 45.578C303.68 40.7242 287.607 40.7242 272.686 45.578L274.982 52.6517C288.411 48.2834 302.876 48.2834 316.305 52.6517L318.601 45.578Z" fill="#7B8195"/>
</g>
<g opacity="0.6">
<path d="M286.421 31.8621V37.9465H285.718L282.115 33.4093V37.9465H281.258V31.8621H281.961L285.563 36.3993V31.8621H286.421Z" fill="#7B8195"/>
<path d="M292.206 35.6692C292.206 35.7329 292.2 35.817 292.189 35.9213H288.501C288.552 36.3269 288.727 36.6543 289.024 36.9035C289.327 37.1468 289.702 37.2685 290.148 37.2685C290.691 37.2685 291.128 37.0831 291.46 36.7122L291.914 37.2511C291.709 37.4945 291.451 37.6799 291.143 37.8074C290.84 37.9349 290.499 37.9987 290.122 37.9987C289.642 37.9987 289.216 37.9001 288.844 37.7031C288.472 37.5003 288.184 37.2193 287.978 36.86C287.778 36.5007 287.678 36.0951 287.678 35.6431C287.678 35.1969 287.775 34.7942 287.969 34.435C288.169 34.0757 288.441 33.7975 288.784 33.6005C289.133 33.3977 289.524 33.2963 289.959 33.2963C290.394 33.2963 290.779 33.3977 291.117 33.6005C291.46 33.7975 291.726 34.0757 291.914 34.435C292.109 34.7942 292.206 35.2056 292.206 35.6692ZM289.959 34.0004C289.564 34.0004 289.233 34.122 288.964 34.3654C288.701 34.6088 288.547 34.9275 288.501 35.3215H291.417C291.371 34.9333 291.214 34.6175 290.945 34.3741C290.682 34.1249 290.354 34.0004 289.959 34.0004Z" fill="#7B8195"/>
<path d="M297.586 33.3398V37.9465H296.806V37.2511C296.64 37.4887 296.42 37.6742 296.145 37.8074C295.877 37.9349 295.582 37.9987 295.262 37.9987C294.656 37.9987 294.178 37.8306 293.83 37.4945C293.481 37.1526 293.306 36.6514 293.306 35.9908V33.3398H294.13V35.8952C294.13 36.3414 294.236 36.6804 294.447 36.9122C294.659 37.1381 294.962 37.2511 295.356 37.2511C295.791 37.2511 296.134 37.1179 296.385 36.8513C296.637 36.5848 296.763 36.2081 296.763 35.7214V33.3398H297.586Z" fill="#7B8195"/>
<path d="M301.709 37.677C301.589 37.7814 301.441 37.8625 301.264 37.9204C301.086 37.9726 300.903 37.9987 300.715 37.9987C300.257 37.9987 299.903 37.8741 299.651 37.6249C299.4 37.3757 299.274 37.0194 299.274 36.5558V34.0264H298.502V33.3398H299.274V32.3315H300.097V33.3398H301.401V34.0264H300.097V36.521C300.097 36.7702 300.157 36.9614 300.277 37.0947C300.403 37.228 300.58 37.2946 300.809 37.2946C301.061 37.2946 301.275 37.2222 301.452 37.0773L301.709 37.677Z" fill="#7B8195"/>
<path d="M303.494 34.1133C303.637 33.8468 303.848 33.644 304.129 33.5049C304.409 33.3658 304.749 33.2963 305.149 33.2963V34.1047C305.104 34.0989 305.041 34.096 304.961 34.096C304.515 34.096 304.163 34.2321 303.906 34.5045C303.654 34.771 303.528 35.1535 303.528 35.6518V37.9465H302.705V33.3398H303.494V34.1133Z" fill="#7B8195"/>
<path d="M307.811 33.2963C308.44 33.2963 308.92 33.4528 309.252 33.7657C309.589 34.0786 309.758 34.545 309.758 35.1651V37.9465H308.977V37.3381C308.84 37.5525 308.643 37.7176 308.386 37.8335C308.134 37.9436 307.834 37.9987 307.485 37.9987C306.976 37.9987 306.567 37.8741 306.259 37.6249C305.956 37.3757 305.804 37.0483 305.804 36.6427C305.804 36.2371 305.95 35.9126 306.241 35.6692C306.533 35.42 306.996 35.2955 307.631 35.2955H308.934V35.1303C308.934 34.771 308.832 34.4958 308.626 34.3046C308.42 34.1133 308.117 34.0177 307.717 34.0177C307.448 34.0177 307.185 34.0641 306.928 34.1568C306.67 34.2437 306.453 34.3625 306.276 34.5132L305.933 33.8874C306.167 33.6961 306.447 33.5513 306.773 33.4528C307.099 33.3485 307.445 33.2963 307.811 33.2963ZM307.622 37.3554C307.937 37.3554 308.208 37.2859 308.437 37.1468C308.666 37.002 308.832 36.7992 308.934 36.5384V35.8952H307.665C306.968 35.8952 306.619 36.1328 306.619 36.6079C306.619 36.8397 306.707 37.0223 306.885 37.1555C307.062 37.2888 307.308 37.3554 307.622 37.3554Z" fill="#7B8195"/>
<path d="M311.282 31.4971H312.105V37.9465H311.282V31.4971Z" fill="#7B8195"/>
</g>
<g opacity="0.6">
<path d="M351.871 52.4194C352.221 52.5217 352.496 52.7083 352.696 52.9792C352.897 53.2441 352.997 53.5812 352.997 53.9906C352.997 54.5384 352.8 54.9598 352.404 55.2548C352.014 55.5498 351.444 55.6973 350.693 55.6973H347.822V49.3763H350.522C351.209 49.3763 351.739 49.5208 352.112 49.8097C352.49 50.0987 352.679 50.499 352.679 51.0107C352.679 51.3418 352.605 51.6278 352.456 51.8686C352.313 52.1094 352.118 52.293 351.871 52.4194ZM348.682 50.1077V52.1304H350.444C350.885 52.1304 351.224 52.0461 351.459 51.8776C351.699 51.703 351.82 51.4502 351.82 51.1191C351.82 50.788 351.699 50.5381 351.459 50.3696C351.224 50.195 350.885 50.1077 350.444 50.1077H348.682ZM350.659 54.9658C351.146 54.9658 351.513 54.8816 351.759 54.713C352.006 54.5444 352.129 54.2796 352.129 53.9184C352.129 53.214 351.639 52.8619 350.659 52.8619H348.682V54.9658H350.659Z" fill="#91CD9D"/>
<path d="M358.455 50.9114V55.6973H357.672V54.9749C357.506 55.2217 357.286 55.4143 357.011 55.5528C356.741 55.6852 356.446 55.7514 356.125 55.7514C355.518 55.7514 355.039 55.5769 354.689 55.2277C354.34 54.8725 354.165 54.3518 354.165 53.6655V50.9114H354.99V53.5662C354.99 54.0297 355.096 54.3819 355.308 54.6227C355.52 54.8575 355.824 54.9749 356.22 54.9749C356.655 54.9749 356.999 54.8364 357.251 54.5595C357.503 54.2826 357.629 53.8913 357.629 53.3856V50.9114H358.455Z" fill="#91CD9D"/>
<path d="M364.058 50.9114L361.848 56.1758C361.653 56.6635 361.424 57.0066 361.161 57.2053C360.903 57.4039 360.59 57.5033 360.224 57.5033C360 57.5033 359.782 57.4641 359.57 57.3859C359.364 57.3136 359.192 57.2053 359.054 57.0608L359.407 56.4106C359.642 56.6454 359.914 56.7628 360.224 56.7628C360.424 56.7628 360.59 56.7056 360.722 56.5912C360.86 56.4829 360.983 56.2932 361.092 56.0223L361.238 55.6882L359.226 50.9114H360.086L361.676 54.7401L363.249 50.9114H364.058Z" fill="#91CD9D"/>
</g>
<g opacity="0.6">
<path d="M236.537 55.8777C236.073 55.8777 235.623 55.8084 235.189 55.6697C234.76 55.5252 234.422 55.3403 234.176 55.1149L234.502 54.4387C234.737 54.6468 235.036 54.8173 235.4 54.9502C235.77 55.0773 236.149 55.1409 236.537 55.1409C237.048 55.1409 237.429 55.0571 237.682 54.8895C237.934 54.7161 238.061 54.4878 238.061 54.2047C238.061 53.9966 237.99 53.829 237.849 53.7019C237.714 53.569 237.544 53.4678 237.338 53.3985C237.139 53.3291 236.854 53.2511 236.484 53.1644C236.02 53.0546 235.644 52.9448 235.356 52.835C235.074 52.7252 234.831 52.5576 234.625 52.3322C234.425 52.101 234.326 51.7919 234.326 51.4047C234.326 51.081 234.411 50.7892 234.581 50.5291C234.757 50.269 235.021 50.061 235.374 49.905C235.726 49.7489 236.164 49.6709 236.686 49.6709C237.051 49.6709 237.409 49.7171 237.761 49.8096C238.113 49.9021 238.416 50.035 238.668 50.2084L238.378 50.9019C238.119 50.74 237.843 50.6187 237.55 50.5378C237.256 50.4511 236.968 50.4077 236.686 50.4077C236.187 50.4077 235.811 50.4973 235.559 50.6765C235.312 50.8556 235.189 51.0868 235.189 51.37C235.189 51.578 235.259 51.7485 235.4 51.8814C235.541 52.0086 235.714 52.1097 235.92 52.1848C236.131 52.2542 236.416 52.3293 236.774 52.4102C237.238 52.52 237.611 52.6298 237.893 52.7396C238.175 52.8494 238.416 53.017 238.616 53.2424C238.821 53.4678 238.924 53.7712 238.924 54.1527C238.924 54.4705 238.836 54.7624 238.66 55.0282C238.483 55.2883 238.216 55.4963 237.858 55.6524C237.5 55.8026 237.059 55.8777 236.537 55.8777Z" fill="#F2A496"/>
<path d="M244.307 53.5372C244.307 53.6007 244.301 53.6845 244.29 53.7886H240.502C240.554 54.1931 240.734 54.5196 241.039 54.7681C241.35 55.0109 241.735 55.1322 242.193 55.1322C242.751 55.1322 243.2 54.9473 243.541 54.5774L244.008 55.1149C243.796 55.3576 243.532 55.5425 243.215 55.6697C242.904 55.7968 242.554 55.8604 242.167 55.8604C241.673 55.8604 241.236 55.7622 240.854 55.5657C240.472 55.3634 240.176 55.0831 239.964 54.7248C239.759 54.3665 239.656 53.9619 239.656 53.5112C239.656 53.0662 239.756 52.6645 239.955 52.3062C240.161 51.9479 240.44 51.6705 240.792 51.474C241.151 51.2717 241.553 51.1706 241.999 51.1706C242.446 51.1706 242.842 51.2717 243.188 51.474C243.541 51.6705 243.814 51.9479 244.008 52.3062C244.207 52.6645 244.307 53.0748 244.307 53.5372ZM241.999 51.8728C241.594 51.8728 241.253 51.9941 240.977 52.2369C240.707 52.4796 240.549 52.7974 240.502 53.1904H243.497C243.45 52.8032 243.288 52.4882 243.012 52.2455C242.742 51.997 242.404 51.8728 241.999 51.8728Z" fill="#F2A496"/>
<path d="M245.481 49.3762H246.327V55.8084H245.481V49.3762Z" fill="#F2A496"/>
<path d="M247.942 49.3762H248.788V55.8084H247.942V49.3762Z" fill="#F2A496"/>
</g>
<g filter="url(#filter10_d_56_53982)">
<path d="M192.757 91.2924C192.287 91.2924 191.832 91.23 191.391 91.1053C190.956 90.9748 190.606 90.8076 190.34 90.6035L190.806 89.5659C191.061 89.753 191.363 89.9032 191.714 90.0166C192.064 90.13 192.415 90.1867 192.765 90.1867C193.155 90.1867 193.444 90.13 193.63 90.0166C193.817 89.8976 193.91 89.7416 193.91 89.5488C193.91 89.4071 193.853 89.2909 193.74 89.2001C193.633 89.1038 193.492 89.0272 193.316 88.9705C193.147 88.9138 192.915 88.8514 192.621 88.7834C192.169 88.6757 191.798 88.5679 191.51 88.4602C191.222 88.3525 190.973 88.1795 190.764 87.9414C190.56 87.7033 190.459 87.3857 190.459 86.9888C190.459 86.643 190.552 86.3311 190.738 86.0533C190.925 85.7698 191.205 85.5458 191.578 85.3814C191.957 85.217 192.417 85.1348 192.96 85.1348C193.339 85.1348 193.709 85.1801 194.071 85.2708C194.433 85.3616 194.75 85.492 195.021 85.6621L194.597 86.7082C194.049 86.3963 193.5 86.2404 192.952 86.2404C192.567 86.2404 192.282 86.3028 192.095 86.4275C191.914 86.5523 191.824 86.7167 191.824 86.9208C191.824 87.1249 191.928 87.278 192.138 87.3801C192.352 87.4765 192.678 87.5729 193.113 87.6692C193.565 87.777 193.935 87.8847 194.224 87.9924C194.512 88.1002 194.758 88.2703 194.962 88.5027C195.171 88.7352 195.275 89.0499 195.275 89.4468C195.275 89.787 195.179 90.0988 194.987 90.3823C194.8 90.6602 194.518 90.8813 194.139 91.0457C193.76 91.2102 193.299 91.2924 192.757 91.2924Z" fill="#D64730"/>
<path d="M199.063 90.9692C198.933 91.0656 198.772 91.1393 198.58 91.1903C198.393 91.2357 198.196 91.2583 197.986 91.2583C197.444 91.2583 197.022 91.1194 196.723 90.8416C196.429 90.5638 196.282 90.1555 196.282 89.6169V87.7373H195.578V86.7167H196.282V85.6025H197.605V86.7167H198.741V87.7373H197.605V89.5999C197.605 89.7927 197.653 89.9429 197.749 90.0506C197.851 90.1527 197.992 90.2037 198.173 90.2037C198.382 90.2037 198.56 90.147 198.707 90.0336L199.063 90.9692Z" fill="#D64730"/>
<path d="M201.07 87.2185C201.228 86.9974 201.44 86.8301 201.706 86.7167C201.977 86.6033 202.288 86.5466 202.638 86.5466V87.7713C202.491 87.76 202.392 87.7543 202.342 87.7543C201.963 87.7543 201.666 87.862 201.451 88.0775C201.236 88.2873 201.129 88.6048 201.129 89.03V91.1903H199.806V86.6146H201.07V87.2185Z" fill="#D64730"/>
<path d="M205.555 91.2583C205.074 91.2583 204.641 91.1591 204.257 90.9607C203.878 90.7566 203.581 90.4759 203.367 90.1187C203.152 89.7615 203.044 89.3561 203.044 88.9025C203.044 88.4489 203.152 88.0435 203.367 87.6863C203.581 87.329 203.878 87.0512 204.257 86.8528C204.641 86.6487 205.074 86.5466 205.555 86.5466C206.035 86.5466 206.465 86.6487 206.843 86.8528C207.222 87.0512 207.519 87.329 207.734 87.6863C207.949 88.0435 208.056 88.4489 208.056 88.9025C208.056 89.3561 207.949 89.7615 207.734 90.1187C207.519 90.4759 207.222 90.7566 206.843 90.9607C206.465 91.1591 206.035 91.2583 205.555 91.2583ZM205.555 90.1697C205.894 90.1697 206.171 90.0563 206.386 89.8295C206.606 89.597 206.716 89.288 206.716 88.9025C206.716 88.5169 206.606 88.2107 206.386 87.9839C206.171 87.7515 205.894 87.6352 205.555 87.6352C205.215 87.6352 204.935 87.7515 204.715 87.9839C204.494 88.2107 204.384 88.5169 204.384 88.9025C204.384 89.288 204.494 89.597 204.715 89.8295C204.935 90.0563 205.215 90.1697 205.555 90.1697Z" fill="#D64730"/>
<path d="M211.713 86.5466C212.279 86.5466 212.734 86.7167 213.079 87.0569C213.429 87.3971 213.605 87.9017 213.605 88.5708V91.1903H212.282V88.7749C212.282 88.412 212.202 88.1427 212.044 87.9669C211.886 87.7855 211.657 87.6948 211.357 87.6948C211.024 87.6948 210.758 87.7997 210.56 88.0094C210.362 88.2136 210.263 88.5197 210.263 88.928V91.1903H208.94V86.6146H210.204V87.1504C210.379 86.9577 210.597 86.8102 210.857 86.7082C211.117 86.6005 211.403 86.5466 211.713 86.5466Z" fill="#D64730"/>
<path d="M219.56 86.6146V90.4249C219.56 91.264 219.342 91.8877 218.907 92.296C218.472 92.7042 217.836 92.9083 216.999 92.9083C216.558 92.9083 216.14 92.8544 215.744 92.7467C215.348 92.639 215.02 92.4831 214.76 92.2789L215.286 91.3264C215.478 91.4851 215.721 91.6099 216.015 91.7006C216.309 91.797 216.603 91.8452 216.897 91.8452C217.355 91.8452 217.691 91.7403 217.906 91.5305C218.127 91.3264 218.237 91.0145 218.237 90.595V90.3993C217.892 90.7792 217.412 90.9692 216.795 90.9692C216.377 90.9692 215.993 90.8785 215.642 90.697C215.297 90.5099 215.023 90.2491 214.819 89.9146C214.616 89.58 214.514 89.1945 214.514 88.7579C214.514 88.3213 214.616 87.9357 214.819 87.6012C215.023 87.2667 215.297 87.0087 215.642 86.8273C215.993 86.6401 216.377 86.5466 216.795 86.5466C217.457 86.5466 217.96 86.7649 218.305 87.2015V86.6146H219.56ZM217.058 89.8805C217.409 89.8805 217.694 89.7785 217.915 89.5744C218.141 89.3646 218.254 89.0924 218.254 88.7579C218.254 88.4234 218.141 88.154 217.915 87.9499C217.694 87.7401 217.409 87.6352 217.058 87.6352C216.708 87.6352 216.419 87.7401 216.193 87.9499C215.967 88.154 215.854 88.4234 215.854 88.7579C215.854 89.0924 215.967 89.3646 216.193 89.5744C216.419 89.7785 216.708 89.8805 217.058 89.8805Z" fill="#D64730"/>
<path d="M207.37 99.7633C206.991 99.7633 206.621 99.718 206.259 99.6272C205.897 99.5309 205.609 99.4118 205.394 99.27L205.835 98.3175C206.038 98.4479 206.284 98.5556 206.573 98.6407C206.861 98.72 207.144 98.7597 207.421 98.7597C207.98 98.7597 208.26 98.6208 208.26 98.343C208.26 98.2126 208.184 98.119 208.031 98.0623C207.879 98.0056 207.644 97.9574 207.327 97.9177C206.954 97.861 206.646 97.7958 206.403 97.7221C206.16 97.6484 205.948 97.518 205.767 97.3309C205.592 97.1438 205.504 96.8773 205.504 96.5314C205.504 96.2423 205.586 95.9871 205.75 95.766C205.92 95.5392 206.163 95.3634 206.479 95.2387C206.802 95.1139 207.18 95.0516 207.616 95.0516C207.938 95.0516 208.257 95.0884 208.574 95.1621C208.896 95.2302 209.162 95.3266 209.371 95.4513L208.93 96.3953C208.529 96.1686 208.091 96.0552 207.616 96.0552C207.333 96.0552 207.121 96.0948 206.98 96.1742C206.838 96.2536 206.768 96.3557 206.768 96.4804C206.768 96.6221 206.844 96.7214 206.997 96.7781C207.149 96.8348 207.392 96.8886 207.726 96.9397C208.099 97.002 208.404 97.0701 208.642 97.1438C208.879 97.2118 209.086 97.3394 209.261 97.5265C209.436 97.7136 209.524 97.9744 209.524 98.309C209.524 98.5925 209.439 98.8448 209.269 99.0659C209.1 99.287 208.851 99.46 208.523 99.5847C208.201 99.7038 207.816 99.7633 207.37 99.7633Z" fill="#D64730"/>
<path d="M214.809 97.4245C214.809 97.4415 214.801 97.5605 214.784 97.7817H211.332C211.394 98.0652 211.541 98.2891 211.773 98.4536C212.005 98.618 212.293 98.7002 212.638 98.7002C212.876 98.7002 213.085 98.6662 213.266 98.5981C213.452 98.5244 213.625 98.411 213.783 98.2579L214.487 99.0234C214.057 99.5167 213.43 99.7633 212.604 99.7633C212.09 99.7633 211.635 99.6641 211.239 99.4656C210.843 99.2615 210.538 98.9809 210.323 98.6237C210.108 98.2664 210.001 97.861 210.001 97.4074C210.001 96.9595 210.105 96.5569 210.315 96.1997C210.529 95.8369 210.821 95.5562 211.188 95.3577C211.561 95.1536 211.977 95.0516 212.435 95.0516C212.881 95.0516 213.285 95.148 213.647 95.3407C214.009 95.5335 214.292 95.8113 214.495 96.1742C214.704 96.5314 214.809 96.9482 214.809 97.4245ZM212.443 96.0552C212.143 96.0552 211.892 96.1402 211.688 96.3103C211.485 96.4804 211.36 96.7129 211.315 97.0077H213.562C213.517 96.7185 213.393 96.4889 213.189 96.3188C212.986 96.143 212.737 96.0552 212.443 96.0552Z" fill="#D64730"/>
<path d="M215.69 93.3846H217.013V99.6953H215.69V93.3846Z" fill="#D64730"/>
<path d="M218.24 93.3846H219.563V99.6953H218.24V93.3846Z" fill="#D64730"/>
</g>
<g opacity="0.6">
<path d="M376.034 91.2343C375.595 91.2343 375.17 91.1661 374.758 91.0298C374.352 90.8878 374.032 90.7061 373.799 90.4846L374.107 89.8201C374.33 90.0246 374.613 90.1921 374.958 90.3227C375.309 90.4477 375.667 90.5102 376.034 90.5102C376.518 90.5102 376.879 90.4278 377.119 90.2631C377.358 90.0927 377.477 89.8684 377.477 89.5901C377.477 89.3857 377.41 89.221 377.277 89.096C377.149 88.9654 376.988 88.866 376.793 88.7979C376.604 88.7297 376.334 88.653 375.984 88.5679C375.545 88.46 375.189 88.352 374.917 88.2441C374.65 88.1362 374.419 87.9715 374.224 87.7501C374.035 87.5229 373.941 87.219 373.941 86.8385C373.941 86.5205 374.021 86.2337 374.183 85.9781C374.349 85.7226 374.6 85.5181 374.933 85.3648C375.267 85.2114 375.681 85.1348 376.176 85.1348C376.521 85.1348 376.86 85.1802 377.194 85.2711C377.527 85.3619 377.814 85.4926 378.053 85.6629L377.777 86.3444C377.533 86.1854 377.271 86.0662 376.993 85.9866C376.715 85.9015 376.443 85.8589 376.176 85.8589C375.703 85.8589 375.347 85.9469 375.108 86.123C374.875 86.299 374.758 86.5262 374.758 86.8045C374.758 87.0089 374.825 87.1764 374.958 87.3071C375.092 87.432 375.256 87.5314 375.45 87.6052C375.651 87.6734 375.92 87.7472 376.259 87.8267C376.699 87.9346 377.052 88.0425 377.319 88.1504C377.586 88.2583 377.814 88.423 378.003 88.6445C378.197 88.866 378.295 89.1642 378.295 89.539C378.295 89.8514 378.211 90.1382 378.044 90.3994C377.878 90.655 377.625 90.8594 377.285 91.0128C376.946 91.1604 376.529 91.2343 376.034 91.2343Z" fill="#1BC53C"/>
<path d="M381.882 90.902C381.765 91.0042 381.621 91.0838 381.448 91.1406C381.276 91.1917 381.098 91.2172 380.914 91.2172C380.47 91.2172 380.125 91.0951 379.88 90.8509C379.636 90.6067 379.513 90.2574 379.513 89.8031V87.3241H378.763V86.6511H379.513V85.6629H380.314V86.6511H381.582V87.3241H380.314V89.769C380.314 90.0132 380.372 90.2006 380.489 90.3313C380.611 90.4619 380.784 90.5272 381.006 90.5272C381.251 90.5272 381.459 90.4562 381.632 90.3142L381.882 90.902Z" fill="#1BC53C"/>
<path d="M383.618 87.4093C383.757 87.1481 383.962 86.9493 384.235 86.813C384.507 86.6767 384.838 86.6085 385.227 86.6085V87.4008C385.183 87.3951 385.122 87.3923 385.044 87.3923C384.61 87.3923 384.268 87.5257 384.018 87.7926C383.773 88.0539 383.651 88.4287 383.651 88.9171V91.1661H382.85V86.6511H383.618V87.4093Z" fill="#1BC53C"/>
<path d="M388.067 91.2172C387.628 91.2172 387.233 91.1178 386.882 90.9191C386.532 90.7203 386.257 90.4477 386.057 90.1013C385.862 89.7491 385.765 89.3516 385.765 88.9086C385.765 88.4656 385.862 88.0709 386.057 87.7245C386.257 87.3724 386.532 87.0998 386.882 86.9067C387.233 86.7079 387.628 86.6085 388.067 86.6085C388.506 86.6085 388.898 86.7079 389.243 86.9067C389.593 87.0998 389.866 87.3724 390.06 87.7245C390.261 88.0709 390.361 88.4656 390.361 88.9086C390.361 89.3516 390.261 89.7491 390.06 90.1013C389.866 90.4477 389.593 90.7203 389.243 90.9191C388.898 91.1178 388.506 91.2172 388.067 91.2172ZM388.067 90.5016C388.351 90.5016 388.604 90.4363 388.826 90.3057C389.054 90.1694 389.232 89.982 389.36 89.7435C389.488 89.4993 389.552 89.221 389.552 88.9086C389.552 88.5963 389.488 88.3208 389.36 88.0823C389.232 87.8381 389.054 87.6507 388.826 87.52C388.604 87.3894 388.351 87.3241 388.067 87.3241C387.783 87.3241 387.528 87.3894 387.3 87.52C387.077 87.6507 386.899 87.8381 386.766 88.0823C386.638 88.3208 386.574 88.5963 386.574 88.9086C386.574 89.221 386.638 89.4993 386.766 89.7435C386.899 89.982 387.077 90.1694 387.3 90.3057C387.528 90.4363 387.783 90.5016 388.067 90.5016Z" fill="#1BC53C"/>
<path d="M393.829 86.6085C394.39 86.6085 394.835 86.7761 395.163 87.1111C395.497 87.4405 395.664 87.9261 395.664 88.5679V91.1661H394.863V88.6616C394.863 88.2243 394.76 87.8949 394.554 87.6734C394.349 87.4519 394.054 87.3411 393.67 87.3411C393.236 87.3411 392.894 87.4718 392.644 87.733C392.394 87.9886 392.269 88.3577 392.269 88.8405V91.1661H391.468V86.6511H392.235V87.3326C392.397 87.0998 392.614 86.9209 392.886 86.7959C393.164 86.671 393.478 86.6085 393.829 86.6085Z" fill="#1BC53C"/>
<path d="M401.399 86.6511V90.5527C401.399 91.3422 401.207 91.9243 400.823 92.2991C400.44 92.6796 399.867 92.8699 399.105 92.8699C398.688 92.8699 398.29 92.8102 397.912 92.691C397.534 92.5774 397.228 92.4127 396.995 92.1969L397.378 91.5665C397.584 91.7482 397.837 91.8902 398.138 91.9924C398.443 92.1003 398.758 92.1543 399.08 92.1543C399.597 92.1543 399.978 92.0293 400.223 91.7795C400.473 91.5296 400.598 91.1491 400.598 90.6379V90.2801C400.409 90.513 400.176 90.6891 399.897 90.8083C399.625 90.9219 399.328 90.9787 399.005 90.9787C398.582 90.9787 398.199 90.8878 397.854 90.7061C397.515 90.5187 397.248 90.2603 397.053 89.9309C396.859 89.5958 396.761 89.2153 396.761 88.7893C396.761 88.3634 396.859 87.9857 397.053 87.6563C397.248 87.3213 397.515 87.0629 397.854 86.8811C398.199 86.6994 398.582 86.6085 399.005 86.6085C399.339 86.6085 399.647 86.671 399.931 86.7959C400.22 86.9209 400.456 87.1055 400.64 87.3497V86.6511H401.399ZM399.097 90.2631C399.386 90.2631 399.644 90.2006 399.872 90.0757C400.106 89.9508 400.287 89.7775 400.415 89.556C400.548 89.3289 400.615 89.0733 400.615 88.7893C400.615 88.352 400.473 87.9999 400.189 87.733C399.906 87.4604 399.542 87.3241 399.097 87.3241C398.646 87.3241 398.279 87.4604 397.996 87.733C397.712 87.9999 397.57 88.352 397.57 88.7893C397.57 89.0733 397.634 89.3289 397.762 89.556C397.896 89.7775 398.076 89.9508 398.304 90.0757C398.538 90.2006 398.802 90.2631 399.097 90.2631Z" fill="#1BC53C"/>
<path d="M376.56 95.1274C376.988 95.1274 377.372 95.2239 377.711 95.417C378.05 95.6101 378.314 95.8799 378.503 96.2263C378.698 96.5727 378.795 96.9731 378.795 97.4275C378.795 97.8818 378.698 98.285 378.503 98.6371C378.314 98.9836 378.05 99.2533 377.711 99.4464C377.372 99.6395 376.988 99.7361 376.56 99.7361C376.232 99.7361 375.931 99.6708 375.659 99.5401C375.386 99.4095 375.161 99.2193 374.983 98.9694V99.685H374.216V93.364H375.017V95.8515C375.195 95.6129 375.417 95.434 375.684 95.3148C375.951 95.1898 376.243 95.1274 376.56 95.1274ZM376.493 99.0205C376.777 99.0205 377.03 98.9552 377.252 98.8245C377.48 98.6882 377.658 98.5008 377.786 98.2623C377.919 98.0181 377.986 97.7398 377.986 97.4275C377.986 97.1151 377.919 96.8397 377.786 96.6011C377.658 96.3569 377.48 96.1695 377.252 96.0389C377.03 95.9083 376.777 95.843 376.493 95.843C376.215 95.843 375.962 95.9083 375.734 96.0389C375.506 96.1695 375.328 96.3569 375.2 96.6011C375.072 96.8397 375.008 97.1151 375.008 97.4275C375.008 97.7398 375.072 98.0181 375.2 98.2623C375.328 98.5008 375.506 98.6882 375.734 98.8245C375.962 98.9552 376.215 99.0205 376.493 99.0205Z" fill="#1BC53C"/>
<path d="M384.022 95.17V99.685H383.263V99.0034C383.102 99.2363 382.888 99.418 382.621 99.5486C382.359 99.6736 382.073 99.7361 381.762 99.7361C381.172 99.7361 380.708 99.5714 380.369 99.242C380.029 98.9069 379.86 98.4156 379.86 97.7682V95.17H380.66V97.6745C380.66 98.1118 380.763 98.444 380.969 98.6712C381.175 98.8927 381.47 99.0034 381.853 99.0034C382.276 99.0034 382.61 98.8728 382.854 98.6116C383.099 98.3503 383.221 97.9812 383.221 97.5041V95.17H384.022Z" fill="#1BC53C"/>
<path d="M389.458 95.17L387.315 100.136C387.126 100.596 386.903 100.92 386.647 101.108C386.397 101.295 386.094 101.389 385.738 101.389C385.521 101.389 385.31 101.352 385.104 101.278C384.904 101.21 384.737 101.108 384.604 100.971L384.946 100.358C385.174 100.579 385.438 100.69 385.738 100.69C385.933 100.69 386.094 100.636 386.222 100.528C386.355 100.426 386.475 100.247 386.581 99.9916L386.722 99.6764L384.771 95.17H385.605L387.148 98.782L388.674 95.17H389.458Z" fill="#1BC53C"/>
</g>
<g filter="url(#filter11_d_56_53982)">
<path d="M235.08 84.1237C234.804 83.6829 235.191 83.1195 235.741 83.1595L246.012 83.905C246.644 83.9509 246.841 84.714 246.309 85.055L242.283 87.6368L241.484 92.0953C241.379 92.6841 240.546 92.8485 240.229 92.343L235.08 84.1237Z" fill="white"/>
</g>
<path d="M37.2185 28.1158C38.3288 28.1158 39.1431 28.3267 39.6612 28.7487C40.1868 29.1632 40.4496 29.7332 40.4496 30.4586C40.4496 30.9175 40.3385 31.332 40.1165 31.7022C39.9018 32.0649 39.5724 32.3536 39.1283 32.5682C38.6915 32.7755 38.1512 32.8791 37.5072 32.8791C36.9594 32.8791 36.4301 32.7977 35.9194 32.6348C35.4086 32.4646 34.9867 32.2314 34.6536 31.9353L35.1644 31.0582C35.4308 31.3098 35.7713 31.5134 36.1859 31.6688C36.6004 31.8169 37.0371 31.8909 37.4961 31.8909C38.0808 31.8909 38.5324 31.7688 38.8507 31.5245C39.1764 31.2728 39.3392 30.9323 39.3392 30.503C39.3392 30.0367 39.1616 29.685 38.8063 29.4482C38.451 29.2039 37.844 29.0818 36.9853 29.0818H35.2199L35.6307 25.0179H40.0165V25.9839H36.5634L36.3524 28.1158H37.2185ZM48.9905 26.85C49.7307 26.85 50.3155 27.0647 50.7448 27.494C51.1815 27.9233 51.3999 28.5599 51.3999 29.4038V32.7903H50.334V29.5259C50.334 28.9559 50.2007 28.5266 49.9342 28.2379C49.6752 27.9492 49.3013 27.8049 48.8128 27.8049C48.2724 27.8049 47.8431 27.9751 47.5248 28.3156C47.2065 28.6487 47.0474 29.1299 47.0474 29.7591V32.7903H45.9814V29.5259C45.9814 28.9559 45.8482 28.5266 45.5817 28.2379C45.3226 27.9492 44.9488 27.8049 44.4603 27.8049C43.9199 27.8049 43.4906 27.9751 43.1723 28.3156C42.854 28.6487 42.6949 29.1299 42.6949 29.7591V32.7903H41.6289V26.9055H42.6504V27.7827C42.8651 27.4792 43.1464 27.2497 43.4943 27.0943C43.8422 26.9314 44.2382 26.85 44.6824 26.85C45.1413 26.85 45.5484 26.9425 45.9037 27.1276C46.259 27.3126 46.5329 27.5828 46.7254 27.9381C46.9474 27.5976 47.2546 27.3311 47.6469 27.1387C48.0467 26.9462 48.4945 26.85 48.9905 26.85Z" fill="white"/>
<g filter="url(#filter12_d_56_53982)">
<path fill-rule="evenodd" clip-rule="evenodd" d="M130.632 18.7581L130.632 197.827L129.199 197.827L129.199 18.7581L130.632 18.7581Z" fill="#4C5262"/>
<path fill-rule="evenodd" clip-rule="evenodd" d="M130.631 41.6789H120.604V40.2463H130.631V41.6789Z" fill="#4C5262"/>
<path fill-rule="evenodd" clip-rule="evenodd" d="M130.631 63.1674H120.604V61.7349H130.631V63.1674Z" fill="#4C5262"/>
<path fill-rule="evenodd" clip-rule="evenodd" d="M130.631 86.0879H120.604V84.6554H130.631V86.0879Z" fill="#4C5262"/>
<path fill-rule="evenodd" clip-rule="evenodd" d="M130.63 107.576H116.305V106.144H130.63V107.576Z" fill="#4C5262"/>
<path fill-rule="evenodd" clip-rule="evenodd" d="M130.631 130.497H120.604V129.065H130.631V130.497Z" fill="#4C5262"/>
<path fill-rule="evenodd" clip-rule="evenodd" d="M130.631 151.986H120.604V150.553H130.631V151.986Z" fill="#4C5262"/>
<path fill-rule="evenodd" clip-rule="evenodd" d="M130.631 197.827H120.604V196.394H130.631V197.827Z" fill="#4C5262"/>
<path fill-rule="evenodd" clip-rule="evenodd" d="M129.198 177.771L129.198 170.608L130.631 170.608L130.631 177.771L129.198 177.771Z" fill="url(#paint8_linear_56_53982)"/>
<path fill-rule="evenodd" clip-rule="evenodd" d="M130.631 174.906H120.604V173.474H130.631V174.906Z" fill="#58DEFB"/>
<path d="M108.758 164.708C109.096 164.909 109.096 165.41 108.758 165.611L101.641 169.837C101.227 170.083 100.743 169.657 100.915 169.199L102.426 165.159L100.915 161.12C100.743 160.662 101.227 160.236 101.641 160.482L108.758 164.708Z" fill="#56CCF2"/>
<path d="M139.274 44.6017L137.726 42.3982C137.535 42.4118 137.385 42.4187 137.275 42.4187H135.502V44.6017H134.477V37.4273H137.275C138.205 37.4273 138.936 37.6493 139.469 38.0935C140.002 38.5376 140.268 39.1492 140.268 39.9281C140.268 40.4816 140.131 40.953 139.858 41.3425C139.585 41.732 139.195 42.0155 138.69 42.1932L140.391 44.6017H139.274ZM137.245 41.5475C137.894 41.5475 138.389 41.4074 138.731 41.1273C139.072 40.8471 139.243 40.4474 139.243 39.9281C139.243 39.4088 139.072 39.0125 138.731 38.7392C138.389 38.459 137.894 38.319 137.245 38.319H135.502V41.5475H137.245ZM143.811 40.4406C144.515 40.5089 145.052 40.7275 145.421 41.0965C145.79 41.4586 145.974 41.9233 145.974 42.4904C145.974 42.9004 145.872 43.2728 145.667 43.6076C145.462 43.9355 145.154 44.1986 144.744 44.3968C144.341 44.5881 143.846 44.6837 143.258 44.6837C142.746 44.6837 142.254 44.6086 141.782 44.4583C141.311 44.3011 140.925 44.0859 140.624 43.8126L141.095 43.0029C141.341 43.2352 141.656 43.4231 142.038 43.5666C142.421 43.7032 142.828 43.7716 143.258 43.7716C143.791 43.7716 144.204 43.6588 144.498 43.4333C144.799 43.2078 144.949 42.897 144.949 42.5007C144.949 42.1043 144.802 41.7969 144.508 41.5782C144.215 41.3596 143.77 41.2502 143.176 41.2502H142.602V40.5328L144.406 38.319H140.952V37.4273H145.687V38.1242L143.811 40.4406Z" fill="#606572"/>
<path d="M139.229 66.3814L137.681 64.1778C137.49 64.1915 137.34 64.1983 137.23 64.1983H135.457V66.3814H134.432V59.2069H137.23C138.159 59.2069 138.891 59.429 139.424 59.8731C139.957 60.3173 140.223 60.9288 140.223 61.7077C140.223 62.2612 140.086 62.7327 139.813 63.1221C139.54 63.5116 139.15 63.7952 138.645 63.9728L140.346 66.3814H139.229ZM137.199 63.3271C137.849 63.3271 138.344 63.187 138.686 62.9069C139.027 62.6268 139.198 62.227 139.198 61.7077C139.198 61.1884 139.027 60.7921 138.686 60.5188C138.344 60.2387 137.849 60.0986 137.199 60.0986H135.457V63.3271H137.199ZM146.132 65.4897V66.3814H140.977V65.6844L143.898 62.8659C144.253 62.5243 144.492 62.2305 144.615 61.9845C144.738 61.7317 144.8 61.4788 144.8 61.226C144.8 60.8502 144.667 60.5598 144.4 60.3548C144.141 60.143 143.765 60.0371 143.273 60.0371C142.48 60.0371 141.869 60.2968 141.438 60.8161L140.741 60.2114C141.021 59.8697 141.387 59.6032 141.838 59.4119C142.296 59.2206 142.805 59.1249 143.365 59.1249C144.117 59.1249 144.715 59.306 145.159 59.6681C145.603 60.0234 145.825 60.5086 145.825 61.1235C145.825 61.5062 145.743 61.8683 145.579 62.21C145.415 62.5516 145.104 62.9411 144.646 63.3784L142.453 65.4897H146.132Z" fill="#606572"/>
<path d="M140.275 89.0151L138.727 86.8115C138.536 86.8252 138.385 86.832 138.276 86.832H136.503V89.0151H135.478V81.8406H138.276C139.205 81.8406 139.937 82.0627 140.47 82.5068C141.002 82.9509 141.269 83.5625 141.269 84.3414C141.269 84.8949 141.132 85.3663 140.859 85.7558C140.586 86.1453 140.196 86.4289 139.691 86.6065L141.392 89.0151H140.275ZM138.245 85.9608C138.895 85.9608 139.39 85.8207 139.732 85.5406C140.073 85.2604 140.244 84.8607 140.244 84.3414C140.244 83.8221 140.073 83.4258 139.732 83.1525C139.39 82.8724 138.895 82.7323 138.245 82.7323H136.503V85.9608H138.245ZM144.36 81.8406V89.0151H143.345V82.7323H141.726V81.8406H144.36Z" fill="#606572"/>
<path d="M138.16 133.51C137.62 133.51 137.097 133.428 136.591 133.264C136.093 133.094 135.7 132.875 135.413 132.608L135.792 131.809C136.065 132.055 136.414 132.257 136.837 132.414C137.268 132.564 137.709 132.639 138.16 132.639C138.754 132.639 139.198 132.54 139.492 132.342C139.786 132.137 139.933 131.867 139.933 131.532C139.933 131.286 139.851 131.088 139.687 130.938C139.529 130.781 139.331 130.661 139.092 130.579C138.86 130.497 138.528 130.405 138.098 130.302C137.558 130.173 137.121 130.043 136.786 129.913C136.458 129.783 136.175 129.585 135.935 129.318C135.703 129.045 135.587 128.68 135.587 128.222C135.587 127.839 135.686 127.494 135.884 127.187C136.089 126.879 136.397 126.633 136.807 126.449C137.217 126.264 137.726 126.172 138.334 126.172C138.757 126.172 139.174 126.227 139.584 126.336C139.994 126.445 140.346 126.602 140.64 126.807L140.302 127.627C140.001 127.436 139.68 127.293 139.338 127.197C138.997 127.094 138.662 127.043 138.334 127.043C137.753 127.043 137.316 127.149 137.022 127.361C136.735 127.573 136.591 127.846 136.591 128.181C136.591 128.427 136.673 128.628 136.837 128.786C137.001 128.936 137.203 129.055 137.442 129.144C137.688 129.226 138.019 129.315 138.436 129.411C138.976 129.541 139.41 129.67 139.738 129.8C140.066 129.93 140.346 130.128 140.578 130.395C140.817 130.661 140.937 131.02 140.937 131.471C140.937 131.847 140.835 132.192 140.63 132.506C140.425 132.813 140.114 133.059 139.697 133.244C139.28 133.422 138.768 133.51 138.16 133.51ZM143.769 126.254V133.428H142.755V127.146H141.135V126.254H143.769Z" fill="#606572"/>
<path d="M137.064 155.29C136.524 155.29 136.001 155.208 135.495 155.044C134.997 154.873 134.604 154.655 134.317 154.388L134.696 153.589C134.969 153.835 135.318 154.036 135.741 154.193C136.172 154.344 136.613 154.419 137.064 154.419C137.658 154.419 138.102 154.32 138.396 154.122C138.69 153.917 138.837 153.647 138.837 153.312C138.837 153.066 138.755 152.868 138.591 152.718C138.433 152.56 138.235 152.441 137.996 152.359C137.764 152.277 137.432 152.185 137.002 152.082C136.462 151.952 136.025 151.822 135.69 151.693C135.362 151.563 135.079 151.365 134.839 151.098C134.607 150.825 134.491 150.459 134.491 150.001C134.491 149.619 134.59 149.274 134.788 148.966C134.993 148.659 135.301 148.413 135.711 148.228C136.121 148.044 136.63 147.952 137.238 147.952C137.661 147.952 138.078 148.006 138.488 148.116C138.898 148.225 139.25 148.382 139.544 148.587L139.206 149.407C138.905 149.216 138.584 149.072 138.242 148.977C137.901 148.874 137.566 148.823 137.238 148.823C136.657 148.823 136.22 148.929 135.926 149.141C135.639 149.352 135.495 149.626 135.495 149.96C135.495 150.206 135.577 150.408 135.741 150.565C135.905 150.715 136.107 150.835 136.346 150.924C136.592 151.006 136.923 151.095 137.34 151.19C137.88 151.32 138.314 151.45 138.642 151.58C138.97 151.71 139.25 151.908 139.482 152.174C139.721 152.441 139.841 152.8 139.841 153.25C139.841 153.626 139.739 153.971 139.534 154.286C139.329 154.593 139.018 154.839 138.601 155.024C138.184 155.201 137.672 155.29 137.064 155.29ZM145.592 154.316V155.208H140.436V154.511L143.358 151.693C143.713 151.351 143.952 151.057 144.075 150.811C144.198 150.558 144.259 150.306 144.259 150.053C144.259 149.677 144.126 149.387 143.86 149.182C143.6 148.97 143.224 148.864 142.732 148.864C141.94 148.864 141.328 149.123 140.898 149.643L140.201 149.038C140.481 148.696 140.846 148.43 141.297 148.239C141.755 148.047 142.264 147.952 142.825 147.952C143.576 147.952 144.174 148.133 144.618 148.495C145.062 148.85 145.284 149.335 145.284 149.95C145.284 150.333 145.202 150.695 145.038 151.037C144.874 151.378 144.564 151.768 144.106 152.205L141.912 154.316H145.592Z" fill="#606572"/>
<path d="M137.109 177.924C136.569 177.924 136.046 177.842 135.54 177.678C135.042 177.507 134.649 177.288 134.362 177.022L134.741 176.222C135.014 176.468 135.363 176.67 135.786 176.827C136.217 176.977 136.658 177.053 137.109 177.053C137.703 177.053 138.147 176.954 138.441 176.755C138.735 176.55 138.882 176.281 138.882 175.946C138.882 175.7 138.8 175.502 138.636 175.351C138.479 175.194 138.28 175.075 138.041 174.993C137.809 174.911 137.478 174.818 137.047 174.716C136.507 174.586 136.07 174.456 135.735 174.326C135.407 174.197 135.124 173.998 134.884 173.732C134.652 173.459 134.536 173.093 134.536 172.635C134.536 172.253 134.635 171.908 134.833 171.6C135.038 171.293 135.346 171.047 135.756 170.862C136.166 170.678 136.675 170.585 137.283 170.585C137.706 170.585 138.123 170.64 138.533 170.749C138.943 170.859 139.295 171.016 139.589 171.221L139.251 172.041C138.95 171.849 138.629 171.706 138.287 171.61C137.946 171.508 137.611 171.457 137.283 171.457C136.702 171.457 136.265 171.562 135.971 171.774C135.684 171.986 135.54 172.259 135.54 172.594C135.54 172.84 135.622 173.042 135.786 173.199C135.95 173.349 136.152 173.469 136.391 173.558C136.637 173.64 136.968 173.728 137.385 173.824C137.925 173.954 138.359 174.084 138.687 174.214C139.015 174.343 139.295 174.542 139.527 174.808C139.767 175.075 139.886 175.433 139.886 175.884C139.886 176.26 139.784 176.605 139.579 176.919C139.374 177.227 139.063 177.473 138.646 177.657C138.229 177.835 137.717 177.924 137.109 177.924ZM143.271 173.681C143.975 173.749 144.511 173.968 144.88 174.337C145.249 174.699 145.434 175.163 145.434 175.73C145.434 176.14 145.331 176.513 145.126 176.848C144.921 177.176 144.614 177.439 144.204 177.637C143.801 177.828 143.305 177.924 142.718 177.924C142.205 177.924 141.713 177.849 141.242 177.698C140.77 177.541 140.384 177.326 140.083 177.053L140.555 176.243C140.801 176.475 141.115 176.663 141.498 176.807C141.881 176.943 142.287 177.012 142.718 177.012C143.25 177.012 143.664 176.899 143.958 176.673C144.258 176.448 144.409 176.137 144.409 175.741C144.409 175.344 144.262 175.037 143.968 174.818C143.674 174.6 143.23 174.49 142.636 174.49H142.062V173.773L143.865 171.559H140.411V170.667H145.147V171.364L143.271 173.681Z" fill="#606572"/>
<g opacity="0.4">
<path d="M137.972 103.706C138.933 103.706 139.689 103.927 140.239 104.371C140.79 104.814 141.066 105.425 141.066 106.202C141.066 106.98 140.79 107.591 140.239 108.034C139.689 108.477 138.933 108.699 137.972 108.699H136.139V110.868H135.08V103.706H137.972ZM137.941 107.809C138.611 107.809 139.124 107.673 139.477 107.4C139.83 107.12 140.006 106.721 140.006 106.202C140.006 105.684 139.83 105.288 139.477 105.015C139.124 104.736 138.611 104.596 137.941 104.596H136.139V107.809H137.941Z" fill="white" fill-opacity="0.7"/>
<path d="M142.622 103.706H143.682V110.868H142.622V103.706Z" fill="white" fill-opacity="0.7"/>
<path d="M152.271 103.706L149.018 110.868H147.969L144.706 103.706H145.851L148.52 109.589L151.211 103.706H152.271Z" fill="white" fill-opacity="0.7"/>
</g>
</g>
<defs>
<filter id="filter0_i_56_53982" x="442.162" y="34.4676" width="25.7852" height="154.716" filterUnits="userSpaceOnUse" color-interpolation-filters="sRGB">
<feFlood flood-opacity="0" result="BackgroundImageFix"/>
<feBlend mode="normal" in="SourceGraphic" in2="BackgroundImageFix" result="shape"/>
<feColorMatrix in="SourceAlpha" type="matrix" values="0 0 0 0 0 0 0 0 0 0 0 0 0 0 0 0 0 0 127 0" result="hardAlpha"/>
<feOffset dy="5.73021"/>
<feGaussianBlur stdDeviation="2.8651"/>
<feComposite in2="hardAlpha" operator="arithmetic" k2="-1" k3="1"/>
<feColorMatrix type="matrix" values="0 0 0 0 0 0 0 0 0 0 0 0 0 0 0 0 0 0 1 0"/>
<feBlend mode="normal" in2="shape" result="effect1_innerShadow_56_53982"/>
</filter>
<filter id="filter1_d_56_53982" x="0.645847" y="0.134813" width="85.5755" height="215.637" filterUnits="userSpaceOnUse" color-interpolation-filters="sRGB">
<feFlood flood-opacity="0" result="BackgroundImageFix"/>
<feColorMatrix in="SourceAlpha" type="matrix" values="0 0 0 0 0 0 0 0 0 0 0 0 0 0 0 0 0 0 127 0" result="hardAlpha"/>
<feOffset dy="14.3255"/>
<feGaussianBlur stdDeviation="14.3255"/>
<feColorMatrix type="matrix" values="0 0 0 0 0 0 0 0 0 0 0 0 0 0 0 0 0 0 0.2 0"/>
<feBlend mode="normal" in2="BackgroundImageFix" result="effect1_dropShadow_56_53982"/>
<feBlend mode="normal" in="SourceGraphic" in2="effect1_dropShadow_56_53982" result="shape"/>
</filter>
<filter id="filter2_d_56_53982" x="23.5667" y="14.4603" width="39.7338" height="39.7345" filterUnits="userSpaceOnUse" color-interpolation-filters="sRGB">
<feFlood flood-opacity="0" result="BackgroundImageFix"/>
<feColorMatrix in="SourceAlpha" type="matrix" values="0 0 0 0 0 0 0 0 0 0 0 0 0 0 0 0 0 0 127 0" result="hardAlpha"/>
<feOffset dy="5.73021"/>
<feGaussianBlur stdDeviation="2.8651"/>
<feColorMatrix type="matrix" values="0 0 0 0 0 0 0 0 0 0 0 0 0 0 0 0 0 0 0.4 0"/>
<feBlend mode="normal" in2="BackgroundImageFix" result="effect1_dropShadow_56_53982"/>
<feBlend mode="normal" in="SourceGraphic" in2="effect1_dropShadow_56_53982" result="shape"/>
</filter>
<filter id="filter3_d_56_53982" x="23.5667" y="14.4603" width="39.7338" height="39.7345" filterUnits="userSpaceOnUse" color-interpolation-filters="sRGB">
<feFlood flood-opacity="0" result="BackgroundImageFix"/>
<feColorMatrix in="SourceAlpha" type="matrix" values="0 0 0 0 0 0 0 0 0 0 0 0 0 0 0 0 0 0 127 0" result="hardAlpha"/>
<feOffset dy="5.73021"/>
<feGaussianBlur stdDeviation="2.8651"/>
<feColorMatrix type="matrix" values="0 0 0 0 0 0 0 0 0 0 0 0 0 0 0 0 0 0 0.4 0"/>
<feBlend mode="normal" in2="BackgroundImageFix" result="effect1_dropShadow_56_53982"/>
<feBlend mode="normal" in="SourceGraphic" in2="effect1_dropShadow_56_53982" result="shape"/>
</filter>
<filter id="filter4_d_56_53982" x="206.862" y="57.8055" width="49.7565" height="72.5367" filterUnits="userSpaceOnUse" color-interpolation-filters="sRGB">
<feFlood flood-opacity="0" result="BackgroundImageFix"/>
<feColorMatrix in="SourceAlpha" type="matrix" values="0 0 0 0 0 0 0 0 0 0 0 0 0 0 0 0 0 0 127 0" result="hardAlpha"/>
<feOffset/>
<feGaussianBlur stdDeviation="7.16276"/>
<feColorMatrix type="matrix" values="0 0 0 0 0.858824 0 0 0 0 0.286275 0 0 0 0 0.192157 0 0 0 0.8 0"/>
<feBlend mode="normal" in2="BackgroundImageFix" result="effect1_dropShadow_56_53982"/>
<feBlend mode="normal" in="SourceGraphic" in2="effect1_dropShadow_56_53982" result="shape"/>
</filter>
<filter id="filter5_d_56_53982" x="206.862" y="57.8055" width="49.7565" height="72.5367" filterUnits="userSpaceOnUse" color-interpolation-filters="sRGB">
<feFlood flood-opacity="0" result="BackgroundImageFix"/>
<feColorMatrix in="SourceAlpha" type="matrix" values="0 0 0 0 0 0 0 0 0 0 0 0 0 0 0 0 0 0 127 0" result="hardAlpha"/>
<feOffset/>
<feGaussianBlur stdDeviation="7.16276"/>
<feColorMatrix type="matrix" values="0 0 0 0 0.858824 0 0 0 0 0.286275 0 0 0 0 0.192157 0 0 0 0.8 0"/>
<feBlend mode="normal" in2="BackgroundImageFix" result="effect1_dropShadow_56_53982"/>
<feBlend mode="normal" in="SourceGraphic" in2="effect1_dropShadow_56_53982" result="shape"/>
</filter>
<filter id="filter6_d_56_53982" x="343.717" y="72.1311" width="32.5659" height="55.3461" filterUnits="userSpaceOnUse" color-interpolation-filters="sRGB">
<feFlood flood-opacity="0" result="BackgroundImageFix"/>
<feColorMatrix in="SourceAlpha" type="matrix" values="0 0 0 0 0 0 0 0 0 0 0 0 0 0 0 0 0 0 127 0" result="hardAlpha"/>
<feOffset dy="5.73021"/>
<feGaussianBlur stdDeviation="2.8651"/>
<feColorMatrix type="matrix" values="0 0 0 0 0 0 0 0 0 0 0 0 0 0 0 0 0 0 0.25 0"/>
<feBlend mode="normal" in2="BackgroundImageFix" result="effect1_dropShadow_56_53982"/>
<feBlend mode="normal" in="SourceGraphic" in2="effect1_dropShadow_56_53982" result="shape"/>
</filter>
<filter id="filter7_d_56_53982" x="310.576" y="45.5771" width="50.9038" height="42.8517" filterUnits="userSpaceOnUse" color-interpolation-filters="sRGB">
<feFlood flood-opacity="0" result="BackgroundImageFix"/>
<feColorMatrix in="SourceAlpha" type="matrix" values="0 0 0 0 0 0 0 0 0 0 0 0 0 0 0 0 0 0 127 0" result="hardAlpha"/>
<feOffset dy="5.73021"/>
<feGaussianBlur stdDeviation="2.8651"/>
<feColorMatrix type="matrix" values="0 0 0 0 0 0 0 0 0 0 0 0 0 0 0 0 0 0 0.25 0"/>
<feBlend mode="normal" in2="BackgroundImageFix" result="effect1_dropShadow_56_53982"/>
<feBlend mode="normal" in="SourceGraphic" in2="effect1_dropShadow_56_53982" result="shape"/>
</filter>
<filter id="filter8_d_56_53982" x="229.811" y="45.578" width="50.9038" height="42.8517" filterUnits="userSpaceOnUse" color-interpolation-filters="sRGB">
<feFlood flood-opacity="0" result="BackgroundImageFix"/>
<feColorMatrix in="SourceAlpha" type="matrix" values="0 0 0 0 0 0 0 0 0 0 0 0 0 0 0 0 0 0 127 0" result="hardAlpha"/>
<feOffset dy="5.73021"/>
<feGaussianBlur stdDeviation="2.8651"/>
<feColorMatrix type="matrix" values="0 0 0 0 0 0 0 0 0 0 0 0 0 0 0 0 0 0 0.25 0"/>
<feBlend mode="normal" in2="BackgroundImageFix" result="effect1_dropShadow_56_53982"/>
<feBlend mode="normal" in="SourceGraphic" in2="effect1_dropShadow_56_53982" result="shape"/>
</filter>
<filter id="filter9_d_56_53982" x="266.955" y="41.9376" width="57.3764" height="22.1745" filterUnits="userSpaceOnUse" color-interpolation-filters="sRGB">
<feFlood flood-opacity="0" result="BackgroundImageFix"/>
<feColorMatrix in="SourceAlpha" type="matrix" values="0 0 0 0 0 0 0 0 0 0 0 0 0 0 0 0 0 0 127 0" result="hardAlpha"/>
<feOffset dy="5.73021"/>
<feGaussianBlur stdDeviation="2.8651"/>
<feColorMatrix type="matrix" values="0 0 0 0 0 0 0 0 0 0 0 0 0 0 0 0 0 0 0.25 0"/>
<feBlend mode="normal" in2="BackgroundImageFix" result="effect1_dropShadow_56_53982"/>
<feBlend mode="normal" in="SourceGraphic" in2="effect1_dropShadow_56_53982" result="shape"/>
</filter>
<filter id="filter10_d_56_53982" x="184.61" y="82.2697" width="40.6831" height="26.089" filterUnits="userSpaceOnUse" color-interpolation-filters="sRGB">
<feFlood flood-opacity="0" result="BackgroundImageFix"/>
<feColorMatrix in="SourceAlpha" type="matrix" values="0 0 0 0 0 0 0 0 0 0 0 0 0 0 0 0 0 0 127 0" result="hardAlpha"/>
<feOffset dy="2.8651"/>
<feGaussianBlur stdDeviation="2.8651"/>
<feColorMatrix type="matrix" values="0 0 0 0 0.858824 0 0 0 0 0.286275 0 0 0 0 0.192157 0 0 0 0.25 0"/>
<feBlend mode="normal" in2="BackgroundImageFix" result="effect1_dropShadow_56_53982"/>
<feBlend mode="normal" in="SourceGraphic" in2="effect1_dropShadow_56_53982" result="shape"/>
</filter>
<filter id="filter11_d_56_53982" x="229.744" y="80.5352" width="22.1159" height="19.9754" filterUnits="userSpaceOnUse" color-interpolation-filters="sRGB">
<feFlood flood-opacity="0" result="BackgroundImageFix"/>
<feColorMatrix in="SourceAlpha" type="matrix" values="0 0 0 0 0 0 0 0 0 0 0 0 0 0 0 0 0 0 127 0" result="hardAlpha"/>
<feOffset dy="2.62223"/>
<feGaussianBlur stdDeviation="2.62223"/>
<feColorMatrix type="matrix" values="0 0 0 0 0 0 0 0 0 0 0 0 0 0 0 0 0 0 1 0"/>
<feBlend mode="normal" in2="BackgroundImageFix" result="effect1_dropShadow_56_53982"/>
<feBlend mode="normal" in="SourceGraphic" in2="effect1_dropShadow_56_53982" result="shape"/>
</filter>
<filter id="filter12_d_56_53982" x="98.4044" y="18.7581" width="56.3416" height="184.513" filterUnits="userSpaceOnUse" color-interpolation-filters="sRGB">
<feFlood flood-opacity="0" result="BackgroundImageFix"/>
<feColorMatrix in="SourceAlpha" type="matrix" values="0 0 0 0 0 0 0 0 0 0 0 0 0 0 0 0 0 0 127 0" result="hardAlpha"/>
<feOffset dy="2.96941"/>
<feGaussianBlur stdDeviation="1.23725"/>
<feComposite in2="hardAlpha" operator="out"/>
<feColorMatrix type="matrix" values="0 0 0 0 0 0 0 0 0 0 0 0 0 0 0 0 0 0 0.25 0"/>
<feBlend mode="normal" in2="BackgroundImageFix" result="effect1_dropShadow_56_53982"/>
<feBlend mode="normal" in="SourceGraphic" in2="effect1_dropShadow_56_53982" result="shape"/>
</filter>
<linearGradient id="paint0_linear_56_53982" x1="492.835" y1="2.99997" x2="-10.5575" y2="55.1831" gradientUnits="userSpaceOnUse">
<stop stop-color="#232E40"/>
<stop offset="1" stop-color="#2A2736"/>
</linearGradient>
<linearGradient id="paint1_linear_56_53982" x1="5.99609" y1="3.00006" x2="509.388" y2="55.1832" gradientUnits="userSpaceOnUse">
<stop stop-color="#D6DDEE" stop-opacity="0.49"/>
<stop offset="1" stop-color="#D6DDEE" stop-opacity="0.1"/>
</linearGradient>
<linearGradient id="paint2_linear_56_53982" x1="222.035" y1="137.319" x2="293.395" y2="137.319" gradientUnits="userSpaceOnUse">
<stop stop-color="#2CAC40"/>
<stop offset="1" stop-color="#D5CE41"/>
</linearGradient>
<linearGradient id="paint3_linear_56_53982" x1="294.668" y1="140.399" x2="367.229" y2="140.399" gradientUnits="userSpaceOnUse">
<stop stop-color="#EA712C"/>
<stop offset="1" stop-color="#D64730"/>
<stop offset="1" stop-color="#D64730"/>
</linearGradient>
<linearGradient id="paint4_linear_56_53982" x1="223.666" y1="116.439" x2="238.354" y2="72.5534" gradientUnits="userSpaceOnUse">
<stop offset="0.484375" stop-color="#DB4931"/>
<stop offset="1" stop-color="#F2A496"/>
</linearGradient>
<linearGradient id="paint5_linear_56_53982" x1="366.31" y1="116.439" x2="353.272" y2="73.8885" gradientUnits="userSpaceOnUse">
<stop stop-color="#2CAC40"/>
<stop offset="1" stop-color="#91CD9D"/>
</linearGradient>
<linearGradient id="paint6_linear_56_53982" x1="351.943" y1="74.2535" x2="314.943" y2="48.2154" gradientUnits="userSpaceOnUse">
<stop stop-color="#91CD9D"/>
<stop offset="1" stop-color="#B1B6C8"/>
</linearGradient>
<linearGradient id="paint7_linear_56_53982" x1="242.289" y1="72.1512" x2="274.662" y2="50.3138" gradientUnits="userSpaceOnUse">
<stop stop-color="#F2A496"/>
<stop offset="1" stop-color="#B1B6C8"/>
</linearGradient>
<linearGradient id="paint8_linear_56_53982" x1="129.915" y1="177.771" x2="129.915" y2="170.967" gradientUnits="userSpaceOnUse">
<stop stop-color="#58DEFB" stop-opacity="0"/>
<stop offset="0.513158" stop-color="#58DEFB"/>
<stop offset="1" stop-color="#58DEFB" stop-opacity="0"/>
</linearGradient>
</defs>
</svg>
