<svg width="12" height="17" viewBox="0 0 12 17" fill="none" xmlns="http://www.w3.org/2000/svg">
<path d="M11.2925 11.2838C11.2925 12.2339 10.9491 13.058 10.2623 13.7563C9.58693 14.4431 8.60252 14.8838 7.30906 15.0784V16.9842H5.24867V15.147C4.39018 15.0898 3.57747 14.9467 2.81055 14.7178C2.04363 14.4774 1.40834 14.1855 0.904689 13.8421L2.02073 11.3353C2.55872 11.6902 3.18256 11.9763 3.89225 12.1938C4.60194 12.4113 5.30018 12.52 5.98698 12.52C7.29189 12.52 7.94435 12.1938 7.94435 11.5414C7.94435 11.198 7.75548 10.9461 7.37774 10.7859C7.01145 10.6142 6.41623 10.4368 5.59207 10.2536C4.68779 10.059 3.93231 9.85299 3.32564 9.6355C2.71897 9.40657 2.19815 9.046 1.76318 8.5538C1.32821 8.06159 1.11073 7.39769 1.11073 6.56209C1.11073 5.57768 1.46557 4.73636 2.17526 4.03812C2.88495 3.32843 3.90942 2.89346 5.24867 2.7332V0.844515H7.30906V2.69886C7.96152 2.7561 8.58536 2.87056 9.18058 3.04226C9.78725 3.21396 10.3252 3.43717 10.7945 3.71189L9.74718 6.23586C8.60252 5.61775 7.49221 5.30869 6.41622 5.30869C5.74088 5.30869 5.24867 5.41171 4.93961 5.61775C4.63056 5.81234 4.47603 6.06989 4.47603 6.39039C4.47603 6.7109 4.65917 6.95127 5.02546 7.11153C5.39175 7.27178 5.98125 7.43775 6.79396 7.60945C7.70969 7.80405 8.46517 8.01581 9.06039 8.24474C9.66706 8.46222 10.1879 8.81707 10.6228 9.30927C11.0693 9.79003 11.2925 10.4482 11.2925 11.2838Z" fill="#D6DDEE"/>
</svg>
