<svg width="24" height="19" viewBox="0 0 24 19" fill="none" xmlns="http://www.w3.org/2000/svg">
<path d="M10.3414 14.1901C10.3414 14.1901 10.4028 14.1287 10.3414 14.1287C7.51568 7.98578 3.64564 3.25574 3.64564 3.25574C3.64564 3.25574 1.55705 5.22147 1.67991 7.24864C1.74134 8.78436 2.90849 9.64437 2.90849 9.64437C4.75136 11.4258 9.17426 13.6987 10.2186 14.1901H10.3414ZM9.60426 15.7259C9.60426 15.6644 9.48141 15.6644 9.48141 15.6644L2.10991 15.9101C2.90849 17.323 4.25993 18.4287 5.6728 18.1216C6.65567 17.8759 8.86712 16.3401 9.54284 15.8487C9.66569 15.7259 9.60426 15.7259 9.60426 15.7259V15.7259ZM9.72712 15.0501C9.78855 14.9887 9.72712 14.9273 9.72712 14.9273C6.47138 12.7158 0.20561 9.39865 0.20561 9.39865C-0.347252 11.1801 0.389897 12.593 0.389897 12.593C1.18848 14.313 2.7242 14.8044 2.7242 14.8044C3.39992 15.1116 4.13707 15.1116 4.13707 15.1116H9.66569C9.72712 15.1116 9.72712 15.0501 9.72712 15.0501ZM10.2186 0.0614291C9.91141 0.0614291 9.0514 0.307146 9.0514 0.307146C7.08567 0.798578 6.65567 2.58002 6.65567 2.58002C6.28709 3.68575 6.65567 4.91433 6.65567 4.91433C7.33139 7.8015 10.5257 12.593 11.2014 13.5758L11.2629 13.6373C11.3243 13.6373 11.3243 13.5758 11.3243 13.5758C12.43 2.82574 10.2186 0.0614291 10.2186 0.0614291V0.0614291ZM12.6757 13.5758C12.7372 13.5758 12.7986 13.5144 12.7986 13.5144C13.5357 12.4701 16.6686 7.74007 17.3443 4.8529C17.3443 4.8529 17.7129 3.44003 17.3443 2.51859C17.3443 2.51859 16.8529 0.737149 14.8872 0.245716C14.8872 0.245716 14.3343 0.122858 13.72 0C13.72 0 11.5086 2.82574 12.6143 13.453C12.6143 13.5758 12.6757 13.5758 12.6757 13.5758V13.5758ZM14.3957 15.6644C14.3957 15.6644 14.3343 15.6644 14.3343 15.7259V15.8487C15.0715 16.3401 17.16 17.8759 18.2043 18.1216C18.2043 18.1216 20.1086 18.7973 21.7672 15.9101L14.3957 15.6644ZM23.7944 9.33723C23.7944 9.33723 17.5286 12.7158 14.2729 14.9273C14.2729 14.9273 14.2114 14.9887 14.2114 15.0501C14.2114 15.0501 14.2114 15.1116 14.2729 15.1116H19.9244C19.9244 15.1116 20.4772 15.1116 21.2144 14.8044C21.2144 14.8044 22.7501 14.313 23.6101 12.5315C23.6101 12.4701 24.3473 11.0572 23.7944 9.33723V9.33723ZM13.6586 14.1901C13.6586 14.1901 13.72 14.2516 13.7814 14.1901C14.8257 13.6373 19.2486 11.4258 21.0915 9.64437C21.0915 9.64437 22.2587 8.72293 22.3201 7.24864C22.443 5.16005 20.3544 3.25574 20.3544 3.25574C20.3544 3.25574 16.4843 7.86293 13.6586 14.0673C13.6586 14.0673 13.5972 14.1287 13.6586 14.1901Z" fill="#D6DDEE" fill-opacity="0.8"/>
</svg>
