<svg width="736" height="570" viewBox="0 0 736 570" fill="none" xmlns="http://www.w3.org/2000/svg">
<g clip-path="url(#clip0_1373_15616)">
<g filter="url(#filter0_f_1373_15616)">
<path d="M96.7937 409.557L263.627 505.736C277.021 513.466 300.426 512.537 315.84 503.583L693.479 285.971C707.35 276.904 706.238 265.185 706.238 259.268C706.238 254.372 703.309 259.269 697.157 255.846L530.324 159.666C516.93 151.936 493.547 152.865 478.11 161.933L100.471 379.544C93.4793 383.579 88.9844 380.111 87.7358 385.053C84.8755 397.361 89.4385 405.318 96.7937 409.557Z" fill="#0F1422" fill-opacity="0.8"/>
</g>
<path d="M96.7942 376.631L263.627 472.81C277.021 480.54 300.426 479.611 315.841 470.657L693.48 253.045C707.35 243.978 706.238 232.259 706.238 226.343C706.238 221.446 703.31 226.343 697.157 222.92L530.324 126.74C516.93 119.01 493.548 119.939 478.111 129.007L100.472 346.618C93.4798 350.653 88.9849 347.185 87.7363 352.127C84.876 364.435 89.439 372.392 96.7942 376.631Z" fill="#C4C4C4"/>
<path d="M96.7942 376.631L263.627 472.81C277.021 480.54 300.426 479.611 315.841 470.657L693.48 253.045C707.35 243.978 706.238 232.259 706.238 226.343C706.238 221.446 703.31 226.343 697.157 222.92L530.324 126.74C516.93 119.01 493.548 119.939 478.111 129.007L100.472 346.618C93.4798 350.653 88.9849 347.185 87.7363 352.127C84.876 364.435 89.439 372.392 96.7942 376.631Z" fill="url(#paint0_radial_1373_15616)"/>
<path d="M96.7942 376.631L263.627 472.81C277.021 480.54 300.426 479.611 315.841 470.657L693.48 253.045C707.35 243.978 706.238 232.259 706.238 226.343C706.238 221.446 703.31 226.343 697.157 222.92L530.324 126.74C516.93 119.01 493.548 119.939 478.111 129.007L100.472 346.618C93.4798 350.653 88.9849 347.185 87.7363 352.127C84.876 364.435 89.439 372.392 96.7942 376.631Z" fill="url(#paint1_radial_1373_15616)"/>
<path d="M96.7941 366.272L263.627 462.429C277.021 470.159 300.426 469.229 315.841 460.162L693.48 242.55C708.939 233.619 710.619 220.132 697.225 212.425L530.392 116.245C516.998 108.515 493.616 109.444 478.179 118.398L100.54 336.01C85.0801 345.054 83.4002 358.542 96.7941 366.272Z" fill="url(#paint2_linear_1373_15616)"/>
<path d="M96.7941 366.272L263.627 462.429C277.021 470.159 300.426 469.229 315.841 460.162L693.48 242.55C708.939 233.619 710.619 220.132 697.225 212.425L530.392 116.245C516.998 108.515 493.616 109.444 478.179 118.398L100.54 336.01C85.0801 345.054 83.4002 358.542 96.7941 366.272Z" fill="url(#paint3_radial_1373_15616)"/>
<path d="M314.071 456.196L692.278 238.199C705.899 230.378 707.329 218.523 695.569 211.723L529.19 115.815C517.431 109.014 496.863 109.876 483.265 117.719L105.149 335.716C91.5285 343.536 90.0756 355.392 101.858 362.192L268.214 458.1C279.928 464.878 300.473 464.039 314.071 456.196Z" fill="url(#paint4_radial_1373_15616)"/>
<path d="M314.071 456.196L692.278 238.199C705.899 230.378 707.329 218.523 695.569 211.723L529.19 115.815C517.431 109.014 496.863 109.876 483.265 117.719L105.149 335.716C91.5285 343.536 90.0756 355.392 101.858 362.192L268.214 458.1C279.928 464.878 300.473 464.039 314.071 456.196Z" fill="url(#paint5_radial_1373_15616)"/>
<path d="M311.505 454.926L690.007 236.725C702.197 229.698 703.514 219.089 692.958 212.991L526.942 117.355C516.386 111.258 497.952 112.029 485.762 119.056L107.26 337.234C95.0919 344.261 93.7525 354.892 104.309 360.967L270.347 456.671C280.881 462.724 299.314 461.908 311.505 454.926Z" fill="url(#paint6_radial_1373_15616)"/>
<path d="M309.372 453.883L688.168 235.5C699.179 229.153 700.382 219.633 690.847 214.057L525.126 118.489C515.592 113.003 498.929 113.683 487.919 120.03L109.122 338.413C98.1115 344.76 96.9083 354.28 106.443 359.879L272.164 455.424C281.698 460.91 298.361 460.23 309.372 453.883Z" fill="url(#paint7_radial_1373_15616)"/>
<path d="M309.372 453.883L688.168 235.5C699.179 229.153 700.382 219.633 690.847 214.057L525.126 118.489C515.592 113.003 498.929 113.683 487.919 120.03L109.122 338.413C98.1115 344.76 96.9083 354.28 106.443 359.879L272.164 455.424C281.698 460.91 298.361 460.23 309.372 453.883Z" fill="url(#paint8_radial_1373_15616)"/>
<path d="M493.865 123.453L115 341.768C107.282 346.302 107.305 353.487 115 357.975L275.227 450.324C279.578 452.532 284.388 453.683 289.268 453.683C294.148 453.683 298.959 452.532 303.309 450.324L682.265 232.055C690.006 227.522 689.961 220.336 682.265 215.87L650.937 197.736C646.362 195.407 641.072 194.897 636.135 196.308C631.19 197.711 625.897 197.201 621.311 194.88L558.337 158.611C554.433 156.345 553.434 152.922 555.863 150.066C558.292 147.232 557.293 143.787 553.389 141.542L522.061 123.408C517.691 121.192 512.858 120.041 507.957 120.049C503.057 120.057 498.228 121.223 493.865 123.453Z" fill="#1B202F"/>
<path d="M616.68 286.911C615.817 287.387 616.839 290.742 617.747 290.221L668.008 261.999C668.916 261.478 668.258 258.01 667.463 257.466L616.68 286.911Z" fill="url(#paint9_radial_1373_15616)"/>
<path d="M616.68 286.911C615.817 287.387 616.839 290.742 617.747 290.221L668.008 261.999C668.916 261.478 668.258 258.01 667.463 257.466L616.68 286.911Z" fill="black" fill-opacity="0.2"/>
<path d="M557.363 320.867C556.5 321.366 557.544 324.721 558.43 324.199L608.691 295.978C609.599 295.457 608.94 291.988 608.169 291.444H608.055C608.055 291.444 558.225 320.391 557.363 320.867Z" fill="url(#paint10_radial_1373_15616)"/>
<path d="M557.363 320.867C556.5 321.366 557.544 324.721 558.43 324.199L608.691 295.978C609.599 295.457 608.94 291.988 608.169 291.444H608.055C608.055 291.444 558.225 320.391 557.363 320.867Z" fill="black" fill-opacity="0.2"/>
<path d="M401.264 162.691H401.151C400.356 162.238 400.47 161.444 401.355 160.923L449.028 133.449C449.495 133.192 450.015 133.048 450.547 133.029C451.079 133.009 451.609 133.114 452.093 133.336H452.207L401.264 162.691Z" fill="url(#paint11_linear_1373_15616)"/>
<path d="M593.411 168.177C591.141 169.424 591.141 171.464 593.411 172.711C594.635 173.332 595.988 173.656 597.361 173.656C598.734 173.656 600.088 173.332 601.311 172.711C603.582 171.464 603.468 169.424 601.311 168.177C600.088 167.556 598.734 167.232 597.361 167.232C595.988 167.232 594.635 167.556 593.411 168.177Z" fill="#011E5D"/>
<g style="mix-blend-mode:soft-light">
<g style="mix-blend-mode:soft-light">
<g style="mix-blend-mode:soft-light">
<path d="M521.24 133.223L522.148 133.722C522.228 133.766 522.318 133.788 522.409 133.788C522.501 133.788 522.59 133.766 522.67 133.722L524.827 132.498C524.986 132.498 524.986 132.271 524.827 132.18L523.942 131.682C523.858 131.638 523.764 131.615 523.669 131.615C523.575 131.615 523.481 131.638 523.397 131.682L521.263 132.906C521.127 133.065 521.104 133.223 521.24 133.223Z" fill="white"/>
</g>
<g style="mix-blend-mode:soft-light">
<path d="M519.265 132.135L520.173 132.656C520.253 132.7 520.343 132.723 520.434 132.723C520.526 132.723 520.615 132.7 520.696 132.656L523.669 130.956C523.806 130.956 523.828 130.729 523.669 130.639L522.784 130.14C522.702 130.09 522.608 130.063 522.512 130.063C522.416 130.063 522.321 130.09 522.239 130.14L519.288 131.84C519.152 131.931 519.129 132.067 519.265 132.135Z" fill="white"/>
</g>
<g style="mix-blend-mode:soft-light">
<path d="M517.288 130.956L518.173 131.477C518.259 131.516 518.352 131.536 518.446 131.536C518.54 131.536 518.633 131.516 518.718 131.477L522.646 129.211C522.805 129.211 522.827 128.984 522.646 128.893L521.738 128.395C521.657 128.351 521.568 128.328 521.477 128.328C521.385 128.328 521.295 128.351 521.215 128.395L517.288 130.661C517.175 130.775 517.152 130.956 517.288 130.956Z" fill="white"/>
</g>
</g>
<g style="mix-blend-mode:soft-light">
<g style="mix-blend-mode:soft-light">
<path d="M530.231 138.459L537.927 142.993C538.093 143.076 538.275 143.12 538.461 143.12C538.646 143.12 538.829 143.076 538.994 142.993L541.628 141.474C541.923 141.293 541.968 141.021 541.628 140.862L533.932 136.328C533.766 136.245 533.584 136.201 533.398 136.201C533.213 136.201 533.03 136.245 532.865 136.328L530.231 137.847C530.004 138.028 529.959 138.3 530.231 138.459Z" stroke="white" stroke-width="0.32" stroke-miterlimit="10"/>
</g>
<g style="mix-blend-mode:soft-light">
<path d="M530.346 137.122L530.959 137.485L532.275 136.714L531.662 136.352L530.346 137.122Z" stroke="white" stroke-width="0.32" stroke-linecap="round" stroke-linejoin="round"/>
</g>
<g style="mix-blend-mode:soft-light">
<path d="M537.949 141.905L538.312 142.109L540.31 140.953L539.924 140.749L537.949 141.905Z" stroke="white" stroke-width="0.29" stroke-linecap="round" stroke-linejoin="round"/>
</g>
<g style="mix-blend-mode:soft-light">
<path d="M536.703 141.18L537.066 141.384L539.064 140.25L538.701 140.023L536.703 141.18Z" stroke="white" stroke-width="0.29" stroke-linecap="round" stroke-linejoin="round"/>
</g>
<g style="mix-blend-mode:soft-light">
<path d="M535.452 140.454L535.816 140.658L537.813 139.525L537.427 139.298L535.452 140.454Z" stroke="white" stroke-width="0.29" stroke-linecap="round" stroke-linejoin="round"/>
</g>
<g style="mix-blend-mode:soft-light">
<path d="M534.202 139.729L534.566 139.956L536.563 138.8L536.177 138.596L534.202 139.729Z" stroke="white" stroke-width="0.29" stroke-linecap="round" stroke-linejoin="round"/>
</g>
</g>
</g>
<path d="M493.862 68.5505L114.998 286.956C107.279 291.489 107.302 298.652 114.998 303.141L275.224 395.512C279.575 397.72 284.385 398.871 289.265 398.871C294.145 398.871 298.956 397.72 303.306 395.512L682.262 177.152C690.003 172.619 689.958 165.433 682.262 160.945L650.934 142.811C646.359 140.482 641.07 139.972 636.132 141.382C631.184 142.779 625.891 142.261 621.308 139.932L558.335 103.754C554.43 101.487 553.431 98.0641 555.86 95.208C558.289 92.3518 557.29 88.929 553.386 86.6622L522.058 68.5279C517.69 66.3084 512.858 65.1533 507.957 65.1572C503.057 65.1612 498.226 66.324 493.862 68.5505Z" fill="url(#paint12_radial_1373_15616)"/>
<path d="M493.862 68.5505L114.998 286.956C107.279 291.489 107.302 298.652 114.998 303.141L275.224 395.512C279.575 397.72 284.385 398.871 289.265 398.871C294.145 398.871 298.956 397.72 303.306 395.512L682.262 177.152C690.003 172.619 689.958 165.433 682.262 160.945L650.934 142.811C646.359 140.482 641.07 139.972 636.132 141.382C631.184 142.779 625.891 142.261 621.308 139.932L558.335 103.754C554.43 101.487 553.431 98.0641 555.86 95.208C558.289 92.3518 557.29 88.929 553.386 86.6622L522.058 68.5279C517.69 66.3084 512.858 65.1533 507.957 65.1572C503.057 65.1612 498.226 66.324 493.862 68.5505Z" fill="url(#paint13_radial_1373_15616)"/>
<g style="mix-blend-mode:screen" opacity="0.22">
<g style="mix-blend-mode:screen" opacity="0.22">
<g style="mix-blend-mode:screen" opacity="0.22">
<path d="M437.897 37.0879L730.791 205.941" stroke="#0050FF" stroke-width="0.25" stroke-miterlimit="10"/>
</g>
<g style="mix-blend-mode:screen" opacity="0.22">
<path d="M417.944 48.5801L710.861 217.433" stroke="#0050FF" stroke-width="0.25" stroke-miterlimit="10"/>
</g>
<g style="mix-blend-mode:screen" opacity="0.22">
<path d="M398.009 60.0732L690.904 228.926" stroke="#0050FF" stroke-width="0.25" stroke-miterlimit="10"/>
</g>
<g style="mix-blend-mode:screen" opacity="0.22">
<path d="M378.057 71.5654L670.974 240.419" stroke="#0050FF" stroke-width="0.25" stroke-miterlimit="10"/>
</g>
<g style="mix-blend-mode:screen" opacity="0.22">
<path d="M358.122 83.0586L651.017 251.912" stroke="#0050FF" stroke-width="0.25" stroke-miterlimit="10"/>
</g>
<g style="mix-blend-mode:screen" opacity="0.22">
<path d="M338.192 94.5508L631.086 263.427" stroke="#0050FF" stroke-width="0.25" stroke-miterlimit="10"/>
</g>
<g style="mix-blend-mode:screen" opacity="0.22">
<path d="M318.239 106.044L611.156 274.92" stroke="#0050FF" stroke-width="0.25" stroke-miterlimit="10"/>
</g>
<g style="mix-blend-mode:screen" opacity="0.22">
<path d="M298.305 117.559L591.199 286.412" stroke="#0050FF" stroke-width="0.25" stroke-miterlimit="10"/>
</g>
<g style="mix-blend-mode:screen" opacity="0.22">
<path d="M278.375 129.051L571.269 297.904" stroke="#0050FF" stroke-width="0.25" stroke-miterlimit="10"/>
</g>
<g style="mix-blend-mode:screen" opacity="0.22">
<path d="M258.417 140.544L551.334 309.397" stroke="#0050FF" stroke-width="0.25" stroke-miterlimit="10"/>
</g>
<g style="mix-blend-mode:screen" opacity="0.22">
<path d="M238.487 152.037L531.382 320.89" stroke="#0050FF" stroke-width="0.25" stroke-miterlimit="10"/>
</g>
<g style="mix-blend-mode:screen" opacity="0.22">
<path d="M218.534 163.529L511.451 332.382" stroke="#0050FF" stroke-width="0.25" stroke-miterlimit="10"/>
</g>
<g style="mix-blend-mode:screen" opacity="0.22">
<path d="M198.599 175.021L491.517 343.875" stroke="#0050FF" stroke-width="0.25" stroke-miterlimit="10"/>
</g>
<g style="mix-blend-mode:screen" opacity="0.22">
<path d="M178.669 186.515L471.564 355.39" stroke="#0050FF" stroke-width="0.25" stroke-miterlimit="10"/>
</g>
<g style="mix-blend-mode:screen" opacity="0.22">
<path d="M158.712 198.008L451.629 366.884" stroke="#0050FF" stroke-width="0.25" stroke-miterlimit="10"/>
</g>
<g style="mix-blend-mode:screen" opacity="0.22">
<path d="M138.782 209.522L431.677 378.376" stroke="#0050FF" stroke-width="0.25" stroke-miterlimit="10"/>
</g>
<g style="mix-blend-mode:screen" opacity="0.22">
<path d="M118.848 221.016L411.742 389.869" stroke="#0050FF" stroke-width="0.25" stroke-miterlimit="10"/>
</g>
<g style="mix-blend-mode:screen" opacity="0.22">
<path d="M98.8949 232.508L391.812 401.361" stroke="#0050FF" stroke-width="0.25" stroke-miterlimit="10"/>
</g>
<g style="mix-blend-mode:screen" opacity="0.22">
<path d="M78.965 244L371.859 412.853" stroke="#0050FF" stroke-width="0.25" stroke-miterlimit="10"/>
</g>
<g style="mix-blend-mode:screen" opacity="0.22">
<path d="M59.0076 255.493L351.925 424.346" stroke="#0050FF" stroke-width="0.25" stroke-miterlimit="10"/>
</g>
<g style="mix-blend-mode:screen" opacity="0.22">
<path d="M39.0771 266.986L331.994 435.839" stroke="#0050FF" stroke-width="0.25" stroke-miterlimit="10"/>
</g>
</g>
<g style="mix-blend-mode:screen" opacity="0.22">
<g style="mix-blend-mode:screen" opacity="0.22">
<path d="M21.8945 285.823L470.566 27.1592" stroke="#0050FF" stroke-width="0.31" stroke-miterlimit="10"/>
</g>
<g style="mix-blend-mode:screen" opacity="0.22">
<path d="M41.7094 297.247L490.381 38.584" stroke="#0050FF" stroke-width="0.31" stroke-miterlimit="10"/>
</g>
<g style="mix-blend-mode:screen" opacity="0.22">
<path d="M61.5289 308.672L510.201 50.0088" stroke="#0050FF" stroke-width="0.31" stroke-miterlimit="10"/>
</g>
<g style="mix-blend-mode:screen" opacity="0.22">
<path d="M81.3261 320.096L529.998 61.4326" stroke="#0050FF" stroke-width="0.31" stroke-miterlimit="10"/>
</g>
<g style="mix-blend-mode:screen" opacity="0.22">
<path d="M101.145 331.521L549.817 72.8574" stroke="#0050FF" stroke-width="0.31" stroke-miterlimit="10"/>
</g>
<g style="mix-blend-mode:screen" opacity="0.22">
<path d="M120.961 342.945L569.632 84.2822" stroke="#0050FF" stroke-width="0.31" stroke-miterlimit="10"/>
</g>
<g style="mix-blend-mode:screen" opacity="0.22">
<path d="M140.78 354.37L589.452 95.707" stroke="#0050FF" stroke-width="0.31" stroke-miterlimit="10"/>
</g>
<g style="mix-blend-mode:screen" opacity="0.22">
<path d="M160.599 365.794L609.271 107.131" stroke="#0050FF" stroke-width="0.31" stroke-miterlimit="10"/>
</g>
<g style="mix-blend-mode:screen" opacity="0.22">
<path d="M180.419 377.22L629.091 118.557" stroke="#0050FF" stroke-width="0.31" stroke-miterlimit="10"/>
</g>
<g style="mix-blend-mode:screen" opacity="0.22">
<path d="M200.234 388.644L648.906 129.98" stroke="#0050FF" stroke-width="0.31" stroke-miterlimit="10"/>
</g>
<g style="mix-blend-mode:screen" opacity="0.22">
<path d="M220.054 400.069L668.726 141.405" stroke="#0050FF" stroke-width="0.31" stroke-miterlimit="10"/>
</g>
<g style="mix-blend-mode:screen" opacity="0.22">
<path d="M239.873 411.493L688.545 152.83" stroke="#0050FF" stroke-width="0.31" stroke-miterlimit="10"/>
</g>
<g style="mix-blend-mode:screen" opacity="0.22">
<path d="M259.67 422.917L708.364 164.254" stroke="#0050FF" stroke-width="0.31" stroke-miterlimit="10"/>
</g>
<g style="mix-blend-mode:screen" opacity="0.22">
<path d="M279.485 434.343L728.157 175.68" stroke="#0050FF" stroke-width="0.31" stroke-miterlimit="10"/>
</g>
<g style="mix-blend-mode:screen" opacity="0.22">
<path d="M299.305 445.767L747.977 187.104" stroke="#0050FF" stroke-width="0.31" stroke-miterlimit="10"/>
</g>
</g>
</g>
<g style="mix-blend-mode:soft-light">
<g style="mix-blend-mode:soft-light">
<path d="M636.357 213.535L641.488 210.565L603.871 188.895L598.741 191.864L636.357 213.535Z" fill="white" fill-opacity="0.1"/>
</g>
<g style="mix-blend-mode:soft-light">
<path d="M629.183 217.66L634.336 214.69L592.611 190.662L587.48 193.609L629.183 217.66Z" fill="white" fill-opacity="0.1"/>
</g>
<g style="mix-blend-mode:soft-light">
<path d="M622.032 221.786L627.162 218.839L601.396 203.969L596.243 206.938L622.032 221.786Z" fill="white" fill-opacity="0.1"/>
</g>
<g style="mix-blend-mode:soft-light">
<path d="M614.857 225.911L620.01 222.964L583.733 202.042L578.603 205.012L614.857 225.911Z" fill="white" fill-opacity="0.1"/>
</g>
<g style="mix-blend-mode:soft-light">
<path d="M607.71 230.037L612.863 227.09L589.299 213.512L584.168 216.459L607.71 230.037Z" fill="white" fill-opacity="0.1"/>
</g>
<g style="mix-blend-mode:soft-light">
<path d="M600.558 234.163L605.688 231.216L573.952 212.9L568.799 215.87L600.558 234.163Z" fill="white" fill-opacity="0.1"/>
</g>
<g style="mix-blend-mode:soft-light">
<path d="M593.406 238.288L598.537 235.342L560.92 213.648L555.79 216.618L593.406 238.288Z" fill="white" fill-opacity="0.1"/>
</g>
<g style="mix-blend-mode:soft-light">
<path d="M586.231 242.414L591.385 239.467L541.805 210.883L536.652 213.852L586.231 242.414Z" fill="white" fill-opacity="0.1"/>
</g>
<g style="mix-blend-mode:soft-light">
<path d="M579.08 246.562L584.211 243.592L547.957 222.67L542.803 225.639L579.08 246.562Z" fill="white" fill-opacity="0.1"/>
</g>
<g style="mix-blend-mode:soft-light">
<path d="M571.929 250.687L577.059 247.718L529.363 220.222L524.233 223.191L571.929 250.687Z" fill="white" fill-opacity="0.1"/>
</g>
<g style="mix-blend-mode:soft-light">
<path d="M564.758 254.812L569.912 251.843L515.178 220.289L510.048 223.259L564.758 254.812Z" fill="white" fill-opacity="0.1"/>
</g>
<g style="mix-blend-mode:soft-light">
<path d="M557.607 258.938L562.738 255.969L525.144 234.275L519.991 237.245L557.607 258.938Z" fill="white" fill-opacity="0.1"/>
</g>
<g style="mix-blend-mode:soft-light">
<path d="M550.433 263.065L555.586 260.095L528.231 244.318L523.078 247.288L550.433 263.065Z" fill="white" fill-opacity="0.1"/>
</g>
<g style="mix-blend-mode:soft-light">
<path d="M543.281 267.19L548.434 264.221L524.87 250.643L519.739 253.612L543.281 267.19Z" fill="white" fill-opacity="0.1"/>
</g>
<g style="mix-blend-mode:soft-light">
<path d="M536.129 271.315L541.26 268.346L498.377 243.638L493.246 246.585L536.129 271.315Z" fill="white" fill-opacity="0.1"/>
</g>
<g style="mix-blend-mode:soft-light">
<path d="M528.955 275.44L534.108 272.471L504.755 255.561L499.624 258.53L528.955 275.44Z" fill="white" fill-opacity="0.1"/>
</g>
<g style="mix-blend-mode:soft-light">
<path d="M521.807 279.566L526.96 276.596L480.445 249.78L475.292 252.75L521.807 279.566Z" fill="white" fill-opacity="0.1"/>
</g>
<g style="mix-blend-mode:soft-light">
<path d="M514.656 283.692L519.787 280.722L473.271 253.906L468.141 256.876L514.656 283.692Z" fill="white" fill-opacity="0.1"/>
</g>
<g style="mix-blend-mode:soft-light">
<path d="M507.504 287.817L512.635 284.848L459.945 254.473L454.791 257.442L507.504 287.817Z" fill="white" fill-opacity="0.1"/>
</g>
<g style="mix-blend-mode:soft-light">
<path d="M500.33 291.942L505.483 288.973L455.903 260.389L450.75 263.358L500.33 291.942Z" fill="white" fill-opacity="0.1"/>
</g>
<g style="mix-blend-mode:soft-light">
<path d="M493.179 296.068L498.309 293.098L460.715 271.428L455.562 274.397L493.179 296.068Z" fill="white" fill-opacity="0.1"/>
</g>
<g style="mix-blend-mode:soft-light">
<path d="M486.027 300.194L491.157 297.225L463.802 281.471L458.649 284.44L486.027 300.194Z" fill="white" fill-opacity="0.1"/>
</g>
<g style="mix-blend-mode:soft-light">
<path d="M478.856 304.319L484.01 301.349L432.091 271.428L426.961 274.397L478.856 304.319Z" fill="white" fill-opacity="0.1"/>
</g>
<g style="mix-blend-mode:soft-light">
<path d="M471.705 308.445L476.835 305.498L429.866 278.41L424.713 281.357L471.705 308.445Z" fill="white" fill-opacity="0.1"/>
</g>
<g style="mix-blend-mode:soft-light">
<path d="M464.553 312.594L469.684 309.624L407.709 273.877L402.555 276.846L464.553 312.594Z" fill="white" fill-opacity="0.1"/>
</g>
<g style="mix-blend-mode:soft-light">
<path d="M457.379 316.719L462.532 313.749L433.179 296.816L428.025 299.786L457.379 316.719Z" fill="white" fill-opacity="0.1"/>
</g>
<g style="mix-blend-mode:soft-light">
<path d="M450.227 320.844L455.358 317.875L403.462 287.953L398.309 290.923L450.227 320.844Z" fill="white" fill-opacity="0.1"/>
</g>
<g style="mix-blend-mode:soft-light">
<path d="M443.075 324.97L448.206 322.001L415.017 302.869L409.863 305.816L443.075 324.97Z" fill="white" fill-opacity="0.1"/>
</g>
<g style="mix-blend-mode:soft-light">
<path d="M435.905 329.095L441.059 326.125L399.447 302.143L394.316 305.112L435.905 329.095Z" fill="white" fill-opacity="0.1"/>
</g>
<g style="mix-blend-mode:soft-light">
<path d="M428.754 333.221L433.885 330.251L371.433 294.255L366.303 297.202L428.754 333.221Z" fill="white" fill-opacity="0.1"/>
</g>
<g style="mix-blend-mode:soft-light">
<path d="M421.602 337.346L426.733 334.377L374.837 304.455L369.684 307.425L421.602 337.346Z" fill="white" fill-opacity="0.1"/>
</g>
<g style="mix-blend-mode:soft-light">
<path d="M414.428 341.472L419.581 338.503L360.648 304.523L355.495 307.493L414.428 341.472Z" fill="white" fill-opacity="0.1"/>
</g>
<g style="mix-blend-mode:soft-light">
<path d="M407.276 345.598L412.429 342.628L343.871 303.118L338.718 306.088L407.276 345.598Z" fill="white" fill-opacity="0.1"/>
</g>
<g style="mix-blend-mode:soft-light">
<path d="M400.124 349.723L405.255 346.754L341.259 309.851L336.106 312.82L400.124 349.723Z" fill="white" fill-opacity="0.1"/>
</g>
<g style="mix-blend-mode:soft-light">
<path d="M392.95 353.849L398.103 350.88L330.566 311.959L325.436 314.928L392.95 353.849Z" fill="white" fill-opacity="0.1"/>
</g>
<g style="mix-blend-mode:soft-light">
<path d="M385.803 357.974L390.934 355.005L324.554 316.741L319.424 319.711L385.803 357.974Z" fill="white" fill-opacity="0.1"/>
</g>
<g style="mix-blend-mode:soft-light">
<path d="M378.651 362.1L383.782 359.131L338.175 332.836L333.021 335.805L378.651 362.1Z" fill="white" fill-opacity="0.1"/>
</g>
<g style="mix-blend-mode:soft-light">
<path d="M371.477 366.225L376.63 363.256L304.099 321.456L298.945 324.403L371.477 366.225Z" fill="white" fill-opacity="0.1"/>
</g>
<g style="mix-blend-mode:soft-light">
<path d="M364.325 370.35L369.456 367.381L291.113 322.227L285.983 325.173L364.325 370.35Z" fill="white" fill-opacity="0.1"/>
</g>
<g style="mix-blend-mode:soft-light">
<path d="M357.174 374.476L362.304 371.53L323.121 348.93L317.991 351.899L357.174 374.476Z" fill="white" fill-opacity="0.1"/>
</g>
<g style="mix-blend-mode:soft-light">
<path d="M349.999 378.602L355.152 375.655L308.297 348.635L303.166 351.604L349.999 378.602Z" fill="white" fill-opacity="0.1"/>
</g>
<g style="mix-blend-mode:soft-light">
<path d="M342.852 382.727L348.005 379.78L287.301 344.781L282.148 347.751L342.852 382.727Z" fill="white" fill-opacity="0.1"/>
</g>
<g style="mix-blend-mode:soft-light">
<path d="M335.7 386.853L340.831 383.907L262.488 338.729L257.335 341.699L335.7 386.853Z" fill="white" fill-opacity="0.1"/>
</g>
</g>
<g style="mix-blend-mode:soft-light">
<g style="mix-blend-mode:soft-light">
<path d="M328.708 390.888L333.861 387.919L296.245 366.248L291.091 369.195L328.708 390.888Z" fill="white" fill-opacity="0.1"/>
</g>
<g style="mix-blend-mode:soft-light">
<path d="M321.556 395.013L326.687 392.044L284.984 368.016L279.831 370.962L321.556 395.013Z" fill="white" fill-opacity="0.1"/>
</g>
<g style="mix-blend-mode:soft-light">
<path d="M314.382 399.139L319.535 396.17L293.746 381.322L288.616 384.292L314.382 399.139Z" fill="white" fill-opacity="0.1"/>
</g>
<g style="mix-blend-mode:soft-light">
<path d="M307.23 403.265L312.383 400.295L276.106 379.396L270.953 382.365L307.23 403.265Z" fill="white" fill-opacity="0.1"/>
</g>
<g style="mix-blend-mode:soft-light">
<path d="M300.083 407.39L305.213 404.443L281.672 390.865L276.519 393.812L300.083 407.39Z" fill="white" fill-opacity="0.1"/>
</g>
<g style="mix-blend-mode:soft-light">
<path d="M292.908 411.516L298.062 408.57L266.302 390.254L261.172 393.223L292.908 411.516Z" fill="white" fill-opacity="0.1"/>
</g>
<g style="mix-blend-mode:soft-light">
<path d="M285.756 415.642L290.91 412.695L253.293 391.002L248.14 393.971L285.756 415.642Z" fill="white" fill-opacity="0.1"/>
</g>
</g>
<g style="mix-blend-mode:soft-light">
<g style="mix-blend-mode:soft-light">
<path d="M686.685 184.451L691.815 181.505L654.222 159.812L649.069 162.781L686.685 184.451Z" fill="white" fill-opacity="0.1"/>
</g>
<g style="mix-blend-mode:soft-light">
<path d="M679.51 188.578L684.664 185.631L642.938 161.58L637.808 164.55L679.51 188.578Z" fill="white" fill-opacity="0.1"/>
</g>
<g style="mix-blend-mode:soft-light">
<path d="M672.358 192.725L677.512 189.756L651.723 174.886L646.592 177.855L672.358 192.725Z" fill="white" fill-opacity="0.1"/>
</g>
<g style="mix-blend-mode:soft-light">
<path d="M665.207 196.851L670.338 193.881L634.084 172.959L628.93 175.928L665.207 196.851Z" fill="white" fill-opacity="0.1"/>
</g>
<g style="mix-blend-mode:soft-light">
<path d="M658.037 200.976L663.19 198.007L639.626 184.429L634.496 187.398L658.037 200.976Z" fill="white" fill-opacity="0.1"/>
</g>
<g style="mix-blend-mode:soft-light">
<path d="M650.885 205.102L656.039 202.132L624.279 183.816L619.126 186.786L650.885 205.102Z" fill="white" fill-opacity="0.1"/>
</g>
<g style="mix-blend-mode:soft-light">
<path d="M643.734 209.227L648.864 206.258L611.248 184.564L606.117 187.534L643.734 209.227Z" fill="white" fill-opacity="0.1"/>
</g>
</g>
<path d="M597.991 138.096C596.288 138.096 487.979 126.762 456.765 143.672C425.55 160.582 485.46 201.906 460.715 213.104C435.97 224.302 366.64 194.108 337.083 206.553C307.525 218.998 390.976 256.604 351.861 272.72C312.747 288.837 268.502 249.735 246.095 258.349C223.689 266.963 255.993 275.259 225.459 285.12C194.926 294.98 149.478 250.801 75.6298 287.387" stroke="white" stroke-opacity="0.39" stroke-miterlimit="10"/>
<path d="M642.963 138.866C642.963 138.866 469.093 150.064 415.517 173.095C361.942 196.125 391.431 245.927 318.468 268.164C245.506 290.401 107.958 268.617 36.2437 311.732" stroke="white" stroke-opacity="0.31" stroke-miterlimit="10"/>
<path d="M558.197 154.53L565.098 150.563L546.506 139.841L539.604 143.83L558.197 154.53Z" fill="#95CEFF"/>
<path d="M539.694 165.206L546.595 161.217L528.003 150.518L521.124 154.485L539.694 165.206Z" fill="#95CEFF"/>
<path d="M453.907 211.675L460.809 207.685L448.618 200.658L441.739 204.648L453.907 211.675Z" fill="#95CEFF"/>
<path d="M347.526 235.59L354.404 231.623L342.236 224.596L335.335 228.563L347.526 235.59Z" fill="#95CEFF"/>
<path d="M267.436 264.038L274.315 260.049L262.147 253.022L255.246 257.011L267.436 264.038Z" fill="#95CEFF"/>
<path d="M248.978 285.369L255.879 281.402L243.688 274.375L236.81 278.342L248.978 285.369Z" fill="#95CEFF"/>
<path d="M155.064 284.508L161.943 280.541L149.775 273.514L142.874 277.503L155.064 284.508Z" fill="#95CEFF"/>
<path d="M112.951 281.56L119.852 277.593L107.661 270.566L100.783 274.533L112.951 281.56Z" fill="#95CEFF"/>
<path d="M334.543 270.748L341.422 266.758L329.254 259.754L322.353 263.721L334.543 270.748Z" fill="#95CEFF"/>
<path d="M202.781 280.064L209.683 276.075L197.492 269.048L190.591 273.037L202.781 280.064Z" fill="#95CEFF"/>
<path d="M455.539 201.951L462.44 197.961L443.848 187.262L436.969 191.229L455.539 201.951Z" fill="#95CEFF"/>
<path d="M410.752 208.094L417.654 204.127L405.009 196.828L398.108 200.818L410.752 208.094Z" fill="#95CEFF"/>
<path d="M582.353 157.816L589.254 153.826L570.684 143.127L563.783 147.094L582.353 157.816Z" fill="#95CEFF"/>
<path d="M454.585 190.73L461.487 186.763L442.894 176.041L435.993 180.031L454.585 190.73Z" fill="#95CEFF"/>
<path d="M395.269 209.817L402.17 205.85L390.275 199.004L383.374 202.971L395.269 209.817Z" fill="#95CEFF"/>
<path d="M468.752 166.93L475.653 162.963L465.301 156.979L458.4 160.968L468.752 166.93Z" fill="#95CEFF"/>
<path d="M470.344 157.182L477.245 153.215L466.121 146.8L459.22 150.767L470.344 157.182Z" fill="#95CEFF"/>
<path d="M502.622 165.138L509.523 161.171L483.485 146.143L476.584 150.132L502.622 165.138Z" fill="#95CEFF"/>
<path d="M376.084 220.085L382.985 216.118L356.947 201.112L350.045 205.079L376.084 220.085Z" fill="#95CEFF"/>
<path d="M292.882 268.051L299.783 264.084L278.966 252.07L272.065 256.037L292.882 268.051Z" fill="#95CEFF"/>
<path d="M184.917 280.427L191.818 276.438L171.001 264.446L164.1 268.413L184.917 280.427Z" fill="#95CEFF"/>
<path d="M462.35 173.888L469.229 169.921L460.466 164.866L453.564 168.833L462.35 173.888Z" fill="#95CEFF"/>
<path d="M357.537 252.024L364.438 248.057L338.399 233.051L331.498 237.018L357.537 252.024Z" fill="#95CEFF"/>
<path d="M439.874 214.237L446.775 210.247L420.714 195.241L413.836 199.208L439.874 214.237Z" fill="#95CEFF"/>
<path d="M319.649 272.834L326.551 268.844L300.512 253.838L293.611 257.805L319.649 272.834Z" fill="#95CEFF"/>
<path d="M159.693 276.528L166.594 272.561L151.429 263.812L144.528 267.801L159.693 276.528Z" fill="#95CEFF"/>
<path d="M234.337 287.59L241.238 283.601L215.2 268.595L208.298 272.562L234.337 287.59Z" fill="#95CEFF"/>
<path d="M608.367 162.146L615.245 158.179L589.206 143.15L582.305 147.14L608.367 162.146Z" fill="#95CEFF"/>
<path d="M252.817 276.936L259.719 272.947L233.68 257.941L226.779 261.907L252.817 276.936Z" fill="#95CEFF"/>
<path d="M139.718 286.343L146.619 282.354L120.58 267.348L113.679 271.315L139.718 286.343Z" fill="#95CEFF"/>
<path d="M522.238 165.774L529.139 161.807L510.547 151.107L503.646 155.074L522.238 165.774Z" fill="#95CEFF"/>
<path d="M387.687 216.118L394.588 212.151L385.304 206.802L378.402 210.769L387.687 216.118Z" fill="#95CEFF"/>
<path d="M352.225 259.617L359.126 255.651L349.819 250.301L342.94 254.268L352.225 259.617Z" fill="#95CEFF"/>
<path d="M347.707 267.665L354.586 263.699L348.434 260.14L341.533 264.107L347.707 267.665Z" fill="#95CEFF"/>
<path d="M448.183 176.381L455.084 172.414L441.168 164.39L434.267 168.379L448.183 176.381Z" fill="#95CEFF"/>
<path d="M349.069 225.843L355.97 221.854L337.377 211.154L330.476 215.121L349.069 225.843Z" fill="#95CEFF"/>
<path d="M343.304 211.857L350.206 207.867L339.082 201.475L332.203 205.442L343.304 211.857Z" fill="#95CEFF"/>
<path d="M249.049 264.083L255.95 260.116L237.358 249.395L230.456 253.384L249.049 264.083Z" fill="#95CEFF"/>
<path d="M543.144 156.525L550.045 152.558L533.359 142.924L526.458 146.913L543.144 156.525Z" fill="#95CEFF"/>
<path d="M375.993 229.56C376.261 229.694 376.556 229.764 376.856 229.764C377.155 229.764 377.451 229.694 377.719 229.56C378.195 229.288 378.195 228.858 377.719 228.586C377.452 228.447 377.156 228.374 376.856 228.374C376.555 228.374 376.26 228.447 375.993 228.586C375.517 228.858 375.517 229.288 375.993 229.56Z" fill="white"/>
<path d="M542.033 131.59C542.3 131.729 542.596 131.801 542.896 131.801C543.197 131.801 543.492 131.729 543.759 131.59C544.235 131.318 544.235 130.887 543.759 130.615C543.495 130.482 543.203 130.412 542.907 130.412C542.612 130.412 542.32 130.482 542.056 130.615C541.956 130.65 541.869 130.715 541.807 130.801C541.745 130.886 541.71 130.989 541.708 131.095C541.705 131.2 541.735 131.304 541.793 131.393C541.851 131.481 541.935 131.55 542.033 131.59Z" fill="white"/>
<path d="M524.28 132.021C524.548 132.155 524.843 132.224 525.143 132.224C525.442 132.224 525.737 132.155 526.005 132.021C526.482 131.726 526.482 131.296 526.005 131.024C525.737 130.89 525.442 130.82 525.143 130.82C524.843 130.82 524.548 130.89 524.28 131.024C524.173 131.056 524.079 131.122 524.013 131.212C523.946 131.302 523.91 131.411 523.91 131.522C523.91 131.634 523.946 131.743 524.013 131.833C524.079 131.922 524.173 131.988 524.28 132.021Z" fill="white"/>
<path d="M509.569 134.174C509.837 134.308 510.133 134.377 510.432 134.377C510.731 134.377 511.027 134.308 511.295 134.174C511.402 134.141 511.495 134.075 511.562 133.985C511.629 133.896 511.665 133.787 511.665 133.675C511.665 133.563 511.629 133.455 511.562 133.365C511.495 133.275 511.402 133.209 511.295 133.176C511.028 133.037 510.732 132.965 510.432 132.965C510.132 132.965 509.836 133.037 509.569 133.176C509.115 133.471 509.093 133.902 509.569 134.174Z" fill="white"/>
<path d="M488.823 132.882C489.091 133.016 489.386 133.085 489.686 133.085C489.985 133.085 490.281 133.016 490.549 132.882C490.656 132.849 490.749 132.783 490.816 132.694C490.883 132.604 490.918 132.495 490.918 132.383C490.918 132.272 490.883 132.163 490.816 132.073C490.749 131.983 490.656 131.917 490.549 131.885C490.285 131.751 489.993 131.682 489.697 131.682C489.402 131.682 489.11 131.751 488.846 131.885C488.738 131.915 488.643 131.979 488.574 132.067C488.505 132.155 488.467 132.263 488.464 132.375C488.462 132.487 488.495 132.596 488.56 132.688C488.625 132.779 488.717 132.847 488.823 132.882Z" fill="white"/>
<path d="M473.995 134.99C474.263 135.123 474.559 135.193 474.858 135.193C475.157 135.193 475.453 135.123 475.721 134.99C476.197 134.695 476.197 134.264 475.721 133.992C475.453 133.859 475.157 133.789 474.858 133.789C474.559 133.789 474.263 133.859 473.995 133.992C473.888 134.025 473.795 134.091 473.728 134.181C473.661 134.271 473.625 134.379 473.625 134.491C473.625 134.603 473.661 134.712 473.728 134.801C473.795 134.891 473.888 134.957 473.995 134.99Z" fill="white"/>
<path d="M456.766 135.715C457.034 135.849 457.329 135.919 457.629 135.919C457.928 135.919 458.224 135.849 458.491 135.715C458.598 135.683 458.692 135.617 458.759 135.527C458.825 135.437 458.861 135.328 458.861 135.217C458.861 135.105 458.825 134.996 458.759 134.906C458.692 134.817 458.598 134.751 458.491 134.718C458.224 134.584 457.928 134.515 457.629 134.515C457.329 134.515 457.034 134.584 456.766 134.718C456.659 134.751 456.565 134.817 456.499 134.906C456.432 134.996 456.396 135.105 456.396 135.217C456.396 135.328 456.432 135.437 456.499 135.527C456.565 135.617 456.659 135.683 456.766 135.715Z" fill="white"/>
<path d="M443.26 138.571C443.528 138.705 443.823 138.774 444.123 138.774C444.422 138.774 444.717 138.705 444.985 138.571C445.462 138.299 445.462 137.868 444.985 137.596C444.719 137.457 444.423 137.385 444.123 137.385C443.822 137.385 443.526 137.457 443.26 137.596C442.783 137.868 442.783 138.299 443.26 138.571Z" fill="white"/>
<path d="M299.266 247.423C299.529 247.557 299.821 247.626 300.117 247.626C300.413 247.626 300.704 247.557 300.968 247.423C301.445 247.129 301.445 246.698 300.968 246.426C300.7 246.292 300.405 246.223 300.105 246.223C299.806 246.223 299.511 246.292 299.243 246.426C299.136 246.461 299.044 246.529 298.98 246.62C298.915 246.712 298.881 246.821 298.884 246.933C298.887 247.045 298.925 247.153 298.994 247.241C299.062 247.329 299.158 247.393 299.266 247.423Z" fill="white"/>
<path d="M281.374 247.74C281.64 247.879 281.936 247.952 282.237 247.952C282.537 247.952 282.833 247.879 283.099 247.74C283.576 247.468 283.576 247.038 283.099 246.766C282.832 246.632 282.536 246.562 282.237 246.562C281.937 246.562 281.642 246.632 281.374 246.766C281.275 246.803 281.19 246.87 281.13 246.957C281.07 247.044 281.037 247.147 281.037 247.253C281.037 247.359 281.07 247.462 281.13 247.549C281.19 247.636 281.275 247.703 281.374 247.74Z" fill="white"/>
<path d="M264.235 248.534C264.499 248.667 264.79 248.737 265.086 248.737C265.382 248.737 265.673 248.667 265.937 248.534C266.044 248.501 266.138 248.435 266.205 248.345C266.271 248.255 266.307 248.147 266.307 248.035C266.307 247.923 266.271 247.814 266.205 247.725C266.138 247.635 266.044 247.569 265.937 247.536C265.669 247.403 265.374 247.333 265.075 247.333C264.775 247.333 264.48 247.403 264.212 247.536C263.758 247.831 263.758 248.262 264.235 248.534Z" fill="white"/>
<path d="M245.416 248.353C245.684 248.486 245.98 248.556 246.279 248.556C246.579 248.556 246.874 248.486 247.142 248.353C247.249 248.32 247.343 248.254 247.409 248.164C247.476 248.074 247.512 247.966 247.512 247.854C247.512 247.742 247.476 247.634 247.409 247.544C247.343 247.454 247.249 247.388 247.142 247.355C246.878 247.222 246.586 247.152 246.29 247.152C245.995 247.152 245.703 247.222 245.439 247.355C245.053 247.65 245.053 248.081 245.416 248.353Z" fill="white"/>
<path d="M224.621 246.992C224.887 247.131 225.183 247.204 225.483 247.204C225.784 247.204 226.08 247.131 226.346 246.992C226.823 246.72 226.823 246.29 226.346 246.018C226.078 245.884 225.783 245.814 225.483 245.814C225.184 245.814 224.889 245.884 224.621 246.018C224.522 246.055 224.437 246.122 224.376 246.209C224.316 246.296 224.284 246.399 224.284 246.505C224.284 246.611 224.316 246.714 224.376 246.801C224.437 246.888 224.522 246.955 224.621 246.992Z" fill="white"/>
<path d="M375.541 239.104C375.807 239.243 376.103 239.315 376.404 239.315C376.704 239.315 377 239.243 377.266 239.104C377.743 238.832 377.743 238.401 377.266 238.129C376.999 237.995 376.703 237.926 376.404 237.926C376.104 237.926 375.809 237.995 375.541 238.129C375.442 238.167 375.357 238.233 375.297 238.32C375.237 238.407 375.204 238.511 375.204 238.616C375.204 238.722 375.237 238.825 375.297 238.912C375.357 238.999 375.442 239.066 375.541 239.104Z" fill="white"/>
<path d="M378.854 250.8C379.122 250.934 379.417 251.003 379.717 251.003C380.016 251.003 380.312 250.934 380.579 250.8C380.686 250.767 380.78 250.701 380.847 250.612C380.913 250.522 380.949 250.413 380.949 250.301C380.949 250.19 380.913 250.081 380.847 249.991C380.78 249.901 380.686 249.835 380.579 249.803C380.316 249.669 380.024 249.6 379.728 249.6C379.432 249.6 379.141 249.669 378.877 249.803C378.769 249.833 378.674 249.897 378.605 249.985C378.536 250.073 378.498 250.181 378.495 250.293C378.493 250.405 378.526 250.514 378.591 250.606C378.655 250.697 378.748 250.765 378.854 250.8Z" fill="white"/>
<path d="M380.42 261.477C380.684 261.61 380.975 261.68 381.271 261.68C381.567 261.68 381.859 261.61 382.122 261.477C382.229 261.444 382.323 261.378 382.39 261.289C382.456 261.199 382.492 261.09 382.492 260.978C382.492 260.867 382.456 260.758 382.39 260.668C382.323 260.578 382.229 260.512 382.122 260.48C381.855 260.346 381.559 260.276 381.26 260.276C380.96 260.276 380.665 260.346 380.397 260.48C380.291 260.515 380.198 260.583 380.134 260.674C380.069 260.765 380.036 260.875 380.038 260.987C380.041 261.099 380.079 261.207 380.148 261.295C380.217 261.383 380.312 261.447 380.42 261.477Z" fill="white"/>
<path d="M375.906 268.663C376.17 268.796 376.462 268.866 376.757 268.866C377.053 268.866 377.345 268.796 377.609 268.663C377.716 268.63 377.809 268.564 377.876 268.474C377.943 268.384 377.979 268.276 377.979 268.164C377.979 268.052 377.943 267.943 377.876 267.854C377.809 267.764 377.716 267.698 377.609 267.665C377.341 267.532 377.045 267.462 376.746 267.462C376.447 267.462 376.151 267.532 375.883 267.665C375.777 267.7 375.685 267.768 375.62 267.86C375.555 267.951 375.522 268.061 375.524 268.172C375.527 268.284 375.566 268.392 375.634 268.48C375.703 268.569 375.798 268.632 375.906 268.663Z" fill="white"/>
<path d="M373.723 277.186C373.989 277.325 374.285 277.397 374.586 277.397C374.886 277.397 375.182 277.325 375.449 277.186C375.925 276.914 375.925 276.483 375.449 276.211C375.185 276.077 374.893 276.008 374.597 276.008C374.301 276.008 374.01 276.077 373.746 276.211C373.269 276.483 373.247 276.914 373.723 277.186Z" fill="white"/>
<path d="M269.435 294.436C269.699 294.569 269.99 294.639 270.286 294.639C270.582 294.639 270.873 294.569 271.137 294.436C271.614 294.164 271.637 293.711 271.137 293.439C270.869 293.305 270.574 293.235 270.275 293.235C269.975 293.235 269.68 293.305 269.412 293.439C268.958 293.733 268.958 294.164 269.435 294.436Z" fill="white"/>
<path d="M251.862 294.753C252.129 294.892 252.425 294.965 252.725 294.965C253.026 294.965 253.322 294.892 253.588 294.753C254.064 294.481 254.064 294.051 253.588 293.779C253.32 293.645 253.025 293.575 252.725 293.575C252.426 293.575 252.13 293.645 251.862 293.779C251.763 293.816 251.678 293.883 251.618 293.97C251.558 294.057 251.526 294.16 251.526 294.266C251.526 294.372 251.558 294.475 251.618 294.562C251.678 294.649 251.763 294.716 251.862 294.753Z" fill="white"/>
<path d="M234.226 295.185C234.49 295.318 234.781 295.388 235.077 295.388C235.373 295.388 235.665 295.318 235.928 295.185C236.035 295.152 236.129 295.086 236.196 294.996C236.262 294.907 236.298 294.798 236.298 294.686C236.298 294.574 236.262 294.465 236.196 294.376C236.129 294.286 236.035 294.22 235.928 294.187C235.665 294.054 235.373 293.984 235.077 293.984C234.781 293.984 234.49 294.054 234.226 294.187C234.119 294.22 234.025 294.286 233.958 294.376C233.892 294.465 233.856 294.574 233.856 294.686C233.856 294.798 233.892 294.907 233.958 294.996C234.025 295.086 234.119 295.152 234.226 295.185Z" fill="white"/>
<path d="M216.494 295.615C216.758 295.748 217.05 295.818 217.345 295.818C217.641 295.818 217.933 295.748 218.197 295.615C218.674 295.343 218.696 294.912 218.197 294.64C217.929 294.506 217.634 294.437 217.334 294.437C217.035 294.437 216.739 294.506 216.471 294.64C216.017 294.912 216.017 295.343 216.494 295.615Z" fill="white"/>
<path d="M199.468 295.66C199.732 295.793 200.023 295.863 200.319 295.863C200.615 295.863 200.907 295.793 201.171 295.66C201.647 295.388 201.67 294.934 201.171 294.662C200.903 294.529 200.607 294.459 200.308 294.459C200.008 294.459 199.713 294.529 199.445 294.662C199.339 294.697 199.247 294.765 199.182 294.857C199.117 294.948 199.084 295.058 199.086 295.169C199.089 295.281 199.127 295.389 199.196 295.477C199.265 295.566 199.36 295.63 199.468 295.66Z" fill="white"/>
<path d="M180.672 295.909C180.938 296.048 181.234 296.121 181.535 296.121C181.835 296.121 182.131 296.048 182.397 295.909C182.874 295.637 182.874 295.207 182.397 294.935C182.129 294.801 181.834 294.731 181.535 294.731C181.235 294.731 180.94 294.801 180.672 294.935C180.573 294.972 180.488 295.039 180.427 295.126C180.367 295.213 180.335 295.316 180.335 295.422C180.335 295.528 180.367 295.631 180.427 295.718C180.488 295.805 180.573 295.872 180.672 295.909Z" fill="white"/>
<path d="M161.896 296.136C162.163 296.27 162.459 296.339 162.758 296.339C163.058 296.339 163.353 296.27 163.621 296.136C163.728 296.103 163.822 296.037 163.888 295.948C163.955 295.858 163.991 295.749 163.991 295.637C163.991 295.526 163.955 295.417 163.888 295.327C163.822 295.237 163.728 295.171 163.621 295.139C163.357 295.005 163.065 294.936 162.77 294.936C162.474 294.936 162.182 295.005 161.918 295.139C161.442 295.411 161.419 295.864 161.896 296.136Z" fill="white"/>
<g style="mix-blend-mode:screen">
<path d="M109.234 143.015C109.234 140.046 111.073 137.053 115 134.787L493.865 -83.6411C498.219 -85.8492 503.034 -87 507.917 -87C512.801 -87 517.615 -85.8492 521.969 -83.6411L553.298 -65.5068C557.202 -63.24 558.201 -59.8172 555.772 -56.9837C553.343 -54.1275 554.342 -50.7047 558.246 -48.4379L621.22 -12.1693C625.806 -9.84787 631.099 -9.33794 636.044 -10.7412C640.981 -12.1521 646.271 -11.6418 650.846 -9.31312L682.174 8.82119C686.714 11.428 688.576 14.9642 687.872 18.3417V167.791C688.576 171.146 686.714 174.591 682.265 177.221L303.4 395.558C299.05 397.766 294.239 398.917 289.359 398.917C284.479 398.917 279.668 397.766 275.318 395.558L115.091 303.232C112.782 302.041 110.925 300.131 109.801 297.791L109.234 297.587V143.015Z" fill="url(#paint14_linear_1373_15616)"/>
</g>
<g style="mix-blend-mode:soft-light">
<g style="mix-blend-mode:soft-light">
<g style="mix-blend-mode:soft-light">
<path d="M509.258 76.5521L510.325 77.1642C510.423 77.214 510.532 77.2399 510.642 77.2399C510.753 77.2399 510.862 77.214 510.96 77.1642L513.526 75.6907C513.707 75.5774 513.73 75.4187 513.526 75.3054L512.459 74.6933C512.359 74.6483 512.25 74.625 512.141 74.625C512.031 74.625 511.923 74.6483 511.823 74.6933L509.258 76.1894C509.099 76.1668 509.076 76.3481 509.258 76.5521Z" fill="white"/>
</g>
<g style="mix-blend-mode:soft-light">
<path d="M506.876 75.0797L507.943 75.6917C508.047 75.7359 508.159 75.7588 508.272 75.7588C508.385 75.7588 508.497 75.7359 508.601 75.6917L512.142 73.6516C512.324 73.5382 512.347 73.3569 512.142 73.2662L511.075 72.6542C510.973 72.6041 510.86 72.5781 510.746 72.5781C510.632 72.5781 510.52 72.6041 510.417 72.6542L506.876 74.6943C506.739 74.8076 506.717 74.9663 506.876 75.0797Z" fill="white"/>
</g>
<g style="mix-blend-mode:soft-light">
<path d="M504.513 73.6965L505.58 74.3312C505.678 74.381 505.787 74.4069 505.898 74.4069C506.008 74.4069 506.117 74.381 506.216 74.3312L510.915 71.6337C511.119 71.5203 511.142 71.3617 510.915 71.2483L509.825 70.6363C509.727 70.5865 509.618 70.5605 509.507 70.5605C509.397 70.5605 509.288 70.5865 509.19 70.6363L504.49 73.3564C504.354 73.4471 504.354 73.6058 504.513 73.6965Z" fill="white"/>
</g>
</g>
<g style="mix-blend-mode:soft-light">
<g style="mix-blend-mode:soft-light">
<path d="M520.018 82.6497L529.235 87.8859C529.432 87.9855 529.649 88.0374 529.87 88.0374C530.091 88.0374 530.309 87.9855 530.506 87.8859L533.661 86.0725C534.025 85.8458 534.07 85.5285 533.661 85.3471L524.422 80.0202C524.227 79.9259 524.014 79.877 523.798 79.877C523.581 79.877 523.368 79.9259 523.173 80.0202L520.018 81.8336C519.745 82.1283 519.745 82.4457 520.018 82.6497Z" stroke="white" stroke-width="0.39" stroke-miterlimit="10"/>
</g>
<g style="mix-blend-mode:soft-light">
<path d="M520.129 81.0396L520.878 81.4476L522.467 80.5635L521.718 80.1328L520.129 81.0396Z" stroke="white" stroke-width="0.39" stroke-linecap="round" stroke-linejoin="round"/>
</g>
<g style="mix-blend-mode:soft-light">
<path d="M529.256 86.7527L529.71 87.002L532.093 85.642L531.639 85.3926L529.256 86.7527Z" stroke="white" stroke-width="0.35" stroke-linecap="round" stroke-linejoin="round"/>
</g>
<g style="mix-blend-mode:soft-light">
<path d="M527.757 85.8913L528.211 86.1407L530.595 84.7806L530.141 84.5312L527.757 85.8913Z" stroke="white" stroke-width="0.35" stroke-linecap="round" stroke-linejoin="round"/>
</g>
<g style="mix-blend-mode:soft-light">
<path d="M526.263 85.0292L526.717 85.2786L529.101 83.9185L528.647 83.6465L526.263 85.0292Z" stroke="white" stroke-width="0.35" stroke-linecap="round" stroke-linejoin="round"/>
</g>
<g style="mix-blend-mode:soft-light">
<path d="M524.764 84.1688L525.218 84.4182L527.602 83.0581L527.148 82.7861L524.764 84.1688Z" stroke="white" stroke-width="0.35" stroke-linecap="round" stroke-linejoin="round"/>
</g>
</g>
</g>
</g>
<path style="mix-blend-mode:color-dodge" d="M583.928 213.703C595.705 213.703 605.253 204.156 605.253 192.378C605.253 180.6 595.705 171.053 583.928 171.053C572.15 171.053 562.603 180.6 562.603 192.378C562.603 204.156 572.15 213.703 583.928 213.703Z" fill="url(#paint15_radial_1373_15616)"/>
<defs>
<filter id="filter0_f_1373_15616" x="12.8726" y="80.4434" width="767.386" height="504.526" filterUnits="userSpaceOnUse" color-interpolation-filters="sRGB">
<feFlood flood-opacity="0" result="BackgroundImageFix"/>
<feBlend mode="normal" in="SourceGraphic" in2="BackgroundImageFix" result="shape"/>
<feGaussianBlur stdDeviation="37" result="effect1_foregroundBlur_1373_15616"/>
</filter>
<radialGradient id="paint0_radial_1373_15616" cx="0" cy="0" r="1" gradientUnits="userSpaceOnUse" gradientTransform="translate(706.259 121.517) rotate(150.075) scale(714.668 955.167)">
<stop stop-color="#4BBEFF"/>
<stop offset="1" stop-color="#2370DC"/>
</radialGradient>
<radialGradient id="paint1_radial_1373_15616" cx="0" cy="0" r="1" gradientUnits="userSpaceOnUse" gradientTransform="translate(706.259 121.517) rotate(150.075) scale(714.668 955.167)">
<stop stop-color="#374058"/>
<stop offset="1" stop-color="#2A3145"/>
</radialGradient>
<linearGradient id="paint2_linear_1373_15616" x1="693769" y1="775117" x2="677687" y2="691810" gradientUnits="userSpaceOnUse">
<stop stop-color="#0037AE"/>
<stop offset="0.13" stop-color="#003098"/>
<stop offset="0.39" stop-color="#012470"/>
<stop offset="0.64" stop-color="#021B53"/>
<stop offset="0.85" stop-color="#021641"/>
<stop offset="1" stop-color="#02143B"/>
</linearGradient>
<radialGradient id="paint3_radial_1373_15616" cx="0" cy="0" r="1" gradientUnits="userSpaceOnUse" gradientTransform="translate(237.886 429.008) rotate(-38.5221) scale(434.082 580.899)">
<stop stop-color="#374058"/>
<stop offset="1" stop-color="#2A3145"/>
</radialGradient>
<radialGradient id="paint4_radial_1373_15616" cx="0" cy="0" r="1" gradientUnits="userSpaceOnUse" gradientTransform="translate(576846 742003) rotate(-150.15) scale(64941.7 32093.4)">
<stop stop-color="#0037AE"/>
<stop offset="0.13" stop-color="#003098"/>
<stop offset="0.39" stop-color="#012470"/>
<stop offset="0.64" stop-color="#021B53"/>
<stop offset="0.85" stop-color="#021641"/>
<stop offset="1" stop-color="#02143B"/>
</radialGradient>
<radialGradient id="paint5_radial_1373_15616" cx="0" cy="0" r="1" gradientUnits="userSpaceOnUse" gradientTransform="translate(703.523 111.227) rotate(150.036) scale(703.68 941.212)">
<stop stop-color="#374058"/>
<stop offset="1" stop-color="#2A3145"/>
</radialGradient>
<radialGradient id="paint6_radial_1373_15616" cx="0" cy="0" r="1" gradientUnits="userSpaceOnUse" gradientTransform="translate(700.087 113.24) rotate(150.042) scale(695.874 930.662)">
<stop stop-color="#374058"/>
<stop offset="1" stop-color="#545E7B"/>
</radialGradient>
<radialGradient id="paint7_radial_1373_15616" cx="0" cy="0" r="1" gradientUnits="userSpaceOnUse" gradientTransform="translate(565084 726903) rotate(-150.15) scale(62229.4 30754.7)">
<stop stop-color="#0037AE"/>
<stop offset="0.13" stop-color="#003098"/>
<stop offset="0.39" stop-color="#012470"/>
<stop offset="0.64" stop-color="#021B53"/>
<stop offset="0.85" stop-color="#021641"/>
<stop offset="1" stop-color="#02143B"/>
</radialGradient>
<radialGradient id="paint8_radial_1373_15616" cx="0" cy="0" r="1" gradientUnits="userSpaceOnUse" gradientTransform="translate(697.281 114.783) rotate(150.035) scale(689.426 922.17)">
<stop stop-color="#374058"/>
<stop offset="1" stop-color="#2A3145"/>
</radialGradient>
<radialGradient id="paint9_radial_1373_15616" cx="0" cy="0" r="1" gradientUnits="userSpaceOnUse" gradientTransform="translate(668.447 257.466) rotate(147.796) scale(61.5647 85.8198)">
<stop stop-color="#374058"/>
<stop offset="1" stop-color="#2A3145"/>
</radialGradient>
<radialGradient id="paint10_radial_1373_15616" cx="0" cy="0" r="1" gradientUnits="userSpaceOnUse" gradientTransform="translate(609.131 291.444) rotate(147.795) scale(61.5625 85.8185)">
<stop stop-color="#374058"/>
<stop offset="1" stop-color="#2A3145"/>
</radialGradient>
<linearGradient id="paint11_linear_1373_15616" x1="390.892" y1="142.692" x2="394.675" y2="162.289" gradientUnits="userSpaceOnUse">
<stop stop-color="#02143B"/>
<stop offset="0.15" stop-color="#021641"/>
<stop offset="0.36" stop-color="#021B53"/>
<stop offset="0.61" stop-color="#012470"/>
<stop offset="0.87" stop-color="#003098"/>
<stop offset="1" stop-color="#0037AE"/>
</linearGradient>
<radialGradient id="paint12_radial_1373_15616" cx="0" cy="0" r="1" gradientUnits="userSpaceOnUse" gradientTransform="translate(496.564 118.647) rotate(180) scale(394.12 393.537)">
<stop stop-color="#0051FF"/>
<stop offset="0.13" stop-color="#014AE9"/>
<stop offset="0.39" stop-color="#033FC1"/>
<stop offset="0.64" stop-color="#0436A4"/>
<stop offset="0.85" stop-color="#053192"/>
<stop offset="1" stop-color="#052F8C"/>
</radialGradient>
<radialGradient id="paint13_radial_1373_15616" cx="0" cy="0" r="1" gradientUnits="userSpaceOnUse" gradientTransform="translate(688.051 65.1572) rotate(150.035) scale(668.142 893.697)">
<stop stop-color="#4BBEFF"/>
<stop offset="1" stop-color="#2370DC"/>
</radialGradient>
<linearGradient id="paint14_linear_1373_15616" x1="206.465" y1="101.914" x2="265.128" y2="399.002" gradientUnits="userSpaceOnUse">
<stop stop-color="#4BBEFF" stop-opacity="0"/>
<stop offset="1" stop-color="#2370DC" stop-opacity="0.26"/>
</linearGradient>
<radialGradient id="paint15_radial_1373_15616" cx="0" cy="0" r="1" gradientUnits="userSpaceOnUse" gradientTransform="translate(38519 15985) scale(535.69)">
<stop stop-color="#88D7FF"/>
<stop offset="0.01" stop-color="#83CFF6"/>
<stop offset="0.05" stop-color="#6BA9C8"/>
<stop offset="0.09" stop-color="#54849D"/>
<stop offset="0.14" stop-color="#3F6477"/>
<stop offset="0.19" stop-color="#2E4957"/>
<stop offset="0.25" stop-color="#20323B"/>
<stop offset="0.32" stop-color="#142025"/>
<stop offset="0.39" stop-color="#0B1114"/>
<stop offset="0.49" stop-color="#050709"/>
<stop offset="0.62" stop-color="#010202"/>
<stop offset="0.99"/>
</radialGradient>
<clipPath id="clip0_1373_15616">
<rect width="736" height="570" fill="white" transform="matrix(-1 0 0 1 736 0)"/>
</clipPath>
</defs>
</svg>
