<svg width="29" height="29" viewBox="0 0 29 29" fill="none" xmlns="http://www.w3.org/2000/svg">
<path d="M14.8832 0.625488C12.124 0.625488 9.42681 1.44367 7.13266 2.97658C4.8385 4.50948 3.05043 6.68826 1.99454 9.23738C0.938662 11.7865 0.662395 14.5915 1.20068 17.2976C1.73896 20.0038 3.06762 22.4895 5.01864 24.4405C6.96966 26.3916 9.4554 27.7202 12.1615 28.2585C14.8677 28.7968 17.6727 28.5205 20.2218 27.4646C22.7709 26.4088 24.9497 24.6207 26.4826 22.3265C28.0155 20.0324 28.8337 17.3352 28.8337 14.576C28.8337 12.744 28.4728 10.9299 27.7718 9.23738C27.0707 7.54483 26.0431 6.00693 24.7477 4.7115C23.4522 3.41608 21.9144 2.38849 20.2218 1.68741C18.5292 0.98633 16.7152 0.625488 14.8832 0.625488ZM20.8819 11.2418L14.5065 19.6122C14.3765 19.781 14.2096 19.9178 14.0186 20.0121C13.8276 20.1064 13.6174 20.1557 13.4044 20.1562C13.1925 20.1574 12.9831 20.1102 12.7922 20.0184C12.6012 19.9265 12.4337 19.7924 12.3023 19.6261L8.89838 15.2875C8.78571 15.1428 8.70265 14.9773 8.65394 14.8004C8.60524 14.6236 8.59184 14.4389 8.6145 14.2569C8.63718 14.0749 8.69547 13.8991 8.78607 13.7397C8.87666 13.5802 8.99778 13.4401 9.14251 13.3274C9.4348 13.0999 9.80552 12.9978 10.1731 13.0436C10.3551 13.0662 10.5309 13.1245 10.6903 13.2151C10.8498 13.3057 10.9899 13.4269 11.1026 13.5716L13.3765 16.4733L18.6498 9.49803C18.7616 9.35147 18.9011 9.22835 19.0604 9.13571C19.2197 9.04307 19.3958 8.98273 19.5784 8.95811C19.7611 8.9335 19.9468 8.9451 20.125 8.99226C20.3031 9.03942 20.4703 9.12121 20.6168 9.23297C20.7634 9.34472 20.8865 9.48425 20.9791 9.64358C21.0718 9.80291 21.1321 9.97893 21.1567 10.1616C21.1814 10.3442 21.1697 10.53 21.1226 10.7081C21.0754 10.8863 20.9936 11.0534 20.8819 11.2V11.2418Z" fill="#69D6E4"/>
</svg>
