<svg width="635" height="835" viewBox="0 0 635 835" fill="none" xmlns="http://www.w3.org/2000/svg">
<g clip-path="url(#clip0_2143_3785)">
<g filter="url(#filter0_f_2143_3785)">
<path d="M785.125 405.431C799.018 488.447 661.837 580.686 478.723 611.453C295.609 642.22 135.904 599.864 122.011 516.848C108.117 433.832 245.298 341.593 428.412 310.826C611.526 280.059 771.232 322.415 785.125 405.431Z" fill="#354B99"/>
</g>
<g filter="url(#filter1_f_2143_3785)">
<path d="M210.749 323.069C252.09 349.835 264.026 404.861 237.407 445.975C210.789 487.088 155.697 498.719 114.356 471.953C73.0149 445.187 61.0796 390.161 87.6978 349.047C114.316 307.934 169.408 296.303 210.749 323.069Z" fill="#FF3A3A"/>
</g>
<g filter="url(#filter2_f_2143_3785)">
<path d="M809.018 364.494C813.508 389.067 764.116 418.678 698.697 430.631C633.279 442.584 576.607 432.354 572.117 407.78C567.627 383.207 617.019 353.596 682.437 341.643C747.856 329.69 804.528 339.92 809.018 364.494Z" fill="#3D5CFF"/>
</g>
<g filter="url(#filter3_f_2143_3785)">
<path d="M563.865 215.276C574.551 273.758 530.181 330.856 464.763 342.809C399.345 354.763 337.65 317.044 326.965 258.563C316.279 200.082 360.648 142.983 426.067 131.03C491.485 119.076 553.179 156.795 563.865 215.276Z" fill="#7389FF"/>
</g>
</g>
<defs>
<filter id="filter0_f_2143_3785" x="-1.20322" y="178.546" width="909.542" height="565.186" filterUnits="userSpaceOnUse" color-interpolation-filters="sRGB">
<feFlood flood-opacity="0" result="BackgroundImageFix"/>
<feBlend mode="normal" in="SourceGraphic" in2="BackgroundImageFix" result="shape"/>
<feGaussianBlur stdDeviation="61.1225" result="effect1_foregroundBlur_2143_3785"/>
</filter>
<filter id="filter1_f_2143_3785" x="-48.7321" y="186.428" width="422.569" height="422.166" filterUnits="userSpaceOnUse" color-interpolation-filters="sRGB">
<feFlood flood-opacity="0" result="BackgroundImageFix"/>
<feBlend mode="normal" in="SourceGraphic" in2="BackgroundImageFix" result="shape"/>
<feGaussianBlur stdDeviation="61.1225" result="effect1_foregroundBlur_2143_3785"/>
</filter>
<filter id="filter2_f_2143_3785" x="449.589" y="214.402" width="481.957" height="343.47" filterUnits="userSpaceOnUse" color-interpolation-filters="sRGB">
<feFlood flood-opacity="0" result="BackgroundImageFix"/>
<feBlend mode="normal" in="SourceGraphic" in2="BackgroundImageFix" result="shape"/>
<feGaussianBlur stdDeviation="61.1225" result="effect1_foregroundBlur_2143_3785"/>
</filter>
<filter id="filter3_f_2143_3785" x="203.132" y="6.57413" width="484.567" height="460.691" filterUnits="userSpaceOnUse" color-interpolation-filters="sRGB">
<feFlood flood-opacity="0" result="BackgroundImageFix"/>
<feBlend mode="normal" in="SourceGraphic" in2="BackgroundImageFix" result="shape"/>
<feGaussianBlur stdDeviation="61.1225" result="effect1_foregroundBlur_2143_3785"/>
</filter>
<clipPath id="clip0_2143_3785">
<rect width="635" height="835" fill="white"/>
</clipPath>
</defs>
</svg>
