<svg width="40" height="276" viewBox="0 0 40 276" fill="none" xmlns="http://www.w3.org/2000/svg">
<g filter="url(#filter0_i_2126_2318)">
<path d="M0 31.0187C0 27.4329 2.95581 24.526 6.60198 24.526H33.0099C36.6561 24.526 39.6119 27.4329 39.6119 31.0187V253.395H0V31.0187Z" fill="#2A2F45"/>
</g>
<path opacity="0.2" fill-rule="evenodd" clip-rule="evenodd" d="M39.6119 50.9338H0V48.7332H39.6119V50.9338Z" fill="#2D9CDB"/>
<path opacity="0.2" fill-rule="evenodd" clip-rule="evenodd" d="M39.6119 70.7399H0V68.5392H39.6119V70.7399Z" fill="#2D9CDB"/>
<path opacity="0.2" fill-rule="evenodd" clip-rule="evenodd" d="M39.6119 90.5459H0V88.3452H39.6119V90.5459Z" fill="#2D9CDB"/>
<path opacity="0.2" fill-rule="evenodd" clip-rule="evenodd" d="M39.6119 108.937H0V106.736H39.6119V108.937Z" fill="#2D9CDB"/>
<path opacity="0.2" fill-rule="evenodd" clip-rule="evenodd" d="M39.6119 132.358H0V130.158H39.6119V132.358Z" fill="#2D9CDB"/>
<path opacity="0.2" fill-rule="evenodd" clip-rule="evenodd" d="M39.6119 152.164H0V149.964H39.6119V152.164Z" fill="#2D9CDB"/>
<path opacity="0.2" fill-rule="evenodd" clip-rule="evenodd" d="M39.6119 174.171H0V171.97H39.6119V174.171Z" fill="#2D9CDB"/>
<path opacity="0.2" fill-rule="evenodd" clip-rule="evenodd" d="M39.6119 193.977H0V191.776H39.6119V193.977Z" fill="#2D9CDB"/>
<path opacity="0.2" fill-rule="evenodd" clip-rule="evenodd" d="M39.6119 213.782H0V211.582H39.6119V213.782Z" fill="#2D9CDB"/>
<path opacity="0.2" fill-rule="evenodd" clip-rule="evenodd" d="M39.6119 233.589H0V231.388H39.6119V233.589Z" fill="#2D9CDB"/>
<path d="M7.59675 3.47055C8.63643 3.47055 9.46083 3.78704 10.0699 4.42003C10.6895 5.04211 10.9993 5.9534 10.9993 7.15391V12.1469H9.8809V7.2685C9.8809 6.37358 9.66561 5.69148 9.23504 5.22219C8.80446 4.7529 8.1901 4.51826 7.39196 4.51826C6.4993 4.51826 5.79043 4.79656 5.26533 5.35315C4.75074 5.89884 4.49345 6.65733 4.49345 7.62865V12.1469H3.375V0H4.49345V5.04211C4.798 4.54008 5.21808 4.15265 5.75367 3.87981C6.28927 3.60697 6.90363 3.47055 7.59675 3.47055Z" fill="#D6D6D6"/>
<path d="M14.0358 3.53603H15.1543V12.1469H14.0358V3.53603ZM14.6029 1.65342C14.3719 1.65342 14.1776 1.57157 14.0201 1.40786C13.8625 1.24416 13.7838 1.04771 13.7838 0.818525C13.7838 0.600252 13.8625 0.409263 14.0201 0.245558C14.1776 0.0818528 14.3719 0 14.6029 0C14.834 0 15.0282 0.0818528 15.1858 0.245558C15.3433 0.398349 15.4221 0.583881 15.4221 0.802155C15.4221 1.04226 15.3433 1.24416 15.1858 1.40786C15.0282 1.57157 14.834 1.65342 14.6029 1.65342Z" fill="#D6D6D6"/>
<path d="M25.9379 3.53603V11.0992C25.9379 12.5616 25.5914 13.6421 24.8982 14.3406C24.2156 15.0499 23.1812 15.4046 21.7949 15.4046C21.0283 15.4046 20.2984 15.2846 19.6053 15.0445C18.9227 14.8153 18.3661 14.4933 17.9355 14.0786L18.5026 13.1946C18.9017 13.5657 19.3848 13.8549 19.9519 14.0623C20.5295 14.2696 21.1333 14.3733 21.7634 14.3733C22.8136 14.3733 23.5855 14.1168 24.0791 13.6039C24.5727 13.1019 24.8195 12.3161 24.8195 11.2465V10.1497C24.4729 10.6954 24.0161 11.1101 23.449 11.3939C22.8924 11.6776 22.2728 11.8195 21.5901 11.8195C20.813 11.8195 20.1041 11.6449 19.4635 11.2956C18.8334 10.9355 18.3346 10.4389 17.967 9.80593C17.6099 9.16202 17.4314 8.43626 17.4314 7.62865C17.4314 6.82104 17.6099 6.10074 17.967 5.46774C18.3346 4.83475 18.8334 4.34364 19.4635 3.9944C20.0936 3.64516 20.8025 3.47055 21.5901 3.47055C22.2938 3.47055 22.9291 3.61788 23.4962 3.91255C24.0633 4.20722 24.5202 4.63285 24.8667 5.18945V3.53603H25.9379ZM21.7004 10.7882C22.299 10.7882 22.8399 10.6572 23.323 10.3953C23.806 10.1224 24.1789 9.7459 24.4414 9.2657C24.7144 8.7855 24.851 8.23982 24.851 7.62865C24.851 7.01749 24.7144 6.47726 24.4414 6.00797C24.1789 5.52777 23.806 5.15671 23.323 4.89478C22.8504 4.62194 22.3095 4.48552 21.7004 4.48552C21.1018 4.48552 20.561 4.61648 20.0779 4.87841C19.6053 5.14034 19.2325 5.5114 18.9594 5.9916C18.6969 6.4718 18.5656 7.01749 18.5656 7.62865C18.5656 8.23982 18.6969 8.7855 18.9594 9.2657C19.2325 9.7459 19.6053 10.1224 20.0779 10.3953C20.561 10.6572 21.1018 10.7882 21.7004 10.7882Z" fill="#D6D6D6"/>
<path d="M33.2873 3.47055C34.327 3.47055 35.1514 3.78704 35.7605 4.42003C36.3801 5.04211 36.6899 5.9534 36.6899 7.15391V12.1469H35.5715V7.2685C35.5715 6.37358 35.3562 5.69148 34.9256 5.22219C34.495 4.7529 33.8807 4.51826 33.0825 4.51826C32.1899 4.51826 31.481 4.79656 30.9559 5.35315C30.4413 5.89884 30.184 6.65733 30.184 7.62865V12.1469H29.0656V0H30.184V5.04211C30.4886 4.54008 30.9087 4.15265 31.4443 3.87981C31.9799 3.60697 32.5942 3.47055 33.2873 3.47055Z" fill="#D6D6D6"/>
<path d="M7.53516 262H8.6979V275.116H7.53516V262Z" fill="#D6D6D6"/>
<path d="M15.4542 275.204C14.6244 275.204 13.8766 275.004 13.2106 274.603C12.5446 274.191 12.0205 273.625 11.6384 272.906C11.2563 272.187 11.0652 271.374 11.0652 270.467C11.0652 269.559 11.2563 268.746 11.6384 268.028C12.0205 267.309 12.5446 266.749 13.2106 266.348C13.8766 265.948 14.6244 265.747 15.4542 265.747C16.2839 265.747 17.0318 265.948 17.6978 266.348C18.3638 266.749 18.8824 267.309 19.2536 268.028C19.6357 268.746 19.8267 269.559 19.8267 270.467C19.8267 271.374 19.6357 272.187 19.2536 272.906C18.8824 273.625 18.3638 274.191 17.6978 274.603C17.0318 275.004 16.2839 275.204 15.4542 275.204ZM15.4542 274.09C16.0656 274.09 16.6115 273.943 17.0918 273.648C17.5831 273.342 17.9653 272.912 18.2382 272.358C18.5111 271.804 18.6476 271.174 18.6476 270.467C18.6476 269.76 18.5111 269.129 18.2382 268.575C17.9653 268.022 17.5831 267.597 17.0918 267.303C16.6115 266.996 16.0656 266.843 15.4542 266.843C14.8428 266.843 14.2914 266.996 13.8001 267.303C13.3197 267.597 12.9376 268.022 12.6538 268.575C12.3808 269.129 12.2443 269.76 12.2443 270.467C12.2443 271.174 12.3808 271.804 12.6538 272.358C12.9376 272.912 13.3197 273.342 13.8001 273.648C14.2914 273.943 14.8428 274.09 15.4542 274.09Z" fill="#D6D6D6"/>
<path d="M34.6035 265.818L31.3445 275.116H30.2473L27.5288 267.497L24.8102 275.116H23.713L20.4704 265.818H21.584L24.2862 273.719L27.0538 265.818H28.0528L30.8041 273.719L33.539 265.818H34.6035Z" fill="#D6D6D6"/>
<defs>
<filter id="filter0_i_2126_2318" x="0" y="24.526" width="39.6113" height="237.671" filterUnits="userSpaceOnUse" color-interpolation-filters="sRGB">
<feFlood flood-opacity="0" result="BackgroundImageFix"/>
<feBlend mode="normal" in="SourceGraphic" in2="BackgroundImageFix" result="shape"/>
<feColorMatrix in="SourceAlpha" type="matrix" values="0 0 0 0 0 0 0 0 0 0 0 0 0 0 0 0 0 0 127 0" result="hardAlpha"/>
<feOffset dy="8.80265"/>
<feGaussianBlur stdDeviation="4.40132"/>
<feComposite in2="hardAlpha" operator="arithmetic" k2="-1" k3="1"/>
<feColorMatrix type="matrix" values="0 0 0 0 0 0 0 0 0 0 0 0 0 0 0 0 0 0 1 0"/>
<feBlend mode="normal" in2="shape" result="effect1_innerShadow_2126_2318"/>
</filter>
</defs>
</svg>
