<svg width="24" height="24" viewBox="0 0 24 24" fill="none" xmlns="http://www.w3.org/2000/svg">
<path d="M4.47618 11.9995C4.47618 13.2354 3.47417 14.2377 2.23735 14.2377C1.00201 14.2377 0 13.2355 0 11.9995C0 10.764 1.00201 9.76199 2.23735 9.76199C3.47417 9.76199 4.47618 10.764 4.47618 11.9995ZM17.2084 22.8812C17.8265 23.9507 19.1946 24.3176 20.265 23.7003C21.3353 23.0822 21.702 21.7134 21.084 20.643C20.466 19.5727 19.0978 19.2067 18.0275 19.8247C16.9571 20.4428 16.5904 21.8109 17.2084 22.8812ZM21.0839 3.35659C21.7019 2.28605 21.3359 0.91758 20.2649 0.300214C19.1952 -0.317766 17.8265 0.0489449 17.2083 1.11899C16.5903 2.18928 16.957 3.55763 18.0274 4.17561C19.0978 4.79359 20.4667 4.42688 21.0839 3.35659ZM13.51 5.61789C16.8446 5.61789 19.581 8.17406 19.8667 11.4347L23.1055 11.3836C22.9517 8.9609 21.9008 6.78201 20.2815 5.1754C19.4242 5.50613 18.4296 5.46118 17.5715 4.9654C16.7128 4.46961 16.1765 3.63033 16.0347 2.72105C15.2298 2.50244 14.3831 2.38541 13.51 2.38541C11.9784 2.38541 10.5307 2.74352 9.24514 3.38054L10.821 6.21045C11.6377 5.83096 12.5498 5.61789 13.51 5.61789ZM7.12765 11.9995C7.12765 9.84083 8.20027 7.93187 9.84138 6.77758L8.17853 3.9979C6.25238 5.28421 4.81759 7.24635 4.21226 9.54683C4.92861 10.1237 5.38755 11.0079 5.38755 11.9996C5.38755 12.9919 4.92849 13.8761 4.21226 14.4531C4.81759 16.7534 6.25238 18.7156 8.17853 20.0026L9.84138 17.2229C8.20027 16.0678 7.12765 14.1596 7.12765 11.9995ZM13.51 18.3823C12.55 18.3823 11.6378 18.1693 10.821 17.7891L9.24514 20.619C10.5307 21.2565 11.9783 21.6143 13.51 21.6143C14.383 21.6143 15.2298 21.4981 16.0347 21.2791C16.1764 20.3692 16.7127 19.5299 17.5715 19.035C18.4296 18.5392 19.4242 18.4942 20.2815 18.8249C21.901 17.2175 22.9517 15.0386 23.1055 12.616L19.8667 12.5657C19.5808 15.8255 16.8446 18.3823 13.51 18.3823Z" fill="white" fill-opacity="0.8"/>
</svg>
